%TF.GenerationSoftware,KiCad,Pcbnew,8.0.2*%
%TF.CreationDate,2024-05-10T16:30:55+02:00*%
%TF.ProjectId,InterfaceS88GleisboxRPi,496e7465-7266-4616-9365-533838476c65,2.0*%
%TF.SameCoordinates,Original*%
%TF.FileFunction,Soldermask,Bot*%
%TF.FilePolarity,Negative*%
%FSLAX46Y46*%
G04 Gerber Fmt 4.6, Leading zero omitted, Abs format (unit mm)*
G04 Created by KiCad (PCBNEW 8.0.2) date 2024-05-10 16:30:55*
%MOMM*%
%LPD*%
G01*
G04 APERTURE LIST*
%ADD10C,2.000000*%
%ADD11C,6.200000*%
%ADD12R,1.600000X1.600000*%
%ADD13O,1.600000X1.600000*%
%ADD14R,2.600000X2.600000*%
%ADD15C,2.600000*%
%ADD16R,1.500000X1.500000*%
%ADD17C,1.650000*%
%ADD18C,3.450000*%
%ADD19C,2.300000*%
%ADD20C,3.251200*%
%ADD21C,1.397000*%
%ADD22O,1.700000X1.700000*%
%ADD23R,1.700000X1.700000*%
G04 APERTURE END LIST*
D10*
%TO.C,SW1*%
X94472000Y-63894000D03*
X94472000Y-57394000D03*
X98972000Y-63894000D03*
X98972000Y-57394000D03*
%TD*%
D11*
%TO.C,H2*%
X152000000Y-51800000D03*
%TD*%
%TO.C,*%
X94000000Y-51800000D03*
%TD*%
%TO.C,*%
X94000000Y-100800000D03*
%TD*%
%TO.C,H1*%
X152000000Y-100800000D03*
%TD*%
D12*
%TO.C,U6*%
X120272000Y-65044000D03*
D13*
X120272000Y-62504000D03*
X120272000Y-59964000D03*
X120272000Y-57424000D03*
X112652000Y-57424000D03*
X112652000Y-59964000D03*
X112652000Y-62504000D03*
X112652000Y-65044000D03*
%TD*%
D12*
%TO.C,U7*%
X120272000Y-78544000D03*
D13*
X120272000Y-76004000D03*
X120272000Y-73464000D03*
X120272000Y-70924000D03*
X112652000Y-70924000D03*
X112652000Y-73464000D03*
X112652000Y-76004000D03*
X112652000Y-78544000D03*
%TD*%
D12*
%TO.C,U5*%
X109472000Y-65044000D03*
D13*
X109472000Y-62504000D03*
X109472000Y-59964000D03*
X109472000Y-57424000D03*
X101852000Y-57424000D03*
X101852000Y-59964000D03*
X101852000Y-62504000D03*
X101852000Y-65044000D03*
%TD*%
D14*
%TO.C,J7*%
X121539000Y-90052000D03*
D15*
X121539000Y-96052000D03*
X126239000Y-93052000D03*
%TD*%
D12*
%TO.C,U8*%
X109472000Y-78624000D03*
D13*
X109472000Y-76084000D03*
X109472000Y-73544000D03*
X109472000Y-71004000D03*
X101852000Y-71004000D03*
X101852000Y-73544000D03*
X101852000Y-76084000D03*
X101852000Y-78624000D03*
%TD*%
D16*
%TO.C,J2*%
X136736000Y-95030000D03*
D17*
X138736000Y-95030000D03*
X140736000Y-95030000D03*
X134736000Y-95030000D03*
X136736000Y-92530000D03*
X138736000Y-92530000D03*
X142736000Y-95030000D03*
X134736000Y-92530000D03*
X140736000Y-92530000D03*
X142736000Y-92530000D03*
D18*
X138736000Y-98830000D03*
X145986000Y-98030000D03*
X131486000Y-98030000D03*
%TD*%
D19*
%TO.C,Y1*%
X146022000Y-67044000D03*
X141122000Y-67044000D03*
%TD*%
D20*
%TO.C,J4*%
X112637000Y-95754000D03*
X101207000Y-95754000D03*
D21*
X102477000Y-89394000D03*
X103747000Y-86854000D03*
X105017000Y-89394000D03*
X106287000Y-86854000D03*
X107557000Y-89394000D03*
X108827000Y-86854000D03*
X110097000Y-89394000D03*
X111367000Y-86854000D03*
%TD*%
D22*
%TO.C,J1*%
X147160000Y-50560000D03*
X147160000Y-53100000D03*
X144620000Y-50560000D03*
X144620000Y-53100000D03*
X142080000Y-50560000D03*
X142080000Y-53100000D03*
X139540000Y-50560000D03*
X139540000Y-53100000D03*
X137000000Y-50560000D03*
X137000000Y-53100000D03*
X134460000Y-50560000D03*
X134460000Y-53100000D03*
X131920000Y-50560000D03*
X131920000Y-53100000D03*
X129380000Y-50560000D03*
X129380000Y-53100000D03*
X126840000Y-50560000D03*
X126840000Y-53100000D03*
X124300000Y-50560000D03*
X124300000Y-53100000D03*
X121760000Y-50560000D03*
X121760000Y-53100000D03*
X119220000Y-50560000D03*
X119220000Y-53100000D03*
X116680000Y-50560000D03*
X116680000Y-53100000D03*
X114140000Y-50560000D03*
X114140000Y-53100000D03*
X111600000Y-50560000D03*
X111600000Y-53100000D03*
X109060000Y-50560000D03*
X109060000Y-53100000D03*
X106520000Y-50560000D03*
X106520000Y-53100000D03*
X103980000Y-50560000D03*
X103980000Y-53100000D03*
X101440000Y-50560000D03*
X101440000Y-53100000D03*
X98900000Y-50560000D03*
D23*
X98900000Y-53100000D03*
%TD*%
M02*
