%TF.GenerationSoftware,KiCad,Pcbnew,8.0.2*%
%TF.CreationDate,2024-05-10T16:30:55+02:00*%
%TF.ProjectId,InterfaceS88GleisboxRPi,496e7465-7266-4616-9365-533838476c65,2.0*%
%TF.SameCoordinates,Original*%
%TF.FileFunction,Legend,Bot*%
%TF.FilePolarity,Positive*%
%FSLAX46Y46*%
G04 Gerber Fmt 4.6, Leading zero omitted, Abs format (unit mm)*
G04 Created by KiCad (PCBNEW 8.0.2) date 2024-05-10 16:30:55*
%MOMM*%
%LPD*%
G01*
G04 APERTURE LIST*
%ADD10C,0.300000*%
%ADD11C,0.120000*%
%ADD12C,2.000000*%
%ADD13C,6.200000*%
%ADD14R,1.600000X1.600000*%
%ADD15O,1.600000X1.600000*%
%ADD16R,2.600000X2.600000*%
%ADD17C,2.600000*%
%ADD18R,1.500000X1.500000*%
%ADD19C,1.650000*%
%ADD20C,3.450000*%
%ADD21C,2.300000*%
%ADD22C,3.251200*%
%ADD23C,1.397000*%
%ADD24O,1.700000X1.700000*%
%ADD25R,1.700000X1.700000*%
G04 APERTURE END LIST*
D10*
X129263412Y-56654510D02*
X127763412Y-56654510D01*
X128263412Y-57368796D02*
X129263412Y-57368796D01*
X128406269Y-57368796D02*
X128334841Y-57440225D01*
X128334841Y-57440225D02*
X128263412Y-57583082D01*
X128263412Y-57583082D02*
X128263412Y-57797368D01*
X128263412Y-57797368D02*
X128334841Y-57940225D01*
X128334841Y-57940225D02*
X128477698Y-58011654D01*
X128477698Y-58011654D02*
X129263412Y-58011654D01*
X128263412Y-58511654D02*
X128263412Y-59083082D01*
X127763412Y-58725939D02*
X129049126Y-58725939D01*
X129049126Y-58725939D02*
X129191984Y-58797368D01*
X129191984Y-58797368D02*
X129263412Y-58940225D01*
X129263412Y-58940225D02*
X129263412Y-59083082D01*
X129191984Y-60154511D02*
X129263412Y-60011654D01*
X129263412Y-60011654D02*
X129263412Y-59725940D01*
X129263412Y-59725940D02*
X129191984Y-59583082D01*
X129191984Y-59583082D02*
X129049126Y-59511654D01*
X129049126Y-59511654D02*
X128477698Y-59511654D01*
X128477698Y-59511654D02*
X128334841Y-59583082D01*
X128334841Y-59583082D02*
X128263412Y-59725940D01*
X128263412Y-59725940D02*
X128263412Y-60011654D01*
X128263412Y-60011654D02*
X128334841Y-60154511D01*
X128334841Y-60154511D02*
X128477698Y-60225940D01*
X128477698Y-60225940D02*
X128620555Y-60225940D01*
X128620555Y-60225940D02*
X128763412Y-59511654D01*
X129263412Y-60868796D02*
X128263412Y-60868796D01*
X128549126Y-60868796D02*
X128406269Y-60940225D01*
X128406269Y-60940225D02*
X128334841Y-61011654D01*
X128334841Y-61011654D02*
X128263412Y-61154511D01*
X128263412Y-61154511D02*
X128263412Y-61297368D01*
X128263412Y-61583082D02*
X128263412Y-62154510D01*
X129263412Y-61797367D02*
X127977698Y-61797367D01*
X127977698Y-61797367D02*
X127834841Y-61868796D01*
X127834841Y-61868796D02*
X127763412Y-62011653D01*
X127763412Y-62011653D02*
X127763412Y-62154510D01*
X129263412Y-63297368D02*
X128477698Y-63297368D01*
X128477698Y-63297368D02*
X128334841Y-63225939D01*
X128334841Y-63225939D02*
X128263412Y-63083082D01*
X128263412Y-63083082D02*
X128263412Y-62797368D01*
X128263412Y-62797368D02*
X128334841Y-62654510D01*
X129191984Y-63297368D02*
X129263412Y-63154510D01*
X129263412Y-63154510D02*
X129263412Y-62797368D01*
X129263412Y-62797368D02*
X129191984Y-62654510D01*
X129191984Y-62654510D02*
X129049126Y-62583082D01*
X129049126Y-62583082D02*
X128906269Y-62583082D01*
X128906269Y-62583082D02*
X128763412Y-62654510D01*
X128763412Y-62654510D02*
X128691984Y-62797368D01*
X128691984Y-62797368D02*
X128691984Y-63154510D01*
X128691984Y-63154510D02*
X128620555Y-63297368D01*
X129191984Y-64654511D02*
X129263412Y-64511653D01*
X129263412Y-64511653D02*
X129263412Y-64225939D01*
X129263412Y-64225939D02*
X129191984Y-64083082D01*
X129191984Y-64083082D02*
X129120555Y-64011653D01*
X129120555Y-64011653D02*
X128977698Y-63940225D01*
X128977698Y-63940225D02*
X128549126Y-63940225D01*
X128549126Y-63940225D02*
X128406269Y-64011653D01*
X128406269Y-64011653D02*
X128334841Y-64083082D01*
X128334841Y-64083082D02*
X128263412Y-64225939D01*
X128263412Y-64225939D02*
X128263412Y-64511653D01*
X128263412Y-64511653D02*
X128334841Y-64654511D01*
X129191984Y-65868796D02*
X129263412Y-65725939D01*
X129263412Y-65725939D02*
X129263412Y-65440225D01*
X129263412Y-65440225D02*
X129191984Y-65297367D01*
X129191984Y-65297367D02*
X129049126Y-65225939D01*
X129049126Y-65225939D02*
X128477698Y-65225939D01*
X128477698Y-65225939D02*
X128334841Y-65297367D01*
X128334841Y-65297367D02*
X128263412Y-65440225D01*
X128263412Y-65440225D02*
X128263412Y-65725939D01*
X128263412Y-65725939D02*
X128334841Y-65868796D01*
X128334841Y-65868796D02*
X128477698Y-65940225D01*
X128477698Y-65940225D02*
X128620555Y-65940225D01*
X128620555Y-65940225D02*
X128763412Y-65225939D01*
X129191984Y-67654510D02*
X129263412Y-67868796D01*
X129263412Y-67868796D02*
X129263412Y-68225938D01*
X129263412Y-68225938D02*
X129191984Y-68368796D01*
X129191984Y-68368796D02*
X129120555Y-68440224D01*
X129120555Y-68440224D02*
X128977698Y-68511653D01*
X128977698Y-68511653D02*
X128834841Y-68511653D01*
X128834841Y-68511653D02*
X128691984Y-68440224D01*
X128691984Y-68440224D02*
X128620555Y-68368796D01*
X128620555Y-68368796D02*
X128549126Y-68225938D01*
X128549126Y-68225938D02*
X128477698Y-67940224D01*
X128477698Y-67940224D02*
X128406269Y-67797367D01*
X128406269Y-67797367D02*
X128334841Y-67725938D01*
X128334841Y-67725938D02*
X128191984Y-67654510D01*
X128191984Y-67654510D02*
X128049126Y-67654510D01*
X128049126Y-67654510D02*
X127906269Y-67725938D01*
X127906269Y-67725938D02*
X127834841Y-67797367D01*
X127834841Y-67797367D02*
X127763412Y-67940224D01*
X127763412Y-67940224D02*
X127763412Y-68297367D01*
X127763412Y-68297367D02*
X127834841Y-68511653D01*
X128406269Y-69368795D02*
X128334841Y-69225938D01*
X128334841Y-69225938D02*
X128263412Y-69154509D01*
X128263412Y-69154509D02*
X128120555Y-69083081D01*
X128120555Y-69083081D02*
X128049126Y-69083081D01*
X128049126Y-69083081D02*
X127906269Y-69154509D01*
X127906269Y-69154509D02*
X127834841Y-69225938D01*
X127834841Y-69225938D02*
X127763412Y-69368795D01*
X127763412Y-69368795D02*
X127763412Y-69654509D01*
X127763412Y-69654509D02*
X127834841Y-69797367D01*
X127834841Y-69797367D02*
X127906269Y-69868795D01*
X127906269Y-69868795D02*
X128049126Y-69940224D01*
X128049126Y-69940224D02*
X128120555Y-69940224D01*
X128120555Y-69940224D02*
X128263412Y-69868795D01*
X128263412Y-69868795D02*
X128334841Y-69797367D01*
X128334841Y-69797367D02*
X128406269Y-69654509D01*
X128406269Y-69654509D02*
X128406269Y-69368795D01*
X128406269Y-69368795D02*
X128477698Y-69225938D01*
X128477698Y-69225938D02*
X128549126Y-69154509D01*
X128549126Y-69154509D02*
X128691984Y-69083081D01*
X128691984Y-69083081D02*
X128977698Y-69083081D01*
X128977698Y-69083081D02*
X129120555Y-69154509D01*
X129120555Y-69154509D02*
X129191984Y-69225938D01*
X129191984Y-69225938D02*
X129263412Y-69368795D01*
X129263412Y-69368795D02*
X129263412Y-69654509D01*
X129263412Y-69654509D02*
X129191984Y-69797367D01*
X129191984Y-69797367D02*
X129120555Y-69868795D01*
X129120555Y-69868795D02*
X128977698Y-69940224D01*
X128977698Y-69940224D02*
X128691984Y-69940224D01*
X128691984Y-69940224D02*
X128549126Y-69868795D01*
X128549126Y-69868795D02*
X128477698Y-69797367D01*
X128477698Y-69797367D02*
X128406269Y-69654509D01*
X128406269Y-70797366D02*
X128334841Y-70654509D01*
X128334841Y-70654509D02*
X128263412Y-70583080D01*
X128263412Y-70583080D02*
X128120555Y-70511652D01*
X128120555Y-70511652D02*
X128049126Y-70511652D01*
X128049126Y-70511652D02*
X127906269Y-70583080D01*
X127906269Y-70583080D02*
X127834841Y-70654509D01*
X127834841Y-70654509D02*
X127763412Y-70797366D01*
X127763412Y-70797366D02*
X127763412Y-71083080D01*
X127763412Y-71083080D02*
X127834841Y-71225938D01*
X127834841Y-71225938D02*
X127906269Y-71297366D01*
X127906269Y-71297366D02*
X128049126Y-71368795D01*
X128049126Y-71368795D02*
X128120555Y-71368795D01*
X128120555Y-71368795D02*
X128263412Y-71297366D01*
X128263412Y-71297366D02*
X128334841Y-71225938D01*
X128334841Y-71225938D02*
X128406269Y-71083080D01*
X128406269Y-71083080D02*
X128406269Y-70797366D01*
X128406269Y-70797366D02*
X128477698Y-70654509D01*
X128477698Y-70654509D02*
X128549126Y-70583080D01*
X128549126Y-70583080D02*
X128691984Y-70511652D01*
X128691984Y-70511652D02*
X128977698Y-70511652D01*
X128977698Y-70511652D02*
X129120555Y-70583080D01*
X129120555Y-70583080D02*
X129191984Y-70654509D01*
X129191984Y-70654509D02*
X129263412Y-70797366D01*
X129263412Y-70797366D02*
X129263412Y-71083080D01*
X129263412Y-71083080D02*
X129191984Y-71225938D01*
X129191984Y-71225938D02*
X129120555Y-71297366D01*
X129120555Y-71297366D02*
X128977698Y-71368795D01*
X128977698Y-71368795D02*
X128691984Y-71368795D01*
X128691984Y-71368795D02*
X128549126Y-71297366D01*
X128549126Y-71297366D02*
X128477698Y-71225938D01*
X128477698Y-71225938D02*
X128406269Y-71083080D01*
X128691984Y-73154508D02*
X128691984Y-74297366D01*
X127834841Y-76940223D02*
X127763412Y-76797366D01*
X127763412Y-76797366D02*
X127763412Y-76583080D01*
X127763412Y-76583080D02*
X127834841Y-76368794D01*
X127834841Y-76368794D02*
X127977698Y-76225937D01*
X127977698Y-76225937D02*
X128120555Y-76154508D01*
X128120555Y-76154508D02*
X128406269Y-76083080D01*
X128406269Y-76083080D02*
X128620555Y-76083080D01*
X128620555Y-76083080D02*
X128906269Y-76154508D01*
X128906269Y-76154508D02*
X129049126Y-76225937D01*
X129049126Y-76225937D02*
X129191984Y-76368794D01*
X129191984Y-76368794D02*
X129263412Y-76583080D01*
X129263412Y-76583080D02*
X129263412Y-76725937D01*
X129263412Y-76725937D02*
X129191984Y-76940223D01*
X129191984Y-76940223D02*
X129120555Y-77011651D01*
X129120555Y-77011651D02*
X128620555Y-77011651D01*
X128620555Y-77011651D02*
X128620555Y-76725937D01*
X129263412Y-77868794D02*
X129191984Y-77725937D01*
X129191984Y-77725937D02*
X129049126Y-77654508D01*
X129049126Y-77654508D02*
X127763412Y-77654508D01*
X129191984Y-79011651D02*
X129263412Y-78868794D01*
X129263412Y-78868794D02*
X129263412Y-78583080D01*
X129263412Y-78583080D02*
X129191984Y-78440222D01*
X129191984Y-78440222D02*
X129049126Y-78368794D01*
X129049126Y-78368794D02*
X128477698Y-78368794D01*
X128477698Y-78368794D02*
X128334841Y-78440222D01*
X128334841Y-78440222D02*
X128263412Y-78583080D01*
X128263412Y-78583080D02*
X128263412Y-78868794D01*
X128263412Y-78868794D02*
X128334841Y-79011651D01*
X128334841Y-79011651D02*
X128477698Y-79083080D01*
X128477698Y-79083080D02*
X128620555Y-79083080D01*
X128620555Y-79083080D02*
X128763412Y-78368794D01*
X129263412Y-79725936D02*
X128263412Y-79725936D01*
X127763412Y-79725936D02*
X127834841Y-79654508D01*
X127834841Y-79654508D02*
X127906269Y-79725936D01*
X127906269Y-79725936D02*
X127834841Y-79797365D01*
X127834841Y-79797365D02*
X127763412Y-79725936D01*
X127763412Y-79725936D02*
X127906269Y-79725936D01*
X129191984Y-80368794D02*
X129263412Y-80511651D01*
X129263412Y-80511651D02*
X129263412Y-80797365D01*
X129263412Y-80797365D02*
X129191984Y-80940222D01*
X129191984Y-80940222D02*
X129049126Y-81011651D01*
X129049126Y-81011651D02*
X128977698Y-81011651D01*
X128977698Y-81011651D02*
X128834841Y-80940222D01*
X128834841Y-80940222D02*
X128763412Y-80797365D01*
X128763412Y-80797365D02*
X128763412Y-80583080D01*
X128763412Y-80583080D02*
X128691984Y-80440222D01*
X128691984Y-80440222D02*
X128549126Y-80368794D01*
X128549126Y-80368794D02*
X128477698Y-80368794D01*
X128477698Y-80368794D02*
X128334841Y-80440222D01*
X128334841Y-80440222D02*
X128263412Y-80583080D01*
X128263412Y-80583080D02*
X128263412Y-80797365D01*
X128263412Y-80797365D02*
X128334841Y-80940222D01*
X129263412Y-81654508D02*
X127763412Y-81654508D01*
X128334841Y-81654508D02*
X128263412Y-81797366D01*
X128263412Y-81797366D02*
X128263412Y-82083080D01*
X128263412Y-82083080D02*
X128334841Y-82225937D01*
X128334841Y-82225937D02*
X128406269Y-82297366D01*
X128406269Y-82297366D02*
X128549126Y-82368794D01*
X128549126Y-82368794D02*
X128977698Y-82368794D01*
X128977698Y-82368794D02*
X129120555Y-82297366D01*
X129120555Y-82297366D02*
X129191984Y-82225937D01*
X129191984Y-82225937D02*
X129263412Y-82083080D01*
X129263412Y-82083080D02*
X129263412Y-81797366D01*
X129263412Y-81797366D02*
X129191984Y-81654508D01*
X129263412Y-83225937D02*
X129191984Y-83083080D01*
X129191984Y-83083080D02*
X129120555Y-83011651D01*
X129120555Y-83011651D02*
X128977698Y-82940223D01*
X128977698Y-82940223D02*
X128549126Y-82940223D01*
X128549126Y-82940223D02*
X128406269Y-83011651D01*
X128406269Y-83011651D02*
X128334841Y-83083080D01*
X128334841Y-83083080D02*
X128263412Y-83225937D01*
X128263412Y-83225937D02*
X128263412Y-83440223D01*
X128263412Y-83440223D02*
X128334841Y-83583080D01*
X128334841Y-83583080D02*
X128406269Y-83654509D01*
X128406269Y-83654509D02*
X128549126Y-83725937D01*
X128549126Y-83725937D02*
X128977698Y-83725937D01*
X128977698Y-83725937D02*
X129120555Y-83654509D01*
X129120555Y-83654509D02*
X129191984Y-83583080D01*
X129191984Y-83583080D02*
X129263412Y-83440223D01*
X129263412Y-83440223D02*
X129263412Y-83225937D01*
X129263412Y-84225937D02*
X128263412Y-85011652D01*
X128263412Y-84225937D02*
X129263412Y-85011652D01*
X128691984Y-86725937D02*
X128691984Y-87868795D01*
X129263412Y-90583080D02*
X128549126Y-90083080D01*
X129263412Y-89725937D02*
X127763412Y-89725937D01*
X127763412Y-89725937D02*
X127763412Y-90297366D01*
X127763412Y-90297366D02*
X127834841Y-90440223D01*
X127834841Y-90440223D02*
X127906269Y-90511652D01*
X127906269Y-90511652D02*
X128049126Y-90583080D01*
X128049126Y-90583080D02*
X128263412Y-90583080D01*
X128263412Y-90583080D02*
X128406269Y-90511652D01*
X128406269Y-90511652D02*
X128477698Y-90440223D01*
X128477698Y-90440223D02*
X128549126Y-90297366D01*
X128549126Y-90297366D02*
X128549126Y-89725937D01*
X129263412Y-91225937D02*
X127763412Y-91225937D01*
X127763412Y-91225937D02*
X127763412Y-91797366D01*
X127763412Y-91797366D02*
X127834841Y-91940223D01*
X127834841Y-91940223D02*
X127906269Y-92011652D01*
X127906269Y-92011652D02*
X128049126Y-92083080D01*
X128049126Y-92083080D02*
X128263412Y-92083080D01*
X128263412Y-92083080D02*
X128406269Y-92011652D01*
X128406269Y-92011652D02*
X128477698Y-91940223D01*
X128477698Y-91940223D02*
X128549126Y-91797366D01*
X128549126Y-91797366D02*
X128549126Y-91225937D01*
X129263412Y-92725937D02*
X128263412Y-92725937D01*
X127763412Y-92725937D02*
X127834841Y-92654509D01*
X127834841Y-92654509D02*
X127906269Y-92725937D01*
X127906269Y-92725937D02*
X127834841Y-92797366D01*
X127834841Y-92797366D02*
X127763412Y-92725937D01*
X127763412Y-92725937D02*
X127906269Y-92725937D01*
X131678328Y-56654510D02*
X130678328Y-56654510D01*
X130964042Y-56654510D02*
X130821185Y-56725939D01*
X130821185Y-56725939D02*
X130749757Y-56797368D01*
X130749757Y-56797368D02*
X130678328Y-56940225D01*
X130678328Y-56940225D02*
X130678328Y-57083082D01*
X130321185Y-57511653D02*
X130249757Y-57583081D01*
X130249757Y-57583081D02*
X130178328Y-57725939D01*
X130178328Y-57725939D02*
X130178328Y-58083081D01*
X130178328Y-58083081D02*
X130249757Y-58225939D01*
X130249757Y-58225939D02*
X130321185Y-58297367D01*
X130321185Y-58297367D02*
X130464042Y-58368796D01*
X130464042Y-58368796D02*
X130606900Y-58368796D01*
X130606900Y-58368796D02*
X130821185Y-58297367D01*
X130821185Y-58297367D02*
X131678328Y-57440224D01*
X131678328Y-57440224D02*
X131678328Y-58368796D01*
X131535471Y-59011652D02*
X131606900Y-59083081D01*
X131606900Y-59083081D02*
X131678328Y-59011652D01*
X131678328Y-59011652D02*
X131606900Y-58940224D01*
X131606900Y-58940224D02*
X131535471Y-59011652D01*
X131535471Y-59011652D02*
X131678328Y-59011652D01*
X130178328Y-60011653D02*
X130178328Y-60154510D01*
X130178328Y-60154510D02*
X130249757Y-60297367D01*
X130249757Y-60297367D02*
X130321185Y-60368796D01*
X130321185Y-60368796D02*
X130464042Y-60440224D01*
X130464042Y-60440224D02*
X130749757Y-60511653D01*
X130749757Y-60511653D02*
X131106900Y-60511653D01*
X131106900Y-60511653D02*
X131392614Y-60440224D01*
X131392614Y-60440224D02*
X131535471Y-60368796D01*
X131535471Y-60368796D02*
X131606900Y-60297367D01*
X131606900Y-60297367D02*
X131678328Y-60154510D01*
X131678328Y-60154510D02*
X131678328Y-60011653D01*
X131678328Y-60011653D02*
X131606900Y-59868796D01*
X131606900Y-59868796D02*
X131535471Y-59797367D01*
X131535471Y-59797367D02*
X131392614Y-59725938D01*
X131392614Y-59725938D02*
X131106900Y-59654510D01*
X131106900Y-59654510D02*
X130749757Y-59654510D01*
X130749757Y-59654510D02*
X130464042Y-59725938D01*
X130464042Y-59725938D02*
X130321185Y-59797367D01*
X130321185Y-59797367D02*
X130249757Y-59868796D01*
X130249757Y-59868796D02*
X130178328Y-60011653D01*
X131678328Y-63083081D02*
X131678328Y-62225938D01*
X131678328Y-62654509D02*
X130178328Y-62654509D01*
X130178328Y-62654509D02*
X130392614Y-62511652D01*
X130392614Y-62511652D02*
X130535471Y-62368795D01*
X130535471Y-62368795D02*
X130606900Y-62225938D01*
X130178328Y-64011652D02*
X130178328Y-64154509D01*
X130178328Y-64154509D02*
X130249757Y-64297366D01*
X130249757Y-64297366D02*
X130321185Y-64368795D01*
X130321185Y-64368795D02*
X130464042Y-64440223D01*
X130464042Y-64440223D02*
X130749757Y-64511652D01*
X130749757Y-64511652D02*
X131106900Y-64511652D01*
X131106900Y-64511652D02*
X131392614Y-64440223D01*
X131392614Y-64440223D02*
X131535471Y-64368795D01*
X131535471Y-64368795D02*
X131606900Y-64297366D01*
X131606900Y-64297366D02*
X131678328Y-64154509D01*
X131678328Y-64154509D02*
X131678328Y-64011652D01*
X131678328Y-64011652D02*
X131606900Y-63868795D01*
X131606900Y-63868795D02*
X131535471Y-63797366D01*
X131535471Y-63797366D02*
X131392614Y-63725937D01*
X131392614Y-63725937D02*
X131106900Y-63654509D01*
X131106900Y-63654509D02*
X130749757Y-63654509D01*
X130749757Y-63654509D02*
X130464042Y-63725937D01*
X130464042Y-63725937D02*
X130321185Y-63797366D01*
X130321185Y-63797366D02*
X130249757Y-63868795D01*
X130249757Y-63868795D02*
X130178328Y-64011652D01*
X131106900Y-65154508D02*
X131106900Y-66297366D01*
X130178328Y-67297366D02*
X130178328Y-67440223D01*
X130178328Y-67440223D02*
X130249757Y-67583080D01*
X130249757Y-67583080D02*
X130321185Y-67654509D01*
X130321185Y-67654509D02*
X130464042Y-67725937D01*
X130464042Y-67725937D02*
X130749757Y-67797366D01*
X130749757Y-67797366D02*
X131106900Y-67797366D01*
X131106900Y-67797366D02*
X131392614Y-67725937D01*
X131392614Y-67725937D02*
X131535471Y-67654509D01*
X131535471Y-67654509D02*
X131606900Y-67583080D01*
X131606900Y-67583080D02*
X131678328Y-67440223D01*
X131678328Y-67440223D02*
X131678328Y-67297366D01*
X131678328Y-67297366D02*
X131606900Y-67154509D01*
X131606900Y-67154509D02*
X131535471Y-67083080D01*
X131535471Y-67083080D02*
X131392614Y-67011651D01*
X131392614Y-67011651D02*
X131106900Y-66940223D01*
X131106900Y-66940223D02*
X130749757Y-66940223D01*
X130749757Y-66940223D02*
X130464042Y-67011651D01*
X130464042Y-67011651D02*
X130321185Y-67083080D01*
X130321185Y-67083080D02*
X130249757Y-67154509D01*
X130249757Y-67154509D02*
X130178328Y-67297366D01*
X130178328Y-69154508D02*
X130178328Y-68440222D01*
X130178328Y-68440222D02*
X130892614Y-68368794D01*
X130892614Y-68368794D02*
X130821185Y-68440222D01*
X130821185Y-68440222D02*
X130749757Y-68583080D01*
X130749757Y-68583080D02*
X130749757Y-68940222D01*
X130749757Y-68940222D02*
X130821185Y-69083080D01*
X130821185Y-69083080D02*
X130892614Y-69154508D01*
X130892614Y-69154508D02*
X131035471Y-69225937D01*
X131035471Y-69225937D02*
X131392614Y-69225937D01*
X131392614Y-69225937D02*
X131535471Y-69154508D01*
X131535471Y-69154508D02*
X131606900Y-69083080D01*
X131606900Y-69083080D02*
X131678328Y-68940222D01*
X131678328Y-68940222D02*
X131678328Y-68583080D01*
X131678328Y-68583080D02*
X131606900Y-68440222D01*
X131606900Y-68440222D02*
X131535471Y-68368794D01*
X131106900Y-69868793D02*
X131106900Y-71011651D01*
X130321185Y-71654508D02*
X130249757Y-71725936D01*
X130249757Y-71725936D02*
X130178328Y-71868794D01*
X130178328Y-71868794D02*
X130178328Y-72225936D01*
X130178328Y-72225936D02*
X130249757Y-72368794D01*
X130249757Y-72368794D02*
X130321185Y-72440222D01*
X130321185Y-72440222D02*
X130464042Y-72511651D01*
X130464042Y-72511651D02*
X130606900Y-72511651D01*
X130606900Y-72511651D02*
X130821185Y-72440222D01*
X130821185Y-72440222D02*
X131678328Y-71583079D01*
X131678328Y-71583079D02*
X131678328Y-72511651D01*
X130178328Y-73440222D02*
X130178328Y-73583079D01*
X130178328Y-73583079D02*
X130249757Y-73725936D01*
X130249757Y-73725936D02*
X130321185Y-73797365D01*
X130321185Y-73797365D02*
X130464042Y-73868793D01*
X130464042Y-73868793D02*
X130749757Y-73940222D01*
X130749757Y-73940222D02*
X131106900Y-73940222D01*
X131106900Y-73940222D02*
X131392614Y-73868793D01*
X131392614Y-73868793D02*
X131535471Y-73797365D01*
X131535471Y-73797365D02*
X131606900Y-73725936D01*
X131606900Y-73725936D02*
X131678328Y-73583079D01*
X131678328Y-73583079D02*
X131678328Y-73440222D01*
X131678328Y-73440222D02*
X131606900Y-73297365D01*
X131606900Y-73297365D02*
X131535471Y-73225936D01*
X131535471Y-73225936D02*
X131392614Y-73154507D01*
X131392614Y-73154507D02*
X131106900Y-73083079D01*
X131106900Y-73083079D02*
X130749757Y-73083079D01*
X130749757Y-73083079D02*
X130464042Y-73154507D01*
X130464042Y-73154507D02*
X130321185Y-73225936D01*
X130321185Y-73225936D02*
X130249757Y-73297365D01*
X130249757Y-73297365D02*
X130178328Y-73440222D01*
X130321185Y-74511650D02*
X130249757Y-74583078D01*
X130249757Y-74583078D02*
X130178328Y-74725936D01*
X130178328Y-74725936D02*
X130178328Y-75083078D01*
X130178328Y-75083078D02*
X130249757Y-75225936D01*
X130249757Y-75225936D02*
X130321185Y-75297364D01*
X130321185Y-75297364D02*
X130464042Y-75368793D01*
X130464042Y-75368793D02*
X130606900Y-75368793D01*
X130606900Y-75368793D02*
X130821185Y-75297364D01*
X130821185Y-75297364D02*
X131678328Y-74440221D01*
X131678328Y-74440221D02*
X131678328Y-75368793D01*
X130678328Y-76654507D02*
X131678328Y-76654507D01*
X130106900Y-76297364D02*
X131178328Y-75940221D01*
X131178328Y-75940221D02*
X131178328Y-76868792D01*
X132664673Y-57440225D02*
X132593244Y-57297368D01*
X132593244Y-57297368D02*
X132593244Y-57083082D01*
X132593244Y-57083082D02*
X132664673Y-56868796D01*
X132664673Y-56868796D02*
X132807530Y-56725939D01*
X132807530Y-56725939D02*
X132950387Y-56654510D01*
X132950387Y-56654510D02*
X133236101Y-56583082D01*
X133236101Y-56583082D02*
X133450387Y-56583082D01*
X133450387Y-56583082D02*
X133736101Y-56654510D01*
X133736101Y-56654510D02*
X133878958Y-56725939D01*
X133878958Y-56725939D02*
X134021816Y-56868796D01*
X134021816Y-56868796D02*
X134093244Y-57083082D01*
X134093244Y-57083082D02*
X134093244Y-57225939D01*
X134093244Y-57225939D02*
X134021816Y-57440225D01*
X134021816Y-57440225D02*
X133950387Y-57511653D01*
X133950387Y-57511653D02*
X133450387Y-57511653D01*
X133450387Y-57511653D02*
X133450387Y-57225939D01*
X133093244Y-58797368D02*
X134093244Y-58797368D01*
X133093244Y-58154510D02*
X133878958Y-58154510D01*
X133878958Y-58154510D02*
X134021816Y-58225939D01*
X134021816Y-58225939D02*
X134093244Y-58368796D01*
X134093244Y-58368796D02*
X134093244Y-58583082D01*
X134093244Y-58583082D02*
X134021816Y-58725939D01*
X134021816Y-58725939D02*
X133950387Y-58797368D01*
X134093244Y-59511653D02*
X133093244Y-59511653D01*
X132593244Y-59511653D02*
X132664673Y-59440225D01*
X132664673Y-59440225D02*
X132736101Y-59511653D01*
X132736101Y-59511653D02*
X132664673Y-59583082D01*
X132664673Y-59583082D02*
X132593244Y-59511653D01*
X132593244Y-59511653D02*
X132736101Y-59511653D01*
X134093244Y-60868797D02*
X132593244Y-60868797D01*
X134021816Y-60868797D02*
X134093244Y-60725939D01*
X134093244Y-60725939D02*
X134093244Y-60440225D01*
X134093244Y-60440225D02*
X134021816Y-60297368D01*
X134021816Y-60297368D02*
X133950387Y-60225939D01*
X133950387Y-60225939D02*
X133807530Y-60154511D01*
X133807530Y-60154511D02*
X133378958Y-60154511D01*
X133378958Y-60154511D02*
X133236101Y-60225939D01*
X133236101Y-60225939D02*
X133164673Y-60297368D01*
X133164673Y-60297368D02*
X133093244Y-60440225D01*
X133093244Y-60440225D02*
X133093244Y-60725939D01*
X133093244Y-60725939D02*
X133164673Y-60868797D01*
X134093244Y-61797368D02*
X134021816Y-61654511D01*
X134021816Y-61654511D02*
X133950387Y-61583082D01*
X133950387Y-61583082D02*
X133807530Y-61511654D01*
X133807530Y-61511654D02*
X133378958Y-61511654D01*
X133378958Y-61511654D02*
X133236101Y-61583082D01*
X133236101Y-61583082D02*
X133164673Y-61654511D01*
X133164673Y-61654511D02*
X133093244Y-61797368D01*
X133093244Y-61797368D02*
X133093244Y-62011654D01*
X133093244Y-62011654D02*
X133164673Y-62154511D01*
X133164673Y-62154511D02*
X133236101Y-62225940D01*
X133236101Y-62225940D02*
X133378958Y-62297368D01*
X133378958Y-62297368D02*
X133807530Y-62297368D01*
X133807530Y-62297368D02*
X133950387Y-62225940D01*
X133950387Y-62225940D02*
X134021816Y-62154511D01*
X134021816Y-62154511D02*
X134093244Y-62011654D01*
X134093244Y-62011654D02*
X134093244Y-61797368D01*
X134093244Y-64725940D02*
X132593244Y-64725940D01*
X134021816Y-64725940D02*
X134093244Y-64583082D01*
X134093244Y-64583082D02*
X134093244Y-64297368D01*
X134093244Y-64297368D02*
X134021816Y-64154511D01*
X134021816Y-64154511D02*
X133950387Y-64083082D01*
X133950387Y-64083082D02*
X133807530Y-64011654D01*
X133807530Y-64011654D02*
X133378958Y-64011654D01*
X133378958Y-64011654D02*
X133236101Y-64083082D01*
X133236101Y-64083082D02*
X133164673Y-64154511D01*
X133164673Y-64154511D02*
X133093244Y-64297368D01*
X133093244Y-64297368D02*
X133093244Y-64583082D01*
X133093244Y-64583082D02*
X133164673Y-64725940D01*
X134021816Y-66011654D02*
X134093244Y-65868797D01*
X134093244Y-65868797D02*
X134093244Y-65583083D01*
X134093244Y-65583083D02*
X134021816Y-65440225D01*
X134021816Y-65440225D02*
X133878958Y-65368797D01*
X133878958Y-65368797D02*
X133307530Y-65368797D01*
X133307530Y-65368797D02*
X133164673Y-65440225D01*
X133164673Y-65440225D02*
X133093244Y-65583083D01*
X133093244Y-65583083D02*
X133093244Y-65868797D01*
X133093244Y-65868797D02*
X133164673Y-66011654D01*
X133164673Y-66011654D02*
X133307530Y-66083083D01*
X133307530Y-66083083D02*
X133450387Y-66083083D01*
X133450387Y-66083083D02*
X133593244Y-65368797D01*
X134093244Y-67868796D02*
X132593244Y-67868796D01*
X133307530Y-67868796D02*
X133307530Y-68725939D01*
X134093244Y-68725939D02*
X132593244Y-68725939D01*
X134021816Y-70011654D02*
X134093244Y-69868797D01*
X134093244Y-69868797D02*
X134093244Y-69583083D01*
X134093244Y-69583083D02*
X134021816Y-69440225D01*
X134021816Y-69440225D02*
X133878958Y-69368797D01*
X133878958Y-69368797D02*
X133307530Y-69368797D01*
X133307530Y-69368797D02*
X133164673Y-69440225D01*
X133164673Y-69440225D02*
X133093244Y-69583083D01*
X133093244Y-69583083D02*
X133093244Y-69868797D01*
X133093244Y-69868797D02*
X133164673Y-70011654D01*
X133164673Y-70011654D02*
X133307530Y-70083083D01*
X133307530Y-70083083D02*
X133450387Y-70083083D01*
X133450387Y-70083083D02*
X133593244Y-69368797D01*
X134093244Y-70725939D02*
X132593244Y-70725939D01*
X133521816Y-70868797D02*
X134093244Y-71297368D01*
X133093244Y-71297368D02*
X133664673Y-70725939D01*
D11*
%TO.C,J4*%
X111748000Y-84325000D02*
G75*
G02*
X110986000Y-84325000I-381000J0D01*
G01*
X110986000Y-84325000D02*
G75*
G02*
X111748000Y-84325000I381000J0D01*
G01*
%TO.C,J1*%
X148490000Y-54430000D02*
X148490000Y-49230000D01*
X148490000Y-54430000D02*
X100170000Y-54430000D01*
X148490000Y-49230000D02*
X97570000Y-49230000D01*
X100170000Y-54430000D02*
X100170000Y-51830000D01*
X100170000Y-51830000D02*
X97570000Y-51830000D01*
X98900000Y-54430000D02*
X97570000Y-54430000D01*
X97570000Y-54430000D02*
X97570000Y-53100000D01*
X97570000Y-51830000D02*
X97570000Y-49230000D01*
%TD*%
%LPC*%
D12*
%TO.C,SW1*%
X94472000Y-63894000D03*
X94472000Y-57394000D03*
X98972000Y-63894000D03*
X98972000Y-57394000D03*
%TD*%
D13*
%TO.C,H2*%
X152000000Y-51800000D03*
%TD*%
%TO.C,*%
X94000000Y-51800000D03*
%TD*%
%TO.C,*%
X94000000Y-100800000D03*
%TD*%
%TO.C,H1*%
X152000000Y-100800000D03*
%TD*%
D14*
%TO.C,U6*%
X120272000Y-65044000D03*
D15*
X120272000Y-62504000D03*
X120272000Y-59964000D03*
X120272000Y-57424000D03*
X112652000Y-57424000D03*
X112652000Y-59964000D03*
X112652000Y-62504000D03*
X112652000Y-65044000D03*
%TD*%
D14*
%TO.C,U7*%
X120272000Y-78544000D03*
D15*
X120272000Y-76004000D03*
X120272000Y-73464000D03*
X120272000Y-70924000D03*
X112652000Y-70924000D03*
X112652000Y-73464000D03*
X112652000Y-76004000D03*
X112652000Y-78544000D03*
%TD*%
D14*
%TO.C,U5*%
X109472000Y-65044000D03*
D15*
X109472000Y-62504000D03*
X109472000Y-59964000D03*
X109472000Y-57424000D03*
X101852000Y-57424000D03*
X101852000Y-59964000D03*
X101852000Y-62504000D03*
X101852000Y-65044000D03*
%TD*%
D16*
%TO.C,J7*%
X121539000Y-90052000D03*
D17*
X121539000Y-96052000D03*
X126239000Y-93052000D03*
%TD*%
D14*
%TO.C,U8*%
X109472000Y-78624000D03*
D15*
X109472000Y-76084000D03*
X109472000Y-73544000D03*
X109472000Y-71004000D03*
X101852000Y-71004000D03*
X101852000Y-73544000D03*
X101852000Y-76084000D03*
X101852000Y-78624000D03*
%TD*%
D18*
%TO.C,J2*%
X136736000Y-95030000D03*
D19*
X138736000Y-95030000D03*
X140736000Y-95030000D03*
X134736000Y-95030000D03*
X136736000Y-92530000D03*
X138736000Y-92530000D03*
X142736000Y-95030000D03*
X134736000Y-92530000D03*
X140736000Y-92530000D03*
X142736000Y-92530000D03*
D20*
X138736000Y-98830000D03*
X145986000Y-98030000D03*
X131486000Y-98030000D03*
%TD*%
D21*
%TO.C,Y1*%
X146022000Y-67044000D03*
X141122000Y-67044000D03*
%TD*%
D22*
%TO.C,J4*%
X112637000Y-95754000D03*
X101207000Y-95754000D03*
D23*
X102477000Y-89394000D03*
X103747000Y-86854000D03*
X105017000Y-89394000D03*
X106287000Y-86854000D03*
X107557000Y-89394000D03*
X108827000Y-86854000D03*
X110097000Y-89394000D03*
X111367000Y-86854000D03*
%TD*%
D24*
%TO.C,J1*%
X147160000Y-50560000D03*
X147160000Y-53100000D03*
X144620000Y-50560000D03*
X144620000Y-53100000D03*
X142080000Y-50560000D03*
X142080000Y-53100000D03*
X139540000Y-50560000D03*
X139540000Y-53100000D03*
X137000000Y-50560000D03*
X137000000Y-53100000D03*
X134460000Y-50560000D03*
X134460000Y-53100000D03*
X131920000Y-50560000D03*
X131920000Y-53100000D03*
X129380000Y-50560000D03*
X129380000Y-53100000D03*
X126840000Y-50560000D03*
X126840000Y-53100000D03*
X124300000Y-50560000D03*
X124300000Y-53100000D03*
X121760000Y-50560000D03*
X121760000Y-53100000D03*
X119220000Y-50560000D03*
X119220000Y-53100000D03*
X116680000Y-50560000D03*
X116680000Y-53100000D03*
X114140000Y-50560000D03*
X114140000Y-53100000D03*
X111600000Y-50560000D03*
X111600000Y-53100000D03*
X109060000Y-50560000D03*
X109060000Y-53100000D03*
X106520000Y-50560000D03*
X106520000Y-53100000D03*
X103980000Y-50560000D03*
X103980000Y-53100000D03*
X101440000Y-50560000D03*
X101440000Y-53100000D03*
X98900000Y-50560000D03*
D25*
X98900000Y-53100000D03*
%TD*%
%LPD*%
M02*
