%TF.GenerationSoftware,KiCad,Pcbnew,8.0.2*%
%TF.CreationDate,2024-05-10T16:30:55+02:00*%
%TF.ProjectId,InterfaceS88GleisboxRPi,496e7465-7266-4616-9365-533838476c65,2.0*%
%TF.SameCoordinates,Original*%
%TF.FileFunction,Paste,Top*%
%TF.FilePolarity,Positive*%
%FSLAX46Y46*%
G04 Gerber Fmt 4.6, Leading zero omitted, Abs format (unit mm)*
G04 Created by KiCad (PCBNEW 8.0.2) date 2024-05-10 16:30:55*
%MOMM*%
%LPD*%
G01*
G04 APERTURE LIST*
G04 Aperture macros list*
%AMRoundRect*
0 Rectangle with rounded corners*
0 $1 Rounding radius*
0 $2 $3 $4 $5 $6 $7 $8 $9 X,Y pos of 4 corners*
0 Add a 4 corners polygon primitive as box body*
4,1,4,$2,$3,$4,$5,$6,$7,$8,$9,$2,$3,0*
0 Add four circle primitives for the rounded corners*
1,1,$1+$1,$2,$3*
1,1,$1+$1,$4,$5*
1,1,$1+$1,$6,$7*
1,1,$1+$1,$8,$9*
0 Add four rect primitives between the rounded corners*
20,1,$1+$1,$2,$3,$4,$5,0*
20,1,$1+$1,$4,$5,$6,$7,0*
20,1,$1+$1,$6,$7,$8,$9,0*
20,1,$1+$1,$8,$9,$2,$3,0*%
G04 Aperture macros list end*
%ADD10RoundRect,0.250000X0.450000X-0.262500X0.450000X0.262500X-0.450000X0.262500X-0.450000X-0.262500X0*%
%ADD11RoundRect,0.250000X0.262500X0.450000X-0.262500X0.450000X-0.262500X-0.450000X0.262500X-0.450000X0*%
%ADD12RoundRect,0.250000X-0.262500X-0.450000X0.262500X-0.450000X0.262500X0.450000X-0.262500X0.450000X0*%
%ADD13RoundRect,0.250000X0.475000X-0.250000X0.475000X0.250000X-0.475000X0.250000X-0.475000X-0.250000X0*%
%ADD14RoundRect,0.250000X-0.475000X0.250000X-0.475000X-0.250000X0.475000X-0.250000X0.475000X0.250000X0*%
%ADD15RoundRect,0.250000X-0.450000X0.262500X-0.450000X-0.262500X0.450000X-0.262500X0.450000X0.262500X0*%
%ADD16RoundRect,0.162500X-0.162500X1.012500X-0.162500X-1.012500X0.162500X-1.012500X0.162500X1.012500X0*%
%ADD17RoundRect,0.250000X-0.250000X-0.475000X0.250000X-0.475000X0.250000X0.475000X-0.250000X0.475000X0*%
%ADD18RoundRect,0.218750X0.256250X-0.218750X0.256250X0.218750X-0.256250X0.218750X-0.256250X-0.218750X0*%
%ADD19RoundRect,0.150000X0.150000X-0.875000X0.150000X0.875000X-0.150000X0.875000X-0.150000X-0.875000X0*%
%ADD20RoundRect,0.218750X-0.218750X-0.256250X0.218750X-0.256250X0.218750X0.256250X-0.218750X0.256250X0*%
%ADD21RoundRect,0.375000X0.625000X0.375000X-0.625000X0.375000X-0.625000X-0.375000X0.625000X-0.375000X0*%
%ADD22RoundRect,0.500000X0.500000X1.400000X-0.500000X1.400000X-0.500000X-1.400000X0.500000X-1.400000X0*%
G04 APERTURE END LIST*
D10*
%TO.C,R4*%
X126500000Y-62612500D03*
X126500000Y-60787500D03*
%TD*%
D11*
%TO.C,R5*%
X108484500Y-81344000D03*
X106659500Y-81344000D03*
%TD*%
D12*
%TO.C,R14*%
X115572000Y-81344000D03*
X113747000Y-81344000D03*
%TD*%
D13*
%TO.C,C3*%
X133592000Y-58467000D03*
X133592000Y-56567000D03*
%TD*%
D14*
%TO.C,C9*%
X97672000Y-89444000D03*
X97672000Y-91344000D03*
%TD*%
D15*
%TO.C,R17*%
X146442000Y-84531500D03*
X146442000Y-86356500D03*
%TD*%
D16*
%TO.C,U2*%
X148982000Y-72919000D03*
X146442000Y-72919000D03*
X143902000Y-72919000D03*
X141362000Y-72919000D03*
X141362000Y-81969000D03*
X143902000Y-81969000D03*
X146442000Y-81969000D03*
X148982000Y-81969000D03*
%TD*%
D10*
%TO.C,R16*%
X151626000Y-85885000D03*
X151626000Y-84060000D03*
%TD*%
D15*
%TO.C,R3*%
X133592000Y-60787500D03*
X133592000Y-62612500D03*
%TD*%
D17*
%TO.C,C7*%
X150472000Y-59120888D03*
X152372000Y-59120888D03*
%TD*%
%TO.C,C2*%
X150472000Y-65837552D03*
X152372000Y-65837552D03*
%TD*%
D18*
%TO.C,D2*%
X151626000Y-89064000D03*
X151626000Y-87489000D03*
%TD*%
D11*
%TO.C,R6*%
X104759500Y-81344000D03*
X102934500Y-81344000D03*
%TD*%
%TO.C,R7*%
X106659500Y-67844000D03*
X108484500Y-67844000D03*
%TD*%
D12*
%TO.C,R8*%
X104759500Y-67844000D03*
X102934500Y-67844000D03*
%TD*%
D10*
%TO.C,R1*%
X143902000Y-86356500D03*
X143902000Y-84531500D03*
%TD*%
%TO.C,R15*%
X137072000Y-83569000D03*
X137072000Y-81744000D03*
%TD*%
D17*
%TO.C,C6*%
X150472000Y-61359776D03*
X152372000Y-61359776D03*
%TD*%
D12*
%TO.C,R12*%
X113747000Y-67804000D03*
X115572000Y-67804000D03*
%TD*%
D14*
%TO.C,C10*%
X130172000Y-86644000D03*
X130172000Y-88544000D03*
%TD*%
D11*
%TO.C,R13*%
X119197000Y-81344000D03*
X117372000Y-81344000D03*
%TD*%
D10*
%TO.C,R10*%
X132372000Y-83569000D03*
X132372000Y-81744000D03*
%TD*%
D13*
%TO.C,C5*%
X151626000Y-80294000D03*
X151626000Y-78394000D03*
%TD*%
D19*
%TO.C,U1*%
X125920000Y-75250000D03*
X127190000Y-75250000D03*
X128460000Y-75250000D03*
X129730000Y-75250000D03*
X131000000Y-75250000D03*
X132270000Y-75250000D03*
X133540000Y-75250000D03*
X134810000Y-75250000D03*
X136080000Y-75250000D03*
X136080000Y-65950000D03*
X134810000Y-65950000D03*
X133540000Y-65950000D03*
X132270000Y-65950000D03*
X131000000Y-65950000D03*
X129730000Y-65950000D03*
X128460000Y-65950000D03*
X127190000Y-65950000D03*
X125920000Y-65950000D03*
%TD*%
D10*
%TO.C,R9*%
X132372000Y-88506500D03*
X132372000Y-86681500D03*
%TD*%
%TO.C,R2*%
X128800000Y-62612500D03*
X128800000Y-60787500D03*
%TD*%
D17*
%TO.C,C1*%
X150472000Y-68076444D03*
X152372000Y-68076444D03*
%TD*%
D11*
%TO.C,R11*%
X119197000Y-67804000D03*
X117372000Y-67804000D03*
%TD*%
D20*
%TO.C,D1*%
X135497000Y-85544000D03*
X137072000Y-85544000D03*
%TD*%
D17*
%TO.C,C8*%
X150472000Y-56882000D03*
X152372000Y-56882000D03*
%TD*%
D14*
%TO.C,C11*%
X134572000Y-81744000D03*
X134572000Y-83644000D03*
%TD*%
D17*
%TO.C,C4*%
X150472000Y-63598664D03*
X152372000Y-63598664D03*
%TD*%
D21*
%TO.C,U4*%
X129422000Y-84044000D03*
X129422000Y-81744000D03*
D22*
X123122000Y-81744000D03*
D21*
X129422000Y-79444000D03*
%TD*%
M02*
