M48
; DRILL file {KiCad 8.0.2} date 2024-05-10T16:31:35+0200
; FORMAT={-:-/ absolute / metric / decimal}
; #@! TF.CreationDate,2024-05-10T16:31:35+02:00
; #@! TF.GenerationSoftware,Kicad,Pcbnew,8.0.2
; #@! TF.FileFunction,Plated,1,2,PTH
FMAT,2
METRIC
; #@! TA.AperFunction,Plated,PTH,ViaDrill
T1C0.400
; #@! TA.AperFunction,Plated,PTH,ComponentDrill
T2C0.800
; #@! TA.AperFunction,Plated,PTH,ComponentDrill
T3C0.889
; #@! TA.AperFunction,Plated,PTH,ComponentDrill
T4C1.000
; #@! TA.AperFunction,Plated,PTH,ComponentDrill
T5C1.075
; #@! TA.AperFunction,Plated,PTH,ComponentDrill
T6C1.100
; #@! TA.AperFunction,Plated,PTH,ComponentDrill
T7C1.500
; #@! TA.AperFunction,Plated,PTH,ComponentDrill
T8C1.600
; #@! TA.AperFunction,Plated,PTH,ComponentDrill
T9C2.300
%
G90
G05
T1
X109.972Y-68.944
X111.672Y-69.044
X114.372Y-65.844
X115.622Y-58.694
X119.747Y-85.119
X124.172Y-71.844
X125.672Y-56.444
X129.2Y-68.4
X130.572Y-55.544
X132.972Y-72.144
X136.072Y-73.344
X141.372Y-71.044
X143.672Y-66.744
X147.272Y-74.644
X151.472Y-69.444
X153.072Y-71.044
T2
X101.852Y-57.424
X101.852Y-59.964
X101.852Y-62.504
X101.852Y-65.044
X101.852Y-71.004
X101.852Y-73.544
X101.852Y-76.084
X101.852Y-78.624
X109.472Y-57.424
X109.472Y-59.964
X109.472Y-62.504
X109.472Y-65.044
X109.472Y-71.004
X109.472Y-73.544
X109.472Y-76.084
X109.472Y-78.624
X112.652Y-57.424
X112.652Y-59.964
X112.652Y-62.504
X112.652Y-65.044
X112.652Y-70.924
X112.652Y-73.464
X112.652Y-76.004
X112.652Y-78.544
X120.272Y-57.424
X120.272Y-59.964
X120.272Y-62.504
X120.272Y-65.044
X120.272Y-70.924
X120.272Y-73.464
X120.272Y-76.004
X120.272Y-78.544
T3
X102.477Y-89.394
X103.747Y-86.854
X105.017Y-89.394
X106.287Y-86.854
X107.557Y-89.394
X108.827Y-86.854
X110.097Y-89.394
X111.367Y-86.854
T4
X98.9Y-50.56
X98.9Y-53.1
X101.44Y-50.56
X101.44Y-53.1
X103.98Y-50.56
X103.98Y-53.1
X106.52Y-50.56
X106.52Y-53.1
X109.06Y-50.56
X109.06Y-53.1
X111.6Y-50.56
X111.6Y-53.1
X114.14Y-50.56
X114.14Y-53.1
X116.68Y-50.56
X116.68Y-53.1
X119.22Y-50.56
X119.22Y-53.1
X121.76Y-50.56
X121.76Y-53.1
X124.3Y-50.56
X124.3Y-53.1
X126.84Y-50.56
X126.84Y-53.1
X129.38Y-50.56
X129.38Y-53.1
X131.92Y-50.56
X131.92Y-53.1
X134.46Y-50.56
X134.46Y-53.1
X137.0Y-50.56
X137.0Y-53.1
X139.54Y-50.56
X139.54Y-53.1
X142.08Y-50.56
X142.08Y-53.1
X144.62Y-50.56
X144.62Y-53.1
X147.16Y-50.56
X147.16Y-53.1
T5
X137.402Y-61.327
X139.942Y-61.327
X142.482Y-61.327
X145.022Y-61.327
T6
X94.472Y-57.394
X94.472Y-63.894
X98.972Y-57.394
X98.972Y-63.894
X134.736Y-92.53
X134.736Y-95.03
X136.736Y-92.53
X136.736Y-95.03
X138.736Y-92.53
X138.736Y-95.03
X140.736Y-92.53
X140.736Y-95.03
X142.736Y-92.53
X142.736Y-95.03
T7
X141.122Y-67.044
X146.022Y-67.044
T8
X121.539Y-90.052
X121.539Y-96.052
X126.239Y-93.052
T9
X131.486Y-98.03
X138.736Y-98.83
X145.986Y-98.03
M30
