%TF.GenerationSoftware,KiCad,Pcbnew,8.0.2*%
%TF.CreationDate,2024-05-10T16:30:55+02:00*%
%TF.ProjectId,InterfaceS88GleisboxRPi,496e7465-7266-4616-9365-533838476c65,2.0*%
%TF.SameCoordinates,Original*%
%TF.FileFunction,Soldermask,Top*%
%TF.FilePolarity,Negative*%
%FSLAX46Y46*%
G04 Gerber Fmt 4.6, Leading zero omitted, Abs format (unit mm)*
G04 Created by KiCad (PCBNEW 8.0.2) date 2024-05-10 16:30:55*
%MOMM*%
%LPD*%
G01*
G04 APERTURE LIST*
G04 Aperture macros list*
%AMRoundRect*
0 Rectangle with rounded corners*
0 $1 Rounding radius*
0 $2 $3 $4 $5 $6 $7 $8 $9 X,Y pos of 4 corners*
0 Add a 4 corners polygon primitive as box body*
4,1,4,$2,$3,$4,$5,$6,$7,$8,$9,$2,$3,0*
0 Add four circle primitives for the rounded corners*
1,1,$1+$1,$2,$3*
1,1,$1+$1,$4,$5*
1,1,$1+$1,$6,$7*
1,1,$1+$1,$8,$9*
0 Add four rect primitives between the rounded corners*
20,1,$1+$1,$2,$3,$4,$5,0*
20,1,$1+$1,$4,$5,$6,$7,0*
20,1,$1+$1,$6,$7,$8,$9,0*
20,1,$1+$1,$8,$9,$2,$3,0*%
G04 Aperture macros list end*
%ADD10C,2.000000*%
%ADD11C,6.200000*%
%ADD12RoundRect,0.250000X0.450000X-0.262500X0.450000X0.262500X-0.450000X0.262500X-0.450000X-0.262500X0*%
%ADD13RoundRect,0.250000X0.262500X0.450000X-0.262500X0.450000X-0.262500X-0.450000X0.262500X-0.450000X0*%
%ADD14RoundRect,0.250000X-0.262500X-0.450000X0.262500X-0.450000X0.262500X0.450000X-0.262500X0.450000X0*%
%ADD15RoundRect,0.250000X0.475000X-0.250000X0.475000X0.250000X-0.475000X0.250000X-0.475000X-0.250000X0*%
%ADD16RoundRect,0.250000X-0.475000X0.250000X-0.475000X-0.250000X0.475000X-0.250000X0.475000X0.250000X0*%
%ADD17R,1.600000X1.600000*%
%ADD18O,1.600000X1.600000*%
%ADD19RoundRect,0.250000X-0.450000X0.262500X-0.450000X-0.262500X0.450000X-0.262500X0.450000X0.262500X0*%
%ADD20RoundRect,0.162500X-0.162500X1.012500X-0.162500X-1.012500X0.162500X-1.012500X0.162500X1.012500X0*%
%ADD21RoundRect,0.250000X-0.250000X-0.475000X0.250000X-0.475000X0.250000X0.475000X-0.250000X0.475000X0*%
%ADD22RoundRect,0.218750X0.256250X-0.218750X0.256250X0.218750X-0.256250X0.218750X-0.256250X-0.218750X0*%
%ADD23R,2.600000X2.600000*%
%ADD24C,2.600000*%
%ADD25RoundRect,0.150000X0.150000X-0.875000X0.150000X0.875000X-0.150000X0.875000X-0.150000X-0.875000X0*%
%ADD26R,1.500000X1.500000*%
%ADD27C,1.650000*%
%ADD28C,3.450000*%
%ADD29C,2.300000*%
%ADD30RoundRect,0.218750X-0.218750X-0.256250X0.218750X-0.256250X0.218750X0.256250X-0.218750X0.256250X0*%
%ADD31C,3.251200*%
%ADD32C,1.397000*%
%ADD33O,1.700000X1.700000*%
%ADD34R,1.700000X1.700000*%
%ADD35RoundRect,0.375000X0.625000X0.375000X-0.625000X0.375000X-0.625000X-0.375000X0.625000X-0.375000X0*%
%ADD36RoundRect,0.500000X0.500000X1.400000X-0.500000X1.400000X-0.500000X-1.400000X0.500000X-1.400000X0*%
G04 APERTURE END LIST*
D10*
%TO.C,SW1*%
X94472000Y-63894000D03*
X94472000Y-57394000D03*
X98972000Y-63894000D03*
X98972000Y-57394000D03*
%TD*%
D11*
%TO.C,H2*%
X152000000Y-51800000D03*
%TD*%
%TO.C,*%
X94000000Y-51800000D03*
%TD*%
%TO.C,*%
X94000000Y-100800000D03*
%TD*%
%TO.C,H1*%
X152000000Y-100800000D03*
%TD*%
D12*
%TO.C,R4*%
X126500000Y-62612500D03*
X126500000Y-60787500D03*
%TD*%
D13*
%TO.C,R5*%
X108484500Y-81344000D03*
X106659500Y-81344000D03*
%TD*%
D14*
%TO.C,R14*%
X115572000Y-81344000D03*
X113747000Y-81344000D03*
%TD*%
D15*
%TO.C,C3*%
X133592000Y-58467000D03*
X133592000Y-56567000D03*
%TD*%
D16*
%TO.C,C9*%
X97672000Y-89444000D03*
X97672000Y-91344000D03*
%TD*%
D17*
%TO.C,U6*%
X120272000Y-65044000D03*
D18*
X120272000Y-62504000D03*
X120272000Y-59964000D03*
X120272000Y-57424000D03*
X112652000Y-57424000D03*
X112652000Y-59964000D03*
X112652000Y-62504000D03*
X112652000Y-65044000D03*
%TD*%
D19*
%TO.C,R17*%
X146442000Y-84531500D03*
X146442000Y-86356500D03*
%TD*%
D20*
%TO.C,U2*%
X148982000Y-72919000D03*
X146442000Y-72919000D03*
X143902000Y-72919000D03*
X141362000Y-72919000D03*
X141362000Y-81969000D03*
X143902000Y-81969000D03*
X146442000Y-81969000D03*
X148982000Y-81969000D03*
%TD*%
D12*
%TO.C,R16*%
X151626000Y-85885000D03*
X151626000Y-84060000D03*
%TD*%
D19*
%TO.C,R3*%
X133592000Y-60787500D03*
X133592000Y-62612500D03*
%TD*%
D21*
%TO.C,C7*%
X150472000Y-59120888D03*
X152372000Y-59120888D03*
%TD*%
%TO.C,C2*%
X150472000Y-65837552D03*
X152372000Y-65837552D03*
%TD*%
D17*
%TO.C,U7*%
X120272000Y-78544000D03*
D18*
X120272000Y-76004000D03*
X120272000Y-73464000D03*
X120272000Y-70924000D03*
X112652000Y-70924000D03*
X112652000Y-73464000D03*
X112652000Y-76004000D03*
X112652000Y-78544000D03*
%TD*%
D22*
%TO.C,D2*%
X151626000Y-89064000D03*
X151626000Y-87489000D03*
%TD*%
D13*
%TO.C,R6*%
X104759500Y-81344000D03*
X102934500Y-81344000D03*
%TD*%
%TO.C,R7*%
X106659500Y-67844000D03*
X108484500Y-67844000D03*
%TD*%
D14*
%TO.C,R8*%
X104759500Y-67844000D03*
X102934500Y-67844000D03*
%TD*%
D12*
%TO.C,R1*%
X143902000Y-86356500D03*
X143902000Y-84531500D03*
%TD*%
%TO.C,R15*%
X137072000Y-83569000D03*
X137072000Y-81744000D03*
%TD*%
D21*
%TO.C,C6*%
X150472000Y-61359776D03*
X152372000Y-61359776D03*
%TD*%
D14*
%TO.C,R12*%
X113747000Y-67804000D03*
X115572000Y-67804000D03*
%TD*%
D16*
%TO.C,C10*%
X130172000Y-86644000D03*
X130172000Y-88544000D03*
%TD*%
D13*
%TO.C,R13*%
X119197000Y-81344000D03*
X117372000Y-81344000D03*
%TD*%
D12*
%TO.C,R10*%
X132372000Y-83569000D03*
X132372000Y-81744000D03*
%TD*%
D15*
%TO.C,C5*%
X151626000Y-80294000D03*
X151626000Y-78394000D03*
%TD*%
D17*
%TO.C,U5*%
X109472000Y-65044000D03*
D18*
X109472000Y-62504000D03*
X109472000Y-59964000D03*
X109472000Y-57424000D03*
X101852000Y-57424000D03*
X101852000Y-59964000D03*
X101852000Y-62504000D03*
X101852000Y-65044000D03*
%TD*%
D23*
%TO.C,J7*%
X121539000Y-90052000D03*
D24*
X121539000Y-96052000D03*
X126239000Y-93052000D03*
%TD*%
D25*
%TO.C,U1*%
X125920000Y-75250000D03*
X127190000Y-75250000D03*
X128460000Y-75250000D03*
X129730000Y-75250000D03*
X131000000Y-75250000D03*
X132270000Y-75250000D03*
X133540000Y-75250000D03*
X134810000Y-75250000D03*
X136080000Y-75250000D03*
X136080000Y-65950000D03*
X134810000Y-65950000D03*
X133540000Y-65950000D03*
X132270000Y-65950000D03*
X131000000Y-65950000D03*
X129730000Y-65950000D03*
X128460000Y-65950000D03*
X127190000Y-65950000D03*
X125920000Y-65950000D03*
%TD*%
D12*
%TO.C,R9*%
X132372000Y-88506500D03*
X132372000Y-86681500D03*
%TD*%
%TO.C,R2*%
X128800000Y-62612500D03*
X128800000Y-60787500D03*
%TD*%
D17*
%TO.C,U8*%
X109472000Y-78624000D03*
D18*
X109472000Y-76084000D03*
X109472000Y-73544000D03*
X109472000Y-71004000D03*
X101852000Y-71004000D03*
X101852000Y-73544000D03*
X101852000Y-76084000D03*
X101852000Y-78624000D03*
%TD*%
D26*
%TO.C,J2*%
X136736000Y-95030000D03*
D27*
X138736000Y-95030000D03*
X140736000Y-95030000D03*
X134736000Y-95030000D03*
X136736000Y-92530000D03*
X138736000Y-92530000D03*
X142736000Y-95030000D03*
X134736000Y-92530000D03*
X140736000Y-92530000D03*
X142736000Y-92530000D03*
D28*
X138736000Y-98830000D03*
X145986000Y-98030000D03*
X131486000Y-98030000D03*
%TD*%
D21*
%TO.C,C1*%
X150472000Y-68076444D03*
X152372000Y-68076444D03*
%TD*%
D29*
%TO.C,Y1*%
X146022000Y-67044000D03*
X141122000Y-67044000D03*
%TD*%
D13*
%TO.C,R11*%
X119197000Y-67804000D03*
X117372000Y-67804000D03*
%TD*%
D30*
%TO.C,D1*%
X135497000Y-85544000D03*
X137072000Y-85544000D03*
%TD*%
D31*
%TO.C,J4*%
X112637000Y-95754000D03*
X101207000Y-95754000D03*
D32*
X102477000Y-89394000D03*
X103747000Y-86854000D03*
X105017000Y-89394000D03*
X106287000Y-86854000D03*
X107557000Y-89394000D03*
X108827000Y-86854000D03*
X110097000Y-89394000D03*
X111367000Y-86854000D03*
%TD*%
D21*
%TO.C,C8*%
X150472000Y-56882000D03*
X152372000Y-56882000D03*
%TD*%
D16*
%TO.C,C11*%
X134572000Y-81744000D03*
X134572000Y-83644000D03*
%TD*%
D21*
%TO.C,C4*%
X150472000Y-63598664D03*
X152372000Y-63598664D03*
%TD*%
D33*
%TO.C,J1*%
X147160000Y-50560000D03*
X147160000Y-53100000D03*
X144620000Y-50560000D03*
X144620000Y-53100000D03*
X142080000Y-50560000D03*
X142080000Y-53100000D03*
X139540000Y-50560000D03*
X139540000Y-53100000D03*
X137000000Y-50560000D03*
X137000000Y-53100000D03*
X134460000Y-50560000D03*
X134460000Y-53100000D03*
X131920000Y-50560000D03*
X131920000Y-53100000D03*
X129380000Y-50560000D03*
X129380000Y-53100000D03*
X126840000Y-50560000D03*
X126840000Y-53100000D03*
X124300000Y-50560000D03*
X124300000Y-53100000D03*
X121760000Y-50560000D03*
X121760000Y-53100000D03*
X119220000Y-50560000D03*
X119220000Y-53100000D03*
X116680000Y-50560000D03*
X116680000Y-53100000D03*
X114140000Y-50560000D03*
X114140000Y-53100000D03*
X111600000Y-50560000D03*
X111600000Y-53100000D03*
X109060000Y-50560000D03*
X109060000Y-53100000D03*
X106520000Y-50560000D03*
X106520000Y-53100000D03*
X103980000Y-50560000D03*
X103980000Y-53100000D03*
X101440000Y-50560000D03*
X101440000Y-53100000D03*
X98900000Y-50560000D03*
D34*
X98900000Y-53100000D03*
%TD*%
D35*
%TO.C,U4*%
X129422000Y-84044000D03*
X129422000Y-81744000D03*
D36*
X123122000Y-81744000D03*
D35*
X129422000Y-79444000D03*
%TD*%
M02*
