%TF.GenerationSoftware,KiCad,Pcbnew,8.0.2*%
%TF.CreationDate,2024-05-10T16:30:54+02:00*%
%TF.ProjectId,InterfaceS88GleisboxRPi,496e7465-7266-4616-9365-533838476c65,2.0*%
%TF.SameCoordinates,Original*%
%TF.FileFunction,Copper,L2,Bot*%
%TF.FilePolarity,Positive*%
%FSLAX46Y46*%
G04 Gerber Fmt 4.6, Leading zero omitted, Abs format (unit mm)*
G04 Created by KiCad (PCBNEW 8.0.2) date 2024-05-10 16:30:54*
%MOMM*%
%LPD*%
G01*
G04 APERTURE LIST*
%TA.AperFunction,ComponentPad*%
%ADD10C,2.000000*%
%TD*%
%TA.AperFunction,ComponentPad*%
%ADD11R,1.600000X1.600000*%
%TD*%
%TA.AperFunction,ComponentPad*%
%ADD12O,1.600000X1.600000*%
%TD*%
%TA.AperFunction,ComponentPad*%
%ADD13R,2.600000X2.600000*%
%TD*%
%TA.AperFunction,ComponentPad*%
%ADD14C,2.600000*%
%TD*%
%TA.AperFunction,ComponentPad*%
%ADD15R,1.675000X1.675000*%
%TD*%
%TA.AperFunction,ComponentPad*%
%ADD16C,1.675000*%
%TD*%
%TA.AperFunction,ComponentPad*%
%ADD17R,1.500000X1.500000*%
%TD*%
%TA.AperFunction,ComponentPad*%
%ADD18C,1.650000*%
%TD*%
%TA.AperFunction,ComponentPad*%
%ADD19C,3.450000*%
%TD*%
%TA.AperFunction,ComponentPad*%
%ADD20C,2.300000*%
%TD*%
%TA.AperFunction,ComponentPad*%
%ADD21C,1.397000*%
%TD*%
%TA.AperFunction,ComponentPad*%
%ADD22O,1.700000X1.700000*%
%TD*%
%TA.AperFunction,ComponentPad*%
%ADD23R,1.700000X1.700000*%
%TD*%
%TA.AperFunction,ViaPad*%
%ADD24C,0.800000*%
%TD*%
%TA.AperFunction,Conductor*%
%ADD25C,0.250000*%
%TD*%
%TA.AperFunction,Conductor*%
%ADD26C,0.500000*%
%TD*%
%TA.AperFunction,Conductor*%
%ADD27C,0.400000*%
%TD*%
G04 APERTURE END LIST*
D10*
%TO.P,SW1,1,1*%
%TO.N,Shutdown*%
X94472000Y-63894000D03*
X94472000Y-57394000D03*
%TO.P,SW1,2,2*%
%TO.N,GND*%
X98972000Y-63894000D03*
X98972000Y-57394000D03*
%TD*%
D11*
%TO.P,U6,1,NC*%
%TO.N,unconnected-(U6-NC-Pad1)*%
X120272000Y-65044000D03*
D12*
%TO.P,U6,2,A*%
%TO.N,Net-(U6-A)*%
X120272000Y-62504000D03*
%TO.P,U6,3,C*%
%TO.N,S88_LOAD_3V3*%
X120272000Y-59964000D03*
%TO.P,U6,4,NC*%
%TO.N,unconnected-(U6-NC-Pad4)*%
X120272000Y-57424000D03*
%TO.P,U6,5,GND*%
%TO.N,GNDD*%
X112652000Y-57424000D03*
%TO.P,U6,6,VO*%
%TO.N,S88_LOAD*%
X112652000Y-59964000D03*
%TO.P,U6,7,EN*%
%TO.N,+5VD*%
X112652000Y-62504000D03*
%TO.P,U6,8,VCC*%
X112652000Y-65044000D03*
%TD*%
D11*
%TO.P,U7,1,NC*%
%TO.N,unconnected-(U7-NC-Pad1)*%
X120272000Y-78544000D03*
D12*
%TO.P,U7,2,A*%
%TO.N,Net-(U7-A)*%
X120272000Y-76004000D03*
%TO.P,U7,3,C*%
%TO.N,S88_Reset_3V3*%
X120272000Y-73464000D03*
%TO.P,U7,4,NC*%
%TO.N,unconnected-(U7-NC-Pad4)*%
X120272000Y-70924000D03*
%TO.P,U7,5,GND*%
%TO.N,GNDD*%
X112652000Y-70924000D03*
%TO.P,U7,6,VO*%
%TO.N,S88_Reset*%
X112652000Y-73464000D03*
%TO.P,U7,7,EN*%
%TO.N,+5VD*%
X112652000Y-76004000D03*
%TO.P,U7,8,VCC*%
X112652000Y-78544000D03*
%TD*%
D11*
%TO.P,U5,1,NC*%
%TO.N,unconnected-(U5-NC-Pad1)*%
X109472000Y-65044000D03*
D12*
%TO.P,U5,2,A*%
%TO.N,Net-(U5-A)*%
X109472000Y-62504000D03*
%TO.P,U5,3,C*%
%TO.N,S88_CLK_3V3*%
X109472000Y-59964000D03*
%TO.P,U5,4,NC*%
%TO.N,unconnected-(U5-NC-Pad4)*%
X109472000Y-57424000D03*
%TO.P,U5,5,GND*%
%TO.N,GNDD*%
X101852000Y-57424000D03*
%TO.P,U5,6,VO*%
%TO.N,S88_CLK*%
X101852000Y-59964000D03*
%TO.P,U5,7,EN*%
%TO.N,+5VD*%
X101852000Y-62504000D03*
%TO.P,U5,8,VCC*%
X101852000Y-65044000D03*
%TD*%
D13*
%TO.P,J7,1*%
%TO.N,Net-(U4-VI)*%
X121539000Y-90052000D03*
D14*
%TO.P,J7,2*%
%TO.N,GNDD*%
X121539000Y-96052000D03*
%TO.P,J7,3*%
X126239000Y-93052000D03*
%TD*%
D15*
%TO.P,U3,1,-VIN*%
%TO.N,GND*%
X137402000Y-61327000D03*
D16*
%TO.P,U3,2,+VIN*%
%TO.N,+5V*%
X139942000Y-61327000D03*
%TO.P,U3,3,-VOUT*%
%TO.N,GNDA*%
X142482000Y-61327000D03*
%TO.P,U3,4,+VOUT*%
%TO.N,+5VA*%
X145022000Y-61327000D03*
%TD*%
D11*
%TO.P,U8,1,NC*%
%TO.N,unconnected-(U8-NC-Pad1)*%
X109472000Y-78624000D03*
D12*
%TO.P,U8,2,A*%
%TO.N,Net-(U8-A)*%
X109472000Y-76084000D03*
%TO.P,U8,3,C*%
%TO.N,S88_Data*%
X109472000Y-73544000D03*
%TO.P,U8,4,NC*%
%TO.N,unconnected-(U8-NC-Pad4)*%
X109472000Y-71004000D03*
%TO.P,U8,5,GND*%
%TO.N,GND*%
X101852000Y-71004000D03*
%TO.P,U8,6,VO*%
%TO.N,S88_Data_3V3*%
X101852000Y-73544000D03*
%TO.P,U8,7,EN*%
%TO.N,+5V*%
X101852000Y-76084000D03*
%TO.P,U8,8,VCC*%
X101852000Y-78624000D03*
%TD*%
D17*
%TO.P,J2,1,1*%
%TO.N,unconnected-(J2-Pad1)*%
X136736000Y-95030000D03*
D18*
%TO.P,J2,2,2*%
%TO.N,GNDA*%
X138736000Y-95030000D03*
%TO.P,J2,3,3*%
%TO.N,unconnected-(J2-Pad3)*%
X140736000Y-95030000D03*
%TO.P,J2,4,4*%
%TO.N,unconnected-(J2-Pad4)*%
X134736000Y-95030000D03*
%TO.P,J2,5,5*%
%TO.N,unconnected-(J2-Pad5)*%
X136736000Y-92530000D03*
%TO.P,J2,6,6*%
%TO.N,unconnected-(J2-Pad6)*%
X138736000Y-92530000D03*
%TO.P,J2,7,7*%
%TO.N,Net-(U2-CANH)*%
X142736000Y-95030000D03*
%TO.P,J2,8,8*%
%TO.N,unconnected-(J2-Pad8)*%
X134736000Y-92530000D03*
%TO.P,J2,9,9*%
%TO.N,unconnected-(J2-Pad9)*%
X140736000Y-92530000D03*
%TO.P,J2,10,10*%
%TO.N,Net-(U2-CANL)*%
X142736000Y-92530000D03*
D19*
%TO.P,J2,MH1,MH1*%
%TO.N,unconnected-(J2-PadMH1)*%
X138736000Y-98830000D03*
%TO.P,J2,MH2,MH2*%
%TO.N,unconnected-(J2-PadMH2)*%
X145986000Y-98030000D03*
%TO.P,J2,MH3,MH3*%
%TO.N,unconnected-(J2-PadMH3)*%
X131486000Y-98030000D03*
%TD*%
D20*
%TO.P,Y1,1,1*%
%TO.N,Net-(U1-OSC2)*%
X146022000Y-67044000D03*
%TO.P,Y1,2,2*%
%TO.N,Net-(U1-OSC1)*%
X141122000Y-67044000D03*
%TD*%
D21*
%TO.P,J4,1*%
%TO.N,+5VD*%
X102477000Y-89394000D03*
%TO.P,J4,2*%
%TO.N,S88_Data*%
X103747000Y-86854000D03*
%TO.P,J4,3*%
%TO.N,GNDD*%
X105017000Y-89394000D03*
%TO.P,J4,4*%
%TO.N,S88_CLK*%
X106287000Y-86854000D03*
%TO.P,J4,5*%
%TO.N,GNDD*%
X107557000Y-89394000D03*
%TO.P,J4,6*%
%TO.N,S88_LOAD*%
X108827000Y-86854000D03*
%TO.P,J4,7*%
%TO.N,S88_Reset*%
X110097000Y-89394000D03*
%TO.P,J4,8*%
%TO.N,unconnected-(J4-Pad8)*%
X111367000Y-86854000D03*
%TD*%
D22*
%TO.P,J1,40,BCM21_SCLK_PCM_DO*%
%TO.N,unconnected-(J1-BCM21_SCLK_PCM_DO-Pad40)*%
X147160000Y-50560000D03*
%TO.P,J1,39,GND*%
%TO.N,GND*%
X147160000Y-53100000D03*
%TO.P,J1,38,BCM20_MOSI_PCM_DI*%
%TO.N,unconnected-(J1-BCM20_MOSI_PCM_DI-Pad38)*%
X144620000Y-50560000D03*
%TO.P,J1,37,BCM26*%
%TO.N,unconnected-(J1-BCM26-Pad37)*%
X144620000Y-53100000D03*
%TO.P,J1,36,BCM16*%
%TO.N,unconnected-(J1-BCM16-Pad36)*%
X142080000Y-50560000D03*
%TO.P,J1,35,BCM19_MISO_PCM_FS*%
%TO.N,unconnected-(J1-BCM19_MISO_PCM_FS-Pad35)*%
X142080000Y-53100000D03*
%TO.P,J1,34,GND*%
%TO.N,unconnected-(J1-GND-Pad34)*%
X139540000Y-50560000D03*
%TO.P,J1,33,BCM13_PWM1*%
%TO.N,unconnected-(J1-BCM13_PWM1-Pad33)*%
X139540000Y-53100000D03*
%TO.P,J1,32,BCM12_PWM0*%
%TO.N,unconnected-(J1-BCM12_PWM0-Pad32)*%
X137000000Y-50560000D03*
%TO.P,J1,31,BCM6*%
%TO.N,unconnected-(J1-BCM6-Pad31)*%
X137000000Y-53100000D03*
%TO.P,J1,30,GND*%
%TO.N,unconnected-(J1-GND-Pad30)*%
X134460000Y-50560000D03*
%TO.P,J1,29,BCM5*%
%TO.N,unconnected-(J1-BCM5-Pad29)*%
X134460000Y-53100000D03*
%TO.P,J1,28,BCM1_ID_SC*%
%TO.N,unconnected-(J1-BCM1_ID_SC-Pad28)*%
X131920000Y-50560000D03*
%TO.P,J1,27,BCM0_ID_SD*%
%TO.N,unconnected-(J1-BCM0_ID_SD-Pad27)*%
X131920000Y-53100000D03*
%TO.P,J1,26,BCM7_CE1*%
%TO.N,unconnected-(J1-BCM7_CE1-Pad26)*%
X129380000Y-50560000D03*
%TO.P,J1,25,GND*%
%TO.N,unconnected-(J1-GND-Pad25)*%
X129380000Y-53100000D03*
%TO.P,J1,24,BCM8_CE0*%
%TO.N,CS0*%
X126840000Y-50560000D03*
%TO.P,J1,23,BCM11_SCLK*%
%TO.N,SCLK*%
X126840000Y-53100000D03*
%TO.P,J1,22,BCM25*%
%TO.N,INT*%
X124300000Y-50560000D03*
%TO.P,J1,21,BCM9_MISO*%
%TO.N,MISO*%
X124300000Y-53100000D03*
%TO.P,J1,20,GND*%
%TO.N,unconnected-(J1-GND-Pad20)*%
X121760000Y-50560000D03*
%TO.P,J1,19,BCM10_MOSI*%
%TO.N,MOSI*%
X121760000Y-53100000D03*
%TO.P,J1,18,BCM24*%
%TO.N,S88_Reset_3V3*%
X119220000Y-50560000D03*
%TO.P,J1,17,3.3V*%
%TO.N,+3.3V*%
X119220000Y-53100000D03*
%TO.P,J1,16,BCM23*%
%TO.N,S88_LOAD_3V3*%
X116680000Y-50560000D03*
%TO.P,J1,15,BCM22*%
%TO.N,S88_CLK_3V3*%
X116680000Y-53100000D03*
%TO.P,J1,14,GND*%
%TO.N,unconnected-(J1-GND-Pad14)*%
X114140000Y-50560000D03*
%TO.P,J1,13,BCM27*%
%TO.N,unconnected-(J1-BCM27-Pad13)*%
X114140000Y-53100000D03*
%TO.P,J1,12,BCM18_PCM_C*%
%TO.N,unconnected-(J1-BCM18_PCM_C-Pad12)*%
X111600000Y-50560000D03*
%TO.P,J1,11,BCM17*%
%TO.N,S88_Data_3V3*%
X111600000Y-53100000D03*
%TO.P,J1,10,BCM15_RXD*%
%TO.N,unconnected-(J1-BCM15_RXD-Pad10)*%
X109060000Y-50560000D03*
%TO.P,J1,9,GND*%
%TO.N,unconnected-(J1-GND-Pad9)*%
X109060000Y-53100000D03*
%TO.P,J1,8,BCM14_TXD*%
%TO.N,unconnected-(J1-BCM14_TXD-Pad8)*%
X106520000Y-50560000D03*
%TO.P,J1,7,BCM4_GPCLK0*%
%TO.N,unconnected-(J1-BCM4_GPCLK0-Pad7)*%
X106520000Y-53100000D03*
%TO.P,J1,6,GND*%
%TO.N,GND*%
X103980000Y-50560000D03*
%TO.P,J1,5,BCM3_SCL*%
%TO.N,Shutdown*%
X103980000Y-53100000D03*
%TO.P,J1,4,5V*%
%TO.N,unconnected-(J1-5V-Pad4)*%
X101440000Y-50560000D03*
%TO.P,J1,3,BCM2_SDA*%
%TO.N,unconnected-(J1-BCM2_SDA-Pad3)*%
X101440000Y-53100000D03*
%TO.P,J1,2,5V*%
%TO.N,+5V*%
X98900000Y-50560000D03*
D23*
%TO.P,J1,1,3.3V*%
%TO.N,unconnected-(J1-3.3V-Pad1)*%
X98900000Y-53100000D03*
%TD*%
D24*
%TO.N,GND*%
X130572000Y-55544000D03*
X143672000Y-66744000D03*
X132972000Y-72144000D03*
X125672000Y-56444000D03*
%TO.N,S88_CLK_3V3*%
X115622000Y-58694000D03*
%TO.N,+3.3V*%
X111672000Y-69044000D03*
X109972000Y-68944000D03*
%TO.N,S88_LOAD*%
X114372000Y-65844000D03*
%TO.N,+5VD*%
X119747000Y-85119000D03*
%TO.N,GND*%
X136072000Y-73344000D03*
X141372000Y-71044000D03*
%TO.N,+5VA*%
X153072000Y-71044000D03*
%TO.N,GNDA*%
X151472000Y-69444000D03*
%TO.N,+3.3V*%
X124172000Y-71844000D03*
X147272000Y-74644000D03*
%TO.N,CS0*%
X129200000Y-68400000D03*
%TD*%
D25*
%TO.N,S88_CLK_3V3*%
X116680000Y-57636000D02*
X116680000Y-53100000D01*
X115622000Y-58694000D02*
X116680000Y-57636000D01*
D26*
%TO.N,+5VD*%
X112652000Y-62504000D02*
X112652000Y-65044000D01*
%TO.N,GNDD*%
X126239000Y-90408918D02*
X126239000Y-93052000D01*
X113902000Y-78071918D02*
X126239000Y-90408918D01*
X113902000Y-72174000D02*
X113902000Y-78071918D01*
X112652000Y-70924000D02*
X113902000Y-72174000D01*
X116072000Y-67504000D02*
X116072000Y-60844000D01*
X116072000Y-60844000D02*
X112652000Y-57424000D01*
X112652000Y-70924000D02*
X116072000Y-67504000D01*
D25*
%TO.N,+3.3V*%
X111672000Y-69044000D02*
X110072000Y-69044000D01*
X110072000Y-69044000D02*
X109972000Y-68944000D01*
%TO.N,S88_LOAD*%
X111072000Y-70744000D02*
X111072000Y-84609000D01*
X113772000Y-68044000D02*
X111072000Y-70744000D01*
X113772000Y-66444000D02*
X113772000Y-68044000D01*
X111072000Y-84609000D02*
X108827000Y-86854000D01*
X114372000Y-65844000D02*
X113772000Y-66444000D01*
D26*
%TO.N,GNDD*%
X111402000Y-56174000D02*
X112652000Y-57424000D01*
X103102000Y-56174000D02*
X111402000Y-56174000D01*
X101852000Y-57424000D02*
X103102000Y-56174000D01*
D27*
%TO.N,GND*%
X98972000Y-68124000D02*
X101852000Y-71004000D01*
X98972000Y-63894000D02*
X98972000Y-68124000D01*
D26*
%TO.N,+5VD*%
X119227000Y-85119000D02*
X112652000Y-78544000D01*
X119747000Y-85119000D02*
X119227000Y-85119000D01*
X117172000Y-90944000D02*
X104027000Y-90944000D01*
X119747000Y-88369000D02*
X117172000Y-90944000D01*
X104027000Y-90944000D02*
X102477000Y-89394000D01*
X119747000Y-85119000D02*
X119747000Y-88369000D01*
D25*
%TO.N,S88_Data*%
X103747000Y-79269000D02*
X109472000Y-73544000D01*
X103747000Y-86854000D02*
X103747000Y-79269000D01*
D26*
%TO.N,+3.3V*%
X126972000Y-74644000D02*
X147272000Y-74644000D01*
X124172000Y-71844000D02*
X126972000Y-74644000D01*
D27*
%TO.N,+5V*%
X97472000Y-71704000D02*
X101852000Y-76084000D01*
X97472000Y-67044000D02*
X97472000Y-71704000D01*
X95972000Y-65544000D02*
X97472000Y-67044000D01*
X95972000Y-56444000D02*
X95972000Y-65544000D01*
X97572000Y-54844000D02*
X95972000Y-56444000D01*
X97572000Y-51888000D02*
X97572000Y-54844000D01*
X98900000Y-50560000D02*
X97572000Y-51888000D01*
%TO.N,GND*%
X98972000Y-57394000D02*
X98972000Y-63894000D01*
X102690000Y-53676000D02*
X98972000Y-57394000D01*
X102690000Y-52126000D02*
X102690000Y-53676000D01*
D26*
X98972000Y-57394000D02*
X99322000Y-57394000D01*
D27*
X101432000Y-71004000D02*
X101852000Y-71004000D01*
X103980000Y-50836000D02*
X102690000Y-52126000D01*
X103980000Y-50560000D02*
X103980000Y-50836000D01*
D25*
%TO.N,S88_Reset_3V3*%
X122172000Y-56544000D02*
X122172000Y-71564000D01*
X120395000Y-51735000D02*
X120395000Y-54767000D01*
X120395000Y-54767000D02*
X122172000Y-56544000D01*
X119220000Y-50560000D02*
X120395000Y-51735000D01*
X122172000Y-71564000D02*
X120272000Y-73464000D01*
D26*
%TO.N,GND*%
X142355000Y-55993000D02*
X144267000Y-55993000D01*
D27*
X145870000Y-51810000D02*
X144102233Y-51810000D01*
D26*
X137402000Y-60946000D02*
X142355000Y-55993000D01*
X144267000Y-55993000D02*
X147160000Y-53100000D01*
X137902000Y-71044000D02*
X141372000Y-71044000D01*
D27*
X147160000Y-53100000D02*
X145870000Y-51810000D01*
D25*
X147160000Y-53100000D02*
X146560976Y-53100000D01*
D27*
X143370000Y-51077767D02*
X143370000Y-49542000D01*
D26*
X137402000Y-61327000D02*
X137402000Y-70544000D01*
X137402000Y-70544000D02*
X137902000Y-71044000D01*
D27*
X142709000Y-48881000D02*
X105659000Y-48881000D01*
X144102233Y-51810000D02*
X143370000Y-51077767D01*
D26*
X137402000Y-70544000D02*
X137402000Y-72014000D01*
D27*
X105659000Y-48881000D02*
X103980000Y-50560000D01*
D26*
X137402000Y-61327000D02*
X137402000Y-60946000D01*
X137402000Y-72014000D02*
X136072000Y-73344000D01*
D27*
X143370000Y-49542000D02*
X142709000Y-48881000D01*
D26*
%TO.N,+5VA*%
X151830000Y-68135000D02*
X145022000Y-61327000D01*
X153072000Y-69344000D02*
X153072000Y-71044000D01*
X151863000Y-68135000D02*
X153072000Y-69344000D01*
%TO.N,GNDA*%
X145072000Y-63044000D02*
X144199000Y-63044000D01*
X151472000Y-69444000D02*
X145072000Y-63044000D01*
X144199000Y-63044000D02*
X142482000Y-61327000D01*
D25*
%TO.N,CS0*%
X133211000Y-64389000D02*
X133211000Y-52183000D01*
X128082000Y-51802000D02*
X126840000Y-50560000D01*
X133211000Y-52183000D02*
X132830000Y-51802000D01*
X132830000Y-51802000D02*
X128082000Y-51802000D01*
X129200000Y-68400000D02*
X129239000Y-68439000D01*
X129200000Y-68400000D02*
X133211000Y-64389000D01*
D26*
%TO.N,GNDD*%
X124539000Y-93052000D02*
X126239000Y-93052000D01*
X121539000Y-96052000D02*
X124539000Y-93052000D01*
%TO.N,+5VD*%
X111402000Y-61254000D02*
X112652000Y-62504000D01*
X103102000Y-61254000D02*
X111402000Y-61254000D01*
X101852000Y-62504000D02*
X103102000Y-61254000D01*
%TD*%
%TA.AperFunction,Conductor*%
%TO.N,GND*%
G36*
X101219713Y-49263685D02*
G01*
X101265468Y-49316489D01*
X101275412Y-49385647D01*
X101246387Y-49449203D01*
X101187609Y-49486977D01*
X101175468Y-49489886D01*
X101137544Y-49496976D01*
X101137541Y-49496976D01*
X101137541Y-49496977D01*
X100947364Y-49570651D01*
X100947357Y-49570655D01*
X100773960Y-49678017D01*
X100773958Y-49678019D01*
X100623237Y-49815418D01*
X100500327Y-49978178D01*
X100409422Y-50160739D01*
X100409417Y-50160752D01*
X100353602Y-50356917D01*
X100334785Y-50559999D01*
X100334785Y-50560000D01*
X100353602Y-50763082D01*
X100409417Y-50959247D01*
X100409422Y-50959260D01*
X100500327Y-51141821D01*
X100623237Y-51304581D01*
X100773958Y-51441980D01*
X100773960Y-51441982D01*
X100870126Y-51501525D01*
X100947363Y-51549348D01*
X101137544Y-51623024D01*
X101338024Y-51660500D01*
X101338026Y-51660500D01*
X101541974Y-51660500D01*
X101541976Y-51660500D01*
X101742456Y-51623024D01*
X101932637Y-51549348D01*
X102106041Y-51441981D01*
X102256764Y-51304579D01*
X102379673Y-51141821D01*
X102441598Y-51017456D01*
X102466817Y-50966812D01*
X102514319Y-50915575D01*
X102581982Y-50898153D01*
X102648323Y-50920078D01*
X102692278Y-50974389D01*
X102697592Y-50989989D01*
X102706567Y-51023485D01*
X102706570Y-51023492D01*
X102806399Y-51237578D01*
X102941894Y-51431082D01*
X103108917Y-51598105D01*
X103302421Y-51733600D01*
X103516507Y-51833429D01*
X103516516Y-51833433D01*
X103555583Y-51843901D01*
X103615244Y-51880266D01*
X103645773Y-51943113D01*
X103637479Y-52012488D01*
X103592993Y-52066366D01*
X103568284Y-52079302D01*
X103487373Y-52110647D01*
X103487357Y-52110655D01*
X103313960Y-52218017D01*
X103313958Y-52218019D01*
X103163237Y-52355418D01*
X103040327Y-52518178D01*
X102949422Y-52700739D01*
X102949417Y-52700752D01*
X102893602Y-52896917D01*
X102874785Y-53099999D01*
X102874785Y-53100000D01*
X102893602Y-53303082D01*
X102949417Y-53499247D01*
X102949422Y-53499260D01*
X103040327Y-53681821D01*
X103163237Y-53844581D01*
X103247444Y-53921345D01*
X103313952Y-53981975D01*
X103313958Y-53981980D01*
X103313960Y-53981982D01*
X103313962Y-53981983D01*
X103487363Y-54089348D01*
X103677544Y-54163024D01*
X103878024Y-54200500D01*
X103878026Y-54200500D01*
X104081974Y-54200500D01*
X104081976Y-54200500D01*
X104282456Y-54163024D01*
X104472637Y-54089348D01*
X104646041Y-53981981D01*
X104785170Y-53855148D01*
X104796762Y-53844581D01*
X104796764Y-53844579D01*
X104919673Y-53681821D01*
X105010582Y-53499250D01*
X105066397Y-53303083D01*
X105085215Y-53100000D01*
X105085215Y-53099999D01*
X105414785Y-53099999D01*
X105414785Y-53100000D01*
X105433602Y-53303082D01*
X105489417Y-53499247D01*
X105489422Y-53499260D01*
X105580327Y-53681821D01*
X105703237Y-53844581D01*
X105787444Y-53921345D01*
X105853952Y-53981975D01*
X105853958Y-53981980D01*
X105853960Y-53981982D01*
X105853962Y-53981983D01*
X106027363Y-54089348D01*
X106217544Y-54163024D01*
X106418024Y-54200500D01*
X106418026Y-54200500D01*
X106621974Y-54200500D01*
X106621976Y-54200500D01*
X106822456Y-54163024D01*
X107012637Y-54089348D01*
X107186041Y-53981981D01*
X107325170Y-53855148D01*
X107336762Y-53844581D01*
X107336764Y-53844579D01*
X107459673Y-53681821D01*
X107550582Y-53499250D01*
X107606397Y-53303083D01*
X107625215Y-53100000D01*
X107625215Y-53099999D01*
X107954785Y-53099999D01*
X107954785Y-53100000D01*
X107973602Y-53303082D01*
X108029417Y-53499247D01*
X108029422Y-53499260D01*
X108120327Y-53681821D01*
X108243237Y-53844581D01*
X108327444Y-53921345D01*
X108393952Y-53981975D01*
X108393958Y-53981980D01*
X108393960Y-53981982D01*
X108393962Y-53981983D01*
X108567363Y-54089348D01*
X108757544Y-54163024D01*
X108958024Y-54200500D01*
X108958026Y-54200500D01*
X109161974Y-54200500D01*
X109161976Y-54200500D01*
X109362456Y-54163024D01*
X109552637Y-54089348D01*
X109726041Y-53981981D01*
X109865170Y-53855148D01*
X109876762Y-53844581D01*
X109876764Y-53844579D01*
X109999673Y-53681821D01*
X110090582Y-53499250D01*
X110146397Y-53303083D01*
X110165215Y-53100000D01*
X110165215Y-53099999D01*
X110494785Y-53099999D01*
X110494785Y-53100000D01*
X110513602Y-53303082D01*
X110569417Y-53499247D01*
X110569422Y-53499260D01*
X110660327Y-53681821D01*
X110783237Y-53844581D01*
X110867444Y-53921345D01*
X110933952Y-53981975D01*
X110933958Y-53981980D01*
X110933960Y-53981982D01*
X110933962Y-53981983D01*
X111107363Y-54089348D01*
X111297544Y-54163024D01*
X111498024Y-54200500D01*
X111498026Y-54200500D01*
X111701974Y-54200500D01*
X111701976Y-54200500D01*
X111902456Y-54163024D01*
X112092637Y-54089348D01*
X112266041Y-53981981D01*
X112405170Y-53855148D01*
X112416762Y-53844581D01*
X112416764Y-53844579D01*
X112539673Y-53681821D01*
X112630582Y-53499250D01*
X112686397Y-53303083D01*
X112705215Y-53100000D01*
X112705215Y-53099999D01*
X113034785Y-53099999D01*
X113034785Y-53100000D01*
X113053602Y-53303082D01*
X113109417Y-53499247D01*
X113109422Y-53499260D01*
X113200327Y-53681821D01*
X113323237Y-53844581D01*
X113407444Y-53921345D01*
X113473952Y-53981975D01*
X113473958Y-53981980D01*
X113473960Y-53981982D01*
X113473962Y-53981983D01*
X113647363Y-54089348D01*
X113837544Y-54163024D01*
X114038024Y-54200500D01*
X114038026Y-54200500D01*
X114241974Y-54200500D01*
X114241976Y-54200500D01*
X114442456Y-54163024D01*
X114632637Y-54089348D01*
X114806041Y-53981981D01*
X114945170Y-53855148D01*
X114956762Y-53844581D01*
X114956764Y-53844579D01*
X115079673Y-53681821D01*
X115170582Y-53499250D01*
X115226397Y-53303083D01*
X115245215Y-53100000D01*
X115239115Y-53034174D01*
X115226397Y-52896917D01*
X115213048Y-52850000D01*
X115170582Y-52700750D01*
X115170159Y-52699901D01*
X115120415Y-52600000D01*
X115079673Y-52518179D01*
X115020704Y-52440091D01*
X114956762Y-52355418D01*
X114806041Y-52218019D01*
X114806039Y-52218017D01*
X114632642Y-52110655D01*
X114632639Y-52110653D01*
X114632637Y-52110652D01*
X114632636Y-52110651D01*
X114632635Y-52110651D01*
X114506769Y-52061891D01*
X114442456Y-52036976D01*
X114241976Y-51999500D01*
X114038024Y-51999500D01*
X113837544Y-52036976D01*
X113837541Y-52036976D01*
X113837541Y-52036977D01*
X113647364Y-52110651D01*
X113647357Y-52110655D01*
X113473960Y-52218017D01*
X113473958Y-52218019D01*
X113323237Y-52355418D01*
X113200327Y-52518178D01*
X113109422Y-52700739D01*
X113109417Y-52700752D01*
X113053602Y-52896917D01*
X113034785Y-53099999D01*
X112705215Y-53099999D01*
X112699115Y-53034174D01*
X112686397Y-52896917D01*
X112673048Y-52850000D01*
X112630582Y-52700750D01*
X112630159Y-52699901D01*
X112580415Y-52600000D01*
X112539673Y-52518179D01*
X112480704Y-52440091D01*
X112416762Y-52355418D01*
X112266041Y-52218019D01*
X112266039Y-52218017D01*
X112092642Y-52110655D01*
X112092639Y-52110653D01*
X112092637Y-52110652D01*
X112092636Y-52110651D01*
X112092635Y-52110651D01*
X111966769Y-52061891D01*
X111902456Y-52036976D01*
X111701976Y-51999500D01*
X111498024Y-51999500D01*
X111297544Y-52036976D01*
X111297541Y-52036976D01*
X111297541Y-52036977D01*
X111107364Y-52110651D01*
X111107357Y-52110655D01*
X110933960Y-52218017D01*
X110933958Y-52218019D01*
X110783237Y-52355418D01*
X110660327Y-52518178D01*
X110569422Y-52700739D01*
X110569417Y-52700752D01*
X110513602Y-52896917D01*
X110494785Y-53099999D01*
X110165215Y-53099999D01*
X110159115Y-53034174D01*
X110146397Y-52896917D01*
X110133048Y-52850000D01*
X110090582Y-52700750D01*
X110090159Y-52699901D01*
X110040415Y-52600000D01*
X109999673Y-52518179D01*
X109940704Y-52440091D01*
X109876762Y-52355418D01*
X109726041Y-52218019D01*
X109726039Y-52218017D01*
X109552642Y-52110655D01*
X109552639Y-52110653D01*
X109552637Y-52110652D01*
X109552636Y-52110651D01*
X109552635Y-52110651D01*
X109426769Y-52061891D01*
X109362456Y-52036976D01*
X109161976Y-51999500D01*
X108958024Y-51999500D01*
X108757544Y-52036976D01*
X108757541Y-52036976D01*
X108757541Y-52036977D01*
X108567364Y-52110651D01*
X108567357Y-52110655D01*
X108393960Y-52218017D01*
X108393958Y-52218019D01*
X108243237Y-52355418D01*
X108120327Y-52518178D01*
X108029422Y-52700739D01*
X108029417Y-52700752D01*
X107973602Y-52896917D01*
X107954785Y-53099999D01*
X107625215Y-53099999D01*
X107619115Y-53034174D01*
X107606397Y-52896917D01*
X107593048Y-52850000D01*
X107550582Y-52700750D01*
X107550159Y-52699901D01*
X107500415Y-52600000D01*
X107459673Y-52518179D01*
X107400704Y-52440091D01*
X107336762Y-52355418D01*
X107186041Y-52218019D01*
X107186039Y-52218017D01*
X107012642Y-52110655D01*
X107012639Y-52110653D01*
X107012637Y-52110652D01*
X107012636Y-52110651D01*
X107012635Y-52110651D01*
X106886769Y-52061891D01*
X106822456Y-52036976D01*
X106621976Y-51999500D01*
X106418024Y-51999500D01*
X106217544Y-52036976D01*
X106217541Y-52036976D01*
X106217541Y-52036977D01*
X106027364Y-52110651D01*
X106027357Y-52110655D01*
X105853960Y-52218017D01*
X105853958Y-52218019D01*
X105703237Y-52355418D01*
X105580327Y-52518178D01*
X105489422Y-52700739D01*
X105489417Y-52700752D01*
X105433602Y-52896917D01*
X105414785Y-53099999D01*
X105085215Y-53099999D01*
X105079115Y-53034174D01*
X105066397Y-52896917D01*
X105053048Y-52850000D01*
X105010582Y-52700750D01*
X105010159Y-52699901D01*
X104960415Y-52600000D01*
X104919673Y-52518179D01*
X104860704Y-52440091D01*
X104796762Y-52355418D01*
X104646041Y-52218019D01*
X104646039Y-52218017D01*
X104472642Y-52110655D01*
X104472639Y-52110653D01*
X104472637Y-52110652D01*
X104472636Y-52110651D01*
X104472635Y-52110651D01*
X104391715Y-52079303D01*
X104336313Y-52036730D01*
X104312723Y-51970963D01*
X104328434Y-51902883D01*
X104378458Y-51854104D01*
X104404417Y-51843901D01*
X104443481Y-51833434D01*
X104443492Y-51833429D01*
X104657578Y-51733600D01*
X104851082Y-51598105D01*
X105018105Y-51431082D01*
X105153600Y-51237578D01*
X105253429Y-51023492D01*
X105253431Y-51023489D01*
X105262406Y-50989992D01*
X105298770Y-50930331D01*
X105361616Y-50899800D01*
X105430992Y-50908094D01*
X105484871Y-50952578D01*
X105493182Y-50966811D01*
X105580327Y-51141821D01*
X105703237Y-51304581D01*
X105853958Y-51441980D01*
X105853960Y-51441982D01*
X105950126Y-51501525D01*
X106027363Y-51549348D01*
X106217544Y-51623024D01*
X106418024Y-51660500D01*
X106418026Y-51660500D01*
X106621974Y-51660500D01*
X106621976Y-51660500D01*
X106822456Y-51623024D01*
X107012637Y-51549348D01*
X107186041Y-51441981D01*
X107336764Y-51304579D01*
X107459673Y-51141821D01*
X107550582Y-50959250D01*
X107606397Y-50763083D01*
X107625215Y-50560000D01*
X107619115Y-50494174D01*
X107606397Y-50356917D01*
X107589596Y-50297869D01*
X107550582Y-50160750D01*
X107550159Y-50159901D01*
X107500415Y-50060000D01*
X107459673Y-49978179D01*
X107336764Y-49815421D01*
X107336762Y-49815418D01*
X107186041Y-49678019D01*
X107186039Y-49678017D01*
X107012642Y-49570655D01*
X107012635Y-49570651D01*
X106886769Y-49521891D01*
X106822456Y-49496976D01*
X106784539Y-49489888D01*
X106722260Y-49458221D01*
X106686987Y-49397908D01*
X106689921Y-49328100D01*
X106730130Y-49270960D01*
X106794848Y-49244629D01*
X106807326Y-49244000D01*
X108772674Y-49244000D01*
X108839713Y-49263685D01*
X108885468Y-49316489D01*
X108895412Y-49385647D01*
X108866387Y-49449203D01*
X108807609Y-49486977D01*
X108795468Y-49489886D01*
X108757544Y-49496976D01*
X108757541Y-49496976D01*
X108757541Y-49496977D01*
X108567364Y-49570651D01*
X108567357Y-49570655D01*
X108393960Y-49678017D01*
X108393958Y-49678019D01*
X108243237Y-49815418D01*
X108120327Y-49978178D01*
X108029422Y-50160739D01*
X108029417Y-50160752D01*
X107973602Y-50356917D01*
X107954785Y-50559999D01*
X107954785Y-50560000D01*
X107973602Y-50763082D01*
X108029417Y-50959247D01*
X108029422Y-50959260D01*
X108120327Y-51141821D01*
X108243237Y-51304581D01*
X108393958Y-51441980D01*
X108393960Y-51441982D01*
X108490126Y-51501525D01*
X108567363Y-51549348D01*
X108757544Y-51623024D01*
X108958024Y-51660500D01*
X108958026Y-51660500D01*
X109161974Y-51660500D01*
X109161976Y-51660500D01*
X109362456Y-51623024D01*
X109552637Y-51549348D01*
X109726041Y-51441981D01*
X109876764Y-51304579D01*
X109999673Y-51141821D01*
X110090582Y-50959250D01*
X110146397Y-50763083D01*
X110165215Y-50560000D01*
X110159115Y-50494174D01*
X110146397Y-50356917D01*
X110129596Y-50297869D01*
X110090582Y-50160750D01*
X110090159Y-50159901D01*
X110040415Y-50060000D01*
X109999673Y-49978179D01*
X109876764Y-49815421D01*
X109876762Y-49815418D01*
X109726041Y-49678019D01*
X109726039Y-49678017D01*
X109552642Y-49570655D01*
X109552635Y-49570651D01*
X109426769Y-49521891D01*
X109362456Y-49496976D01*
X109324539Y-49489888D01*
X109262260Y-49458221D01*
X109226987Y-49397908D01*
X109229921Y-49328100D01*
X109270130Y-49270960D01*
X109334848Y-49244629D01*
X109347326Y-49244000D01*
X111312674Y-49244000D01*
X111379713Y-49263685D01*
X111425468Y-49316489D01*
X111435412Y-49385647D01*
X111406387Y-49449203D01*
X111347609Y-49486977D01*
X111335468Y-49489886D01*
X111297544Y-49496976D01*
X111297541Y-49496976D01*
X111297541Y-49496977D01*
X111107364Y-49570651D01*
X111107357Y-49570655D01*
X110933960Y-49678017D01*
X110933958Y-49678019D01*
X110783237Y-49815418D01*
X110660327Y-49978178D01*
X110569422Y-50160739D01*
X110569417Y-50160752D01*
X110513602Y-50356917D01*
X110494785Y-50559999D01*
X110494785Y-50560000D01*
X110513602Y-50763082D01*
X110569417Y-50959247D01*
X110569422Y-50959260D01*
X110660327Y-51141821D01*
X110783237Y-51304581D01*
X110933958Y-51441980D01*
X110933960Y-51441982D01*
X111030126Y-51501525D01*
X111107363Y-51549348D01*
X111297544Y-51623024D01*
X111498024Y-51660500D01*
X111498026Y-51660500D01*
X111701974Y-51660500D01*
X111701976Y-51660500D01*
X111902456Y-51623024D01*
X112092637Y-51549348D01*
X112266041Y-51441981D01*
X112416764Y-51304579D01*
X112539673Y-51141821D01*
X112630582Y-50959250D01*
X112686397Y-50763083D01*
X112705215Y-50560000D01*
X112699115Y-50494174D01*
X112686397Y-50356917D01*
X112669596Y-50297869D01*
X112630582Y-50160750D01*
X112630159Y-50159901D01*
X112580415Y-50060000D01*
X112539673Y-49978179D01*
X112416764Y-49815421D01*
X112416762Y-49815418D01*
X112266041Y-49678019D01*
X112266039Y-49678017D01*
X112092642Y-49570655D01*
X112092635Y-49570651D01*
X111966769Y-49521891D01*
X111902456Y-49496976D01*
X111864539Y-49489888D01*
X111802260Y-49458221D01*
X111766987Y-49397908D01*
X111769921Y-49328100D01*
X111810130Y-49270960D01*
X111874848Y-49244629D01*
X111887326Y-49244000D01*
X113852674Y-49244000D01*
X113919713Y-49263685D01*
X113965468Y-49316489D01*
X113975412Y-49385647D01*
X113946387Y-49449203D01*
X113887609Y-49486977D01*
X113875468Y-49489886D01*
X113837544Y-49496976D01*
X113837541Y-49496976D01*
X113837541Y-49496977D01*
X113647364Y-49570651D01*
X113647357Y-49570655D01*
X113473960Y-49678017D01*
X113473958Y-49678019D01*
X113323237Y-49815418D01*
X113200327Y-49978178D01*
X113109422Y-50160739D01*
X113109417Y-50160752D01*
X113053602Y-50356917D01*
X113034785Y-50559999D01*
X113034785Y-50560000D01*
X113053602Y-50763082D01*
X113109417Y-50959247D01*
X113109422Y-50959260D01*
X113200327Y-51141821D01*
X113323237Y-51304581D01*
X113473958Y-51441980D01*
X113473960Y-51441982D01*
X113570126Y-51501525D01*
X113647363Y-51549348D01*
X113837544Y-51623024D01*
X114038024Y-51660500D01*
X114038026Y-51660500D01*
X114241974Y-51660500D01*
X114241976Y-51660500D01*
X114442456Y-51623024D01*
X114632637Y-51549348D01*
X114806041Y-51441981D01*
X114956764Y-51304579D01*
X115079673Y-51141821D01*
X115170582Y-50959250D01*
X115226397Y-50763083D01*
X115245215Y-50560000D01*
X115239115Y-50494174D01*
X115226397Y-50356917D01*
X115209596Y-50297869D01*
X115170582Y-50160750D01*
X115170159Y-50159901D01*
X115120415Y-50060000D01*
X115079673Y-49978179D01*
X114956764Y-49815421D01*
X114956762Y-49815418D01*
X114806041Y-49678019D01*
X114806039Y-49678017D01*
X114632642Y-49570655D01*
X114632635Y-49570651D01*
X114506769Y-49521891D01*
X114442456Y-49496976D01*
X114404539Y-49489888D01*
X114342260Y-49458221D01*
X114306987Y-49397908D01*
X114309921Y-49328100D01*
X114350130Y-49270960D01*
X114414848Y-49244629D01*
X114427326Y-49244000D01*
X116392674Y-49244000D01*
X116459713Y-49263685D01*
X116505468Y-49316489D01*
X116515412Y-49385647D01*
X116486387Y-49449203D01*
X116427609Y-49486977D01*
X116415468Y-49489886D01*
X116377544Y-49496976D01*
X116377541Y-49496976D01*
X116377541Y-49496977D01*
X116187364Y-49570651D01*
X116187357Y-49570655D01*
X116013960Y-49678017D01*
X116013958Y-49678019D01*
X115863237Y-49815418D01*
X115740327Y-49978178D01*
X115649422Y-50160739D01*
X115649417Y-50160752D01*
X115593602Y-50356917D01*
X115574785Y-50559999D01*
X115574785Y-50560000D01*
X115593602Y-50763082D01*
X115649417Y-50959247D01*
X115649422Y-50959260D01*
X115740327Y-51141821D01*
X115863237Y-51304581D01*
X116013958Y-51441980D01*
X116013960Y-51441982D01*
X116110126Y-51501525D01*
X116187363Y-51549348D01*
X116377544Y-51623024D01*
X116578024Y-51660500D01*
X116578026Y-51660500D01*
X116781974Y-51660500D01*
X116781976Y-51660500D01*
X116982456Y-51623024D01*
X117172637Y-51549348D01*
X117346041Y-51441981D01*
X117496764Y-51304579D01*
X117619673Y-51141821D01*
X117710582Y-50959250D01*
X117766397Y-50763083D01*
X117785215Y-50560000D01*
X117779115Y-50494174D01*
X117766397Y-50356917D01*
X117749596Y-50297869D01*
X117710582Y-50160750D01*
X117710159Y-50159901D01*
X117660415Y-50060000D01*
X117619673Y-49978179D01*
X117496764Y-49815421D01*
X117496762Y-49815418D01*
X117346041Y-49678019D01*
X117346039Y-49678017D01*
X117172642Y-49570655D01*
X117172635Y-49570651D01*
X117046769Y-49521891D01*
X116982456Y-49496976D01*
X116944539Y-49489888D01*
X116882260Y-49458221D01*
X116846987Y-49397908D01*
X116849921Y-49328100D01*
X116890130Y-49270960D01*
X116954848Y-49244629D01*
X116967326Y-49244000D01*
X118932674Y-49244000D01*
X118999713Y-49263685D01*
X119045468Y-49316489D01*
X119055412Y-49385647D01*
X119026387Y-49449203D01*
X118967609Y-49486977D01*
X118955468Y-49489886D01*
X118917544Y-49496976D01*
X118917541Y-49496976D01*
X118917541Y-49496977D01*
X118727364Y-49570651D01*
X118727357Y-49570655D01*
X118553960Y-49678017D01*
X118553958Y-49678019D01*
X118403237Y-49815418D01*
X118280327Y-49978178D01*
X118189422Y-50160739D01*
X118189417Y-50160752D01*
X118133602Y-50356917D01*
X118114785Y-50559999D01*
X118114785Y-50560000D01*
X118133602Y-50763082D01*
X118189417Y-50959247D01*
X118189422Y-50959260D01*
X118280327Y-51141821D01*
X118403237Y-51304581D01*
X118553958Y-51441980D01*
X118553960Y-51441982D01*
X118650126Y-51501525D01*
X118727363Y-51549348D01*
X118917544Y-51623024D01*
X119118024Y-51660500D01*
X119118026Y-51660500D01*
X119321974Y-51660500D01*
X119321976Y-51660500D01*
X119522456Y-51623024D01*
X119612556Y-51588118D01*
X119682174Y-51582256D01*
X119743914Y-51614965D01*
X119745027Y-51616064D01*
X119983181Y-51854218D01*
X120016666Y-51915541D01*
X120019500Y-51941899D01*
X120019500Y-52078030D01*
X119999815Y-52145069D01*
X119947011Y-52190824D01*
X119877853Y-52200768D01*
X119830223Y-52183457D01*
X119712642Y-52110655D01*
X119712639Y-52110653D01*
X119712637Y-52110652D01*
X119712636Y-52110651D01*
X119712635Y-52110651D01*
X119586769Y-52061891D01*
X119522456Y-52036976D01*
X119321976Y-51999500D01*
X119118024Y-51999500D01*
X118917544Y-52036976D01*
X118917541Y-52036976D01*
X118917541Y-52036977D01*
X118727364Y-52110651D01*
X118727357Y-52110655D01*
X118553960Y-52218017D01*
X118553958Y-52218019D01*
X118403237Y-52355418D01*
X118280327Y-52518178D01*
X118189422Y-52700739D01*
X118189417Y-52700752D01*
X118133602Y-52896917D01*
X118114785Y-53099999D01*
X118114785Y-53100000D01*
X118133602Y-53303082D01*
X118189417Y-53499247D01*
X118189422Y-53499260D01*
X118280327Y-53681821D01*
X118403237Y-53844581D01*
X118487444Y-53921345D01*
X118553952Y-53981975D01*
X118553958Y-53981980D01*
X118553960Y-53981982D01*
X118553962Y-53981983D01*
X118727363Y-54089348D01*
X118917544Y-54163024D01*
X119118024Y-54200500D01*
X119118026Y-54200500D01*
X119321974Y-54200500D01*
X119321976Y-54200500D01*
X119522456Y-54163024D01*
X119712637Y-54089348D01*
X119830223Y-54016541D01*
X119897583Y-53997986D01*
X119964282Y-54018794D01*
X120009144Y-54072360D01*
X120019500Y-54121969D01*
X120019500Y-54816435D01*
X120045090Y-54911938D01*
X120092274Y-54993664D01*
X120094526Y-54997563D01*
X121760181Y-56663218D01*
X121793666Y-56724541D01*
X121796500Y-56750899D01*
X121796500Y-71357099D01*
X121776815Y-71424138D01*
X121760181Y-71444780D01*
X120759382Y-72445578D01*
X120698059Y-72479063D01*
X120635707Y-72476558D01*
X120477933Y-72428699D01*
X120477934Y-72428699D01*
X120272000Y-72408417D01*
X120066067Y-72428699D01*
X119868043Y-72488769D01*
X119784127Y-72533624D01*
X119685550Y-72586315D01*
X119685548Y-72586316D01*
X119685547Y-72586317D01*
X119525589Y-72717589D01*
X119394317Y-72877547D01*
X119296769Y-73060043D01*
X119236699Y-73258067D01*
X119216417Y-73464000D01*
X119236699Y-73669932D01*
X119236700Y-73669934D01*
X119296768Y-73867954D01*
X119394315Y-74050450D01*
X119394317Y-74050452D01*
X119525589Y-74210410D01*
X119622209Y-74289702D01*
X119685550Y-74341685D01*
X119868046Y-74439232D01*
X120066066Y-74499300D01*
X120066065Y-74499300D01*
X120084529Y-74501118D01*
X120272000Y-74519583D01*
X120477934Y-74499300D01*
X120675954Y-74439232D01*
X120858450Y-74341685D01*
X121018410Y-74210410D01*
X121149685Y-74050450D01*
X121247232Y-73867954D01*
X121307300Y-73669934D01*
X121327583Y-73464000D01*
X121307300Y-73258066D01*
X121259439Y-73100290D01*
X121258816Y-73030427D01*
X121290417Y-72976619D01*
X122423039Y-71843999D01*
X123516722Y-71843999D01*
X123516722Y-71844000D01*
X123535762Y-72000818D01*
X123576453Y-72108110D01*
X123591780Y-72148523D01*
X123681517Y-72278530D01*
X123799760Y-72383283D01*
X123799762Y-72383284D01*
X123939634Y-72456696D01*
X123939633Y-72456696D01*
X124088211Y-72493316D01*
X124146218Y-72526032D01*
X126664686Y-75044500D01*
X126778814Y-75110392D01*
X126906108Y-75144500D01*
X127037892Y-75144500D01*
X146808956Y-75144500D01*
X146875995Y-75164185D01*
X146891179Y-75175681D01*
X146899760Y-75183283D01*
X146899762Y-75183284D01*
X146899766Y-75183287D01*
X147039634Y-75256696D01*
X147193014Y-75294500D01*
X147193015Y-75294500D01*
X147350985Y-75294500D01*
X147504365Y-75256696D01*
X147644240Y-75183283D01*
X147762483Y-75078530D01*
X147852220Y-74948523D01*
X147908237Y-74800818D01*
X147927278Y-74644000D01*
X147909709Y-74499300D01*
X147908237Y-74487181D01*
X147882424Y-74419118D01*
X147852220Y-74339477D01*
X147762483Y-74209470D01*
X147644240Y-74104717D01*
X147644238Y-74104716D01*
X147644237Y-74104715D01*
X147504365Y-74031303D01*
X147350986Y-73993500D01*
X147350985Y-73993500D01*
X147193015Y-73993500D01*
X147193014Y-73993500D01*
X147039634Y-74031303D01*
X146899766Y-74104712D01*
X146899762Y-74104715D01*
X146899760Y-74104717D01*
X146891181Y-74112316D01*
X146827950Y-74142037D01*
X146808956Y-74143500D01*
X127230676Y-74143500D01*
X127163637Y-74123815D01*
X127142995Y-74107181D01*
X124850274Y-71814460D01*
X124816789Y-71753137D01*
X124814859Y-71741724D01*
X124808237Y-71687181D01*
X124780269Y-71613436D01*
X124752220Y-71539477D01*
X124662483Y-71409470D01*
X124544240Y-71304717D01*
X124544238Y-71304716D01*
X124544237Y-71304715D01*
X124404365Y-71231303D01*
X124250986Y-71193500D01*
X124250985Y-71193500D01*
X124093015Y-71193500D01*
X124093014Y-71193500D01*
X123939634Y-71231303D01*
X123799762Y-71304715D01*
X123741806Y-71356059D01*
X123687692Y-71404000D01*
X123681516Y-71409471D01*
X123591781Y-71539475D01*
X123591780Y-71539476D01*
X123535762Y-71687181D01*
X123516722Y-71843999D01*
X122423039Y-71843999D01*
X122472475Y-71794563D01*
X122521911Y-71708937D01*
X122547500Y-71613436D01*
X122547500Y-71514564D01*
X122547500Y-56494565D01*
X122547500Y-56494564D01*
X122521911Y-56399063D01*
X122472475Y-56313438D01*
X120806819Y-54647782D01*
X120773334Y-54586459D01*
X120770500Y-54560101D01*
X120770500Y-53967942D01*
X120790185Y-53900903D01*
X120842989Y-53855148D01*
X120912147Y-53845204D01*
X120975703Y-53874229D01*
X120978030Y-53876298D01*
X121093958Y-53981980D01*
X121093960Y-53981982D01*
X121093962Y-53981983D01*
X121267363Y-54089348D01*
X121457544Y-54163024D01*
X121658024Y-54200500D01*
X121658026Y-54200500D01*
X121861974Y-54200500D01*
X121861976Y-54200500D01*
X122062456Y-54163024D01*
X122252637Y-54089348D01*
X122426041Y-53981981D01*
X122565170Y-53855148D01*
X122576762Y-53844581D01*
X122576764Y-53844579D01*
X122699673Y-53681821D01*
X122790582Y-53499250D01*
X122846397Y-53303083D01*
X122865215Y-53100000D01*
X122865215Y-53099999D01*
X123194785Y-53099999D01*
X123194785Y-53100000D01*
X123213602Y-53303082D01*
X123269417Y-53499247D01*
X123269422Y-53499260D01*
X123360327Y-53681821D01*
X123483237Y-53844581D01*
X123567444Y-53921345D01*
X123633952Y-53981975D01*
X123633958Y-53981980D01*
X123633960Y-53981982D01*
X123633962Y-53981983D01*
X123807363Y-54089348D01*
X123997544Y-54163024D01*
X124198024Y-54200500D01*
X124198026Y-54200500D01*
X124401974Y-54200500D01*
X124401976Y-54200500D01*
X124602456Y-54163024D01*
X124792637Y-54089348D01*
X124966041Y-53981981D01*
X125105170Y-53855148D01*
X125116762Y-53844581D01*
X125116764Y-53844579D01*
X125239673Y-53681821D01*
X125330582Y-53499250D01*
X125386397Y-53303083D01*
X125405215Y-53100000D01*
X125405215Y-53099999D01*
X125734785Y-53099999D01*
X125734785Y-53100000D01*
X125753602Y-53303082D01*
X125809417Y-53499247D01*
X125809422Y-53499260D01*
X125900327Y-53681821D01*
X126023237Y-53844581D01*
X126107444Y-53921345D01*
X126173952Y-53981975D01*
X126173958Y-53981980D01*
X126173960Y-53981982D01*
X126173962Y-53981983D01*
X126347363Y-54089348D01*
X126537544Y-54163024D01*
X126738024Y-54200500D01*
X126738026Y-54200500D01*
X126941974Y-54200500D01*
X126941976Y-54200500D01*
X127142456Y-54163024D01*
X127332637Y-54089348D01*
X127506041Y-53981981D01*
X127645170Y-53855148D01*
X127656762Y-53844581D01*
X127656764Y-53844579D01*
X127779673Y-53681821D01*
X127870582Y-53499250D01*
X127926397Y-53303083D01*
X127945215Y-53100000D01*
X127939115Y-53034174D01*
X127926397Y-52896917D01*
X127913048Y-52850000D01*
X127870582Y-52700750D01*
X127870159Y-52699901D01*
X127820415Y-52600000D01*
X127779673Y-52518179D01*
X127720704Y-52440091D01*
X127656762Y-52355418D01*
X127506041Y-52218019D01*
X127506039Y-52218017D01*
X127332642Y-52110655D01*
X127332639Y-52110653D01*
X127332637Y-52110652D01*
X127332636Y-52110651D01*
X127332635Y-52110651D01*
X127206769Y-52061891D01*
X127142456Y-52036976D01*
X126941976Y-51999500D01*
X126738024Y-51999500D01*
X126537544Y-52036976D01*
X126537541Y-52036976D01*
X126537541Y-52036977D01*
X126347364Y-52110651D01*
X126347357Y-52110655D01*
X126173960Y-52218017D01*
X126173958Y-52218019D01*
X126023237Y-52355418D01*
X125900327Y-52518178D01*
X125809422Y-52700739D01*
X125809417Y-52700752D01*
X125753602Y-52896917D01*
X125734785Y-53099999D01*
X125405215Y-53099999D01*
X125399115Y-53034174D01*
X125386397Y-52896917D01*
X125373048Y-52850000D01*
X125330582Y-52700750D01*
X125330159Y-52699901D01*
X125280415Y-52600000D01*
X125239673Y-52518179D01*
X125180704Y-52440091D01*
X125116762Y-52355418D01*
X124966041Y-52218019D01*
X124966039Y-52218017D01*
X124792642Y-52110655D01*
X124792639Y-52110653D01*
X124792637Y-52110652D01*
X124792636Y-52110651D01*
X124792635Y-52110651D01*
X124666769Y-52061891D01*
X124602456Y-52036976D01*
X124401976Y-51999500D01*
X124198024Y-51999500D01*
X123997544Y-52036976D01*
X123997541Y-52036976D01*
X123997541Y-52036977D01*
X123807364Y-52110651D01*
X123807357Y-52110655D01*
X123633960Y-52218017D01*
X123633958Y-52218019D01*
X123483237Y-52355418D01*
X123360327Y-52518178D01*
X123269422Y-52700739D01*
X123269417Y-52700752D01*
X123213602Y-52896917D01*
X123194785Y-53099999D01*
X122865215Y-53099999D01*
X122859115Y-53034174D01*
X122846397Y-52896917D01*
X122833048Y-52850000D01*
X122790582Y-52700750D01*
X122790159Y-52699901D01*
X122740415Y-52600000D01*
X122699673Y-52518179D01*
X122640704Y-52440091D01*
X122576762Y-52355418D01*
X122426041Y-52218019D01*
X122426039Y-52218017D01*
X122252642Y-52110655D01*
X122252639Y-52110653D01*
X122252637Y-52110652D01*
X122252636Y-52110651D01*
X122252635Y-52110651D01*
X122126769Y-52061891D01*
X122062456Y-52036976D01*
X121861976Y-51999500D01*
X121658024Y-51999500D01*
X121457544Y-52036976D01*
X121457541Y-52036976D01*
X121457541Y-52036977D01*
X121267364Y-52110651D01*
X121267357Y-52110655D01*
X121093960Y-52218017D01*
X121093958Y-52218019D01*
X120978038Y-52323694D01*
X120915234Y-52354311D01*
X120845847Y-52346113D01*
X120791907Y-52301703D01*
X120770539Y-52235181D01*
X120770500Y-52232057D01*
X120770500Y-51685567D01*
X120770500Y-51685565D01*
X120744910Y-51590062D01*
X120695475Y-51504438D01*
X120625562Y-51434525D01*
X120279709Y-51088672D01*
X120246224Y-51027349D01*
X120250666Y-50965234D01*
X120249013Y-50964764D01*
X120251861Y-50954756D01*
X120306397Y-50763083D01*
X120325215Y-50560000D01*
X120319115Y-50494174D01*
X120306397Y-50356917D01*
X120289596Y-50297869D01*
X120250582Y-50160750D01*
X120250159Y-50159901D01*
X120200415Y-50060000D01*
X120159673Y-49978179D01*
X120036764Y-49815421D01*
X120036762Y-49815418D01*
X119886041Y-49678019D01*
X119886039Y-49678017D01*
X119712642Y-49570655D01*
X119712635Y-49570651D01*
X119586769Y-49521891D01*
X119522456Y-49496976D01*
X119484539Y-49489888D01*
X119422260Y-49458221D01*
X119386987Y-49397908D01*
X119389921Y-49328100D01*
X119430130Y-49270960D01*
X119494848Y-49244629D01*
X119507326Y-49244000D01*
X121472674Y-49244000D01*
X121539713Y-49263685D01*
X121585468Y-49316489D01*
X121595412Y-49385647D01*
X121566387Y-49449203D01*
X121507609Y-49486977D01*
X121495468Y-49489886D01*
X121457544Y-49496976D01*
X121457541Y-49496976D01*
X121457541Y-49496977D01*
X121267364Y-49570651D01*
X121267357Y-49570655D01*
X121093960Y-49678017D01*
X121093958Y-49678019D01*
X120943237Y-49815418D01*
X120820327Y-49978178D01*
X120729422Y-50160739D01*
X120729417Y-50160752D01*
X120673602Y-50356917D01*
X120654785Y-50559999D01*
X120654785Y-50560000D01*
X120673602Y-50763082D01*
X120729417Y-50959247D01*
X120729422Y-50959260D01*
X120820327Y-51141821D01*
X120943237Y-51304581D01*
X121093958Y-51441980D01*
X121093960Y-51441982D01*
X121190126Y-51501525D01*
X121267363Y-51549348D01*
X121457544Y-51623024D01*
X121658024Y-51660500D01*
X121658026Y-51660500D01*
X121861974Y-51660500D01*
X121861976Y-51660500D01*
X122062456Y-51623024D01*
X122252637Y-51549348D01*
X122426041Y-51441981D01*
X122576764Y-51304579D01*
X122699673Y-51141821D01*
X122790582Y-50959250D01*
X122846397Y-50763083D01*
X122865215Y-50560000D01*
X122859115Y-50494174D01*
X122846397Y-50356917D01*
X122829596Y-50297869D01*
X122790582Y-50160750D01*
X122790159Y-50159901D01*
X122740415Y-50060000D01*
X122699673Y-49978179D01*
X122576764Y-49815421D01*
X122576762Y-49815418D01*
X122426041Y-49678019D01*
X122426039Y-49678017D01*
X122252642Y-49570655D01*
X122252635Y-49570651D01*
X122126769Y-49521891D01*
X122062456Y-49496976D01*
X122024539Y-49489888D01*
X121962260Y-49458221D01*
X121926987Y-49397908D01*
X121929921Y-49328100D01*
X121970130Y-49270960D01*
X122034848Y-49244629D01*
X122047326Y-49244000D01*
X124012674Y-49244000D01*
X124079713Y-49263685D01*
X124125468Y-49316489D01*
X124135412Y-49385647D01*
X124106387Y-49449203D01*
X124047609Y-49486977D01*
X124035468Y-49489886D01*
X123997544Y-49496976D01*
X123997541Y-49496976D01*
X123997541Y-49496977D01*
X123807364Y-49570651D01*
X123807357Y-49570655D01*
X123633960Y-49678017D01*
X123633958Y-49678019D01*
X123483237Y-49815418D01*
X123360327Y-49978178D01*
X123269422Y-50160739D01*
X123269417Y-50160752D01*
X123213602Y-50356917D01*
X123194785Y-50559999D01*
X123194785Y-50560000D01*
X123213602Y-50763082D01*
X123269417Y-50959247D01*
X123269422Y-50959260D01*
X123360327Y-51141821D01*
X123483237Y-51304581D01*
X123633958Y-51441980D01*
X123633960Y-51441982D01*
X123730126Y-51501525D01*
X123807363Y-51549348D01*
X123997544Y-51623024D01*
X124198024Y-51660500D01*
X124198026Y-51660500D01*
X124401974Y-51660500D01*
X124401976Y-51660500D01*
X124602456Y-51623024D01*
X124792637Y-51549348D01*
X124966041Y-51441981D01*
X125116764Y-51304579D01*
X125239673Y-51141821D01*
X125330582Y-50959250D01*
X125386397Y-50763083D01*
X125405215Y-50560000D01*
X125399115Y-50494174D01*
X125386397Y-50356917D01*
X125369596Y-50297869D01*
X125330582Y-50160750D01*
X125330159Y-50159901D01*
X125280415Y-50060000D01*
X125239673Y-49978179D01*
X125116764Y-49815421D01*
X125116762Y-49815418D01*
X124966041Y-49678019D01*
X124966039Y-49678017D01*
X124792642Y-49570655D01*
X124792635Y-49570651D01*
X124666769Y-49521891D01*
X124602456Y-49496976D01*
X124564539Y-49489888D01*
X124502260Y-49458221D01*
X124466987Y-49397908D01*
X124469921Y-49328100D01*
X124510130Y-49270960D01*
X124574848Y-49244629D01*
X124587326Y-49244000D01*
X126552674Y-49244000D01*
X126619713Y-49263685D01*
X126665468Y-49316489D01*
X126675412Y-49385647D01*
X126646387Y-49449203D01*
X126587609Y-49486977D01*
X126575468Y-49489886D01*
X126537544Y-49496976D01*
X126537541Y-49496976D01*
X126537541Y-49496977D01*
X126347364Y-49570651D01*
X126347357Y-49570655D01*
X126173960Y-49678017D01*
X126173958Y-49678019D01*
X126023237Y-49815418D01*
X125900327Y-49978178D01*
X125809422Y-50160739D01*
X125809417Y-50160752D01*
X125753602Y-50356917D01*
X125734785Y-50559999D01*
X125734785Y-50560000D01*
X125753602Y-50763082D01*
X125809417Y-50959247D01*
X125809422Y-50959260D01*
X125900327Y-51141821D01*
X126023237Y-51304581D01*
X126173958Y-51441980D01*
X126173960Y-51441982D01*
X126270126Y-51501525D01*
X126347363Y-51549348D01*
X126537544Y-51623024D01*
X126738024Y-51660500D01*
X126738026Y-51660500D01*
X126941974Y-51660500D01*
X126941976Y-51660500D01*
X127142456Y-51623024D01*
X127232556Y-51588118D01*
X127302174Y-51582256D01*
X127363914Y-51614965D01*
X127365027Y-51616064D01*
X127781525Y-52032562D01*
X127851438Y-52102475D01*
X127937062Y-52151910D01*
X127937066Y-52151911D01*
X127984472Y-52164614D01*
X127984473Y-52164614D01*
X127997359Y-52168066D01*
X128032564Y-52177500D01*
X128032565Y-52177500D01*
X128448570Y-52177500D01*
X128515609Y-52197185D01*
X128561364Y-52249989D01*
X128571308Y-52319147D01*
X128547524Y-52376227D01*
X128440327Y-52518178D01*
X128349422Y-52700739D01*
X128349417Y-52700752D01*
X128293602Y-52896917D01*
X128274785Y-53099999D01*
X128274785Y-53100000D01*
X128293602Y-53303082D01*
X128349417Y-53499247D01*
X128349422Y-53499260D01*
X128440327Y-53681821D01*
X128563237Y-53844581D01*
X128647444Y-53921345D01*
X128713952Y-53981975D01*
X128713958Y-53981980D01*
X128713960Y-53981982D01*
X128713962Y-53981983D01*
X128887363Y-54089348D01*
X129077544Y-54163024D01*
X129278024Y-54200500D01*
X129278026Y-54200500D01*
X129481974Y-54200500D01*
X129481976Y-54200500D01*
X129682456Y-54163024D01*
X129872637Y-54089348D01*
X130046041Y-53981981D01*
X130185170Y-53855148D01*
X130196762Y-53844581D01*
X130196764Y-53844579D01*
X130319673Y-53681821D01*
X130410582Y-53499250D01*
X130466397Y-53303083D01*
X130485215Y-53100000D01*
X130479115Y-53034174D01*
X130466397Y-52896917D01*
X130453048Y-52850000D01*
X130410582Y-52700750D01*
X130410159Y-52699901D01*
X130360415Y-52600000D01*
X130319673Y-52518179D01*
X130212476Y-52376227D01*
X130187784Y-52310865D01*
X130202349Y-52242531D01*
X130251547Y-52192918D01*
X130311430Y-52177500D01*
X130988570Y-52177500D01*
X131055609Y-52197185D01*
X131101364Y-52249989D01*
X131111308Y-52319147D01*
X131087524Y-52376227D01*
X130980327Y-52518178D01*
X130889422Y-52700739D01*
X130889417Y-52700752D01*
X130833602Y-52896917D01*
X130814785Y-53099999D01*
X130814785Y-53100000D01*
X130833602Y-53303082D01*
X130889417Y-53499247D01*
X130889422Y-53499260D01*
X130980327Y-53681821D01*
X131103237Y-53844581D01*
X131187444Y-53921345D01*
X131253952Y-53981975D01*
X131253958Y-53981980D01*
X131253960Y-53981982D01*
X131253962Y-53981983D01*
X131427363Y-54089348D01*
X131617544Y-54163024D01*
X131818024Y-54200500D01*
X131818026Y-54200500D01*
X132021974Y-54200500D01*
X132021976Y-54200500D01*
X132222456Y-54163024D01*
X132412637Y-54089348D01*
X132586041Y-53981981D01*
X132627963Y-53943763D01*
X132690765Y-53913148D01*
X132760153Y-53921345D01*
X132814093Y-53965755D01*
X132835461Y-54032277D01*
X132835500Y-54035402D01*
X132835500Y-64182100D01*
X132815815Y-64249139D01*
X132799181Y-64269781D01*
X129355781Y-67713181D01*
X129294458Y-67746666D01*
X129268100Y-67749500D01*
X129121014Y-67749500D01*
X128967634Y-67787303D01*
X128827762Y-67860715D01*
X128709516Y-67965471D01*
X128619781Y-68095475D01*
X128619780Y-68095476D01*
X128563762Y-68243181D01*
X128544722Y-68399999D01*
X128544722Y-68400000D01*
X128563762Y-68556818D01*
X128606118Y-68668500D01*
X128619780Y-68704523D01*
X128709517Y-68834530D01*
X128827760Y-68939283D01*
X128827762Y-68939284D01*
X128967634Y-69012696D01*
X129121014Y-69050500D01*
X129121015Y-69050500D01*
X129278985Y-69050500D01*
X129432365Y-69012696D01*
X129519373Y-68967030D01*
X129572240Y-68939283D01*
X129690483Y-68834530D01*
X129780220Y-68704523D01*
X129836237Y-68556818D01*
X129855278Y-68400000D01*
X129849102Y-68349144D01*
X129860561Y-68280224D01*
X129884514Y-68246521D01*
X131087043Y-67043993D01*
X139716700Y-67043993D01*
X139716700Y-67044006D01*
X139735864Y-67275297D01*
X139735866Y-67275308D01*
X139792842Y-67500300D01*
X139886075Y-67712848D01*
X140013016Y-67907147D01*
X140013019Y-67907151D01*
X140013021Y-67907153D01*
X140170216Y-68077913D01*
X140170219Y-68077915D01*
X140170222Y-68077918D01*
X140353365Y-68220464D01*
X140353371Y-68220468D01*
X140353374Y-68220470D01*
X140557497Y-68330936D01*
X140610547Y-68349148D01*
X140777015Y-68406297D01*
X140777017Y-68406297D01*
X140777019Y-68406298D01*
X141005951Y-68444500D01*
X141005952Y-68444500D01*
X141238048Y-68444500D01*
X141238049Y-68444500D01*
X141466981Y-68406298D01*
X141686503Y-68330936D01*
X141890626Y-68220470D01*
X142073784Y-68077913D01*
X142230979Y-67907153D01*
X142357924Y-67712849D01*
X142451157Y-67500300D01*
X142508134Y-67275305D01*
X142508135Y-67275297D01*
X142527300Y-67044006D01*
X142527300Y-67043993D01*
X144616700Y-67043993D01*
X144616700Y-67044006D01*
X144635864Y-67275297D01*
X144635866Y-67275308D01*
X144692842Y-67500300D01*
X144786075Y-67712848D01*
X144913016Y-67907147D01*
X144913019Y-67907151D01*
X144913021Y-67907153D01*
X145070216Y-68077913D01*
X145070219Y-68077915D01*
X145070222Y-68077918D01*
X145253365Y-68220464D01*
X145253371Y-68220468D01*
X145253374Y-68220470D01*
X145457497Y-68330936D01*
X145510547Y-68349148D01*
X145677015Y-68406297D01*
X145677017Y-68406297D01*
X145677019Y-68406298D01*
X145905951Y-68444500D01*
X145905952Y-68444500D01*
X146138048Y-68444500D01*
X146138049Y-68444500D01*
X146366981Y-68406298D01*
X146586503Y-68330936D01*
X146790626Y-68220470D01*
X146973784Y-68077913D01*
X147130979Y-67907153D01*
X147257924Y-67712849D01*
X147351157Y-67500300D01*
X147408134Y-67275305D01*
X147408135Y-67275297D01*
X147427300Y-67044006D01*
X147427300Y-67043993D01*
X147408135Y-66812702D01*
X147408133Y-66812691D01*
X147351157Y-66587699D01*
X147257924Y-66375151D01*
X147130983Y-66180852D01*
X147130980Y-66180849D01*
X147130979Y-66180847D01*
X146973784Y-66010087D01*
X146973779Y-66010083D01*
X146973777Y-66010081D01*
X146790634Y-65867535D01*
X146790628Y-65867531D01*
X146586504Y-65757064D01*
X146586495Y-65757061D01*
X146366984Y-65681702D01*
X146195282Y-65653050D01*
X146138049Y-65643500D01*
X145905951Y-65643500D01*
X145860164Y-65651140D01*
X145677015Y-65681702D01*
X145457504Y-65757061D01*
X145457495Y-65757064D01*
X145253371Y-65867531D01*
X145253365Y-65867535D01*
X145070222Y-66010081D01*
X145070219Y-66010084D01*
X145070216Y-66010086D01*
X145070216Y-66010087D01*
X145056856Y-66024600D01*
X144913016Y-66180852D01*
X144786075Y-66375151D01*
X144692842Y-66587699D01*
X144635866Y-66812691D01*
X144635864Y-66812702D01*
X144616700Y-67043993D01*
X142527300Y-67043993D01*
X142508135Y-66812702D01*
X142508133Y-66812691D01*
X142451157Y-66587699D01*
X142357924Y-66375151D01*
X142230983Y-66180852D01*
X142230980Y-66180849D01*
X142230979Y-66180847D01*
X142073784Y-66010087D01*
X142073779Y-66010083D01*
X142073777Y-66010081D01*
X141890634Y-65867535D01*
X141890628Y-65867531D01*
X141686504Y-65757064D01*
X141686495Y-65757061D01*
X141466984Y-65681702D01*
X141295282Y-65653050D01*
X141238049Y-65643500D01*
X141005951Y-65643500D01*
X140960164Y-65651140D01*
X140777015Y-65681702D01*
X140557504Y-65757061D01*
X140557495Y-65757064D01*
X140353371Y-65867531D01*
X140353365Y-65867535D01*
X140170222Y-66010081D01*
X140170219Y-66010084D01*
X140170216Y-66010086D01*
X140170216Y-66010087D01*
X140156856Y-66024600D01*
X140013016Y-66180852D01*
X139886075Y-66375151D01*
X139792842Y-66587699D01*
X139735866Y-66812691D01*
X139735864Y-66812702D01*
X139716700Y-67043993D01*
X131087043Y-67043993D01*
X133511475Y-64619562D01*
X133560911Y-64533937D01*
X133586500Y-64438436D01*
X133586500Y-64339564D01*
X133586500Y-60441655D01*
X136064500Y-60441655D01*
X136064500Y-61077000D01*
X136925686Y-61077000D01*
X136901130Y-61119533D01*
X136864500Y-61256237D01*
X136864500Y-61397763D01*
X136901130Y-61534467D01*
X136925686Y-61577000D01*
X136064500Y-61577000D01*
X136064500Y-62212344D01*
X136070901Y-62271872D01*
X136070903Y-62271879D01*
X136121145Y-62406586D01*
X136121149Y-62406593D01*
X136207309Y-62521687D01*
X136207312Y-62521690D01*
X136322406Y-62607850D01*
X136322413Y-62607854D01*
X136457120Y-62658096D01*
X136457127Y-62658098D01*
X136516655Y-62664499D01*
X136516672Y-62664500D01*
X137152000Y-62664500D01*
X137152000Y-61803313D01*
X137194533Y-61827870D01*
X137331237Y-61864500D01*
X137472763Y-61864500D01*
X137609467Y-61827870D01*
X137652000Y-61803313D01*
X137652000Y-62664500D01*
X138287328Y-62664500D01*
X138287344Y-62664499D01*
X138346872Y-62658098D01*
X138346879Y-62658096D01*
X138481586Y-62607854D01*
X138481593Y-62607850D01*
X138596687Y-62521690D01*
X138596690Y-62521687D01*
X138682850Y-62406593D01*
X138682854Y-62406586D01*
X138733096Y-62271879D01*
X138733098Y-62271872D01*
X138739499Y-62212344D01*
X138739500Y-62212327D01*
X138739500Y-61880164D01*
X138759185Y-61813125D01*
X138811989Y-61767370D01*
X138881147Y-61757426D01*
X138944703Y-61786451D01*
X138974500Y-61824892D01*
X139013001Y-61902212D01*
X139134514Y-62063121D01*
X139283525Y-62198962D01*
X139401278Y-62271872D01*
X139443582Y-62298066D01*
X139454959Y-62305110D01*
X139642979Y-62377949D01*
X139841182Y-62415000D01*
X139841184Y-62415000D01*
X140042816Y-62415000D01*
X140042818Y-62415000D01*
X140241021Y-62377949D01*
X140429041Y-62305110D01*
X140600475Y-62198962D01*
X140749486Y-62063121D01*
X140870999Y-61902212D01*
X140960876Y-61721715D01*
X141016056Y-61527776D01*
X141034661Y-61327000D01*
X141389339Y-61327000D01*
X141407943Y-61527771D01*
X141407943Y-61527773D01*
X141407944Y-61527776D01*
X141444595Y-61656591D01*
X141463125Y-61721718D01*
X141503752Y-61803307D01*
X141553001Y-61902212D01*
X141674514Y-62063121D01*
X141823525Y-62198962D01*
X141941278Y-62271872D01*
X141983582Y-62298066D01*
X141994959Y-62305110D01*
X142182979Y-62377949D01*
X142381182Y-62415000D01*
X142381184Y-62415000D01*
X142582816Y-62415000D01*
X142582818Y-62415000D01*
X142753940Y-62383011D01*
X142823454Y-62390042D01*
X142864405Y-62417219D01*
X143891686Y-63444500D01*
X144005814Y-63510392D01*
X144133108Y-63544500D01*
X144264893Y-63544500D01*
X144813324Y-63544500D01*
X144880363Y-63564185D01*
X144901005Y-63580819D01*
X150793724Y-69473538D01*
X150827209Y-69534861D01*
X150829139Y-69546271D01*
X150835762Y-69600816D01*
X150835763Y-69600821D01*
X150861046Y-69667485D01*
X150891780Y-69748523D01*
X150981517Y-69878530D01*
X151099760Y-69983283D01*
X151099762Y-69983284D01*
X151239634Y-70056696D01*
X151393014Y-70094500D01*
X151393015Y-70094500D01*
X151550985Y-70094500D01*
X151704365Y-70056696D01*
X151724144Y-70046315D01*
X151844240Y-69983283D01*
X151962483Y-69878530D01*
X152052220Y-69748523D01*
X152108237Y-69600818D01*
X152127278Y-69444000D01*
X152124029Y-69417245D01*
X152135489Y-69348325D01*
X152182392Y-69296538D01*
X152249847Y-69278330D01*
X152316438Y-69299481D01*
X152334806Y-69314619D01*
X152535181Y-69514994D01*
X152568666Y-69576317D01*
X152571500Y-69602675D01*
X152571500Y-70585342D01*
X152551815Y-70652381D01*
X152549550Y-70655782D01*
X152491781Y-70739475D01*
X152491780Y-70739476D01*
X152435762Y-70887181D01*
X152416722Y-71043999D01*
X152416722Y-71044000D01*
X152435762Y-71200818D01*
X152482510Y-71324080D01*
X152491780Y-71348523D01*
X152581517Y-71478530D01*
X152699760Y-71583283D01*
X152699762Y-71583284D01*
X152839634Y-71656696D01*
X152993014Y-71694500D01*
X152993015Y-71694500D01*
X153150985Y-71694500D01*
X153304365Y-71656696D01*
X153304773Y-71656482D01*
X153444240Y-71583283D01*
X153562483Y-71478530D01*
X153652220Y-71348523D01*
X153708237Y-71200818D01*
X153727278Y-71044000D01*
X153712708Y-70924000D01*
X153708237Y-70887181D01*
X153659394Y-70758394D01*
X153652220Y-70739477D01*
X153594450Y-70655782D01*
X153572567Y-70589427D01*
X153572500Y-70585342D01*
X153572500Y-69278110D01*
X153572500Y-69278108D01*
X153551790Y-69200818D01*
X153538392Y-69150814D01*
X153472500Y-69036686D01*
X153379314Y-68943500D01*
X153379313Y-68943499D01*
X153374983Y-68939169D01*
X153374972Y-68939159D01*
X152170316Y-67734502D01*
X152170315Y-67734501D01*
X152170314Y-67734500D01*
X152106368Y-67697580D01*
X152080689Y-67677875D01*
X146110931Y-61708117D01*
X146077446Y-61646794D01*
X146079345Y-61586506D01*
X146096056Y-61527776D01*
X146114661Y-61327000D01*
X146096056Y-61126224D01*
X146040876Y-60932285D01*
X145950999Y-60751788D01*
X145829486Y-60590879D01*
X145791316Y-60556083D01*
X145680476Y-60455039D01*
X145680475Y-60455038D01*
X145615190Y-60414615D01*
X145509042Y-60348890D01*
X145509040Y-60348889D01*
X145371561Y-60295630D01*
X145321021Y-60276051D01*
X145122818Y-60239000D01*
X144921182Y-60239000D01*
X144722979Y-60276051D01*
X144722976Y-60276051D01*
X144722976Y-60276052D01*
X144534959Y-60348889D01*
X144534957Y-60348890D01*
X144363523Y-60455039D01*
X144214515Y-60590877D01*
X144093001Y-60751787D01*
X144003125Y-60932281D01*
X143947943Y-61126228D01*
X143929339Y-61327000D01*
X143947943Y-61527771D01*
X143947943Y-61527773D01*
X143947944Y-61527776D01*
X143984595Y-61656591D01*
X144003125Y-61721718D01*
X144079453Y-61875005D01*
X144091714Y-61943791D01*
X144064841Y-62008286D01*
X144007365Y-62048013D01*
X143937535Y-62050361D01*
X143880772Y-62017958D01*
X143570931Y-61708117D01*
X143537446Y-61646794D01*
X143539345Y-61586506D01*
X143556056Y-61527776D01*
X143574661Y-61327000D01*
X143556056Y-61126224D01*
X143500876Y-60932285D01*
X143410999Y-60751788D01*
X143289486Y-60590879D01*
X143251316Y-60556083D01*
X143140476Y-60455039D01*
X143140475Y-60455038D01*
X143075190Y-60414615D01*
X142969042Y-60348890D01*
X142969040Y-60348889D01*
X142831561Y-60295630D01*
X142781021Y-60276051D01*
X142582818Y-60239000D01*
X142381182Y-60239000D01*
X142182979Y-60276051D01*
X142182976Y-60276051D01*
X142182976Y-60276052D01*
X141994959Y-60348889D01*
X141994957Y-60348890D01*
X141823523Y-60455039D01*
X141674515Y-60590877D01*
X141553001Y-60751787D01*
X141463125Y-60932281D01*
X141407943Y-61126228D01*
X141389339Y-61327000D01*
X141034661Y-61327000D01*
X141016056Y-61126224D01*
X140960876Y-60932285D01*
X140870999Y-60751788D01*
X140749486Y-60590879D01*
X140711316Y-60556083D01*
X140600476Y-60455039D01*
X140600475Y-60455038D01*
X140535190Y-60414615D01*
X140429042Y-60348890D01*
X140429040Y-60348889D01*
X140291561Y-60295630D01*
X140241021Y-60276051D01*
X140042818Y-60239000D01*
X139841182Y-60239000D01*
X139642979Y-60276051D01*
X139642976Y-60276051D01*
X139642976Y-60276052D01*
X139454959Y-60348889D01*
X139454957Y-60348890D01*
X139283523Y-60455039D01*
X139134515Y-60590877D01*
X139013001Y-60751787D01*
X138974500Y-60829107D01*
X138926996Y-60880344D01*
X138859333Y-60897765D01*
X138792993Y-60875839D01*
X138749038Y-60821527D01*
X138739500Y-60773835D01*
X138739500Y-60441672D01*
X138739499Y-60441655D01*
X138733098Y-60382127D01*
X138733096Y-60382120D01*
X138682854Y-60247413D01*
X138682850Y-60247406D01*
X138596690Y-60132312D01*
X138596687Y-60132309D01*
X138481593Y-60046149D01*
X138481586Y-60046145D01*
X138346879Y-59995903D01*
X138346872Y-59995901D01*
X138287344Y-59989500D01*
X137652000Y-59989500D01*
X137652000Y-60850686D01*
X137609467Y-60826130D01*
X137472763Y-60789500D01*
X137331237Y-60789500D01*
X137194533Y-60826130D01*
X137152000Y-60850686D01*
X137152000Y-59989500D01*
X136516655Y-59989500D01*
X136457127Y-59995901D01*
X136457120Y-59995903D01*
X136322413Y-60046145D01*
X136322406Y-60046149D01*
X136207312Y-60132309D01*
X136207309Y-60132312D01*
X136121149Y-60247406D01*
X136121145Y-60247413D01*
X136070903Y-60382120D01*
X136070901Y-60382127D01*
X136064500Y-60441655D01*
X133586500Y-60441655D01*
X133586500Y-54073690D01*
X133606185Y-54006651D01*
X133658989Y-53960896D01*
X133728147Y-53950952D01*
X133789165Y-53978818D01*
X133789385Y-53978527D01*
X133790696Y-53979517D01*
X133791703Y-53979977D01*
X133793950Y-53981975D01*
X133793960Y-53981982D01*
X133793962Y-53981983D01*
X133967363Y-54089348D01*
X134157544Y-54163024D01*
X134358024Y-54200500D01*
X134358026Y-54200500D01*
X134561974Y-54200500D01*
X134561976Y-54200500D01*
X134762456Y-54163024D01*
X134952637Y-54089348D01*
X135126041Y-53981981D01*
X135265170Y-53855148D01*
X135276762Y-53844581D01*
X135276764Y-53844579D01*
X135399673Y-53681821D01*
X135490582Y-53499250D01*
X135546397Y-53303083D01*
X135565215Y-53100000D01*
X135565215Y-53099999D01*
X135894785Y-53099999D01*
X135894785Y-53100000D01*
X135913602Y-53303082D01*
X135969417Y-53499247D01*
X135969422Y-53499260D01*
X136060327Y-53681821D01*
X136183237Y-53844581D01*
X136267444Y-53921345D01*
X136333952Y-53981975D01*
X136333958Y-53981980D01*
X136333960Y-53981982D01*
X136333962Y-53981983D01*
X136507363Y-54089348D01*
X136697544Y-54163024D01*
X136898024Y-54200500D01*
X136898026Y-54200500D01*
X137101974Y-54200500D01*
X137101976Y-54200500D01*
X137302456Y-54163024D01*
X137492637Y-54089348D01*
X137666041Y-53981981D01*
X137805170Y-53855148D01*
X137816762Y-53844581D01*
X137816764Y-53844579D01*
X137939673Y-53681821D01*
X138030582Y-53499250D01*
X138086397Y-53303083D01*
X138105215Y-53100000D01*
X138105215Y-53099999D01*
X138434785Y-53099999D01*
X138434785Y-53100000D01*
X138453602Y-53303082D01*
X138509417Y-53499247D01*
X138509422Y-53499260D01*
X138600327Y-53681821D01*
X138723237Y-53844581D01*
X138807444Y-53921345D01*
X138873952Y-53981975D01*
X138873958Y-53981980D01*
X138873960Y-53981982D01*
X138873962Y-53981983D01*
X139047363Y-54089348D01*
X139237544Y-54163024D01*
X139438024Y-54200500D01*
X139438026Y-54200500D01*
X139641974Y-54200500D01*
X139641976Y-54200500D01*
X139842456Y-54163024D01*
X140032637Y-54089348D01*
X140206041Y-53981981D01*
X140345170Y-53855148D01*
X140356762Y-53844581D01*
X140356764Y-53844579D01*
X140479673Y-53681821D01*
X140570582Y-53499250D01*
X140626397Y-53303083D01*
X140645215Y-53100000D01*
X140645215Y-53099999D01*
X140974785Y-53099999D01*
X140974785Y-53100000D01*
X140993602Y-53303082D01*
X141049417Y-53499247D01*
X141049422Y-53499260D01*
X141140327Y-53681821D01*
X141263237Y-53844581D01*
X141347444Y-53921345D01*
X141413952Y-53981975D01*
X141413958Y-53981980D01*
X141413960Y-53981982D01*
X141413962Y-53981983D01*
X141587363Y-54089348D01*
X141777544Y-54163024D01*
X141978024Y-54200500D01*
X141978026Y-54200500D01*
X142181974Y-54200500D01*
X142181976Y-54200500D01*
X142382456Y-54163024D01*
X142572637Y-54089348D01*
X142746041Y-53981981D01*
X142885170Y-53855148D01*
X142896762Y-53844581D01*
X142896764Y-53844579D01*
X143019673Y-53681821D01*
X143110582Y-53499250D01*
X143166397Y-53303083D01*
X143185215Y-53100000D01*
X143179115Y-53034174D01*
X143166397Y-52896917D01*
X143153048Y-52850000D01*
X143110582Y-52700750D01*
X143110159Y-52699901D01*
X143060415Y-52600000D01*
X143019673Y-52518179D01*
X142960704Y-52440091D01*
X142896762Y-52355418D01*
X142746041Y-52218019D01*
X142746039Y-52218017D01*
X142572642Y-52110655D01*
X142572639Y-52110653D01*
X142572637Y-52110652D01*
X142572636Y-52110651D01*
X142572635Y-52110651D01*
X142446769Y-52061891D01*
X142382456Y-52036976D01*
X142181976Y-51999500D01*
X141978024Y-51999500D01*
X141777544Y-52036976D01*
X141777541Y-52036976D01*
X141777541Y-52036977D01*
X141587364Y-52110651D01*
X141587357Y-52110655D01*
X141413960Y-52218017D01*
X141413958Y-52218019D01*
X141263237Y-52355418D01*
X141140327Y-52518178D01*
X141049422Y-52700739D01*
X141049417Y-52700752D01*
X140993602Y-52896917D01*
X140974785Y-53099999D01*
X140645215Y-53099999D01*
X140639115Y-53034174D01*
X140626397Y-52896917D01*
X140613048Y-52850000D01*
X140570582Y-52700750D01*
X140570159Y-52699901D01*
X140520415Y-52600000D01*
X140479673Y-52518179D01*
X140420704Y-52440091D01*
X140356762Y-52355418D01*
X140206041Y-52218019D01*
X140206039Y-52218017D01*
X140032642Y-52110655D01*
X140032639Y-52110653D01*
X140032637Y-52110652D01*
X140032636Y-52110651D01*
X140032635Y-52110651D01*
X139906769Y-52061891D01*
X139842456Y-52036976D01*
X139641976Y-51999500D01*
X139438024Y-51999500D01*
X139237544Y-52036976D01*
X139237541Y-52036976D01*
X139237541Y-52036977D01*
X139047364Y-52110651D01*
X139047357Y-52110655D01*
X138873960Y-52218017D01*
X138873958Y-52218019D01*
X138723237Y-52355418D01*
X138600327Y-52518178D01*
X138509422Y-52700739D01*
X138509417Y-52700752D01*
X138453602Y-52896917D01*
X138434785Y-53099999D01*
X138105215Y-53099999D01*
X138099115Y-53034174D01*
X138086397Y-52896917D01*
X138073048Y-52850000D01*
X138030582Y-52700750D01*
X138030159Y-52699901D01*
X137980415Y-52600000D01*
X137939673Y-52518179D01*
X137880704Y-52440091D01*
X137816762Y-52355418D01*
X137666041Y-52218019D01*
X137666039Y-52218017D01*
X137492642Y-52110655D01*
X137492639Y-52110653D01*
X137492637Y-52110652D01*
X137492636Y-52110651D01*
X137492635Y-52110651D01*
X137366769Y-52061891D01*
X137302456Y-52036976D01*
X137101976Y-51999500D01*
X136898024Y-51999500D01*
X136697544Y-52036976D01*
X136697541Y-52036976D01*
X136697541Y-52036977D01*
X136507364Y-52110651D01*
X136507357Y-52110655D01*
X136333960Y-52218017D01*
X136333958Y-52218019D01*
X136183237Y-52355418D01*
X136060327Y-52518178D01*
X135969422Y-52700739D01*
X135969417Y-52700752D01*
X135913602Y-52896917D01*
X135894785Y-53099999D01*
X135565215Y-53099999D01*
X135559115Y-53034174D01*
X135546397Y-52896917D01*
X135533048Y-52850000D01*
X135490582Y-52700750D01*
X135490159Y-52699901D01*
X135440415Y-52600000D01*
X135399673Y-52518179D01*
X135340704Y-52440091D01*
X135276762Y-52355418D01*
X135126041Y-52218019D01*
X135126039Y-52218017D01*
X134952642Y-52110655D01*
X134952639Y-52110653D01*
X134952637Y-52110652D01*
X134952636Y-52110651D01*
X134952635Y-52110651D01*
X134826769Y-52061891D01*
X134762456Y-52036976D01*
X134561976Y-51999500D01*
X134358024Y-51999500D01*
X134157544Y-52036976D01*
X134157541Y-52036976D01*
X134157541Y-52036977D01*
X133967364Y-52110651D01*
X133967357Y-52110655D01*
X133793960Y-52218017D01*
X133789385Y-52221473D01*
X133788691Y-52220555D01*
X133731224Y-52248565D01*
X133661838Y-52240362D01*
X133607901Y-52195947D01*
X133590338Y-52141257D01*
X133587561Y-52141623D01*
X133586500Y-52133566D01*
X133580360Y-52110653D01*
X133580359Y-52110649D01*
X133580358Y-52110647D01*
X133564033Y-52049718D01*
X133564033Y-52049716D01*
X133560911Y-52038064D01*
X133560910Y-52038062D01*
X133511475Y-51952438D01*
X133441562Y-51882525D01*
X133060563Y-51501526D01*
X133060562Y-51501525D01*
X132974938Y-51452090D01*
X132927186Y-51439295D01*
X132927184Y-51439294D01*
X132927182Y-51439293D01*
X132879436Y-51426500D01*
X132876974Y-51426176D01*
X132875050Y-51425325D01*
X132871587Y-51424397D01*
X132871731Y-51423856D01*
X132813078Y-51397908D01*
X132774608Y-51339582D01*
X132773778Y-51269717D01*
X132794206Y-51228512D01*
X132859673Y-51141821D01*
X132950582Y-50959250D01*
X133006397Y-50763083D01*
X133025215Y-50560000D01*
X133019115Y-50494174D01*
X133006397Y-50356917D01*
X132989596Y-50297869D01*
X132950582Y-50160750D01*
X132950159Y-50159901D01*
X132900415Y-50060000D01*
X132859673Y-49978179D01*
X132736764Y-49815421D01*
X132736762Y-49815418D01*
X132586041Y-49678019D01*
X132586039Y-49678017D01*
X132412642Y-49570655D01*
X132412635Y-49570651D01*
X132286769Y-49521891D01*
X132222456Y-49496976D01*
X132184539Y-49489888D01*
X132122260Y-49458221D01*
X132086987Y-49397908D01*
X132089921Y-49328100D01*
X132130130Y-49270960D01*
X132194848Y-49244629D01*
X132207326Y-49244000D01*
X134172674Y-49244000D01*
X134239713Y-49263685D01*
X134285468Y-49316489D01*
X134295412Y-49385647D01*
X134266387Y-49449203D01*
X134207609Y-49486977D01*
X134195468Y-49489886D01*
X134157544Y-49496976D01*
X134157541Y-49496976D01*
X134157541Y-49496977D01*
X133967364Y-49570651D01*
X133967357Y-49570655D01*
X133793960Y-49678017D01*
X133793958Y-49678019D01*
X133643237Y-49815418D01*
X133520327Y-49978178D01*
X133429422Y-50160739D01*
X133429417Y-50160752D01*
X133373602Y-50356917D01*
X133354785Y-50559999D01*
X133354785Y-50560000D01*
X133373602Y-50763082D01*
X133429417Y-50959247D01*
X133429422Y-50959260D01*
X133520327Y-51141821D01*
X133643237Y-51304581D01*
X133793958Y-51441980D01*
X133793960Y-51441982D01*
X133890126Y-51501525D01*
X133967363Y-51549348D01*
X134157544Y-51623024D01*
X134358024Y-51660500D01*
X134358026Y-51660500D01*
X134561974Y-51660500D01*
X134561976Y-51660500D01*
X134762456Y-51623024D01*
X134952637Y-51549348D01*
X135126041Y-51441981D01*
X135276764Y-51304579D01*
X135399673Y-51141821D01*
X135490582Y-50959250D01*
X135546397Y-50763083D01*
X135565215Y-50560000D01*
X135559115Y-50494174D01*
X135546397Y-50356917D01*
X135529596Y-50297869D01*
X135490582Y-50160750D01*
X135490159Y-50159901D01*
X135440415Y-50060000D01*
X135399673Y-49978179D01*
X135276764Y-49815421D01*
X135276762Y-49815418D01*
X135126041Y-49678019D01*
X135126039Y-49678017D01*
X134952642Y-49570655D01*
X134952635Y-49570651D01*
X134826769Y-49521891D01*
X134762456Y-49496976D01*
X134724539Y-49489888D01*
X134662260Y-49458221D01*
X134626987Y-49397908D01*
X134629921Y-49328100D01*
X134670130Y-49270960D01*
X134734848Y-49244629D01*
X134747326Y-49244000D01*
X136712674Y-49244000D01*
X136779713Y-49263685D01*
X136825468Y-49316489D01*
X136835412Y-49385647D01*
X136806387Y-49449203D01*
X136747609Y-49486977D01*
X136735468Y-49489886D01*
X136697544Y-49496976D01*
X136697541Y-49496976D01*
X136697541Y-49496977D01*
X136507364Y-49570651D01*
X136507357Y-49570655D01*
X136333960Y-49678017D01*
X136333958Y-49678019D01*
X136183237Y-49815418D01*
X136060327Y-49978178D01*
X135969422Y-50160739D01*
X135969417Y-50160752D01*
X135913602Y-50356917D01*
X135894785Y-50559999D01*
X135894785Y-50560000D01*
X135913602Y-50763082D01*
X135969417Y-50959247D01*
X135969422Y-50959260D01*
X136060327Y-51141821D01*
X136183237Y-51304581D01*
X136333958Y-51441980D01*
X136333960Y-51441982D01*
X136430126Y-51501525D01*
X136507363Y-51549348D01*
X136697544Y-51623024D01*
X136898024Y-51660500D01*
X136898026Y-51660500D01*
X137101974Y-51660500D01*
X137101976Y-51660500D01*
X137302456Y-51623024D01*
X137492637Y-51549348D01*
X137666041Y-51441981D01*
X137816764Y-51304579D01*
X137939673Y-51141821D01*
X138030582Y-50959250D01*
X138086397Y-50763083D01*
X138105215Y-50560000D01*
X138099115Y-50494174D01*
X138086397Y-50356917D01*
X138069596Y-50297869D01*
X138030582Y-50160750D01*
X138030159Y-50159901D01*
X137980415Y-50060000D01*
X137939673Y-49978179D01*
X137816764Y-49815421D01*
X137816762Y-49815418D01*
X137666041Y-49678019D01*
X137666039Y-49678017D01*
X137492642Y-49570655D01*
X137492635Y-49570651D01*
X137366769Y-49521891D01*
X137302456Y-49496976D01*
X137264539Y-49489888D01*
X137202260Y-49458221D01*
X137166987Y-49397908D01*
X137169921Y-49328100D01*
X137210130Y-49270960D01*
X137274848Y-49244629D01*
X137287326Y-49244000D01*
X139252674Y-49244000D01*
X139319713Y-49263685D01*
X139365468Y-49316489D01*
X139375412Y-49385647D01*
X139346387Y-49449203D01*
X139287609Y-49486977D01*
X139275468Y-49489886D01*
X139237544Y-49496976D01*
X139237541Y-49496976D01*
X139237541Y-49496977D01*
X139047364Y-49570651D01*
X139047357Y-49570655D01*
X138873960Y-49678017D01*
X138873958Y-49678019D01*
X138723237Y-49815418D01*
X138600327Y-49978178D01*
X138509422Y-50160739D01*
X138509417Y-50160752D01*
X138453602Y-50356917D01*
X138434785Y-50559999D01*
X138434785Y-50560000D01*
X138453602Y-50763082D01*
X138509417Y-50959247D01*
X138509422Y-50959260D01*
X138600327Y-51141821D01*
X138723237Y-51304581D01*
X138873958Y-51441980D01*
X138873960Y-51441982D01*
X138970126Y-51501525D01*
X139047363Y-51549348D01*
X139237544Y-51623024D01*
X139438024Y-51660500D01*
X139438026Y-51660500D01*
X139641974Y-51660500D01*
X139641976Y-51660500D01*
X139842456Y-51623024D01*
X140032637Y-51549348D01*
X140206041Y-51441981D01*
X140356764Y-51304579D01*
X140479673Y-51141821D01*
X140570582Y-50959250D01*
X140626397Y-50763083D01*
X140645215Y-50560000D01*
X140639115Y-50494174D01*
X140626397Y-50356917D01*
X140609596Y-50297869D01*
X140570582Y-50160750D01*
X140570159Y-50159901D01*
X140520415Y-50060000D01*
X140479673Y-49978179D01*
X140356764Y-49815421D01*
X140356762Y-49815418D01*
X140206041Y-49678019D01*
X140206039Y-49678017D01*
X140032642Y-49570655D01*
X140032635Y-49570651D01*
X139906769Y-49521891D01*
X139842456Y-49496976D01*
X139804539Y-49489888D01*
X139742260Y-49458221D01*
X139706987Y-49397908D01*
X139709921Y-49328100D01*
X139750130Y-49270960D01*
X139814848Y-49244629D01*
X139827326Y-49244000D01*
X141792674Y-49244000D01*
X141859713Y-49263685D01*
X141905468Y-49316489D01*
X141915412Y-49385647D01*
X141886387Y-49449203D01*
X141827609Y-49486977D01*
X141815468Y-49489886D01*
X141777544Y-49496976D01*
X141777541Y-49496976D01*
X141777541Y-49496977D01*
X141587364Y-49570651D01*
X141587357Y-49570655D01*
X141413960Y-49678017D01*
X141413958Y-49678019D01*
X141263237Y-49815418D01*
X141140327Y-49978178D01*
X141049422Y-50160739D01*
X141049417Y-50160752D01*
X140993602Y-50356917D01*
X140974785Y-50559999D01*
X140974785Y-50560000D01*
X140993602Y-50763082D01*
X141049417Y-50959247D01*
X141049422Y-50959260D01*
X141140327Y-51141821D01*
X141263237Y-51304581D01*
X141413958Y-51441980D01*
X141413960Y-51441982D01*
X141510126Y-51501525D01*
X141587363Y-51549348D01*
X141777544Y-51623024D01*
X141978024Y-51660500D01*
X141978026Y-51660500D01*
X142181974Y-51660500D01*
X142181976Y-51660500D01*
X142382456Y-51623024D01*
X142572637Y-51549348D01*
X142746041Y-51441981D01*
X142896764Y-51304579D01*
X143019673Y-51141821D01*
X143110582Y-50959250D01*
X143166397Y-50763083D01*
X143185215Y-50560000D01*
X143179115Y-50494174D01*
X143166397Y-50356917D01*
X143149596Y-50297869D01*
X143110582Y-50160750D01*
X143110159Y-50159901D01*
X143060415Y-50060000D01*
X143019673Y-49978179D01*
X142896764Y-49815421D01*
X142896762Y-49815418D01*
X142746041Y-49678019D01*
X142746039Y-49678017D01*
X142572642Y-49570655D01*
X142572635Y-49570651D01*
X142446769Y-49521891D01*
X142382456Y-49496976D01*
X142344539Y-49489888D01*
X142282260Y-49458221D01*
X142246987Y-49397908D01*
X142249921Y-49328100D01*
X142290130Y-49270960D01*
X142354848Y-49244629D01*
X142367326Y-49244000D01*
X144332674Y-49244000D01*
X144399713Y-49263685D01*
X144445468Y-49316489D01*
X144455412Y-49385647D01*
X144426387Y-49449203D01*
X144367609Y-49486977D01*
X144355468Y-49489886D01*
X144317544Y-49496976D01*
X144317541Y-49496976D01*
X144317541Y-49496977D01*
X144127364Y-49570651D01*
X144127357Y-49570655D01*
X143953960Y-49678017D01*
X143953958Y-49678019D01*
X143803237Y-49815418D01*
X143680327Y-49978178D01*
X143589422Y-50160739D01*
X143589417Y-50160752D01*
X143533602Y-50356917D01*
X143514785Y-50559999D01*
X143514785Y-50560000D01*
X143533602Y-50763082D01*
X143589417Y-50959247D01*
X143589422Y-50959260D01*
X143680327Y-51141821D01*
X143803237Y-51304581D01*
X143953958Y-51441980D01*
X143953960Y-51441982D01*
X144050126Y-51501525D01*
X144127363Y-51549348D01*
X144317544Y-51623024D01*
X144518024Y-51660500D01*
X144518026Y-51660500D01*
X144721974Y-51660500D01*
X144721976Y-51660500D01*
X144922456Y-51623024D01*
X145112637Y-51549348D01*
X145286041Y-51441981D01*
X145436764Y-51304579D01*
X145559673Y-51141821D01*
X145650582Y-50959250D01*
X145706397Y-50763083D01*
X145725215Y-50560000D01*
X145719115Y-50494174D01*
X145706397Y-50356917D01*
X145689596Y-50297869D01*
X145650582Y-50160750D01*
X145650159Y-50159901D01*
X145600415Y-50060000D01*
X145559673Y-49978179D01*
X145436764Y-49815421D01*
X145436762Y-49815418D01*
X145286041Y-49678019D01*
X145286039Y-49678017D01*
X145112642Y-49570655D01*
X145112635Y-49570651D01*
X144986769Y-49521891D01*
X144922456Y-49496976D01*
X144884539Y-49489888D01*
X144822260Y-49458221D01*
X144786987Y-49397908D01*
X144789921Y-49328100D01*
X144830130Y-49270960D01*
X144894848Y-49244629D01*
X144907326Y-49244000D01*
X146872674Y-49244000D01*
X146939713Y-49263685D01*
X146985468Y-49316489D01*
X146995412Y-49385647D01*
X146966387Y-49449203D01*
X146907609Y-49486977D01*
X146895468Y-49489886D01*
X146857544Y-49496976D01*
X146857541Y-49496976D01*
X146857541Y-49496977D01*
X146667364Y-49570651D01*
X146667357Y-49570655D01*
X146493960Y-49678017D01*
X146493958Y-49678019D01*
X146343237Y-49815418D01*
X146220327Y-49978178D01*
X146129422Y-50160739D01*
X146129417Y-50160752D01*
X146073602Y-50356917D01*
X146054785Y-50559999D01*
X146054785Y-50560000D01*
X146073602Y-50763082D01*
X146129417Y-50959247D01*
X146129422Y-50959260D01*
X146220327Y-51141821D01*
X146343237Y-51304581D01*
X146493958Y-51441980D01*
X146493960Y-51441982D01*
X146590126Y-51501525D01*
X146667363Y-51549348D01*
X146748283Y-51580696D01*
X146803685Y-51623269D01*
X146827276Y-51689035D01*
X146811565Y-51757116D01*
X146761542Y-51805895D01*
X146735586Y-51816097D01*
X146696519Y-51826565D01*
X146696507Y-51826570D01*
X146482422Y-51926399D01*
X146482420Y-51926400D01*
X146288926Y-52061886D01*
X146288920Y-52061891D01*
X146121891Y-52228920D01*
X146121886Y-52228926D01*
X145986400Y-52422420D01*
X145986399Y-52422422D01*
X145886570Y-52636507D01*
X145886568Y-52636511D01*
X145877592Y-52670011D01*
X145841226Y-52729671D01*
X145778379Y-52760199D01*
X145709003Y-52751904D01*
X145655126Y-52707418D01*
X145646817Y-52693188D01*
X145600415Y-52600000D01*
X145559673Y-52518179D01*
X145500704Y-52440091D01*
X145436762Y-52355418D01*
X145286041Y-52218019D01*
X145286039Y-52218017D01*
X145112642Y-52110655D01*
X145112639Y-52110653D01*
X145112637Y-52110652D01*
X145112636Y-52110651D01*
X145112635Y-52110651D01*
X144986769Y-52061891D01*
X144922456Y-52036976D01*
X144721976Y-51999500D01*
X144518024Y-51999500D01*
X144317544Y-52036976D01*
X144317541Y-52036976D01*
X144317541Y-52036977D01*
X144127364Y-52110651D01*
X144127357Y-52110655D01*
X143953960Y-52218017D01*
X143953958Y-52218019D01*
X143803237Y-52355418D01*
X143680327Y-52518178D01*
X143589422Y-52700739D01*
X143589417Y-52700752D01*
X143533602Y-52896917D01*
X143514785Y-53099999D01*
X143514785Y-53100000D01*
X143533602Y-53303082D01*
X143589417Y-53499247D01*
X143589422Y-53499260D01*
X143680327Y-53681821D01*
X143803237Y-53844581D01*
X143887444Y-53921345D01*
X143953952Y-53981975D01*
X143953958Y-53981980D01*
X143953960Y-53981982D01*
X143953962Y-53981983D01*
X144127363Y-54089348D01*
X144317544Y-54163024D01*
X144518024Y-54200500D01*
X144518026Y-54200500D01*
X144721974Y-54200500D01*
X144721976Y-54200500D01*
X144922456Y-54163024D01*
X145112637Y-54089348D01*
X145286041Y-53981981D01*
X145425170Y-53855148D01*
X145436762Y-53844581D01*
X145436764Y-53844579D01*
X145559673Y-53681821D01*
X145646817Y-53506812D01*
X145694319Y-53455575D01*
X145761982Y-53438153D01*
X145828323Y-53460078D01*
X145872278Y-53514389D01*
X145877592Y-53529989D01*
X145886567Y-53563485D01*
X145886570Y-53563492D01*
X145986399Y-53777578D01*
X146121894Y-53971082D01*
X146288917Y-54138105D01*
X146482421Y-54273600D01*
X146696507Y-54373429D01*
X146696516Y-54373433D01*
X146910000Y-54430634D01*
X146910000Y-53533012D01*
X146967007Y-53565925D01*
X147094174Y-53600000D01*
X147225826Y-53600000D01*
X147352993Y-53565925D01*
X147410000Y-53533012D01*
X147410000Y-54430633D01*
X147623483Y-54373433D01*
X147623492Y-54373429D01*
X147837578Y-54273600D01*
X148031082Y-54138105D01*
X148198105Y-53971082D01*
X148333600Y-53777578D01*
X148433429Y-53563492D01*
X148433432Y-53563486D01*
X148490636Y-53350000D01*
X147593012Y-53350000D01*
X147625925Y-53292993D01*
X147660000Y-53165826D01*
X147660000Y-53034174D01*
X147625925Y-52907007D01*
X147593012Y-52850000D01*
X148490636Y-52850000D01*
X148490635Y-52849999D01*
X148433432Y-52636513D01*
X148433429Y-52636507D01*
X148333600Y-52422422D01*
X148333599Y-52422420D01*
X148198113Y-52228926D01*
X148198108Y-52228920D01*
X148031082Y-52061894D01*
X147837578Y-51926399D01*
X147623492Y-51826570D01*
X147623477Y-51826564D01*
X147584414Y-51816097D01*
X147524754Y-51779732D01*
X147494226Y-51716885D01*
X147502521Y-51647509D01*
X147547007Y-51593632D01*
X147571710Y-51580698D01*
X147652637Y-51549348D01*
X147826041Y-51441981D01*
X147976764Y-51304579D01*
X148099673Y-51141821D01*
X148190582Y-50959250D01*
X148246397Y-50763083D01*
X148265215Y-50560000D01*
X148259115Y-50494174D01*
X148246397Y-50356917D01*
X148229596Y-50297869D01*
X148190582Y-50160750D01*
X148190159Y-50159901D01*
X148140415Y-50060000D01*
X148099673Y-49978179D01*
X147976764Y-49815421D01*
X147976762Y-49815418D01*
X147826041Y-49678019D01*
X147826039Y-49678017D01*
X147652642Y-49570655D01*
X147652635Y-49570651D01*
X147526769Y-49521891D01*
X147462456Y-49496976D01*
X147424539Y-49489888D01*
X147362260Y-49458221D01*
X147326987Y-49397908D01*
X147329921Y-49328100D01*
X147370130Y-49270960D01*
X147434848Y-49244629D01*
X147447326Y-49244000D01*
X149877935Y-49244000D01*
X149944974Y-49263685D01*
X149990729Y-49316489D01*
X150000673Y-49385647D01*
X149971648Y-49449203D01*
X149955248Y-49464947D01*
X149930737Y-49484493D01*
X149684487Y-49730743D01*
X149467372Y-50002998D01*
X149467371Y-50003000D01*
X149282092Y-50297869D01*
X149130999Y-50611617D01*
X149015985Y-50940307D01*
X149015982Y-50940315D01*
X148938491Y-51279829D01*
X148938489Y-51279841D01*
X148899500Y-51625875D01*
X148899500Y-51974124D01*
X148938489Y-52320158D01*
X148938490Y-52320167D01*
X148938491Y-52320171D01*
X148957863Y-52405048D01*
X149015982Y-52659684D01*
X149015985Y-52659692D01*
X149130999Y-52988382D01*
X149282092Y-53302130D01*
X149467371Y-53596999D01*
X149467372Y-53597001D01*
X149684487Y-53869256D01*
X149930743Y-54115512D01*
X150202998Y-54332627D01*
X150203001Y-54332628D01*
X150203003Y-54332630D01*
X150497867Y-54517906D01*
X150811621Y-54669002D01*
X151058488Y-54755384D01*
X151140307Y-54784014D01*
X151140315Y-54784017D01*
X151140318Y-54784017D01*
X151140319Y-54784018D01*
X151479829Y-54861509D01*
X151825876Y-54900499D01*
X151825877Y-54900500D01*
X151825880Y-54900500D01*
X152174123Y-54900500D01*
X152174123Y-54900499D01*
X152520171Y-54861509D01*
X152859681Y-54784018D01*
X153188379Y-54669002D01*
X153502133Y-54517906D01*
X153796997Y-54332630D01*
X153870688Y-54273863D01*
X153935374Y-54247455D01*
X154004069Y-54260212D01*
X154054963Y-54308082D01*
X154072000Y-54370811D01*
X154072000Y-98229188D01*
X154052315Y-98296227D01*
X153999511Y-98341982D01*
X153930353Y-98351926D01*
X153870688Y-98326136D01*
X153802823Y-98272016D01*
X153796997Y-98267370D01*
X153651076Y-98175681D01*
X153502130Y-98082092D01*
X153188382Y-97930999D01*
X152859692Y-97815985D01*
X152859684Y-97815982D01*
X152605048Y-97757863D01*
X152520171Y-97738491D01*
X152520167Y-97738490D01*
X152520158Y-97738489D01*
X152174124Y-97699500D01*
X152174120Y-97699500D01*
X151825880Y-97699500D01*
X151825875Y-97699500D01*
X151479841Y-97738489D01*
X151479829Y-97738491D01*
X151140315Y-97815982D01*
X151140307Y-97815985D01*
X150811617Y-97930999D01*
X150497869Y-98082092D01*
X150203000Y-98267371D01*
X150202998Y-98267372D01*
X149930743Y-98484487D01*
X149684487Y-98730743D01*
X149467372Y-99002998D01*
X149467371Y-99003000D01*
X149282092Y-99297869D01*
X149130999Y-99611617D01*
X149015985Y-99940307D01*
X149015982Y-99940315D01*
X148938491Y-100279829D01*
X148938489Y-100279841D01*
X148899500Y-100625875D01*
X148899500Y-100974124D01*
X148938489Y-101320158D01*
X148938491Y-101320170D01*
X149015982Y-101659684D01*
X149015985Y-101659692D01*
X149130999Y-101988382D01*
X149282092Y-102302130D01*
X149467371Y-102596999D01*
X149467372Y-102597001D01*
X149684487Y-102869256D01*
X149847550Y-103032319D01*
X149881035Y-103093642D01*
X149876051Y-103163334D01*
X149834179Y-103219267D01*
X149768715Y-103243684D01*
X149759869Y-103244000D01*
X96240131Y-103244000D01*
X96173092Y-103224315D01*
X96127337Y-103171511D01*
X96117393Y-103102353D01*
X96146418Y-103038797D01*
X96152450Y-103032319D01*
X96315506Y-102869263D01*
X96532630Y-102596997D01*
X96717906Y-102302133D01*
X96869002Y-101988379D01*
X96984018Y-101659681D01*
X97061509Y-101320171D01*
X97100500Y-100974120D01*
X97100500Y-100625880D01*
X97061509Y-100279829D01*
X96984018Y-99940319D01*
X96869002Y-99611621D01*
X96717906Y-99297867D01*
X96532630Y-99003003D01*
X96532628Y-99003000D01*
X96532627Y-99002998D01*
X96315512Y-98730743D01*
X96069256Y-98484487D01*
X95797001Y-98267372D01*
X95796999Y-98267371D01*
X95502130Y-98082092D01*
X95393956Y-98029998D01*
X129505454Y-98029998D01*
X129505454Y-98030001D01*
X129525613Y-98311866D01*
X129577012Y-98548139D01*
X129585680Y-98587984D01*
X129638924Y-98730737D01*
X129684432Y-98852750D01*
X129684434Y-98852754D01*
X129819855Y-99100758D01*
X129819860Y-99100766D01*
X129989196Y-99326974D01*
X129989212Y-99326992D01*
X130189007Y-99526787D01*
X130189025Y-99526803D01*
X130415233Y-99696139D01*
X130415241Y-99696144D01*
X130663245Y-99831565D01*
X130663249Y-99831567D01*
X130663251Y-99831568D01*
X130928016Y-99930320D01*
X131066077Y-99960353D01*
X131204133Y-99990386D01*
X131204135Y-99990386D01*
X131204139Y-99990387D01*
X131454617Y-100008301D01*
X131485999Y-100010546D01*
X131486000Y-100010546D01*
X131486001Y-100010546D01*
X131514238Y-100008526D01*
X131767861Y-99990387D01*
X132043984Y-99930320D01*
X132308749Y-99831568D01*
X132556764Y-99696141D01*
X132782982Y-99526797D01*
X132982797Y-99326982D01*
X133152141Y-99100764D01*
X133287568Y-98852749D01*
X133296054Y-98829998D01*
X136755454Y-98829998D01*
X136755454Y-98830001D01*
X136775613Y-99111866D01*
X136835678Y-99387977D01*
X136835680Y-99387984D01*
X136887457Y-99526803D01*
X136934432Y-99652750D01*
X136934434Y-99652754D01*
X137069855Y-99900758D01*
X137069860Y-99900766D01*
X137239196Y-100126974D01*
X137239212Y-100126992D01*
X137439007Y-100326787D01*
X137439025Y-100326803D01*
X137665233Y-100496139D01*
X137665241Y-100496144D01*
X137913245Y-100631565D01*
X137913249Y-100631567D01*
X137913251Y-100631568D01*
X138178016Y-100730320D01*
X138316077Y-100760353D01*
X138454133Y-100790386D01*
X138454135Y-100790386D01*
X138454139Y-100790387D01*
X138704617Y-100808301D01*
X138735999Y-100810546D01*
X138736000Y-100810546D01*
X138736001Y-100810546D01*
X138764238Y-100808526D01*
X139017861Y-100790387D01*
X139293984Y-100730320D01*
X139558749Y-100631568D01*
X139806764Y-100496141D01*
X140032982Y-100326797D01*
X140232797Y-100126982D01*
X140402141Y-99900764D01*
X140537568Y-99652749D01*
X140636320Y-99387984D01*
X140696387Y-99111861D01*
X140716546Y-98830000D01*
X140696387Y-98548139D01*
X140636320Y-98272016D01*
X140546052Y-98029998D01*
X144005454Y-98029998D01*
X144005454Y-98030001D01*
X144025613Y-98311866D01*
X144077012Y-98548139D01*
X144085680Y-98587984D01*
X144138924Y-98730737D01*
X144184432Y-98852750D01*
X144184434Y-98852754D01*
X144319855Y-99100758D01*
X144319860Y-99100766D01*
X144489196Y-99326974D01*
X144489212Y-99326992D01*
X144689007Y-99526787D01*
X144689025Y-99526803D01*
X144915233Y-99696139D01*
X144915241Y-99696144D01*
X145163245Y-99831565D01*
X145163249Y-99831567D01*
X145163251Y-99831568D01*
X145428016Y-99930320D01*
X145566077Y-99960353D01*
X145704133Y-99990386D01*
X145704135Y-99990386D01*
X145704139Y-99990387D01*
X145954617Y-100008301D01*
X145985999Y-100010546D01*
X145986000Y-100010546D01*
X145986001Y-100010546D01*
X146014238Y-100008526D01*
X146267861Y-99990387D01*
X146543984Y-99930320D01*
X146808749Y-99831568D01*
X147056764Y-99696141D01*
X147282982Y-99526797D01*
X147482797Y-99326982D01*
X147652141Y-99100764D01*
X147787568Y-98852749D01*
X147886320Y-98587984D01*
X147946387Y-98311861D01*
X147966546Y-98030000D01*
X147946387Y-97748139D01*
X147886320Y-97472016D01*
X147787568Y-97207251D01*
X147765888Y-97167548D01*
X147652144Y-96959241D01*
X147652139Y-96959233D01*
X147482803Y-96733025D01*
X147482787Y-96733007D01*
X147282992Y-96533212D01*
X147282974Y-96533196D01*
X147056766Y-96363860D01*
X147056758Y-96363855D01*
X146808754Y-96228434D01*
X146808750Y-96228432D01*
X146708372Y-96190993D01*
X146543984Y-96129680D01*
X146543980Y-96129679D01*
X146543977Y-96129678D01*
X146267866Y-96069613D01*
X145986001Y-96049454D01*
X145985999Y-96049454D01*
X145704133Y-96069613D01*
X145428022Y-96129678D01*
X145428017Y-96129679D01*
X145428016Y-96129680D01*
X145364003Y-96153555D01*
X145163249Y-96228432D01*
X145163245Y-96228434D01*
X144915241Y-96363855D01*
X144915233Y-96363860D01*
X144689025Y-96533196D01*
X144689007Y-96533212D01*
X144489212Y-96733007D01*
X144489196Y-96733025D01*
X144319860Y-96959233D01*
X144319855Y-96959241D01*
X144184434Y-97207245D01*
X144184432Y-97207249D01*
X144146012Y-97310259D01*
X144097535Y-97440233D01*
X144085678Y-97472022D01*
X144025613Y-97748133D01*
X144005454Y-98029998D01*
X140546052Y-98029998D01*
X140537568Y-98007251D01*
X140433128Y-97815985D01*
X140402144Y-97759241D01*
X140402139Y-97759233D01*
X140232803Y-97533025D01*
X140232787Y-97533007D01*
X140032992Y-97333212D01*
X140032974Y-97333196D01*
X139806766Y-97163860D01*
X139806758Y-97163855D01*
X139558754Y-97028434D01*
X139558750Y-97028432D01*
X139458372Y-96990993D01*
X139293984Y-96929680D01*
X139293980Y-96929679D01*
X139293977Y-96929678D01*
X139017866Y-96869613D01*
X138736001Y-96849454D01*
X138735999Y-96849454D01*
X138454133Y-96869613D01*
X138178022Y-96929678D01*
X138178017Y-96929679D01*
X138178016Y-96929680D01*
X138114003Y-96953555D01*
X137913249Y-97028432D01*
X137913245Y-97028434D01*
X137665241Y-97163855D01*
X137665233Y-97163860D01*
X137439025Y-97333196D01*
X137439007Y-97333212D01*
X137239212Y-97533007D01*
X137239196Y-97533025D01*
X137069860Y-97759233D01*
X137069855Y-97759241D01*
X136934434Y-98007245D01*
X136934432Y-98007249D01*
X136871611Y-98175681D01*
X136837413Y-98267371D01*
X136835678Y-98272022D01*
X136775613Y-98548133D01*
X136755454Y-98829998D01*
X133296054Y-98829998D01*
X133386320Y-98587984D01*
X133446387Y-98311861D01*
X133466546Y-98030000D01*
X133446387Y-97748139D01*
X133386320Y-97472016D01*
X133287568Y-97207251D01*
X133265888Y-97167548D01*
X133152144Y-96959241D01*
X133152139Y-96959233D01*
X132982803Y-96733025D01*
X132982787Y-96733007D01*
X132782992Y-96533212D01*
X132782974Y-96533196D01*
X132556766Y-96363860D01*
X132556758Y-96363855D01*
X132308754Y-96228434D01*
X132308750Y-96228432D01*
X132208372Y-96190993D01*
X132043984Y-96129680D01*
X132043980Y-96129679D01*
X132043977Y-96129678D01*
X131767866Y-96069613D01*
X131486001Y-96049454D01*
X131485999Y-96049454D01*
X131204133Y-96069613D01*
X130928022Y-96129678D01*
X130928017Y-96129679D01*
X130928016Y-96129680D01*
X130864003Y-96153555D01*
X130663249Y-96228432D01*
X130663245Y-96228434D01*
X130415241Y-96363855D01*
X130415233Y-96363860D01*
X130189025Y-96533196D01*
X130189007Y-96533212D01*
X129989212Y-96733007D01*
X129989196Y-96733025D01*
X129819860Y-96959233D01*
X129819855Y-96959241D01*
X129684434Y-97207245D01*
X129684432Y-97207249D01*
X129646012Y-97310259D01*
X129597535Y-97440233D01*
X129585678Y-97472022D01*
X129525613Y-97748133D01*
X129505454Y-98029998D01*
X95393956Y-98029998D01*
X95188382Y-97930999D01*
X94859692Y-97815985D01*
X94859684Y-97815982D01*
X94605048Y-97757863D01*
X94520171Y-97738491D01*
X94520167Y-97738490D01*
X94520158Y-97738489D01*
X94174124Y-97699500D01*
X94174120Y-97699500D01*
X93825880Y-97699500D01*
X93825875Y-97699500D01*
X93479841Y-97738489D01*
X93479829Y-97738491D01*
X93140315Y-97815982D01*
X93140307Y-97815985D01*
X92811617Y-97930999D01*
X92497869Y-98082092D01*
X92261972Y-98230317D01*
X92194735Y-98249317D01*
X92127900Y-98228949D01*
X92082686Y-98175681D01*
X92072000Y-98125323D01*
X92072000Y-95631026D01*
X99330900Y-95631026D01*
X99330900Y-95876973D01*
X99363000Y-96120791D01*
X99426654Y-96358350D01*
X99520765Y-96585554D01*
X99520767Y-96585558D01*
X99643733Y-96798541D01*
X99643736Y-96798546D01*
X99643738Y-96798548D01*
X99793445Y-96993651D01*
X99793451Y-96993658D01*
X99967341Y-97167548D01*
X99967348Y-97167554D01*
X100153330Y-97310262D01*
X100162459Y-97317267D01*
X100375442Y-97440233D01*
X100452188Y-97472022D01*
X100599445Y-97533018D01*
X100602654Y-97534347D01*
X100840206Y-97597999D01*
X101084034Y-97630100D01*
X101084041Y-97630100D01*
X101329959Y-97630100D01*
X101329966Y-97630100D01*
X101573794Y-97597999D01*
X101811346Y-97534347D01*
X102038558Y-97440233D01*
X102251541Y-97317267D01*
X102446653Y-97167553D01*
X102620553Y-96993653D01*
X102770267Y-96798541D01*
X102893233Y-96585558D01*
X102987347Y-96358346D01*
X103050999Y-96120794D01*
X103083100Y-95876966D01*
X103083100Y-95631034D01*
X103083099Y-95631026D01*
X110760900Y-95631026D01*
X110760900Y-95876973D01*
X110793000Y-96120791D01*
X110856654Y-96358350D01*
X110950765Y-96585554D01*
X110950767Y-96585558D01*
X111073733Y-96798541D01*
X111073736Y-96798546D01*
X111073738Y-96798548D01*
X111223445Y-96993651D01*
X111223451Y-96993658D01*
X111397341Y-97167548D01*
X111397348Y-97167554D01*
X111583330Y-97310262D01*
X111592459Y-97317267D01*
X111805442Y-97440233D01*
X111882188Y-97472022D01*
X112029445Y-97533018D01*
X112032654Y-97534347D01*
X112270206Y-97597999D01*
X112514034Y-97630100D01*
X112514041Y-97630100D01*
X112759959Y-97630100D01*
X112759966Y-97630100D01*
X113003794Y-97597999D01*
X113241346Y-97534347D01*
X113468558Y-97440233D01*
X113681541Y-97317267D01*
X113876653Y-97167553D01*
X114050553Y-96993653D01*
X114200267Y-96798541D01*
X114323233Y-96585558D01*
X114417347Y-96358346D01*
X114480999Y-96120794D01*
X114513100Y-95876966D01*
X114513100Y-95631034D01*
X114480999Y-95387206D01*
X114417347Y-95149654D01*
X114412446Y-95137823D01*
X114323234Y-94922445D01*
X114323233Y-94922442D01*
X114200267Y-94709459D01*
X114160770Y-94657985D01*
X114050554Y-94514348D01*
X114050548Y-94514341D01*
X113876658Y-94340451D01*
X113876651Y-94340445D01*
X113681548Y-94190738D01*
X113681546Y-94190736D01*
X113681541Y-94190733D01*
X113468558Y-94067767D01*
X113468554Y-94067765D01*
X113241350Y-93973654D01*
X113003791Y-93910000D01*
X112759973Y-93877900D01*
X112759966Y-93877900D01*
X112514034Y-93877900D01*
X112514026Y-93877900D01*
X112270208Y-93910000D01*
X112032649Y-93973654D01*
X111805445Y-94067765D01*
X111805441Y-94067767D01*
X111677152Y-94141835D01*
X111592459Y-94190733D01*
X111592456Y-94190734D01*
X111592451Y-94190738D01*
X111397348Y-94340445D01*
X111397341Y-94340451D01*
X111223451Y-94514341D01*
X111223445Y-94514348D01*
X111073738Y-94709451D01*
X110950767Y-94922441D01*
X110950765Y-94922445D01*
X110856654Y-95149649D01*
X110793000Y-95387208D01*
X110760900Y-95631026D01*
X103083099Y-95631026D01*
X103050999Y-95387206D01*
X102987347Y-95149654D01*
X102982446Y-95137823D01*
X102893234Y-94922445D01*
X102893233Y-94922442D01*
X102770267Y-94709459D01*
X102730770Y-94657985D01*
X102620554Y-94514348D01*
X102620548Y-94514341D01*
X102446658Y-94340451D01*
X102446651Y-94340445D01*
X102251548Y-94190738D01*
X102251546Y-94190736D01*
X102251541Y-94190733D01*
X102038558Y-94067767D01*
X102038554Y-94067765D01*
X101811350Y-93973654D01*
X101573791Y-93910000D01*
X101329973Y-93877900D01*
X101329966Y-93877900D01*
X101084034Y-93877900D01*
X101084026Y-93877900D01*
X100840208Y-93910000D01*
X100602649Y-93973654D01*
X100375445Y-94067765D01*
X100375441Y-94067767D01*
X100247152Y-94141835D01*
X100162459Y-94190733D01*
X100162456Y-94190734D01*
X100162451Y-94190738D01*
X99967348Y-94340445D01*
X99967341Y-94340451D01*
X99793451Y-94514341D01*
X99793445Y-94514348D01*
X99643738Y-94709451D01*
X99520767Y-94922441D01*
X99520765Y-94922445D01*
X99426654Y-95149649D01*
X99363000Y-95387208D01*
X99330900Y-95631026D01*
X92072000Y-95631026D01*
X92072000Y-85868000D01*
X92091685Y-85800961D01*
X92144489Y-85755206D01*
X92196000Y-85744000D01*
X96072000Y-85744000D01*
X96072000Y-78624000D01*
X100796417Y-78624000D01*
X100816699Y-78829932D01*
X100835321Y-78891321D01*
X100876768Y-79027954D01*
X100974315Y-79210450D01*
X100981797Y-79219567D01*
X101105589Y-79370410D01*
X101168065Y-79421682D01*
X101265550Y-79501685D01*
X101448046Y-79599232D01*
X101646066Y-79659300D01*
X101646065Y-79659300D01*
X101664529Y-79661118D01*
X101852000Y-79679583D01*
X102057934Y-79659300D01*
X102255954Y-79599232D01*
X102438450Y-79501685D01*
X102598410Y-79370410D01*
X102729685Y-79210450D01*
X102827232Y-79027954D01*
X102887300Y-78829934D01*
X102907583Y-78624000D01*
X102887300Y-78418066D01*
X102827232Y-78220046D01*
X102729685Y-78037550D01*
X102617559Y-77900923D01*
X102598410Y-77877589D01*
X102438452Y-77746317D01*
X102438453Y-77746317D01*
X102438450Y-77746315D01*
X102255954Y-77648768D01*
X102057934Y-77588700D01*
X102057932Y-77588699D01*
X102057934Y-77588699D01*
X101852000Y-77568417D01*
X101646067Y-77588699D01*
X101448043Y-77648769D01*
X101364621Y-77693360D01*
X101265550Y-77746315D01*
X101265548Y-77746316D01*
X101265547Y-77746317D01*
X101105589Y-77877589D01*
X100974317Y-78037547D01*
X100876769Y-78220043D01*
X100816699Y-78418067D01*
X100796417Y-78624000D01*
X96072000Y-78624000D01*
X96072000Y-66744000D01*
X92196000Y-66744000D01*
X92128961Y-66724315D01*
X92083206Y-66671511D01*
X92072000Y-66620000D01*
X92072000Y-54474676D01*
X92091685Y-54407637D01*
X92144489Y-54361882D01*
X92213647Y-54351938D01*
X92261968Y-54369680D01*
X92497867Y-54517906D01*
X92811621Y-54669002D01*
X93058488Y-54755384D01*
X93140307Y-54784014D01*
X93140315Y-54784017D01*
X93140318Y-54784017D01*
X93140319Y-54784018D01*
X93479829Y-54861509D01*
X93825876Y-54900499D01*
X93825877Y-54900500D01*
X93825880Y-54900500D01*
X94174123Y-54900500D01*
X94174123Y-54900499D01*
X94520171Y-54861509D01*
X94859681Y-54784018D01*
X95188379Y-54669002D01*
X95502133Y-54517906D01*
X95796997Y-54332630D01*
X95807192Y-54324500D01*
X96069256Y-54115512D01*
X96069258Y-54115509D01*
X96069263Y-54115506D01*
X96315506Y-53869263D01*
X96322641Y-53860317D01*
X96532627Y-53597001D01*
X96532628Y-53596999D01*
X96532630Y-53596997D01*
X96717906Y-53302133D01*
X96869002Y-52988379D01*
X96880459Y-52955634D01*
X96921180Y-52898860D01*
X96986133Y-52873113D01*
X97054694Y-52886569D01*
X97105097Y-52934956D01*
X97121500Y-52996591D01*
X97121500Y-54606034D01*
X97101815Y-54673073D01*
X97085181Y-54693715D01*
X95611513Y-56167383D01*
X95611509Y-56167389D01*
X95552201Y-56270112D01*
X95552200Y-56270117D01*
X95521499Y-56384695D01*
X95520542Y-56391962D01*
X95492270Y-56455856D01*
X95433943Y-56494323D01*
X95364078Y-56495149D01*
X95309923Y-56463448D01*
X95278881Y-56432406D01*
X95278877Y-56432402D01*
X95099639Y-56306898D01*
X95099640Y-56306898D01*
X95099638Y-56306897D01*
X95000484Y-56260661D01*
X94901330Y-56214425D01*
X94901326Y-56214424D01*
X94901322Y-56214422D01*
X94689977Y-56157793D01*
X94472002Y-56138723D01*
X94471998Y-56138723D01*
X94326682Y-56151436D01*
X94254023Y-56157793D01*
X94254020Y-56157793D01*
X94042677Y-56214422D01*
X94042668Y-56214426D01*
X93844361Y-56306898D01*
X93844357Y-56306900D01*
X93665121Y-56432402D01*
X93510402Y-56587121D01*
X93384900Y-56766357D01*
X93384898Y-56766361D01*
X93292426Y-56964668D01*
X93292422Y-56964677D01*
X93235793Y-57176020D01*
X93235793Y-57176024D01*
X93216723Y-57393997D01*
X93216723Y-57394002D01*
X93235793Y-57611975D01*
X93235793Y-57611979D01*
X93292422Y-57823322D01*
X93292424Y-57823326D01*
X93292425Y-57823330D01*
X93320118Y-57882717D01*
X93384897Y-58021638D01*
X93384898Y-58021639D01*
X93510402Y-58200877D01*
X93665123Y-58355598D01*
X93844361Y-58481102D01*
X94042670Y-58573575D01*
X94254023Y-58630207D01*
X94436926Y-58646208D01*
X94471998Y-58649277D01*
X94472000Y-58649277D01*
X94472002Y-58649277D01*
X94500254Y-58646805D01*
X94689977Y-58630207D01*
X94901330Y-58573575D01*
X95099639Y-58481102D01*
X95278877Y-58355598D01*
X95309819Y-58324656D01*
X95371142Y-58291171D01*
X95440834Y-58296155D01*
X95496767Y-58338027D01*
X95521184Y-58403491D01*
X95521500Y-58412337D01*
X95521500Y-62875663D01*
X95501815Y-62942702D01*
X95449011Y-62988457D01*
X95379853Y-62998401D01*
X95316297Y-62969376D01*
X95309819Y-62963344D01*
X95278881Y-62932406D01*
X95278877Y-62932402D01*
X95099639Y-62806898D01*
X95099640Y-62806898D01*
X95099638Y-62806897D01*
X95000484Y-62760661D01*
X94901330Y-62714425D01*
X94901326Y-62714424D01*
X94901322Y-62714422D01*
X94689977Y-62657793D01*
X94472002Y-62638723D01*
X94471998Y-62638723D01*
X94326682Y-62651436D01*
X94254023Y-62657793D01*
X94254020Y-62657793D01*
X94042677Y-62714422D01*
X94042668Y-62714426D01*
X93844361Y-62806898D01*
X93844357Y-62806900D01*
X93665121Y-62932402D01*
X93510402Y-63087121D01*
X93384900Y-63266357D01*
X93384898Y-63266361D01*
X93292426Y-63464668D01*
X93292422Y-63464677D01*
X93235793Y-63676020D01*
X93235793Y-63676024D01*
X93216723Y-63893997D01*
X93216723Y-63894002D01*
X93235793Y-64111975D01*
X93235793Y-64111979D01*
X93292422Y-64323322D01*
X93292424Y-64323326D01*
X93292425Y-64323330D01*
X93297452Y-64334110D01*
X93384897Y-64521638D01*
X93384898Y-64521639D01*
X93510402Y-64700877D01*
X93665123Y-64855598D01*
X93844361Y-64981102D01*
X94042670Y-65073575D01*
X94254023Y-65130207D01*
X94436926Y-65146208D01*
X94471998Y-65149277D01*
X94472000Y-65149277D01*
X94472002Y-65149277D01*
X94500254Y-65146805D01*
X94689977Y-65130207D01*
X94901330Y-65073575D01*
X95099639Y-64981102D01*
X95278877Y-64855598D01*
X95309819Y-64824656D01*
X95371142Y-64791171D01*
X95440834Y-64796155D01*
X95496767Y-64838027D01*
X95521184Y-64903491D01*
X95521500Y-64912337D01*
X95521500Y-65603308D01*
X95543974Y-65687183D01*
X95543974Y-65687184D01*
X95552199Y-65717883D01*
X95552200Y-65717885D01*
X95552201Y-65717887D01*
X95611511Y-65820614D01*
X95611513Y-65820616D01*
X96985181Y-67194284D01*
X97018666Y-67255607D01*
X97021500Y-67281965D01*
X97021500Y-71763309D01*
X97029874Y-71794559D01*
X97029875Y-71794563D01*
X97052201Y-71877888D01*
X97081856Y-71929250D01*
X97111511Y-71980614D01*
X97111513Y-71980616D01*
X100808893Y-75677996D01*
X100842378Y-75739319D01*
X100839873Y-75801670D01*
X100816700Y-75878064D01*
X100816699Y-75878066D01*
X100796417Y-76084000D01*
X100816699Y-76289932D01*
X100816700Y-76289934D01*
X100876768Y-76487954D01*
X100974315Y-76670450D01*
X100974317Y-76670452D01*
X101105589Y-76830410D01*
X101163352Y-76877814D01*
X101265550Y-76961685D01*
X101448046Y-77059232D01*
X101646066Y-77119300D01*
X101646065Y-77119300D01*
X101664529Y-77121118D01*
X101852000Y-77139583D01*
X102057934Y-77119300D01*
X102255954Y-77059232D01*
X102438450Y-76961685D01*
X102598410Y-76830410D01*
X102729685Y-76670450D01*
X102827232Y-76487954D01*
X102887300Y-76289934D01*
X102907583Y-76084000D01*
X102887300Y-75878066D01*
X102827232Y-75680046D01*
X102729685Y-75497550D01*
X102664029Y-75417547D01*
X102598410Y-75337589D01*
X102438452Y-75206317D01*
X102438453Y-75206317D01*
X102438450Y-75206315D01*
X102255954Y-75108768D01*
X102057934Y-75048700D01*
X102057932Y-75048699D01*
X102057934Y-75048699D01*
X101852000Y-75028417D01*
X101646066Y-75048699D01*
X101646064Y-75048700D01*
X101569670Y-75071873D01*
X101499804Y-75072496D01*
X101445996Y-75040893D01*
X97958819Y-71553716D01*
X97925334Y-71492393D01*
X97922500Y-71466035D01*
X97922500Y-70753999D01*
X100573127Y-70753999D01*
X100573128Y-70754000D01*
X101536314Y-70754000D01*
X101531920Y-70758394D01*
X101479259Y-70849606D01*
X101452000Y-70951339D01*
X101452000Y-71056661D01*
X101479259Y-71158394D01*
X101531920Y-71249606D01*
X101536314Y-71254000D01*
X100573128Y-71254000D01*
X100625730Y-71450317D01*
X100625734Y-71450326D01*
X100721865Y-71656482D01*
X100852342Y-71842820D01*
X101013179Y-72003657D01*
X101199517Y-72134134D01*
X101405673Y-72230265D01*
X101405682Y-72230269D01*
X101601256Y-72282673D01*
X101660917Y-72319038D01*
X101691446Y-72381885D01*
X101683151Y-72451261D01*
X101638666Y-72505138D01*
X101605158Y-72521109D01*
X101448043Y-72568769D01*
X101337898Y-72627643D01*
X101265550Y-72666315D01*
X101265548Y-72666316D01*
X101265547Y-72666317D01*
X101105589Y-72797589D01*
X100974317Y-72957547D01*
X100974315Y-72957550D01*
X100954864Y-72993940D01*
X100876769Y-73140043D01*
X100816699Y-73338067D01*
X100796417Y-73544000D01*
X100816699Y-73749932D01*
X100816700Y-73749934D01*
X100876768Y-73947954D01*
X100974315Y-74130450D01*
X100974317Y-74130452D01*
X101105589Y-74290410D01*
X101168065Y-74341682D01*
X101265550Y-74421685D01*
X101448046Y-74519232D01*
X101646066Y-74579300D01*
X101646065Y-74579300D01*
X101664529Y-74581118D01*
X101852000Y-74599583D01*
X102057934Y-74579300D01*
X102255954Y-74519232D01*
X102438450Y-74421685D01*
X102598410Y-74290410D01*
X102729685Y-74130450D01*
X102827232Y-73947954D01*
X102887300Y-73749934D01*
X102907583Y-73544000D01*
X102887300Y-73338066D01*
X102827232Y-73140046D01*
X102729685Y-72957550D01*
X102664029Y-72877547D01*
X102598410Y-72797589D01*
X102438452Y-72666317D01*
X102438453Y-72666317D01*
X102438450Y-72666315D01*
X102255954Y-72568768D01*
X102098840Y-72521108D01*
X102040402Y-72482811D01*
X102011946Y-72418999D01*
X102022506Y-72349932D01*
X102068730Y-72297538D01*
X102102743Y-72282673D01*
X102298317Y-72230269D01*
X102298326Y-72230265D01*
X102504482Y-72134134D01*
X102690820Y-72003657D01*
X102851657Y-71842820D01*
X102982134Y-71656482D01*
X103078265Y-71450326D01*
X103078269Y-71450317D01*
X103130872Y-71254000D01*
X102167686Y-71254000D01*
X102172080Y-71249606D01*
X102224741Y-71158394D01*
X102252000Y-71056661D01*
X102252000Y-70951339D01*
X102224741Y-70849606D01*
X102172080Y-70758394D01*
X102167686Y-70754000D01*
X103130872Y-70754000D01*
X103130872Y-70753999D01*
X103078269Y-70557682D01*
X103078265Y-70557673D01*
X102982134Y-70351517D01*
X102851657Y-70165179D01*
X102690820Y-70004342D01*
X102504482Y-69873865D01*
X102298328Y-69777734D01*
X102102000Y-69725127D01*
X102102000Y-70688314D01*
X102097606Y-70683920D01*
X102006394Y-70631259D01*
X101904661Y-70604000D01*
X101799339Y-70604000D01*
X101697606Y-70631259D01*
X101606394Y-70683920D01*
X101602000Y-70688314D01*
X101602000Y-69725127D01*
X101405671Y-69777734D01*
X101199517Y-69873865D01*
X101013179Y-70004342D01*
X100852342Y-70165179D01*
X100721865Y-70351517D01*
X100625734Y-70557673D01*
X100625730Y-70557682D01*
X100573127Y-70753999D01*
X97922500Y-70753999D01*
X97922500Y-66984693D01*
X97922500Y-66984691D01*
X97891799Y-66870114D01*
X97858648Y-66812695D01*
X97832489Y-66767386D01*
X96458819Y-65393716D01*
X96425334Y-65332393D01*
X96422500Y-65306035D01*
X96422500Y-63893994D01*
X97466859Y-63893994D01*
X97466859Y-63894005D01*
X97487385Y-64141729D01*
X97487387Y-64141738D01*
X97548412Y-64382717D01*
X97648266Y-64610364D01*
X97748564Y-64763882D01*
X98448212Y-64064234D01*
X98459482Y-64106292D01*
X98531890Y-64231708D01*
X98634292Y-64334110D01*
X98759708Y-64406518D01*
X98801765Y-64417787D01*
X98101942Y-65117609D01*
X98148768Y-65154055D01*
X98148770Y-65154056D01*
X98367385Y-65272364D01*
X98367396Y-65272369D01*
X98602506Y-65353083D01*
X98847707Y-65394000D01*
X99096293Y-65394000D01*
X99341493Y-65353083D01*
X99576603Y-65272369D01*
X99576614Y-65272364D01*
X99795228Y-65154057D01*
X99795231Y-65154055D01*
X99842056Y-65117609D01*
X99768447Y-65044000D01*
X100796417Y-65044000D01*
X100816699Y-65249932D01*
X100826993Y-65283867D01*
X100876768Y-65447954D01*
X100974315Y-65630450D01*
X100974317Y-65630452D01*
X101105589Y-65790410D01*
X101170890Y-65844000D01*
X101265550Y-65921685D01*
X101448046Y-66019232D01*
X101646066Y-66079300D01*
X101646065Y-66079300D01*
X101664529Y-66081118D01*
X101852000Y-66099583D01*
X102057934Y-66079300D01*
X102255954Y-66019232D01*
X102438450Y-65921685D01*
X102598410Y-65790410D01*
X102729685Y-65630450D01*
X102827232Y-65447954D01*
X102887300Y-65249934D01*
X102907583Y-65044000D01*
X102887300Y-64838066D01*
X102827232Y-64640046D01*
X102729685Y-64457550D01*
X102632857Y-64339564D01*
X102598410Y-64297589D01*
X102503039Y-64219321D01*
X108421500Y-64219321D01*
X108421500Y-65868678D01*
X108436032Y-65941735D01*
X108436033Y-65941739D01*
X108436034Y-65941740D01*
X108491399Y-66024601D01*
X108573263Y-66079300D01*
X108574260Y-66079966D01*
X108574264Y-66079967D01*
X108647321Y-66094499D01*
X108647324Y-66094500D01*
X108647326Y-66094500D01*
X110296676Y-66094500D01*
X110296677Y-66094499D01*
X110369740Y-66079966D01*
X110452601Y-66024601D01*
X110507966Y-65941740D01*
X110522500Y-65868674D01*
X110522500Y-64219326D01*
X110522500Y-64219323D01*
X110522499Y-64219321D01*
X110507967Y-64146264D01*
X110507966Y-64146260D01*
X110452601Y-64063399D01*
X110370737Y-64008700D01*
X110369739Y-64008033D01*
X110369735Y-64008032D01*
X110296677Y-63993500D01*
X110296674Y-63993500D01*
X108647326Y-63993500D01*
X108647323Y-63993500D01*
X108574264Y-64008032D01*
X108574260Y-64008033D01*
X108491399Y-64063399D01*
X108436033Y-64146260D01*
X108436032Y-64146264D01*
X108421500Y-64219321D01*
X102503039Y-64219321D01*
X102438452Y-64166317D01*
X102438453Y-64166317D01*
X102438450Y-64166315D01*
X102255954Y-64068768D01*
X102057934Y-64008700D01*
X102057932Y-64008699D01*
X102057934Y-64008699D01*
X101852000Y-63988417D01*
X101646067Y-64008699D01*
X101448043Y-64068769D01*
X101365126Y-64113090D01*
X101265550Y-64166315D01*
X101265548Y-64166316D01*
X101265547Y-64166317D01*
X101105589Y-64297589D01*
X100974317Y-64457547D01*
X100876769Y-64640043D01*
X100816699Y-64838067D01*
X100796417Y-65044000D01*
X99768447Y-65044000D01*
X99142234Y-64417787D01*
X99184292Y-64406518D01*
X99309708Y-64334110D01*
X99412110Y-64231708D01*
X99484518Y-64106292D01*
X99495787Y-64064234D01*
X100195434Y-64763882D01*
X100295731Y-64610369D01*
X100395587Y-64382717D01*
X100456612Y-64141738D01*
X100456614Y-64141729D01*
X100477141Y-63894005D01*
X100477141Y-63893994D01*
X100456614Y-63646270D01*
X100456612Y-63646261D01*
X100395587Y-63405282D01*
X100295731Y-63177630D01*
X100195434Y-63024116D01*
X99495787Y-63723764D01*
X99484518Y-63681708D01*
X99412110Y-63556292D01*
X99309708Y-63453890D01*
X99184292Y-63381482D01*
X99142235Y-63370212D01*
X99842057Y-62670390D01*
X99842056Y-62670389D01*
X99795229Y-62633943D01*
X99576614Y-62515635D01*
X99576603Y-62515630D01*
X99341493Y-62434916D01*
X99096293Y-62394000D01*
X98847707Y-62394000D01*
X98602506Y-62434916D01*
X98367396Y-62515630D01*
X98367390Y-62515632D01*
X98148761Y-62633949D01*
X98101942Y-62670388D01*
X98101942Y-62670390D01*
X98801765Y-63370212D01*
X98759708Y-63381482D01*
X98634292Y-63453890D01*
X98531890Y-63556292D01*
X98459482Y-63681708D01*
X98448212Y-63723764D01*
X97748564Y-63024116D01*
X97648267Y-63177632D01*
X97548412Y-63405282D01*
X97487387Y-63646261D01*
X97487385Y-63646270D01*
X97466859Y-63893994D01*
X96422500Y-63893994D01*
X96422500Y-59964000D01*
X100796417Y-59964000D01*
X100816699Y-60169932D01*
X100816700Y-60169934D01*
X100876768Y-60367954D01*
X100974315Y-60550450D01*
X100974627Y-60550830D01*
X101105589Y-60710410D01*
X101188081Y-60778108D01*
X101265550Y-60841685D01*
X101448046Y-60939232D01*
X101646066Y-60999300D01*
X101646065Y-60999300D01*
X101664529Y-61001118D01*
X101852000Y-61019583D01*
X102057934Y-60999300D01*
X102255954Y-60939232D01*
X102438450Y-60841685D01*
X102539775Y-60758529D01*
X102604085Y-60731217D01*
X102605420Y-60731445D01*
X102604912Y-60726118D01*
X102630818Y-60670920D01*
X102729685Y-60550450D01*
X102827232Y-60367954D01*
X102887300Y-60169934D01*
X102907583Y-59964000D01*
X102887300Y-59758066D01*
X102827232Y-59560046D01*
X102729685Y-59377550D01*
X102611290Y-59233284D01*
X102598410Y-59217589D01*
X102480677Y-59120969D01*
X102438450Y-59086315D01*
X102255954Y-58988768D01*
X102057934Y-58928700D01*
X102057932Y-58928699D01*
X102057934Y-58928699D01*
X101852000Y-58908417D01*
X101646067Y-58928699D01*
X101448043Y-58988769D01*
X101338618Y-59047259D01*
X101265550Y-59086315D01*
X101265548Y-59086316D01*
X101265547Y-59086317D01*
X101105589Y-59217589D01*
X100974317Y-59377547D01*
X100974315Y-59377550D01*
X100935643Y-59449898D01*
X100876769Y-59560043D01*
X100816699Y-59758067D01*
X100796417Y-59964000D01*
X96422500Y-59964000D01*
X96422500Y-57393994D01*
X97466859Y-57393994D01*
X97466859Y-57394005D01*
X97487385Y-57641729D01*
X97487387Y-57641738D01*
X97548412Y-57882717D01*
X97648266Y-58110364D01*
X97748564Y-58263882D01*
X98448212Y-57564234D01*
X98459482Y-57606292D01*
X98531890Y-57731708D01*
X98634292Y-57834110D01*
X98759708Y-57906518D01*
X98801765Y-57917787D01*
X98101942Y-58617609D01*
X98148768Y-58654055D01*
X98148770Y-58654056D01*
X98367385Y-58772364D01*
X98367396Y-58772369D01*
X98602506Y-58853083D01*
X98847707Y-58894000D01*
X99096293Y-58894000D01*
X99341493Y-58853083D01*
X99576603Y-58772369D01*
X99576614Y-58772364D01*
X99795228Y-58654057D01*
X99795231Y-58654055D01*
X99842056Y-58617609D01*
X99142234Y-57917787D01*
X99184292Y-57906518D01*
X99309708Y-57834110D01*
X99412110Y-57731708D01*
X99484518Y-57606292D01*
X99495787Y-57564234D01*
X100195434Y-58263882D01*
X100295731Y-58110369D01*
X100395587Y-57882717D01*
X100456612Y-57641738D01*
X100456614Y-57641729D01*
X100474656Y-57424000D01*
X100796417Y-57424000D01*
X100816699Y-57629932D01*
X100823414Y-57652069D01*
X100876768Y-57827954D01*
X100974315Y-58010450D01*
X101001438Y-58043500D01*
X101105589Y-58170410D01*
X101142714Y-58200877D01*
X101265550Y-58301685D01*
X101448046Y-58399232D01*
X101646066Y-58459300D01*
X101646065Y-58459300D01*
X101664529Y-58461118D01*
X101852000Y-58479583D01*
X102057934Y-58459300D01*
X102255954Y-58399232D01*
X102438450Y-58301685D01*
X102598410Y-58170410D01*
X102729685Y-58010450D01*
X102827232Y-57827954D01*
X102887300Y-57629934D01*
X102907583Y-57424000D01*
X102887300Y-57218066D01*
X102880583Y-57195926D01*
X102879959Y-57126060D01*
X102911561Y-57072251D01*
X103272995Y-56710819D01*
X103334318Y-56677334D01*
X103360676Y-56674500D01*
X108474586Y-56674500D01*
X108541625Y-56694185D01*
X108587380Y-56746989D01*
X108597324Y-56816147D01*
X108583945Y-56856950D01*
X108535782Y-56947055D01*
X108496769Y-57020043D01*
X108496768Y-57020045D01*
X108496768Y-57020046D01*
X108489898Y-57042692D01*
X108436699Y-57218067D01*
X108416417Y-57424000D01*
X108436699Y-57629932D01*
X108443414Y-57652069D01*
X108496768Y-57827954D01*
X108594315Y-58010450D01*
X108621438Y-58043500D01*
X108725589Y-58170410D01*
X108762714Y-58200877D01*
X108885550Y-58301685D01*
X109068046Y-58399232D01*
X109266066Y-58459300D01*
X109266065Y-58459300D01*
X109284529Y-58461118D01*
X109472000Y-58479583D01*
X109677934Y-58459300D01*
X109875954Y-58399232D01*
X110058450Y-58301685D01*
X110218410Y-58170410D01*
X110349685Y-58010450D01*
X110447232Y-57827954D01*
X110507300Y-57629934D01*
X110527583Y-57424000D01*
X110507300Y-57218066D01*
X110447232Y-57020046D01*
X110360055Y-56856951D01*
X110345814Y-56788551D01*
X110370814Y-56723307D01*
X110427118Y-56681936D01*
X110469414Y-56674500D01*
X111143324Y-56674500D01*
X111210363Y-56694185D01*
X111231005Y-56710819D01*
X111592436Y-57072250D01*
X111625921Y-57133573D01*
X111623416Y-57195924D01*
X111616700Y-57218063D01*
X111616699Y-57218066D01*
X111596417Y-57424000D01*
X111616699Y-57629932D01*
X111623414Y-57652069D01*
X111676768Y-57827954D01*
X111774315Y-58010450D01*
X111801438Y-58043500D01*
X111905589Y-58170410D01*
X111942714Y-58200877D01*
X112065550Y-58301685D01*
X112248046Y-58399232D01*
X112446066Y-58459300D01*
X112446065Y-58459300D01*
X112464529Y-58461118D01*
X112652000Y-58479583D01*
X112857934Y-58459300D01*
X112880069Y-58452584D01*
X112949936Y-58451959D01*
X113003749Y-58483563D01*
X113506122Y-58985936D01*
X113539607Y-59047259D01*
X113537569Y-59075755D01*
X113545702Y-59073602D01*
X113612190Y-59095075D01*
X113630063Y-59109877D01*
X115535181Y-61014995D01*
X115568666Y-61076318D01*
X115571500Y-61102676D01*
X115571500Y-67245323D01*
X115551815Y-67312362D01*
X115535181Y-67333004D01*
X113003749Y-69864435D01*
X112942426Y-69897920D01*
X112880077Y-69895416D01*
X112857934Y-69888699D01*
X112755077Y-69878569D01*
X112690290Y-69852408D01*
X112649932Y-69795373D01*
X112646815Y-69725573D01*
X112679549Y-69667487D01*
X114072475Y-68274563D01*
X114121911Y-68188937D01*
X114147500Y-68093436D01*
X114147500Y-67994564D01*
X114147500Y-66650899D01*
X114167185Y-66583860D01*
X114183819Y-66563218D01*
X114216218Y-66530819D01*
X114277541Y-66497334D01*
X114303899Y-66494500D01*
X114450985Y-66494500D01*
X114604365Y-66456696D01*
X114744240Y-66383283D01*
X114862483Y-66278530D01*
X114952220Y-66148523D01*
X115008237Y-66000818D01*
X115027278Y-65844000D01*
X115024439Y-65820614D01*
X115008237Y-65687181D01*
X114986721Y-65630450D01*
X114952220Y-65539477D01*
X114862483Y-65409470D01*
X114744240Y-65304717D01*
X114744238Y-65304716D01*
X114744237Y-65304715D01*
X114604365Y-65231303D01*
X114450986Y-65193500D01*
X114450985Y-65193500D01*
X114293015Y-65193500D01*
X114293014Y-65193500D01*
X114139634Y-65231303D01*
X113999761Y-65304715D01*
X113999759Y-65304717D01*
X113877892Y-65412680D01*
X113814659Y-65442401D01*
X113745395Y-65433217D01*
X113692093Y-65388044D01*
X113671673Y-65321225D01*
X113677005Y-65283871D01*
X113687300Y-65249934D01*
X113707583Y-65044000D01*
X113687300Y-64838066D01*
X113627232Y-64640046D01*
X113529685Y-64457550D01*
X113432857Y-64339564D01*
X113398410Y-64297589D01*
X113238451Y-64166315D01*
X113218045Y-64155408D01*
X113168202Y-64106445D01*
X113152500Y-64046051D01*
X113152500Y-63501948D01*
X113172185Y-63434909D01*
X113218047Y-63392590D01*
X113238450Y-63381685D01*
X113398410Y-63250410D01*
X113529685Y-63090450D01*
X113627232Y-62907954D01*
X113687300Y-62709934D01*
X113707583Y-62504000D01*
X113687300Y-62298066D01*
X113627232Y-62100046D01*
X113529685Y-61917550D01*
X113435929Y-61803307D01*
X113398410Y-61757589D01*
X113238452Y-61626317D01*
X113238453Y-61626317D01*
X113238450Y-61626315D01*
X113055954Y-61528768D01*
X112857934Y-61468700D01*
X112857932Y-61468699D01*
X112857934Y-61468699D01*
X112652000Y-61448417D01*
X112446066Y-61468699D01*
X112446063Y-61468700D01*
X112423924Y-61475416D01*
X112354057Y-61476039D01*
X112300250Y-61444436D01*
X111797877Y-60942063D01*
X111764392Y-60880740D01*
X111765086Y-60871022D01*
X111715328Y-60856972D01*
X111595189Y-60787609D01*
X111595186Y-60787608D01*
X111467892Y-60753500D01*
X111467891Y-60753500D01*
X110445222Y-60753500D01*
X110378183Y-60733815D01*
X110332428Y-60681011D01*
X110322484Y-60611853D01*
X110347077Y-60556040D01*
X110346298Y-60555520D01*
X110349259Y-60551086D01*
X110349373Y-60550830D01*
X110349685Y-60550450D01*
X110447232Y-60367954D01*
X110507300Y-60169934D01*
X110527583Y-59964000D01*
X111596417Y-59964000D01*
X111616699Y-60169932D01*
X111616700Y-60169934D01*
X111676768Y-60367954D01*
X111774315Y-60550450D01*
X111774627Y-60550830D01*
X111873182Y-60670921D01*
X111900494Y-60735231D01*
X111900388Y-60735848D01*
X111944985Y-60745550D01*
X111964222Y-60758528D01*
X111988081Y-60778108D01*
X112065550Y-60841685D01*
X112248046Y-60939232D01*
X112446066Y-60999300D01*
X112446065Y-60999300D01*
X112464529Y-61001118D01*
X112652000Y-61019583D01*
X112857934Y-60999300D01*
X113055954Y-60939232D01*
X113238450Y-60841685D01*
X113398410Y-60710410D01*
X113529685Y-60550450D01*
X113627232Y-60367954D01*
X113687300Y-60169934D01*
X113707583Y-59964000D01*
X113687300Y-59758066D01*
X113627232Y-59560046D01*
X113529685Y-59377550D01*
X113446528Y-59276222D01*
X113419216Y-59211912D01*
X113421917Y-59196132D01*
X113359014Y-59182449D01*
X113339777Y-59169471D01*
X113284757Y-59124318D01*
X113238450Y-59086315D01*
X113055954Y-58988768D01*
X112857934Y-58928700D01*
X112857932Y-58928699D01*
X112857934Y-58928699D01*
X112652000Y-58908417D01*
X112446067Y-58928699D01*
X112248043Y-58988769D01*
X112138618Y-59047259D01*
X112065550Y-59086315D01*
X112065548Y-59086316D01*
X112065547Y-59086317D01*
X111905589Y-59217589D01*
X111774317Y-59377547D01*
X111774315Y-59377550D01*
X111735643Y-59449898D01*
X111676769Y-59560043D01*
X111616699Y-59758067D01*
X111596417Y-59964000D01*
X110527583Y-59964000D01*
X110507300Y-59758066D01*
X110447232Y-59560046D01*
X110349685Y-59377550D01*
X110231290Y-59233284D01*
X110218410Y-59217589D01*
X110100677Y-59120969D01*
X110058450Y-59086315D01*
X109875954Y-58988768D01*
X109677934Y-58928700D01*
X109677932Y-58928699D01*
X109677934Y-58928699D01*
X109472000Y-58908417D01*
X109266067Y-58928699D01*
X109068043Y-58988769D01*
X108958618Y-59047259D01*
X108885550Y-59086315D01*
X108885548Y-59086316D01*
X108885547Y-59086317D01*
X108725589Y-59217589D01*
X108594317Y-59377547D01*
X108594315Y-59377550D01*
X108555643Y-59449898D01*
X108496769Y-59560043D01*
X108436699Y-59758067D01*
X108416417Y-59964000D01*
X108436699Y-60169932D01*
X108436700Y-60169934D01*
X108496768Y-60367954D01*
X108594315Y-60550450D01*
X108594627Y-60550830D01*
X108594729Y-60551070D01*
X108597702Y-60555520D01*
X108596858Y-60556083D01*
X108621944Y-60615139D01*
X108610156Y-60684007D01*
X108563006Y-60735569D01*
X108498778Y-60753500D01*
X103167892Y-60753500D01*
X103036108Y-60753500D01*
X102908814Y-60787608D01*
X102908813Y-60787608D01*
X102908811Y-60787609D01*
X102908810Y-60787609D01*
X102788671Y-60856972D01*
X102738718Y-60869090D01*
X102720923Y-60924191D01*
X102706121Y-60942064D01*
X102203749Y-61444435D01*
X102142426Y-61477920D01*
X102080077Y-61475416D01*
X102057934Y-61468699D01*
X101852000Y-61448417D01*
X101646067Y-61468699D01*
X101448043Y-61528769D01*
X101357811Y-61577000D01*
X101265550Y-61626315D01*
X101265548Y-61626316D01*
X101265547Y-61626317D01*
X101105589Y-61757589D01*
X100986902Y-61902212D01*
X100974315Y-61917550D01*
X100960289Y-61943791D01*
X100876769Y-62100043D01*
X100816699Y-62298067D01*
X100796417Y-62504000D01*
X100816699Y-62709932D01*
X100846113Y-62806897D01*
X100876768Y-62907954D01*
X100974315Y-63090450D01*
X100974317Y-63090452D01*
X101105589Y-63250410D01*
X101202209Y-63329702D01*
X101265550Y-63381685D01*
X101448046Y-63479232D01*
X101646066Y-63539300D01*
X101646065Y-63539300D01*
X101664529Y-63541118D01*
X101852000Y-63559583D01*
X102057934Y-63539300D01*
X102255954Y-63479232D01*
X102438450Y-63381685D01*
X102598410Y-63250410D01*
X102729685Y-63090450D01*
X102827232Y-62907954D01*
X102887300Y-62709934D01*
X102907583Y-62504000D01*
X102887300Y-62298066D01*
X102880583Y-62275926D01*
X102879959Y-62206060D01*
X102911561Y-62152251D01*
X103272995Y-61790819D01*
X103334318Y-61757334D01*
X103360676Y-61754500D01*
X108474586Y-61754500D01*
X108541625Y-61774185D01*
X108587380Y-61826989D01*
X108597324Y-61896147D01*
X108583945Y-61936950D01*
X108580289Y-61943791D01*
X108496769Y-62100043D01*
X108436699Y-62298067D01*
X108416417Y-62504000D01*
X108436699Y-62709932D01*
X108466113Y-62806897D01*
X108496768Y-62907954D01*
X108594315Y-63090450D01*
X108594317Y-63090452D01*
X108725589Y-63250410D01*
X108822209Y-63329702D01*
X108885550Y-63381685D01*
X109068046Y-63479232D01*
X109266066Y-63539300D01*
X109266065Y-63539300D01*
X109284529Y-63541118D01*
X109472000Y-63559583D01*
X109677934Y-63539300D01*
X109875954Y-63479232D01*
X110058450Y-63381685D01*
X110218410Y-63250410D01*
X110349685Y-63090450D01*
X110447232Y-62907954D01*
X110507300Y-62709934D01*
X110527583Y-62504000D01*
X110507300Y-62298066D01*
X110447232Y-62100046D01*
X110360055Y-61936951D01*
X110345814Y-61868551D01*
X110370814Y-61803307D01*
X110427118Y-61761936D01*
X110469414Y-61754500D01*
X111143324Y-61754500D01*
X111210363Y-61774185D01*
X111231005Y-61790819D01*
X111592436Y-62152250D01*
X111625921Y-62213573D01*
X111623416Y-62275924D01*
X111616700Y-62298063D01*
X111616699Y-62298066D01*
X111596417Y-62504000D01*
X111616699Y-62709932D01*
X111646113Y-62806897D01*
X111676768Y-62907954D01*
X111774315Y-63090450D01*
X111774317Y-63090452D01*
X111905589Y-63250410D01*
X112016901Y-63341760D01*
X112065550Y-63381685D01*
X112085952Y-63392590D01*
X112135796Y-63441549D01*
X112151500Y-63501948D01*
X112151500Y-64046051D01*
X112131815Y-64113090D01*
X112085955Y-64155408D01*
X112065548Y-64166315D01*
X111905589Y-64297589D01*
X111774317Y-64457547D01*
X111676769Y-64640043D01*
X111616699Y-64838067D01*
X111596417Y-65044000D01*
X111616699Y-65249932D01*
X111626993Y-65283867D01*
X111676768Y-65447954D01*
X111774315Y-65630450D01*
X111774317Y-65630452D01*
X111905589Y-65790410D01*
X111970890Y-65844000D01*
X112065550Y-65921685D01*
X112248046Y-66019232D01*
X112446066Y-66079300D01*
X112446065Y-66079300D01*
X112464529Y-66081118D01*
X112652000Y-66099583D01*
X112857934Y-66079300D01*
X113055954Y-66019232D01*
X113238450Y-65921685D01*
X113398410Y-65790410D01*
X113509322Y-65655261D01*
X113567068Y-65615927D01*
X113636912Y-65614056D01*
X113696681Y-65650243D01*
X113727397Y-65712999D01*
X113728272Y-65748872D01*
X113716722Y-65844000D01*
X113716722Y-65844001D01*
X113722896Y-65894854D01*
X113711435Y-65963777D01*
X113687481Y-65997480D01*
X113541438Y-66143525D01*
X113471526Y-66213436D01*
X113422091Y-66299059D01*
X113422091Y-66299060D01*
X113422090Y-66299062D01*
X113396500Y-66394565D01*
X113396500Y-66394567D01*
X113396500Y-67837100D01*
X113376815Y-67904139D01*
X113360181Y-67924781D01*
X112468472Y-68816489D01*
X112407149Y-68849974D01*
X112337457Y-68844990D01*
X112281524Y-68803118D01*
X112264849Y-68772778D01*
X112252220Y-68739478D01*
X112252220Y-68739477D01*
X112162483Y-68609470D01*
X112044240Y-68504717D01*
X112044238Y-68504716D01*
X112044237Y-68504715D01*
X111904365Y-68431303D01*
X111750986Y-68393500D01*
X111750985Y-68393500D01*
X111593015Y-68393500D01*
X111593014Y-68393500D01*
X111439634Y-68431303D01*
X111299762Y-68504715D01*
X111181516Y-68609470D01*
X111179089Y-68612987D01*
X111177742Y-68614938D01*
X111123463Y-68658929D01*
X111075692Y-68668500D01*
X110637333Y-68668500D01*
X110570294Y-68648815D01*
X110535283Y-68614940D01*
X110531507Y-68609470D01*
X110462483Y-68509470D01*
X110344240Y-68404717D01*
X110344238Y-68404716D01*
X110344237Y-68404715D01*
X110204365Y-68331303D01*
X110050986Y-68293500D01*
X110050985Y-68293500D01*
X109893015Y-68293500D01*
X109893014Y-68293500D01*
X109739634Y-68331303D01*
X109599762Y-68404715D01*
X109481516Y-68509471D01*
X109391781Y-68639475D01*
X109391780Y-68639476D01*
X109335762Y-68787181D01*
X109316722Y-68943999D01*
X109316722Y-68944000D01*
X109335762Y-69100818D01*
X109373686Y-69200814D01*
X109391780Y-69248523D01*
X109481517Y-69378530D01*
X109599760Y-69483283D01*
X109599762Y-69483284D01*
X109739634Y-69556696D01*
X109893014Y-69594500D01*
X109893015Y-69594500D01*
X110050985Y-69594500D01*
X110204365Y-69556696D01*
X110245968Y-69534861D01*
X110344240Y-69483283D01*
X110364836Y-69465035D01*
X110381038Y-69450684D01*
X110444271Y-69420963D01*
X110463264Y-69419500D01*
X111075692Y-69419500D01*
X111142731Y-69439185D01*
X111177742Y-69473061D01*
X111181517Y-69478530D01*
X111299760Y-69583283D01*
X111333175Y-69600821D01*
X111414123Y-69643306D01*
X111464335Y-69691890D01*
X111480310Y-69759909D01*
X111456975Y-69825767D01*
X111444178Y-69840783D01*
X110841438Y-70443525D01*
X110771526Y-70513436D01*
X110722091Y-70599059D01*
X110722090Y-70599060D01*
X110705422Y-70661268D01*
X110669056Y-70720929D01*
X110606209Y-70751457D01*
X110536834Y-70743162D01*
X110482956Y-70698676D01*
X110466987Y-70665172D01*
X110447232Y-70600046D01*
X110349685Y-70417550D01*
X110284029Y-70337547D01*
X110218410Y-70257589D01*
X110058452Y-70126317D01*
X110058453Y-70126317D01*
X110058450Y-70126315D01*
X109875954Y-70028768D01*
X109677934Y-69968700D01*
X109677932Y-69968699D01*
X109677934Y-69968699D01*
X109472000Y-69948417D01*
X109266067Y-69968699D01*
X109068043Y-70028769D01*
X108957898Y-70087643D01*
X108885550Y-70126315D01*
X108885548Y-70126316D01*
X108885547Y-70126317D01*
X108725589Y-70257589D01*
X108594317Y-70417547D01*
X108496769Y-70600043D01*
X108436699Y-70798067D01*
X108416417Y-71004000D01*
X108436699Y-71209932D01*
X108458338Y-71281265D01*
X108481341Y-71357099D01*
X108496769Y-71407956D01*
X108497578Y-71409470D01*
X108594315Y-71590450D01*
X108613178Y-71613435D01*
X108725589Y-71750410D01*
X108822209Y-71829702D01*
X108885550Y-71881685D01*
X109068046Y-71979232D01*
X109266066Y-72039300D01*
X109266065Y-72039300D01*
X109284529Y-72041118D01*
X109472000Y-72059583D01*
X109677934Y-72039300D01*
X109875954Y-71979232D01*
X110058450Y-71881685D01*
X110218410Y-71750410D01*
X110349685Y-71590450D01*
X110447232Y-71407954D01*
X110453839Y-71386170D01*
X110492136Y-71327733D01*
X110555948Y-71299276D01*
X110625015Y-71309835D01*
X110677409Y-71356059D01*
X110696500Y-71422166D01*
X110696500Y-73125833D01*
X110676815Y-73192872D01*
X110624011Y-73238627D01*
X110554853Y-73248571D01*
X110491297Y-73219546D01*
X110453839Y-73161828D01*
X110447232Y-73140046D01*
X110349685Y-72957550D01*
X110284029Y-72877547D01*
X110218410Y-72797589D01*
X110058452Y-72666317D01*
X110058453Y-72666317D01*
X110058450Y-72666315D01*
X109875954Y-72568768D01*
X109677934Y-72508700D01*
X109677932Y-72508699D01*
X109677934Y-72508699D01*
X109472000Y-72488417D01*
X109266067Y-72508699D01*
X109068043Y-72568769D01*
X108957898Y-72627643D01*
X108885550Y-72666315D01*
X108885548Y-72666316D01*
X108885547Y-72666317D01*
X108725589Y-72797589D01*
X108594317Y-72957547D01*
X108594315Y-72957550D01*
X108574864Y-72993940D01*
X108496769Y-73140043D01*
X108436699Y-73338067D01*
X108416417Y-73544000D01*
X108436699Y-73749934D01*
X108484558Y-73907707D01*
X108485181Y-73977574D01*
X108453578Y-74031382D01*
X103516438Y-78968525D01*
X103446526Y-79038436D01*
X103397091Y-79124059D01*
X103397091Y-79124060D01*
X103397090Y-79124062D01*
X103371500Y-79219565D01*
X103371500Y-79219567D01*
X103371500Y-85904325D01*
X103351815Y-85971364D01*
X103305955Y-86013682D01*
X103217211Y-86061117D01*
X103072708Y-86179708D01*
X102954117Y-86324211D01*
X102954113Y-86324218D01*
X102865998Y-86489069D01*
X102811730Y-86667966D01*
X102793408Y-86854000D01*
X102811730Y-87040033D01*
X102865998Y-87218930D01*
X102954113Y-87383781D01*
X102954117Y-87383788D01*
X103072708Y-87528291D01*
X103217211Y-87646882D01*
X103217218Y-87646886D01*
X103382069Y-87735001D01*
X103382072Y-87735001D01*
X103382076Y-87735004D01*
X103560963Y-87789269D01*
X103747000Y-87807592D01*
X103933037Y-87789269D01*
X104111924Y-87735004D01*
X104276787Y-87646883D01*
X104421291Y-87528291D01*
X104539883Y-87383787D01*
X104628004Y-87218924D01*
X104682269Y-87040037D01*
X104700592Y-86854000D01*
X105333408Y-86854000D01*
X105351730Y-87040033D01*
X105405998Y-87218930D01*
X105494113Y-87383781D01*
X105494117Y-87383788D01*
X105612708Y-87528291D01*
X105757211Y-87646882D01*
X105757218Y-87646886D01*
X105922069Y-87735001D01*
X105922072Y-87735001D01*
X105922076Y-87735004D01*
X106100963Y-87789269D01*
X106287000Y-87807592D01*
X106473037Y-87789269D01*
X106651924Y-87735004D01*
X106816787Y-87646883D01*
X106961291Y-87528291D01*
X107079883Y-87383787D01*
X107168004Y-87218924D01*
X107222269Y-87040037D01*
X107240592Y-86854000D01*
X107222269Y-86667963D01*
X107168004Y-86489076D01*
X107168001Y-86489072D01*
X107168001Y-86489069D01*
X107079886Y-86324218D01*
X107079882Y-86324211D01*
X106961291Y-86179708D01*
X106816788Y-86061117D01*
X106816781Y-86061113D01*
X106651930Y-85972998D01*
X106651924Y-85972996D01*
X106473037Y-85918731D01*
X106473035Y-85918730D01*
X106473033Y-85918730D01*
X106287000Y-85900408D01*
X106100966Y-85918730D01*
X105922069Y-85972998D01*
X105757218Y-86061113D01*
X105757211Y-86061117D01*
X105612708Y-86179708D01*
X105494117Y-86324211D01*
X105494113Y-86324218D01*
X105405998Y-86489069D01*
X105351730Y-86667966D01*
X105333408Y-86854000D01*
X104700592Y-86854000D01*
X104682269Y-86667963D01*
X104628004Y-86489076D01*
X104628001Y-86489072D01*
X104628001Y-86489069D01*
X104539886Y-86324218D01*
X104539882Y-86324211D01*
X104421291Y-86179708D01*
X104276788Y-86061117D01*
X104188045Y-86013682D01*
X104138202Y-85964719D01*
X104122500Y-85904325D01*
X104122500Y-79475899D01*
X104142185Y-79408860D01*
X104158819Y-79388218D01*
X106567807Y-76979230D01*
X108984619Y-74562417D01*
X109045940Y-74528934D01*
X109108290Y-74531439D01*
X109266063Y-74579299D01*
X109266065Y-74579300D01*
X109284529Y-74581118D01*
X109472000Y-74599583D01*
X109677934Y-74579300D01*
X109875954Y-74519232D01*
X110058450Y-74421685D01*
X110218410Y-74290410D01*
X110349685Y-74130450D01*
X110447232Y-73947954D01*
X110453839Y-73926170D01*
X110492136Y-73867733D01*
X110555948Y-73839276D01*
X110625015Y-73849835D01*
X110677409Y-73896059D01*
X110696500Y-73962166D01*
X110696500Y-75665833D01*
X110676815Y-75732872D01*
X110624011Y-75778627D01*
X110554853Y-75788571D01*
X110491297Y-75759546D01*
X110453839Y-75701828D01*
X110447232Y-75680046D01*
X110349685Y-75497550D01*
X110284029Y-75417547D01*
X110218410Y-75337589D01*
X110058452Y-75206317D01*
X110058453Y-75206317D01*
X110058450Y-75206315D01*
X109875954Y-75108768D01*
X109677934Y-75048700D01*
X109677932Y-75048699D01*
X109677934Y-75048699D01*
X109472000Y-75028417D01*
X109266067Y-75048699D01*
X109068043Y-75108769D01*
X108964369Y-75164185D01*
X108885550Y-75206315D01*
X108885548Y-75206316D01*
X108885547Y-75206317D01*
X108725589Y-75337589D01*
X108594317Y-75497547D01*
X108496769Y-75680043D01*
X108436699Y-75878067D01*
X108416417Y-76084000D01*
X108436699Y-76289932D01*
X108436700Y-76289934D01*
X108496768Y-76487954D01*
X108594315Y-76670450D01*
X108594317Y-76670452D01*
X108725589Y-76830410D01*
X108783352Y-76877814D01*
X108885550Y-76961685D01*
X109068046Y-77059232D01*
X109266066Y-77119300D01*
X109266065Y-77119300D01*
X109284529Y-77121118D01*
X109472000Y-77139583D01*
X109677934Y-77119300D01*
X109875954Y-77059232D01*
X110058450Y-76961685D01*
X110218410Y-76830410D01*
X110349685Y-76670450D01*
X110447232Y-76487954D01*
X110453839Y-76466170D01*
X110492136Y-76407733D01*
X110555948Y-76379276D01*
X110625015Y-76389835D01*
X110677409Y-76436059D01*
X110696500Y-76502166D01*
X110696500Y-77599647D01*
X110676815Y-77666686D01*
X110624011Y-77712441D01*
X110554853Y-77722385D01*
X110491297Y-77693360D01*
X110469398Y-77668538D01*
X110452601Y-77643399D01*
X110369739Y-77588033D01*
X110369735Y-77588032D01*
X110296677Y-77573500D01*
X110296674Y-77573500D01*
X108647326Y-77573500D01*
X108647323Y-77573500D01*
X108574264Y-77588032D01*
X108574260Y-77588033D01*
X108491399Y-77643399D01*
X108436033Y-77726260D01*
X108436032Y-77726264D01*
X108421500Y-77799321D01*
X108421500Y-79448678D01*
X108436032Y-79521735D01*
X108436033Y-79521739D01*
X108444665Y-79534657D01*
X108491399Y-79604601D01*
X108556878Y-79648352D01*
X108574260Y-79659966D01*
X108574264Y-79659967D01*
X108647321Y-79674499D01*
X108647324Y-79674500D01*
X108647326Y-79674500D01*
X110296676Y-79674500D01*
X110296677Y-79674499D01*
X110369740Y-79659966D01*
X110452601Y-79604601D01*
X110469397Y-79579462D01*
X110523008Y-79534657D01*
X110592333Y-79525948D01*
X110655361Y-79556102D01*
X110692081Y-79615545D01*
X110696500Y-79648352D01*
X110696500Y-84402100D01*
X110676815Y-84469139D01*
X110660181Y-84489781D01*
X109233002Y-85916959D01*
X109171679Y-85950444D01*
X109109327Y-85947939D01*
X109013037Y-85918731D01*
X109013027Y-85918730D01*
X108827000Y-85900408D01*
X108826999Y-85900408D01*
X108640966Y-85918730D01*
X108462069Y-85972998D01*
X108297218Y-86061113D01*
X108297211Y-86061117D01*
X108152708Y-86179708D01*
X108034117Y-86324211D01*
X108034113Y-86324218D01*
X107945998Y-86489069D01*
X107891730Y-86667966D01*
X107873408Y-86854000D01*
X107891730Y-87040033D01*
X107945998Y-87218930D01*
X108034113Y-87383781D01*
X108034117Y-87383788D01*
X108152708Y-87528291D01*
X108297211Y-87646882D01*
X108297218Y-87646886D01*
X108462069Y-87735001D01*
X108462072Y-87735001D01*
X108462076Y-87735004D01*
X108640963Y-87789269D01*
X108827000Y-87807592D01*
X109013037Y-87789269D01*
X109191924Y-87735004D01*
X109356787Y-87646883D01*
X109501291Y-87528291D01*
X109619883Y-87383787D01*
X109708004Y-87218924D01*
X109762269Y-87040037D01*
X109780592Y-86854000D01*
X110413408Y-86854000D01*
X110431730Y-87040033D01*
X110485998Y-87218930D01*
X110574113Y-87383781D01*
X110574117Y-87383788D01*
X110692708Y-87528291D01*
X110837211Y-87646882D01*
X110837218Y-87646886D01*
X111002069Y-87735001D01*
X111002072Y-87735001D01*
X111002076Y-87735004D01*
X111180963Y-87789269D01*
X111367000Y-87807592D01*
X111553037Y-87789269D01*
X111731924Y-87735004D01*
X111896787Y-87646883D01*
X112041291Y-87528291D01*
X112159883Y-87383787D01*
X112248004Y-87218924D01*
X112302269Y-87040037D01*
X112320592Y-86854000D01*
X112302269Y-86667963D01*
X112248004Y-86489076D01*
X112248001Y-86489072D01*
X112248001Y-86489069D01*
X112159886Y-86324218D01*
X112159882Y-86324211D01*
X112041291Y-86179708D01*
X111896788Y-86061117D01*
X111896781Y-86061113D01*
X111731930Y-85972998D01*
X111731924Y-85972996D01*
X111553037Y-85918731D01*
X111553035Y-85918730D01*
X111553033Y-85918730D01*
X111367000Y-85900408D01*
X111180966Y-85918730D01*
X111002069Y-85972998D01*
X110837218Y-86061113D01*
X110837211Y-86061117D01*
X110692708Y-86179708D01*
X110574117Y-86324211D01*
X110574113Y-86324218D01*
X110485998Y-86489069D01*
X110431730Y-86667966D01*
X110413408Y-86854000D01*
X109780592Y-86854000D01*
X109762269Y-86667963D01*
X109733058Y-86571670D01*
X109732436Y-86501806D01*
X109764037Y-86447998D01*
X111372474Y-84839563D01*
X111372475Y-84839562D01*
X111421910Y-84753938D01*
X111447500Y-84658435D01*
X111447500Y-79014059D01*
X111467185Y-78947020D01*
X111519989Y-78901265D01*
X111589147Y-78891321D01*
X111652703Y-78920346D01*
X111680856Y-78955603D01*
X111774315Y-79130450D01*
X111774317Y-79130452D01*
X111905589Y-79290410D01*
X112000956Y-79368674D01*
X112065550Y-79421685D01*
X112248046Y-79519232D01*
X112446066Y-79579300D01*
X112446065Y-79579300D01*
X112464529Y-79581118D01*
X112652000Y-79599583D01*
X112857934Y-79579300D01*
X112880069Y-79572584D01*
X112949936Y-79571959D01*
X113003749Y-79603563D01*
X118919686Y-85519500D01*
X119033814Y-85585392D01*
X119154594Y-85617755D01*
X119214254Y-85654119D01*
X119244783Y-85716966D01*
X119246500Y-85737529D01*
X119246500Y-88110324D01*
X119226815Y-88177363D01*
X119210181Y-88198005D01*
X117001005Y-90407181D01*
X116939682Y-90440666D01*
X116913324Y-90443500D01*
X110641727Y-90443500D01*
X110574688Y-90423815D01*
X110528933Y-90371011D01*
X110518989Y-90301853D01*
X110548014Y-90238297D01*
X110583274Y-90210142D01*
X110626781Y-90186886D01*
X110626787Y-90186883D01*
X110771291Y-90068291D01*
X110889883Y-89923787D01*
X110978004Y-89758924D01*
X111032269Y-89580037D01*
X111050592Y-89394000D01*
X111032269Y-89207963D01*
X110978004Y-89029076D01*
X110978001Y-89029072D01*
X110978001Y-89029069D01*
X110889886Y-88864218D01*
X110889882Y-88864211D01*
X110771291Y-88719708D01*
X110626788Y-88601117D01*
X110626781Y-88601113D01*
X110461930Y-88512998D01*
X110461924Y-88512996D01*
X110283037Y-88458731D01*
X110283035Y-88458730D01*
X110283033Y-88458730D01*
X110097000Y-88440408D01*
X109910966Y-88458730D01*
X109732069Y-88512998D01*
X109567218Y-88601113D01*
X109567211Y-88601117D01*
X109422708Y-88719708D01*
X109304117Y-88864211D01*
X109304113Y-88864218D01*
X109215998Y-89029069D01*
X109161730Y-89207966D01*
X109143408Y-89394000D01*
X109161730Y-89580033D01*
X109215998Y-89758930D01*
X109304113Y-89923781D01*
X109304117Y-89923788D01*
X109422708Y-90068291D01*
X109567211Y-90186882D01*
X109567218Y-90186886D01*
X109610726Y-90210142D01*
X109660570Y-90259104D01*
X109676031Y-90327242D01*
X109652200Y-90392921D01*
X109596642Y-90435290D01*
X109552273Y-90443500D01*
X108101727Y-90443500D01*
X108034688Y-90423815D01*
X107988933Y-90371011D01*
X107978989Y-90301853D01*
X108008014Y-90238297D01*
X108043274Y-90210142D01*
X108086781Y-90186886D01*
X108086787Y-90186883D01*
X108231291Y-90068291D01*
X108349883Y-89923787D01*
X108438004Y-89758924D01*
X108492269Y-89580037D01*
X108510592Y-89394000D01*
X108492269Y-89207963D01*
X108438004Y-89029076D01*
X108438001Y-89029072D01*
X108438001Y-89029069D01*
X108349886Y-88864218D01*
X108349882Y-88864211D01*
X108231291Y-88719708D01*
X108086788Y-88601117D01*
X108086781Y-88601113D01*
X107921930Y-88512998D01*
X107921924Y-88512996D01*
X107743037Y-88458731D01*
X107743035Y-88458730D01*
X107743033Y-88458730D01*
X107557000Y-88440408D01*
X107370966Y-88458730D01*
X107192069Y-88512998D01*
X107027218Y-88601113D01*
X107027211Y-88601117D01*
X106882708Y-88719708D01*
X106764117Y-88864211D01*
X106764113Y-88864218D01*
X106675998Y-89029069D01*
X106621730Y-89207966D01*
X106603408Y-89394000D01*
X106621730Y-89580033D01*
X106675998Y-89758930D01*
X106764113Y-89923781D01*
X106764117Y-89923788D01*
X106882708Y-90068291D01*
X107027211Y-90186882D01*
X107027218Y-90186886D01*
X107070726Y-90210142D01*
X107120570Y-90259104D01*
X107136031Y-90327242D01*
X107112200Y-90392921D01*
X107056642Y-90435290D01*
X107012273Y-90443500D01*
X105561727Y-90443500D01*
X105494688Y-90423815D01*
X105448933Y-90371011D01*
X105438989Y-90301853D01*
X105468014Y-90238297D01*
X105503274Y-90210142D01*
X105546781Y-90186886D01*
X105546787Y-90186883D01*
X105691291Y-90068291D01*
X105809883Y-89923787D01*
X105898004Y-89758924D01*
X105952269Y-89580037D01*
X105970592Y-89394000D01*
X105952269Y-89207963D01*
X105898004Y-89029076D01*
X105898001Y-89029072D01*
X105898001Y-89029069D01*
X105809886Y-88864218D01*
X105809882Y-88864211D01*
X105691291Y-88719708D01*
X105546788Y-88601117D01*
X105546781Y-88601113D01*
X105381930Y-88512998D01*
X105381924Y-88512996D01*
X105203037Y-88458731D01*
X105203035Y-88458730D01*
X105203033Y-88458730D01*
X105017000Y-88440408D01*
X104830966Y-88458730D01*
X104652069Y-88512998D01*
X104487218Y-88601113D01*
X104487211Y-88601117D01*
X104342708Y-88719708D01*
X104224117Y-88864211D01*
X104224113Y-88864218D01*
X104135998Y-89029069D01*
X104081730Y-89207966D01*
X104063408Y-89394000D01*
X104081730Y-89580033D01*
X104135998Y-89758930D01*
X104224113Y-89923781D01*
X104224117Y-89923788D01*
X104342708Y-90068291D01*
X104487211Y-90186882D01*
X104487218Y-90186886D01*
X104530726Y-90210142D01*
X104580570Y-90259104D01*
X104596031Y-90327242D01*
X104572200Y-90392921D01*
X104516642Y-90435290D01*
X104472273Y-90443500D01*
X104285676Y-90443500D01*
X104218637Y-90423815D01*
X104197995Y-90407181D01*
X103450025Y-89659211D01*
X103416540Y-89597888D01*
X103414303Y-89559381D01*
X103430592Y-89394000D01*
X103412269Y-89207963D01*
X103358004Y-89029076D01*
X103358001Y-89029072D01*
X103358001Y-89029069D01*
X103269886Y-88864218D01*
X103269882Y-88864211D01*
X103151291Y-88719708D01*
X103006788Y-88601117D01*
X103006781Y-88601113D01*
X102841930Y-88512998D01*
X102841924Y-88512996D01*
X102663037Y-88458731D01*
X102663035Y-88458730D01*
X102663033Y-88458730D01*
X102477000Y-88440408D01*
X102290966Y-88458730D01*
X102112069Y-88512998D01*
X101947218Y-88601113D01*
X101947211Y-88601117D01*
X101802708Y-88719708D01*
X101684117Y-88864211D01*
X101684113Y-88864218D01*
X101595998Y-89029069D01*
X101541730Y-89207966D01*
X101523408Y-89394000D01*
X101541730Y-89580033D01*
X101595998Y-89758930D01*
X101684113Y-89923781D01*
X101684117Y-89923788D01*
X101802708Y-90068291D01*
X101947211Y-90186882D01*
X101947218Y-90186886D01*
X102112069Y-90275001D01*
X102112072Y-90275001D01*
X102112076Y-90275004D01*
X102290963Y-90329269D01*
X102477000Y-90347592D01*
X102642378Y-90331303D01*
X102711021Y-90344322D01*
X102742211Y-90367025D01*
X103719686Y-91344500D01*
X103833814Y-91410392D01*
X103961108Y-91444500D01*
X103961110Y-91444500D01*
X117237890Y-91444500D01*
X117237892Y-91444500D01*
X117365186Y-91410392D01*
X117479314Y-91344500D01*
X119776819Y-89046995D01*
X119838142Y-89013510D01*
X119907834Y-89018494D01*
X119963767Y-89060366D01*
X119988184Y-89125830D01*
X119988500Y-89134676D01*
X119988500Y-91376678D01*
X120003032Y-91449735D01*
X120003033Y-91449739D01*
X120003034Y-91449740D01*
X120058399Y-91532601D01*
X120130932Y-91581065D01*
X120141260Y-91587966D01*
X120141264Y-91587967D01*
X120214321Y-91602499D01*
X120214324Y-91602500D01*
X120214326Y-91602500D01*
X122863676Y-91602500D01*
X122863677Y-91602499D01*
X122936740Y-91587966D01*
X123019601Y-91532601D01*
X123074966Y-91449740D01*
X123089500Y-91376674D01*
X123089500Y-88727326D01*
X123089500Y-88727323D01*
X123089499Y-88727321D01*
X123074967Y-88654264D01*
X123074966Y-88654260D01*
X123019601Y-88571399D01*
X122936740Y-88516034D01*
X122936739Y-88516033D01*
X122936735Y-88516032D01*
X122863677Y-88501500D01*
X122863674Y-88501500D01*
X120371500Y-88501500D01*
X120304461Y-88481815D01*
X120258706Y-88429011D01*
X120247500Y-88377500D01*
X120247500Y-85577657D01*
X120267185Y-85510618D01*
X120269450Y-85507217D01*
X120331481Y-85417350D01*
X120334093Y-85419153D01*
X120372553Y-85379281D01*
X120440547Y-85363202D01*
X120506441Y-85386435D01*
X120521612Y-85399344D01*
X125702181Y-90579913D01*
X125735666Y-90641236D01*
X125738500Y-90667594D01*
X125738500Y-91498210D01*
X125718815Y-91565249D01*
X125666011Y-91611004D01*
X125661953Y-91612771D01*
X125532910Y-91666222D01*
X125324826Y-91793737D01*
X125324823Y-91793738D01*
X125139241Y-91952241D01*
X124980738Y-92137823D01*
X124980737Y-92137826D01*
X124853222Y-92345911D01*
X124853221Y-92345913D01*
X124799773Y-92474952D01*
X124755933Y-92529356D01*
X124689639Y-92551421D01*
X124685212Y-92551500D01*
X124473108Y-92551500D01*
X124345812Y-92585608D01*
X124231686Y-92651500D01*
X124231683Y-92651502D01*
X122283786Y-94599398D01*
X122222463Y-94632883D01*
X122152771Y-94627899D01*
X122148653Y-94626278D01*
X122019616Y-94572829D01*
X122019612Y-94572828D01*
X121782302Y-94515854D01*
X121782300Y-94515853D01*
X121782297Y-94515853D01*
X121539000Y-94496706D01*
X121295702Y-94515853D01*
X121058380Y-94572830D01*
X120832910Y-94666222D01*
X120624826Y-94793737D01*
X120624823Y-94793738D01*
X120439241Y-94952241D01*
X120280738Y-95137823D01*
X120280737Y-95137826D01*
X120153222Y-95345910D01*
X120059830Y-95571380D01*
X120002853Y-95808702D01*
X119983706Y-96052000D01*
X120002853Y-96295297D01*
X120002853Y-96295300D01*
X120002854Y-96295302D01*
X120019313Y-96363859D01*
X120059830Y-96532619D01*
X120153222Y-96758089D01*
X120280737Y-96966173D01*
X120280738Y-96966176D01*
X120280741Y-96966179D01*
X120439241Y-97151759D01*
X120582897Y-97274453D01*
X120624823Y-97310261D01*
X120624826Y-97310262D01*
X120832910Y-97437777D01*
X121058381Y-97531169D01*
X121058378Y-97531169D01*
X121058384Y-97531170D01*
X121058388Y-97531172D01*
X121295698Y-97588146D01*
X121539000Y-97607294D01*
X121782302Y-97588146D01*
X122019612Y-97531172D01*
X122245089Y-97437777D01*
X122453179Y-97310259D01*
X122638759Y-97151759D01*
X122797259Y-96966179D01*
X122924777Y-96758089D01*
X123018172Y-96532612D01*
X123075146Y-96295302D01*
X123094294Y-96052000D01*
X123075146Y-95808698D01*
X123018172Y-95571388D01*
X122964719Y-95442343D01*
X122957251Y-95372877D01*
X122988526Y-95310398D01*
X122991571Y-95307241D01*
X123268813Y-95029999D01*
X133655892Y-95029999D01*
X133655892Y-95030000D01*
X133674282Y-95228464D01*
X133674282Y-95228466D01*
X133674283Y-95228469D01*
X133715370Y-95372877D01*
X133728830Y-95420183D01*
X133817670Y-95598598D01*
X133817675Y-95598606D01*
X133937792Y-95757666D01*
X134064508Y-95873182D01*
X134085090Y-95891945D01*
X134254554Y-95996873D01*
X134440414Y-96068876D01*
X134636340Y-96105500D01*
X134636342Y-96105500D01*
X134835658Y-96105500D01*
X134835660Y-96105500D01*
X135031586Y-96068876D01*
X135217446Y-95996873D01*
X135386910Y-95891945D01*
X135534209Y-95757664D01*
X135534213Y-95757658D01*
X135534377Y-95757509D01*
X135597181Y-95726892D01*
X135666568Y-95735089D01*
X135720509Y-95779499D01*
X135739533Y-95824954D01*
X135750032Y-95877736D01*
X135750033Y-95877739D01*
X135750034Y-95877740D01*
X135805399Y-95960601D01*
X135859685Y-95996873D01*
X135888260Y-96015966D01*
X135888264Y-96015967D01*
X135961321Y-96030499D01*
X135961324Y-96030500D01*
X135961326Y-96030500D01*
X137510676Y-96030500D01*
X137510677Y-96030499D01*
X137583740Y-96015966D01*
X137666601Y-95960601D01*
X137721966Y-95877740D01*
X137732466Y-95824952D01*
X137764850Y-95763044D01*
X137825566Y-95728470D01*
X137895335Y-95732209D01*
X137937621Y-95757509D01*
X137937790Y-95757663D01*
X137937791Y-95757664D01*
X138085090Y-95891945D01*
X138254554Y-95996873D01*
X138440414Y-96068876D01*
X138636340Y-96105500D01*
X138636342Y-96105500D01*
X138835658Y-96105500D01*
X138835660Y-96105500D01*
X139031586Y-96068876D01*
X139217446Y-95996873D01*
X139386910Y-95891945D01*
X139513627Y-95776426D01*
X139534207Y-95757666D01*
X139551257Y-95735089D01*
X139637046Y-95621485D01*
X139693155Y-95579850D01*
X139762867Y-95575159D01*
X139824049Y-95608901D01*
X139834954Y-95621486D01*
X139937792Y-95757666D01*
X140064508Y-95873182D01*
X140085090Y-95891945D01*
X140254554Y-95996873D01*
X140440414Y-96068876D01*
X140636340Y-96105500D01*
X140636342Y-96105500D01*
X140835658Y-96105500D01*
X140835660Y-96105500D01*
X141031586Y-96068876D01*
X141217446Y-95996873D01*
X141386910Y-95891945D01*
X141513627Y-95776426D01*
X141534207Y-95757666D01*
X141551257Y-95735089D01*
X141637046Y-95621485D01*
X141693155Y-95579850D01*
X141762867Y-95575159D01*
X141824049Y-95608901D01*
X141834954Y-95621486D01*
X141937792Y-95757666D01*
X142064508Y-95873182D01*
X142085090Y-95891945D01*
X142254554Y-95996873D01*
X142440414Y-96068876D01*
X142636340Y-96105500D01*
X142636342Y-96105500D01*
X142835658Y-96105500D01*
X142835660Y-96105500D01*
X143031586Y-96068876D01*
X143217446Y-95996873D01*
X143386910Y-95891945D01*
X143513627Y-95776426D01*
X143534207Y-95757666D01*
X143551257Y-95735089D01*
X143654326Y-95598604D01*
X143743171Y-95420180D01*
X143797717Y-95228469D01*
X143816108Y-95030000D01*
X143797717Y-94831531D01*
X143743171Y-94639820D01*
X143709813Y-94572828D01*
X143654329Y-94461401D01*
X143654324Y-94461393D01*
X143534207Y-94302333D01*
X143386911Y-94168056D01*
X143386910Y-94168055D01*
X143322375Y-94128096D01*
X143217447Y-94063127D01*
X143217445Y-94063126D01*
X143130645Y-94029500D01*
X143031586Y-93991124D01*
X143031582Y-93991123D01*
X142938122Y-93973653D01*
X142835660Y-93954500D01*
X142636340Y-93954500D01*
X142546254Y-93971339D01*
X142440417Y-93991123D01*
X142440415Y-93991123D01*
X142440414Y-93991124D01*
X142388517Y-94011229D01*
X142254554Y-94063126D01*
X142254552Y-94063127D01*
X142085088Y-94168056D01*
X141937792Y-94302334D01*
X141834954Y-94438513D01*
X141778845Y-94480149D01*
X141709133Y-94484840D01*
X141647951Y-94451098D01*
X141637046Y-94438513D01*
X141562989Y-94340447D01*
X141534209Y-94302336D01*
X141528307Y-94296956D01*
X141411792Y-94190738D01*
X141386910Y-94168055D01*
X141322375Y-94128096D01*
X141217447Y-94063127D01*
X141217445Y-94063126D01*
X141130645Y-94029500D01*
X141031586Y-93991124D01*
X141031582Y-93991123D01*
X140938122Y-93973653D01*
X140835660Y-93954500D01*
X140636340Y-93954500D01*
X140546254Y-93971339D01*
X140440417Y-93991123D01*
X140440415Y-93991123D01*
X140440414Y-93991124D01*
X140388517Y-94011229D01*
X140254554Y-94063126D01*
X140254552Y-94063127D01*
X140085088Y-94168056D01*
X139937792Y-94302334D01*
X139834954Y-94438513D01*
X139778845Y-94480149D01*
X139709133Y-94484840D01*
X139647951Y-94451098D01*
X139637046Y-94438513D01*
X139562989Y-94340447D01*
X139534209Y-94302336D01*
X139528307Y-94296956D01*
X139411792Y-94190738D01*
X139386910Y-94168055D01*
X139322375Y-94128096D01*
X139217447Y-94063127D01*
X139217445Y-94063126D01*
X139130645Y-94029500D01*
X139031586Y-93991124D01*
X139031582Y-93991123D01*
X138938122Y-93973653D01*
X138835660Y-93954500D01*
X138636340Y-93954500D01*
X138546254Y-93971339D01*
X138440417Y-93991123D01*
X138440415Y-93991123D01*
X138440414Y-93991124D01*
X138388517Y-94011229D01*
X138254554Y-94063126D01*
X138254552Y-94063127D01*
X138085088Y-94168056D01*
X137937621Y-94302490D01*
X137874817Y-94333107D01*
X137805430Y-94324909D01*
X137751490Y-94280500D01*
X137732466Y-94235044D01*
X137721967Y-94182264D01*
X137721966Y-94182260D01*
X137701586Y-94151759D01*
X137666601Y-94099399D01*
X137583740Y-94044034D01*
X137583739Y-94044033D01*
X137583735Y-94044032D01*
X137510677Y-94029500D01*
X137510674Y-94029500D01*
X135961326Y-94029500D01*
X135961323Y-94029500D01*
X135888264Y-94044032D01*
X135888260Y-94044033D01*
X135805399Y-94099399D01*
X135750033Y-94182260D01*
X135750032Y-94182263D01*
X135739533Y-94235046D01*
X135707147Y-94296956D01*
X135646431Y-94331530D01*
X135576662Y-94327789D01*
X135534378Y-94302490D01*
X135472380Y-94245971D01*
X135386910Y-94168055D01*
X135322375Y-94128096D01*
X135217447Y-94063127D01*
X135217445Y-94063126D01*
X135130645Y-94029500D01*
X135031586Y-93991124D01*
X135031582Y-93991123D01*
X134938122Y-93973653D01*
X134835660Y-93954500D01*
X134636340Y-93954500D01*
X134546254Y-93971339D01*
X134440417Y-93991123D01*
X134440415Y-93991123D01*
X134440414Y-93991124D01*
X134388517Y-94011229D01*
X134254554Y-94063126D01*
X134254552Y-94063127D01*
X134085088Y-94168056D01*
X133937792Y-94302333D01*
X133817675Y-94461393D01*
X133817670Y-94461401D01*
X133728830Y-94639816D01*
X133674282Y-94831535D01*
X133655892Y-95029999D01*
X123268813Y-95029999D01*
X124630472Y-93668341D01*
X124691793Y-93634858D01*
X124761485Y-93639842D01*
X124817418Y-93681714D01*
X124832712Y-93708572D01*
X124853221Y-93758086D01*
X124853222Y-93758088D01*
X124980737Y-93966173D01*
X124980738Y-93966176D01*
X124980741Y-93966179D01*
X125139241Y-94151759D01*
X125236758Y-94235046D01*
X125324823Y-94310261D01*
X125324826Y-94310262D01*
X125532910Y-94437777D01*
X125758381Y-94531169D01*
X125758378Y-94531169D01*
X125758384Y-94531170D01*
X125758388Y-94531172D01*
X125995698Y-94588146D01*
X126239000Y-94607294D01*
X126482302Y-94588146D01*
X126719612Y-94531172D01*
X126945089Y-94437777D01*
X127153179Y-94310259D01*
X127338759Y-94151759D01*
X127497259Y-93966179D01*
X127624777Y-93758089D01*
X127718172Y-93532612D01*
X127775146Y-93295302D01*
X127794294Y-93052000D01*
X127775146Y-92808698D01*
X127718172Y-92571388D01*
X127709934Y-92551500D01*
X127701028Y-92529999D01*
X133655892Y-92529999D01*
X133655892Y-92530000D01*
X133674282Y-92728464D01*
X133728830Y-92920183D01*
X133817670Y-93098598D01*
X133817675Y-93098606D01*
X133937792Y-93257666D01*
X134064508Y-93373182D01*
X134085090Y-93391945D01*
X134254554Y-93496873D01*
X134440414Y-93568876D01*
X134636340Y-93605500D01*
X134636342Y-93605500D01*
X134835658Y-93605500D01*
X134835660Y-93605500D01*
X135031586Y-93568876D01*
X135217446Y-93496873D01*
X135386910Y-93391945D01*
X135534209Y-93257664D01*
X135637046Y-93121485D01*
X135693155Y-93079850D01*
X135762867Y-93075159D01*
X135824049Y-93108901D01*
X135834954Y-93121486D01*
X135937792Y-93257666D01*
X136064508Y-93373182D01*
X136085090Y-93391945D01*
X136254554Y-93496873D01*
X136440414Y-93568876D01*
X136636340Y-93605500D01*
X136636342Y-93605500D01*
X136835658Y-93605500D01*
X136835660Y-93605500D01*
X137031586Y-93568876D01*
X137217446Y-93496873D01*
X137386910Y-93391945D01*
X137534209Y-93257664D01*
X137637046Y-93121485D01*
X137693155Y-93079850D01*
X137762867Y-93075159D01*
X137824049Y-93108901D01*
X137834954Y-93121486D01*
X137937792Y-93257666D01*
X138064508Y-93373182D01*
X138085090Y-93391945D01*
X138254554Y-93496873D01*
X138440414Y-93568876D01*
X138636340Y-93605500D01*
X138636342Y-93605500D01*
X138835658Y-93605500D01*
X138835660Y-93605500D01*
X139031586Y-93568876D01*
X139217446Y-93496873D01*
X139386910Y-93391945D01*
X139534209Y-93257664D01*
X139637046Y-93121485D01*
X139693155Y-93079850D01*
X139762867Y-93075159D01*
X139824049Y-93108901D01*
X139834954Y-93121486D01*
X139937792Y-93257666D01*
X140064508Y-93373182D01*
X140085090Y-93391945D01*
X140254554Y-93496873D01*
X140440414Y-93568876D01*
X140636340Y-93605500D01*
X140636342Y-93605500D01*
X140835658Y-93605500D01*
X140835660Y-93605500D01*
X141031586Y-93568876D01*
X141217446Y-93496873D01*
X141386910Y-93391945D01*
X141534209Y-93257664D01*
X141637046Y-93121485D01*
X141693155Y-93079850D01*
X141762867Y-93075159D01*
X141824049Y-93108901D01*
X141834954Y-93121486D01*
X141937792Y-93257666D01*
X142064508Y-93373182D01*
X142085090Y-93391945D01*
X142254554Y-93496873D01*
X142440414Y-93568876D01*
X142636340Y-93605500D01*
X142636342Y-93605500D01*
X142835658Y-93605500D01*
X142835660Y-93605500D01*
X143031586Y-93568876D01*
X143217446Y-93496873D01*
X143386910Y-93391945D01*
X143534209Y-93257664D01*
X143654326Y-93098604D01*
X143743171Y-92920180D01*
X143797717Y-92728469D01*
X143816108Y-92530000D01*
X143797717Y-92331531D01*
X143743171Y-92139820D01*
X143663664Y-91980149D01*
X143654329Y-91961401D01*
X143654324Y-91961393D01*
X143534207Y-91802333D01*
X143386911Y-91668056D01*
X143386910Y-91668055D01*
X143294770Y-91611004D01*
X143217447Y-91563127D01*
X143217445Y-91563126D01*
X143135379Y-91531334D01*
X143031586Y-91491124D01*
X143031582Y-91491123D01*
X142952639Y-91476366D01*
X142835660Y-91454500D01*
X142636340Y-91454500D01*
X142546254Y-91471339D01*
X142440417Y-91491123D01*
X142440415Y-91491123D01*
X142440414Y-91491124D01*
X142410701Y-91502635D01*
X142254554Y-91563126D01*
X142254552Y-91563127D01*
X142085088Y-91668056D01*
X141937792Y-91802334D01*
X141834954Y-91938513D01*
X141778845Y-91980149D01*
X141709133Y-91984840D01*
X141647951Y-91951098D01*
X141637046Y-91938513D01*
X141534207Y-91802334D01*
X141386911Y-91668056D01*
X141386910Y-91668055D01*
X141294770Y-91611004D01*
X141217447Y-91563127D01*
X141217445Y-91563126D01*
X141135379Y-91531334D01*
X141031586Y-91491124D01*
X141031582Y-91491123D01*
X140952639Y-91476366D01*
X140835660Y-91454500D01*
X140636340Y-91454500D01*
X140546254Y-91471339D01*
X140440417Y-91491123D01*
X140440415Y-91491123D01*
X140440414Y-91491124D01*
X140410701Y-91502635D01*
X140254554Y-91563126D01*
X140254552Y-91563127D01*
X140085088Y-91668056D01*
X139937792Y-91802334D01*
X139834954Y-91938513D01*
X139778845Y-91980149D01*
X139709133Y-91984840D01*
X139647951Y-91951098D01*
X139637046Y-91938513D01*
X139534207Y-91802334D01*
X139386911Y-91668056D01*
X139386910Y-91668055D01*
X139294770Y-91611004D01*
X139217447Y-91563127D01*
X139217445Y-91563126D01*
X139135379Y-91531334D01*
X139031586Y-91491124D01*
X139031582Y-91491123D01*
X138952639Y-91476366D01*
X138835660Y-91454500D01*
X138636340Y-91454500D01*
X138546254Y-91471339D01*
X138440417Y-91491123D01*
X138440415Y-91491123D01*
X138440414Y-91491124D01*
X138410701Y-91502635D01*
X138254554Y-91563126D01*
X138254552Y-91563127D01*
X138085088Y-91668056D01*
X137937792Y-91802334D01*
X137834954Y-91938513D01*
X137778845Y-91980149D01*
X137709133Y-91984840D01*
X137647951Y-91951098D01*
X137637046Y-91938513D01*
X137534207Y-91802334D01*
X137386911Y-91668056D01*
X137386910Y-91668055D01*
X137294770Y-91611004D01*
X137217447Y-91563127D01*
X137217445Y-91563126D01*
X137135379Y-91531334D01*
X137031586Y-91491124D01*
X137031582Y-91491123D01*
X136952639Y-91476366D01*
X136835660Y-91454500D01*
X136636340Y-91454500D01*
X136546254Y-91471339D01*
X136440417Y-91491123D01*
X136440415Y-91491123D01*
X136440414Y-91491124D01*
X136410701Y-91502635D01*
X136254554Y-91563126D01*
X136254552Y-91563127D01*
X136085088Y-91668056D01*
X135937792Y-91802334D01*
X135834954Y-91938513D01*
X135778845Y-91980149D01*
X135709133Y-91984840D01*
X135647951Y-91951098D01*
X135637046Y-91938513D01*
X135534207Y-91802334D01*
X135386911Y-91668056D01*
X135386910Y-91668055D01*
X135294770Y-91611004D01*
X135217447Y-91563127D01*
X135217445Y-91563126D01*
X135135379Y-91531334D01*
X135031586Y-91491124D01*
X135031582Y-91491123D01*
X134952639Y-91476366D01*
X134835660Y-91454500D01*
X134636340Y-91454500D01*
X134546254Y-91471339D01*
X134440417Y-91491123D01*
X134440415Y-91491123D01*
X134440414Y-91491124D01*
X134410701Y-91502635D01*
X134254554Y-91563126D01*
X134254552Y-91563127D01*
X134085088Y-91668056D01*
X133937792Y-91802333D01*
X133817675Y-91961393D01*
X133817670Y-91961401D01*
X133728830Y-92139816D01*
X133674282Y-92331535D01*
X133655892Y-92529999D01*
X127701028Y-92529999D01*
X127624777Y-92345910D01*
X127498484Y-92139820D01*
X127497261Y-92137825D01*
X127497261Y-92137823D01*
X127461453Y-92095897D01*
X127338759Y-91952241D01*
X127216063Y-91847449D01*
X127153176Y-91793738D01*
X127153173Y-91793737D01*
X126945088Y-91666222D01*
X126945089Y-91666222D01*
X126816047Y-91612771D01*
X126761644Y-91568930D01*
X126739579Y-91502635D01*
X126739500Y-91498210D01*
X126739500Y-90343028D01*
X126739500Y-90343026D01*
X126705392Y-90215732D01*
X126639500Y-90101604D01*
X126546314Y-90008418D01*
X114438819Y-77900923D01*
X114405334Y-77839600D01*
X114402500Y-77813242D01*
X114402500Y-77719321D01*
X119221500Y-77719321D01*
X119221500Y-79368678D01*
X119236032Y-79441735D01*
X119236033Y-79441739D01*
X119254405Y-79469235D01*
X119291399Y-79524601D01*
X119373262Y-79579299D01*
X119374260Y-79579966D01*
X119374264Y-79579967D01*
X119447321Y-79594499D01*
X119447324Y-79594500D01*
X119447326Y-79594500D01*
X121096676Y-79594500D01*
X121096677Y-79594499D01*
X121169740Y-79579966D01*
X121252601Y-79524601D01*
X121307966Y-79441740D01*
X121322500Y-79368674D01*
X121322500Y-77719326D01*
X121322500Y-77719323D01*
X121322499Y-77719321D01*
X121307967Y-77646264D01*
X121307966Y-77646260D01*
X121306054Y-77643399D01*
X121252601Y-77563399D01*
X121170737Y-77508700D01*
X121169739Y-77508033D01*
X121169735Y-77508032D01*
X121096677Y-77493500D01*
X121096674Y-77493500D01*
X119447326Y-77493500D01*
X119447323Y-77493500D01*
X119374264Y-77508032D01*
X119374260Y-77508033D01*
X119291399Y-77563399D01*
X119236033Y-77646260D01*
X119236032Y-77646264D01*
X119221500Y-77719321D01*
X114402500Y-77719321D01*
X114402500Y-76004000D01*
X119216417Y-76004000D01*
X119236699Y-76209932D01*
X119236700Y-76209934D01*
X119296768Y-76407954D01*
X119394315Y-76590450D01*
X119394317Y-76590452D01*
X119525589Y-76750410D01*
X119622209Y-76829702D01*
X119685550Y-76881685D01*
X119868046Y-76979232D01*
X120066066Y-77039300D01*
X120066065Y-77039300D01*
X120084529Y-77041118D01*
X120272000Y-77059583D01*
X120477934Y-77039300D01*
X120675954Y-76979232D01*
X120858450Y-76881685D01*
X121018410Y-76750410D01*
X121149685Y-76590450D01*
X121247232Y-76407954D01*
X121307300Y-76209934D01*
X121327583Y-76004000D01*
X121307300Y-75798066D01*
X121247232Y-75600046D01*
X121149685Y-75417550D01*
X121084063Y-75337589D01*
X121018410Y-75257589D01*
X120900677Y-75160969D01*
X120858450Y-75126315D01*
X120675954Y-75028768D01*
X120477934Y-74968700D01*
X120477932Y-74968699D01*
X120477934Y-74968699D01*
X120272000Y-74948417D01*
X120066067Y-74968699D01*
X119868043Y-75028769D01*
X119757898Y-75087643D01*
X119685550Y-75126315D01*
X119685548Y-75126316D01*
X119685547Y-75126317D01*
X119525589Y-75257589D01*
X119394317Y-75417547D01*
X119296769Y-75600043D01*
X119236699Y-75798067D01*
X119216417Y-76004000D01*
X114402500Y-76004000D01*
X114402500Y-72108110D01*
X114402500Y-72108108D01*
X114368392Y-71980814D01*
X114367477Y-71979230D01*
X114352094Y-71952585D01*
X114302500Y-71866686D01*
X114209314Y-71773500D01*
X113711563Y-71275749D01*
X113678078Y-71214426D01*
X113680585Y-71152069D01*
X113687300Y-71129934D01*
X113707583Y-70924000D01*
X119216417Y-70924000D01*
X119236699Y-71129932D01*
X119236700Y-71129934D01*
X119296768Y-71327954D01*
X119394315Y-71510450D01*
X119418135Y-71539475D01*
X119525589Y-71670410D01*
X119612487Y-71741724D01*
X119685550Y-71801685D01*
X119868046Y-71899232D01*
X120066066Y-71959300D01*
X120066065Y-71959300D01*
X120084529Y-71961118D01*
X120272000Y-71979583D01*
X120477934Y-71959300D01*
X120675954Y-71899232D01*
X120858450Y-71801685D01*
X121018410Y-71670410D01*
X121149685Y-71510450D01*
X121247232Y-71327954D01*
X121307300Y-71129934D01*
X121327583Y-70924000D01*
X121307300Y-70718066D01*
X121247232Y-70520046D01*
X121149685Y-70337550D01*
X121084063Y-70257589D01*
X121018410Y-70177589D01*
X120858452Y-70046317D01*
X120858453Y-70046317D01*
X120858450Y-70046315D01*
X120675954Y-69948768D01*
X120477934Y-69888700D01*
X120477932Y-69888699D01*
X120477934Y-69888699D01*
X120272000Y-69868417D01*
X120066067Y-69888699D01*
X119868043Y-69948769D01*
X119764075Y-70004342D01*
X119685550Y-70046315D01*
X119685548Y-70046316D01*
X119685547Y-70046317D01*
X119525589Y-70177589D01*
X119394317Y-70337547D01*
X119394315Y-70337550D01*
X119355643Y-70409898D01*
X119296769Y-70520043D01*
X119236699Y-70718067D01*
X119216417Y-70924000D01*
X113707583Y-70924000D01*
X113687300Y-70718066D01*
X113680583Y-70695926D01*
X113679959Y-70626060D01*
X113711561Y-70572251D01*
X116472499Y-67811315D01*
X116538392Y-67697186D01*
X116572500Y-67569893D01*
X116572500Y-67438108D01*
X116572500Y-64219321D01*
X119221500Y-64219321D01*
X119221500Y-65868678D01*
X119236032Y-65941735D01*
X119236033Y-65941739D01*
X119236034Y-65941740D01*
X119291399Y-66024601D01*
X119373263Y-66079300D01*
X119374260Y-66079966D01*
X119374264Y-66079967D01*
X119447321Y-66094499D01*
X119447324Y-66094500D01*
X119447326Y-66094500D01*
X121096676Y-66094500D01*
X121096677Y-66094499D01*
X121169740Y-66079966D01*
X121252601Y-66024601D01*
X121307966Y-65941740D01*
X121322500Y-65868674D01*
X121322500Y-64219326D01*
X121322500Y-64219323D01*
X121322499Y-64219321D01*
X121307967Y-64146264D01*
X121307966Y-64146260D01*
X121252601Y-64063399D01*
X121170737Y-64008700D01*
X121169739Y-64008033D01*
X121169735Y-64008032D01*
X121096677Y-63993500D01*
X121096674Y-63993500D01*
X119447326Y-63993500D01*
X119447323Y-63993500D01*
X119374264Y-64008032D01*
X119374260Y-64008033D01*
X119291399Y-64063399D01*
X119236033Y-64146260D01*
X119236032Y-64146264D01*
X119221500Y-64219321D01*
X116572500Y-64219321D01*
X116572500Y-62504000D01*
X119216417Y-62504000D01*
X119236699Y-62709932D01*
X119266113Y-62806897D01*
X119296768Y-62907954D01*
X119394315Y-63090450D01*
X119394317Y-63090452D01*
X119525589Y-63250410D01*
X119622209Y-63329702D01*
X119685550Y-63381685D01*
X119868046Y-63479232D01*
X120066066Y-63539300D01*
X120066065Y-63539300D01*
X120084529Y-63541118D01*
X120272000Y-63559583D01*
X120477934Y-63539300D01*
X120675954Y-63479232D01*
X120858450Y-63381685D01*
X121018410Y-63250410D01*
X121149685Y-63090450D01*
X121247232Y-62907954D01*
X121307300Y-62709934D01*
X121327583Y-62504000D01*
X121307300Y-62298066D01*
X121247232Y-62100046D01*
X121149685Y-61917550D01*
X121055929Y-61803307D01*
X121018410Y-61757589D01*
X120858452Y-61626317D01*
X120858453Y-61626317D01*
X120858450Y-61626315D01*
X120675954Y-61528768D01*
X120477934Y-61468700D01*
X120477932Y-61468699D01*
X120477934Y-61468699D01*
X120272000Y-61448417D01*
X120066067Y-61468699D01*
X119868043Y-61528769D01*
X119777811Y-61577000D01*
X119685550Y-61626315D01*
X119685548Y-61626316D01*
X119685547Y-61626317D01*
X119525589Y-61757589D01*
X119406902Y-61902212D01*
X119394315Y-61917550D01*
X119380289Y-61943791D01*
X119296769Y-62100043D01*
X119236699Y-62298067D01*
X119216417Y-62504000D01*
X116572500Y-62504000D01*
X116572500Y-60778108D01*
X116565906Y-60753500D01*
X116538392Y-60650814D01*
X116491319Y-60569282D01*
X116472500Y-60536686D01*
X116379314Y-60443500D01*
X115899814Y-59964000D01*
X119216417Y-59964000D01*
X119236699Y-60169932D01*
X119236700Y-60169934D01*
X119296768Y-60367954D01*
X119394315Y-60550450D01*
X119394627Y-60550830D01*
X119525589Y-60710410D01*
X119608081Y-60778108D01*
X119685550Y-60841685D01*
X119868046Y-60939232D01*
X120066066Y-60999300D01*
X120066065Y-60999300D01*
X120084529Y-61001118D01*
X120272000Y-61019583D01*
X120477934Y-60999300D01*
X120675954Y-60939232D01*
X120858450Y-60841685D01*
X121018410Y-60710410D01*
X121149685Y-60550450D01*
X121247232Y-60367954D01*
X121307300Y-60169934D01*
X121327583Y-59964000D01*
X121307300Y-59758066D01*
X121247232Y-59560046D01*
X121149685Y-59377550D01*
X121031290Y-59233284D01*
X121018410Y-59217589D01*
X120900677Y-59120969D01*
X120858450Y-59086315D01*
X120675954Y-58988768D01*
X120477934Y-58928700D01*
X120477932Y-58928699D01*
X120477934Y-58928699D01*
X120272000Y-58908417D01*
X120066067Y-58928699D01*
X119868043Y-58988769D01*
X119758618Y-59047259D01*
X119685550Y-59086315D01*
X119685548Y-59086316D01*
X119685547Y-59086317D01*
X119525589Y-59217589D01*
X119394317Y-59377547D01*
X119394315Y-59377550D01*
X119355643Y-59449898D01*
X119296769Y-59560043D01*
X119236699Y-59758067D01*
X119216417Y-59964000D01*
X115899814Y-59964000D01*
X115491995Y-59556181D01*
X115458510Y-59494858D01*
X115463494Y-59425166D01*
X115505366Y-59369233D01*
X115570830Y-59344816D01*
X115579676Y-59344500D01*
X115700985Y-59344500D01*
X115854365Y-59306696D01*
X115994240Y-59233283D01*
X116112483Y-59128530D01*
X116202220Y-58998523D01*
X116258237Y-58850818D01*
X116277278Y-58694000D01*
X116271102Y-58643144D01*
X116282561Y-58574224D01*
X116306514Y-58540521D01*
X116980474Y-57866563D01*
X117004759Y-57824500D01*
X117029910Y-57780938D01*
X117055500Y-57685435D01*
X117055500Y-57424000D01*
X119216417Y-57424000D01*
X119236699Y-57629932D01*
X119243414Y-57652069D01*
X119296768Y-57827954D01*
X119394315Y-58010450D01*
X119421438Y-58043500D01*
X119525589Y-58170410D01*
X119562714Y-58200877D01*
X119685550Y-58301685D01*
X119868046Y-58399232D01*
X120066066Y-58459300D01*
X120066065Y-58459300D01*
X120084529Y-58461118D01*
X120272000Y-58479583D01*
X120477934Y-58459300D01*
X120675954Y-58399232D01*
X120858450Y-58301685D01*
X121018410Y-58170410D01*
X121149685Y-58010450D01*
X121247232Y-57827954D01*
X121307300Y-57629934D01*
X121327583Y-57424000D01*
X121307300Y-57218066D01*
X121247232Y-57020046D01*
X121149685Y-56837550D01*
X121075364Y-56746989D01*
X121018410Y-56677589D01*
X120858452Y-56546317D01*
X120858453Y-56546317D01*
X120858450Y-56546315D01*
X120675954Y-56448768D01*
X120477934Y-56388700D01*
X120477932Y-56388699D01*
X120477934Y-56388699D01*
X120272000Y-56368417D01*
X120066067Y-56388699D01*
X119868043Y-56448769D01*
X119781274Y-56495149D01*
X119685550Y-56546315D01*
X119685548Y-56546316D01*
X119685547Y-56546317D01*
X119525589Y-56677589D01*
X119394317Y-56837547D01*
X119394315Y-56837550D01*
X119370833Y-56881482D01*
X119296769Y-57020043D01*
X119296768Y-57020045D01*
X119296768Y-57020046D01*
X119289898Y-57042692D01*
X119236699Y-57218067D01*
X119216417Y-57424000D01*
X117055500Y-57424000D01*
X117055500Y-54219668D01*
X117075185Y-54152629D01*
X117127989Y-54106874D01*
X117134679Y-54104052D01*
X117172637Y-54089348D01*
X117346041Y-53981981D01*
X117485170Y-53855148D01*
X117496762Y-53844581D01*
X117496764Y-53844579D01*
X117619673Y-53681821D01*
X117710582Y-53499250D01*
X117766397Y-53303083D01*
X117785215Y-53100000D01*
X117779115Y-53034174D01*
X117766397Y-52896917D01*
X117753048Y-52850000D01*
X117710582Y-52700750D01*
X117710159Y-52699901D01*
X117660415Y-52600000D01*
X117619673Y-52518179D01*
X117560704Y-52440091D01*
X117496762Y-52355418D01*
X117346041Y-52218019D01*
X117346039Y-52218017D01*
X117172642Y-52110655D01*
X117172639Y-52110653D01*
X117172637Y-52110652D01*
X117172636Y-52110651D01*
X117172635Y-52110651D01*
X117046769Y-52061891D01*
X116982456Y-52036976D01*
X116781976Y-51999500D01*
X116578024Y-51999500D01*
X116377544Y-52036976D01*
X116377541Y-52036976D01*
X116377541Y-52036977D01*
X116187364Y-52110651D01*
X116187357Y-52110655D01*
X116013960Y-52218017D01*
X116013958Y-52218019D01*
X115863237Y-52355418D01*
X115740327Y-52518178D01*
X115649422Y-52700739D01*
X115649417Y-52700752D01*
X115593602Y-52896917D01*
X115574785Y-53099999D01*
X115574785Y-53100000D01*
X115593602Y-53303082D01*
X115649417Y-53499247D01*
X115649422Y-53499260D01*
X115740327Y-53681821D01*
X115863237Y-53844581D01*
X115947444Y-53921345D01*
X116013952Y-53981975D01*
X116013958Y-53981980D01*
X116013960Y-53981982D01*
X116013962Y-53981983D01*
X116187363Y-54089348D01*
X116225293Y-54104042D01*
X116280694Y-54146612D01*
X116304286Y-54212378D01*
X116304500Y-54219668D01*
X116304500Y-57429100D01*
X116284815Y-57496139D01*
X116268181Y-57516781D01*
X115777781Y-58007181D01*
X115716458Y-58040666D01*
X115690100Y-58043500D01*
X115543014Y-58043500D01*
X115389634Y-58081303D01*
X115249762Y-58154715D01*
X115131516Y-58259471D01*
X115041781Y-58389475D01*
X115041780Y-58389476D01*
X114985762Y-58537181D01*
X114966722Y-58693999D01*
X114966722Y-58694000D01*
X114969970Y-58720752D01*
X114958509Y-58789676D01*
X114911605Y-58841461D01*
X114844149Y-58859668D01*
X114777558Y-58838515D01*
X114759193Y-58823379D01*
X113711563Y-57775749D01*
X113678078Y-57714426D01*
X113680585Y-57652069D01*
X113683719Y-57641738D01*
X113687300Y-57629934D01*
X113707583Y-57424000D01*
X113687300Y-57218066D01*
X113627232Y-57020046D01*
X113529685Y-56837550D01*
X113455364Y-56746989D01*
X113398410Y-56677589D01*
X113238452Y-56546317D01*
X113238453Y-56546317D01*
X113238450Y-56546315D01*
X113055954Y-56448768D01*
X112857934Y-56388700D01*
X112857932Y-56388699D01*
X112857934Y-56388699D01*
X112652000Y-56368417D01*
X112446066Y-56388699D01*
X112446063Y-56388700D01*
X112423924Y-56395416D01*
X112354057Y-56396039D01*
X112300250Y-56364436D01*
X111709316Y-55773502D01*
X111709314Y-55773500D01*
X111652250Y-55740554D01*
X111595187Y-55707608D01*
X111531539Y-55690554D01*
X111467892Y-55673500D01*
X103167892Y-55673500D01*
X103036108Y-55673500D01*
X102908812Y-55707608D01*
X102794686Y-55773500D01*
X102794683Y-55773502D01*
X102203749Y-56364435D01*
X102142426Y-56397920D01*
X102080077Y-56395416D01*
X102057934Y-56388699D01*
X101852000Y-56368417D01*
X101646067Y-56388699D01*
X101448043Y-56448769D01*
X101361274Y-56495149D01*
X101265550Y-56546315D01*
X101265548Y-56546316D01*
X101265547Y-56546317D01*
X101105589Y-56677589D01*
X100974317Y-56837547D01*
X100974315Y-56837550D01*
X100950833Y-56881482D01*
X100876769Y-57020043D01*
X100876768Y-57020045D01*
X100876768Y-57020046D01*
X100869898Y-57042692D01*
X100816699Y-57218067D01*
X100796417Y-57424000D01*
X100474656Y-57424000D01*
X100477141Y-57394005D01*
X100477141Y-57393994D01*
X100456614Y-57146270D01*
X100456612Y-57146261D01*
X100395587Y-56905282D01*
X100295731Y-56677630D01*
X100195434Y-56524116D01*
X99495787Y-57223764D01*
X99484518Y-57181708D01*
X99412110Y-57056292D01*
X99309708Y-56953890D01*
X99184292Y-56881482D01*
X99142235Y-56870212D01*
X99842057Y-56170390D01*
X99842056Y-56170389D01*
X99795229Y-56133943D01*
X99576614Y-56015635D01*
X99576603Y-56015630D01*
X99341493Y-55934916D01*
X99096293Y-55894000D01*
X98847707Y-55894000D01*
X98602506Y-55934916D01*
X98367396Y-56015630D01*
X98367390Y-56015632D01*
X98148761Y-56133949D01*
X98101942Y-56170388D01*
X98101942Y-56170390D01*
X98801765Y-56870212D01*
X98759708Y-56881482D01*
X98634292Y-56953890D01*
X98531890Y-57056292D01*
X98459482Y-57181708D01*
X98448212Y-57223764D01*
X97748564Y-56524116D01*
X97648267Y-56677632D01*
X97548412Y-56905282D01*
X97487387Y-57146261D01*
X97487385Y-57146270D01*
X97466859Y-57393994D01*
X96422500Y-57393994D01*
X96422500Y-56681965D01*
X96442185Y-56614926D01*
X96458819Y-56594284D01*
X97159103Y-55894000D01*
X97932490Y-55120614D01*
X97991799Y-55017887D01*
X97998285Y-54993675D01*
X97998286Y-54993675D01*
X97998286Y-54993671D01*
X98022500Y-54903309D01*
X98022500Y-54324500D01*
X98042185Y-54257461D01*
X98094989Y-54211706D01*
X98146500Y-54200500D01*
X99774676Y-54200500D01*
X99774677Y-54200499D01*
X99847740Y-54185966D01*
X99930601Y-54130601D01*
X99985966Y-54047740D01*
X100000500Y-53974674D01*
X100000500Y-53099999D01*
X100334785Y-53099999D01*
X100334785Y-53100000D01*
X100353602Y-53303082D01*
X100409417Y-53499247D01*
X100409422Y-53499260D01*
X100500327Y-53681821D01*
X100623237Y-53844581D01*
X100707444Y-53921345D01*
X100773952Y-53981975D01*
X100773958Y-53981980D01*
X100773960Y-53981982D01*
X100773962Y-53981983D01*
X100947363Y-54089348D01*
X101137544Y-54163024D01*
X101338024Y-54200500D01*
X101338026Y-54200500D01*
X101541974Y-54200500D01*
X101541976Y-54200500D01*
X101742456Y-54163024D01*
X101932637Y-54089348D01*
X102106041Y-53981981D01*
X102245170Y-53855148D01*
X102256762Y-53844581D01*
X102256764Y-53844579D01*
X102379673Y-53681821D01*
X102470582Y-53499250D01*
X102526397Y-53303083D01*
X102545215Y-53100000D01*
X102539115Y-53034174D01*
X102526397Y-52896917D01*
X102513048Y-52850000D01*
X102470582Y-52700750D01*
X102470159Y-52699901D01*
X102420415Y-52600000D01*
X102379673Y-52518179D01*
X102320704Y-52440091D01*
X102256762Y-52355418D01*
X102106041Y-52218019D01*
X102106039Y-52218017D01*
X101932642Y-52110655D01*
X101932639Y-52110653D01*
X101932637Y-52110652D01*
X101932636Y-52110651D01*
X101932635Y-52110651D01*
X101806769Y-52061891D01*
X101742456Y-52036976D01*
X101541976Y-51999500D01*
X101338024Y-51999500D01*
X101137544Y-52036976D01*
X101137541Y-52036976D01*
X101137541Y-52036977D01*
X100947364Y-52110651D01*
X100947357Y-52110655D01*
X100773960Y-52218017D01*
X100773958Y-52218019D01*
X100623237Y-52355418D01*
X100500327Y-52518178D01*
X100409422Y-52700739D01*
X100409417Y-52700752D01*
X100353602Y-52896917D01*
X100334785Y-53099999D01*
X100000500Y-53099999D01*
X100000500Y-52225326D01*
X100000500Y-52225323D01*
X100000499Y-52225321D01*
X99985967Y-52152264D01*
X99985966Y-52152260D01*
X99973475Y-52133566D01*
X99930601Y-52069399D01*
X99847740Y-52014034D01*
X99847739Y-52014033D01*
X99847735Y-52014032D01*
X99774677Y-51999500D01*
X99774674Y-51999500D01*
X98396965Y-51999500D01*
X98329926Y-51979815D01*
X98284171Y-51927011D01*
X98274227Y-51857853D01*
X98303252Y-51794297D01*
X98309269Y-51787833D01*
X98451424Y-51645678D01*
X98512743Y-51612196D01*
X98582435Y-51617180D01*
X98583723Y-51617669D01*
X98597544Y-51623024D01*
X98798024Y-51660500D01*
X98798026Y-51660500D01*
X99001974Y-51660500D01*
X99001976Y-51660500D01*
X99202456Y-51623024D01*
X99392637Y-51549348D01*
X99566041Y-51441981D01*
X99716764Y-51304579D01*
X99839673Y-51141821D01*
X99930582Y-50959250D01*
X99986397Y-50763083D01*
X100005215Y-50560000D01*
X99999115Y-50494174D01*
X99986397Y-50356917D01*
X99969596Y-50297869D01*
X99930582Y-50160750D01*
X99930159Y-50159901D01*
X99880415Y-50060000D01*
X99839673Y-49978179D01*
X99716764Y-49815421D01*
X99716762Y-49815418D01*
X99566041Y-49678019D01*
X99566039Y-49678017D01*
X99392642Y-49570655D01*
X99392635Y-49570651D01*
X99266769Y-49521891D01*
X99202456Y-49496976D01*
X99164539Y-49489888D01*
X99102260Y-49458221D01*
X99066987Y-49397908D01*
X99069921Y-49328100D01*
X99110130Y-49270960D01*
X99174848Y-49244629D01*
X99187326Y-49244000D01*
X101152674Y-49244000D01*
X101219713Y-49263685D01*
G37*
%TD.AperFunction*%
%TA.AperFunction,Conductor*%
G36*
X106299713Y-49263685D02*
G01*
X106345468Y-49316489D01*
X106355412Y-49385647D01*
X106326387Y-49449203D01*
X106267609Y-49486977D01*
X106255468Y-49489886D01*
X106217544Y-49496976D01*
X106217541Y-49496976D01*
X106217541Y-49496977D01*
X106027364Y-49570651D01*
X106027357Y-49570655D01*
X105853960Y-49678017D01*
X105853958Y-49678019D01*
X105703237Y-49815418D01*
X105580327Y-49978178D01*
X105493182Y-50153188D01*
X105445679Y-50204425D01*
X105378016Y-50221846D01*
X105311676Y-50199920D01*
X105267721Y-50145609D01*
X105262407Y-50130008D01*
X105253434Y-50096518D01*
X105253429Y-50096507D01*
X105153600Y-49882422D01*
X105153599Y-49882420D01*
X105018113Y-49688926D01*
X105018108Y-49688920D01*
X104851082Y-49521894D01*
X104776363Y-49469575D01*
X104732739Y-49414998D01*
X104725546Y-49345499D01*
X104757068Y-49283145D01*
X104817298Y-49247731D01*
X104847487Y-49244000D01*
X106232674Y-49244000D01*
X106299713Y-49263685D01*
G37*
%TD.AperFunction*%
%TD*%
M02*
