%TF.GenerationSoftware,KiCad,Pcbnew,(6.0.10)*%
%TF.CreationDate,2023-01-13T17:59:47+01:00*%
%TF.ProjectId,InterfaceS88GleisboxRPi,496e7465-7266-4616-9365-533838476c65,rev?*%
%TF.SameCoordinates,Original*%
%TF.FileFunction,Legend,Top*%
%TF.FilePolarity,Positive*%
%FSLAX46Y46*%
G04 Gerber Fmt 4.6, Leading zero omitted, Abs format (unit mm)*
G04 Created by KiCad (PCBNEW (6.0.10)) date 2023-01-13 17:59:47*
%MOMM*%
%LPD*%
G01*
G04 APERTURE LIST*
%ADD10C,0.150000*%
%ADD11C,0.120000*%
%ADD12C,0.100000*%
%ADD13C,0.200000*%
%ADD14C,0.250000*%
G04 APERTURE END LIST*
D10*
%TO.C,J5*%
X99552380Y-91933333D02*
X100266666Y-91933333D01*
X100409523Y-91980952D01*
X100504761Y-92076190D01*
X100552380Y-92219047D01*
X100552380Y-92314285D01*
X99552380Y-90980952D02*
X99552380Y-91457142D01*
X100028571Y-91504761D01*
X99980952Y-91457142D01*
X99933333Y-91361904D01*
X99933333Y-91123809D01*
X99980952Y-91028571D01*
X100028571Y-90980952D01*
X100123809Y-90933333D01*
X100361904Y-90933333D01*
X100457142Y-90980952D01*
X100504761Y-91028571D01*
X100552380Y-91123809D01*
X100552380Y-91361904D01*
X100504761Y-91457142D01*
X100457142Y-91504761D01*
%TO.C,J2*%
X137666666Y-101452380D02*
X137666666Y-102166666D01*
X137619047Y-102309523D01*
X137523809Y-102404761D01*
X137380952Y-102452380D01*
X137285714Y-102452380D01*
X138095238Y-101547619D02*
X138142857Y-101500000D01*
X138238095Y-101452380D01*
X138476190Y-101452380D01*
X138571428Y-101500000D01*
X138619047Y-101547619D01*
X138666666Y-101642857D01*
X138666666Y-101738095D01*
X138619047Y-101880952D01*
X138047619Y-102452380D01*
X138666666Y-102452380D01*
%TO.C,J4*%
X111666666Y-101952380D02*
X111666666Y-102666666D01*
X111619047Y-102809523D01*
X111523809Y-102904761D01*
X111380952Y-102952380D01*
X111285714Y-102952380D01*
X112571428Y-102285714D02*
X112571428Y-102952380D01*
X112333333Y-101904761D02*
X112095238Y-102619047D01*
X112714285Y-102619047D01*
X111176190Y-96252380D02*
X110842857Y-95776190D01*
X110604761Y-96252380D02*
X110604761Y-95252380D01*
X110985714Y-95252380D01*
X111080952Y-95300000D01*
X111128571Y-95347619D01*
X111176190Y-95442857D01*
X111176190Y-95585714D01*
X111128571Y-95680952D01*
X111080952Y-95728571D01*
X110985714Y-95776190D01*
X110604761Y-95776190D01*
X111890476Y-95252380D02*
X111890476Y-95966666D01*
X111842857Y-96109523D01*
X111747619Y-96204761D01*
X111604761Y-96252380D01*
X111509523Y-96252380D01*
X112795238Y-95585714D02*
X112795238Y-96252380D01*
X112557142Y-95204761D02*
X112319047Y-95919047D01*
X112938095Y-95919047D01*
X113795238Y-95252380D02*
X113319047Y-95252380D01*
X113271428Y-95728571D01*
X113319047Y-95680952D01*
X113414285Y-95633333D01*
X113652380Y-95633333D01*
X113747619Y-95680952D01*
X113795238Y-95728571D01*
X113842857Y-95823809D01*
X113842857Y-96061904D01*
X113795238Y-96157142D01*
X113747619Y-96204761D01*
X113652380Y-96252380D01*
X113414285Y-96252380D01*
X113319047Y-96204761D01*
X113271428Y-96157142D01*
X106317761Y-89420952D02*
X106222523Y-89373333D01*
X106174904Y-89325714D01*
X106127285Y-89230476D01*
X106127285Y-89182857D01*
X106174904Y-89087619D01*
X106222523Y-89040000D01*
X106317761Y-88992380D01*
X106508238Y-88992380D01*
X106603476Y-89040000D01*
X106651095Y-89087619D01*
X106698714Y-89182857D01*
X106698714Y-89230476D01*
X106651095Y-89325714D01*
X106603476Y-89373333D01*
X106508238Y-89420952D01*
X106317761Y-89420952D01*
X106222523Y-89468571D01*
X106174904Y-89516190D01*
X106127285Y-89611428D01*
X106127285Y-89801904D01*
X106174904Y-89897142D01*
X106222523Y-89944761D01*
X106317761Y-89992380D01*
X106508238Y-89992380D01*
X106603476Y-89944761D01*
X106651095Y-89897142D01*
X106698714Y-89801904D01*
X106698714Y-89611428D01*
X106651095Y-89516190D01*
X106603476Y-89468571D01*
X106508238Y-89420952D01*
%TO.C,U4*%
X121552380Y-85661904D02*
X122361904Y-85661904D01*
X122457142Y-85614285D01*
X122504761Y-85566666D01*
X122552380Y-85471428D01*
X122552380Y-85280952D01*
X122504761Y-85185714D01*
X122457142Y-85138095D01*
X122361904Y-85090476D01*
X121552380Y-85090476D01*
X121885714Y-84185714D02*
X122552380Y-84185714D01*
X121504761Y-84423809D02*
X122219047Y-84661904D01*
X122219047Y-84042857D01*
%TO.C,R4*%
X126952380Y-59266666D02*
X126476190Y-59600000D01*
X126952380Y-59838095D02*
X125952380Y-59838095D01*
X125952380Y-59457142D01*
X126000000Y-59361904D01*
X126047619Y-59314285D01*
X126142857Y-59266666D01*
X126285714Y-59266666D01*
X126380952Y-59314285D01*
X126428571Y-59361904D01*
X126476190Y-59457142D01*
X126476190Y-59838095D01*
X126285714Y-58409523D02*
X126952380Y-58409523D01*
X125904761Y-58647619D02*
X126619047Y-58885714D01*
X126619047Y-58266666D01*
%TO.C,R5*%
X92702380Y-62866666D02*
X92226190Y-63200000D01*
X92702380Y-63438095D02*
X91702380Y-63438095D01*
X91702380Y-63057142D01*
X91750000Y-62961904D01*
X91797619Y-62914285D01*
X91892857Y-62866666D01*
X92035714Y-62866666D01*
X92130952Y-62914285D01*
X92178571Y-62961904D01*
X92226190Y-63057142D01*
X92226190Y-63438095D01*
X91702380Y-61961904D02*
X91702380Y-62438095D01*
X92178571Y-62485714D01*
X92130952Y-62438095D01*
X92083333Y-62342857D01*
X92083333Y-62104761D01*
X92130952Y-62009523D01*
X92178571Y-61961904D01*
X92273809Y-61914285D01*
X92511904Y-61914285D01*
X92607142Y-61961904D01*
X92654761Y-62009523D01*
X92702380Y-62104761D01*
X92702380Y-62342857D01*
X92654761Y-62438095D01*
X92607142Y-62485714D01*
%TO.C,R14*%
X115057142Y-69802380D02*
X114723809Y-69326190D01*
X114485714Y-69802380D02*
X114485714Y-68802380D01*
X114866666Y-68802380D01*
X114961904Y-68850000D01*
X115009523Y-68897619D01*
X115057142Y-68992857D01*
X115057142Y-69135714D01*
X115009523Y-69230952D01*
X114961904Y-69278571D01*
X114866666Y-69326190D01*
X114485714Y-69326190D01*
X116009523Y-69802380D02*
X115438095Y-69802380D01*
X115723809Y-69802380D02*
X115723809Y-68802380D01*
X115628571Y-68945238D01*
X115533333Y-69040476D01*
X115438095Y-69088095D01*
X116866666Y-69135714D02*
X116866666Y-69802380D01*
X116628571Y-68754761D02*
X116390476Y-69469047D01*
X117009523Y-69469047D01*
%TO.C,C3*%
X139457142Y-69966666D02*
X139504761Y-70014285D01*
X139552380Y-70157142D01*
X139552380Y-70252380D01*
X139504761Y-70395238D01*
X139409523Y-70490476D01*
X139314285Y-70538095D01*
X139123809Y-70585714D01*
X138980952Y-70585714D01*
X138790476Y-70538095D01*
X138695238Y-70490476D01*
X138600000Y-70395238D01*
X138552380Y-70252380D01*
X138552380Y-70157142D01*
X138600000Y-70014285D01*
X138647619Y-69966666D01*
X138552380Y-69633333D02*
X138552380Y-69014285D01*
X138933333Y-69347619D01*
X138933333Y-69204761D01*
X138980952Y-69109523D01*
X139028571Y-69061904D01*
X139123809Y-69014285D01*
X139361904Y-69014285D01*
X139457142Y-69061904D01*
X139504761Y-69109523D01*
X139552380Y-69204761D01*
X139552380Y-69490476D01*
X139504761Y-69585714D01*
X139457142Y-69633333D01*
%TO.C,J3*%
X151666666Y-85202380D02*
X151666666Y-85916666D01*
X151619047Y-86059523D01*
X151523809Y-86154761D01*
X151380952Y-86202380D01*
X151285714Y-86202380D01*
X152047619Y-85202380D02*
X152666666Y-85202380D01*
X152333333Y-85583333D01*
X152476190Y-85583333D01*
X152571428Y-85630952D01*
X152619047Y-85678571D01*
X152666666Y-85773809D01*
X152666666Y-86011904D01*
X152619047Y-86107142D01*
X152571428Y-86154761D01*
X152476190Y-86202380D01*
X152190476Y-86202380D01*
X152095238Y-86154761D01*
X152047619Y-86107142D01*
%TO.C,C9*%
X127233333Y-92457142D02*
X127185714Y-92504761D01*
X127042857Y-92552380D01*
X126947619Y-92552380D01*
X126804761Y-92504761D01*
X126709523Y-92409523D01*
X126661904Y-92314285D01*
X126614285Y-92123809D01*
X126614285Y-91980952D01*
X126661904Y-91790476D01*
X126709523Y-91695238D01*
X126804761Y-91600000D01*
X126947619Y-91552380D01*
X127042857Y-91552380D01*
X127185714Y-91600000D01*
X127233333Y-91647619D01*
X127709523Y-92552380D02*
X127900000Y-92552380D01*
X127995238Y-92504761D01*
X128042857Y-92457142D01*
X128138095Y-92314285D01*
X128185714Y-92123809D01*
X128185714Y-91742857D01*
X128138095Y-91647619D01*
X128090476Y-91600000D01*
X127995238Y-91552380D01*
X127804761Y-91552380D01*
X127709523Y-91600000D01*
X127661904Y-91647619D01*
X127614285Y-91742857D01*
X127614285Y-91980952D01*
X127661904Y-92076190D01*
X127709523Y-92123809D01*
X127804761Y-92171428D01*
X127995238Y-92171428D01*
X128090476Y-92123809D01*
X128138095Y-92076190D01*
X128185714Y-91980952D01*
%TO.C,U6*%
X120352380Y-64561904D02*
X121161904Y-64561904D01*
X121257142Y-64514285D01*
X121304761Y-64466666D01*
X121352380Y-64371428D01*
X121352380Y-64180952D01*
X121304761Y-64085714D01*
X121257142Y-64038095D01*
X121161904Y-63990476D01*
X120352380Y-63990476D01*
X120352380Y-63085714D02*
X120352380Y-63276190D01*
X120400000Y-63371428D01*
X120447619Y-63419047D01*
X120590476Y-63514285D01*
X120780952Y-63561904D01*
X121161904Y-63561904D01*
X121257142Y-63514285D01*
X121304761Y-63466666D01*
X121352380Y-63371428D01*
X121352380Y-63180952D01*
X121304761Y-63085714D01*
X121257142Y-63038095D01*
X121161904Y-62990476D01*
X120923809Y-62990476D01*
X120828571Y-63038095D01*
X120780952Y-63085714D01*
X120733333Y-63180952D01*
X120733333Y-63371428D01*
X120780952Y-63466666D01*
X120828571Y-63514285D01*
X120923809Y-63561904D01*
%TO.C,U2*%
X142138095Y-76952380D02*
X142138095Y-77761904D01*
X142185714Y-77857142D01*
X142233333Y-77904761D01*
X142328571Y-77952380D01*
X142519047Y-77952380D01*
X142614285Y-77904761D01*
X142661904Y-77857142D01*
X142709523Y-77761904D01*
X142709523Y-76952380D01*
X143138095Y-77047619D02*
X143185714Y-77000000D01*
X143280952Y-76952380D01*
X143519047Y-76952380D01*
X143614285Y-77000000D01*
X143661904Y-77047619D01*
X143709523Y-77142857D01*
X143709523Y-77238095D01*
X143661904Y-77380952D01*
X143090476Y-77952380D01*
X143709523Y-77952380D01*
%TO.C,R3*%
X133952380Y-59166666D02*
X133476190Y-59500000D01*
X133952380Y-59738095D02*
X132952380Y-59738095D01*
X132952380Y-59357142D01*
X133000000Y-59261904D01*
X133047619Y-59214285D01*
X133142857Y-59166666D01*
X133285714Y-59166666D01*
X133380952Y-59214285D01*
X133428571Y-59261904D01*
X133476190Y-59357142D01*
X133476190Y-59738095D01*
X132952380Y-58833333D02*
X132952380Y-58214285D01*
X133333333Y-58547619D01*
X133333333Y-58404761D01*
X133380952Y-58309523D01*
X133428571Y-58261904D01*
X133523809Y-58214285D01*
X133761904Y-58214285D01*
X133857142Y-58261904D01*
X133904761Y-58309523D01*
X133952380Y-58404761D01*
X133952380Y-58690476D01*
X133904761Y-58785714D01*
X133857142Y-58833333D01*
%TO.C,C7*%
X153583333Y-62279366D02*
X153535714Y-62326985D01*
X153392857Y-62374604D01*
X153297619Y-62374604D01*
X153154761Y-62326985D01*
X153059523Y-62231747D01*
X153011904Y-62136509D01*
X152964285Y-61946033D01*
X152964285Y-61803176D01*
X153011904Y-61612700D01*
X153059523Y-61517462D01*
X153154761Y-61422224D01*
X153297619Y-61374604D01*
X153392857Y-61374604D01*
X153535714Y-61422224D01*
X153583333Y-61469843D01*
X153916666Y-61374604D02*
X154583333Y-61374604D01*
X154154761Y-62374604D01*
%TO.C,C2*%
X153533333Y-68946030D02*
X153485714Y-68993649D01*
X153342857Y-69041268D01*
X153247619Y-69041268D01*
X153104761Y-68993649D01*
X153009523Y-68898411D01*
X152961904Y-68803173D01*
X152914285Y-68612697D01*
X152914285Y-68469840D01*
X152961904Y-68279364D01*
X153009523Y-68184126D01*
X153104761Y-68088888D01*
X153247619Y-68041268D01*
X153342857Y-68041268D01*
X153485714Y-68088888D01*
X153533333Y-68136507D01*
X153914285Y-68136507D02*
X153961904Y-68088888D01*
X154057142Y-68041268D01*
X154295238Y-68041268D01*
X154390476Y-68088888D01*
X154438095Y-68136507D01*
X154485714Y-68231745D01*
X154485714Y-68326983D01*
X154438095Y-68469840D01*
X153866666Y-69041268D01*
X154485714Y-69041268D01*
%TO.C,U7*%
X120552380Y-78861904D02*
X121361904Y-78861904D01*
X121457142Y-78814285D01*
X121504761Y-78766666D01*
X121552380Y-78671428D01*
X121552380Y-78480952D01*
X121504761Y-78385714D01*
X121457142Y-78338095D01*
X121361904Y-78290476D01*
X120552380Y-78290476D01*
X120552380Y-77909523D02*
X120552380Y-77242857D01*
X121552380Y-77671428D01*
%TO.C,R6*%
X92652380Y-58666666D02*
X92176190Y-59000000D01*
X92652380Y-59238095D02*
X91652380Y-59238095D01*
X91652380Y-58857142D01*
X91700000Y-58761904D01*
X91747619Y-58714285D01*
X91842857Y-58666666D01*
X91985714Y-58666666D01*
X92080952Y-58714285D01*
X92128571Y-58761904D01*
X92176190Y-58857142D01*
X92176190Y-59238095D01*
X91652380Y-57809523D02*
X91652380Y-58000000D01*
X91700000Y-58095238D01*
X91747619Y-58142857D01*
X91890476Y-58238095D01*
X92080952Y-58285714D01*
X92461904Y-58285714D01*
X92557142Y-58238095D01*
X92604761Y-58190476D01*
X92652380Y-58095238D01*
X92652380Y-57904761D01*
X92604761Y-57809523D01*
X92557142Y-57761904D01*
X92461904Y-57714285D01*
X92223809Y-57714285D01*
X92128571Y-57761904D01*
X92080952Y-57809523D01*
X92033333Y-57904761D01*
X92033333Y-58095238D01*
X92080952Y-58190476D01*
X92128571Y-58238095D01*
X92223809Y-58285714D01*
%TO.C,R7*%
X97933333Y-69702380D02*
X97600000Y-69226190D01*
X97361904Y-69702380D02*
X97361904Y-68702380D01*
X97742857Y-68702380D01*
X97838095Y-68750000D01*
X97885714Y-68797619D01*
X97933333Y-68892857D01*
X97933333Y-69035714D01*
X97885714Y-69130952D01*
X97838095Y-69178571D01*
X97742857Y-69226190D01*
X97361904Y-69226190D01*
X98266666Y-68702380D02*
X98933333Y-68702380D01*
X98504761Y-69702380D01*
%TO.C,R8*%
X101633333Y-69702380D02*
X101300000Y-69226190D01*
X101061904Y-69702380D02*
X101061904Y-68702380D01*
X101442857Y-68702380D01*
X101538095Y-68750000D01*
X101585714Y-68797619D01*
X101633333Y-68892857D01*
X101633333Y-69035714D01*
X101585714Y-69130952D01*
X101538095Y-69178571D01*
X101442857Y-69226190D01*
X101061904Y-69226190D01*
X102204761Y-69130952D02*
X102109523Y-69083333D01*
X102061904Y-69035714D01*
X102014285Y-68940476D01*
X102014285Y-68892857D01*
X102061904Y-68797619D01*
X102109523Y-68750000D01*
X102204761Y-68702380D01*
X102395238Y-68702380D01*
X102490476Y-68750000D01*
X102538095Y-68797619D01*
X102585714Y-68892857D01*
X102585714Y-68940476D01*
X102538095Y-69035714D01*
X102490476Y-69083333D01*
X102395238Y-69130952D01*
X102204761Y-69130952D01*
X102109523Y-69178571D01*
X102061904Y-69226190D01*
X102014285Y-69321428D01*
X102014285Y-69511904D01*
X102061904Y-69607142D01*
X102109523Y-69654761D01*
X102204761Y-69702380D01*
X102395238Y-69702380D01*
X102490476Y-69654761D01*
X102538095Y-69607142D01*
X102585714Y-69511904D01*
X102585714Y-69321428D01*
X102538095Y-69226190D01*
X102490476Y-69178571D01*
X102395238Y-69130952D01*
%TO.C,R1*%
X151333333Y-96502380D02*
X151000000Y-96026190D01*
X150761904Y-96502380D02*
X150761904Y-95502380D01*
X151142857Y-95502380D01*
X151238095Y-95550000D01*
X151285714Y-95597619D01*
X151333333Y-95692857D01*
X151333333Y-95835714D01*
X151285714Y-95930952D01*
X151238095Y-95978571D01*
X151142857Y-96026190D01*
X150761904Y-96026190D01*
X152285714Y-96502380D02*
X151714285Y-96502380D01*
X152000000Y-96502380D02*
X152000000Y-95502380D01*
X151904761Y-95645238D01*
X151809523Y-95740476D01*
X151714285Y-95788095D01*
%TO.C,C6*%
X153583333Y-64418254D02*
X153535714Y-64465873D01*
X153392857Y-64513492D01*
X153297619Y-64513492D01*
X153154761Y-64465873D01*
X153059523Y-64370635D01*
X153011904Y-64275397D01*
X152964285Y-64084921D01*
X152964285Y-63942064D01*
X153011904Y-63751588D01*
X153059523Y-63656350D01*
X153154761Y-63561112D01*
X153297619Y-63513492D01*
X153392857Y-63513492D01*
X153535714Y-63561112D01*
X153583333Y-63608731D01*
X154440476Y-63513492D02*
X154250000Y-63513492D01*
X154154761Y-63561112D01*
X154107142Y-63608731D01*
X154011904Y-63751588D01*
X153964285Y-63942064D01*
X153964285Y-64323016D01*
X154011904Y-64418254D01*
X154059523Y-64465873D01*
X154154761Y-64513492D01*
X154345238Y-64513492D01*
X154440476Y-64465873D01*
X154488095Y-64418254D01*
X154535714Y-64323016D01*
X154535714Y-64084921D01*
X154488095Y-63989683D01*
X154440476Y-63942064D01*
X154345238Y-63894445D01*
X154154761Y-63894445D01*
X154059523Y-63942064D01*
X154011904Y-63989683D01*
X153964285Y-64084921D01*
%TO.C,R12*%
X114857142Y-56002380D02*
X114523809Y-55526190D01*
X114285714Y-56002380D02*
X114285714Y-55002380D01*
X114666666Y-55002380D01*
X114761904Y-55050000D01*
X114809523Y-55097619D01*
X114857142Y-55192857D01*
X114857142Y-55335714D01*
X114809523Y-55430952D01*
X114761904Y-55478571D01*
X114666666Y-55526190D01*
X114285714Y-55526190D01*
X115809523Y-56002380D02*
X115238095Y-56002380D01*
X115523809Y-56002380D02*
X115523809Y-55002380D01*
X115428571Y-55145238D01*
X115333333Y-55240476D01*
X115238095Y-55288095D01*
X116190476Y-55097619D02*
X116238095Y-55050000D01*
X116333333Y-55002380D01*
X116571428Y-55002380D01*
X116666666Y-55050000D01*
X116714285Y-55097619D01*
X116761904Y-55192857D01*
X116761904Y-55288095D01*
X116714285Y-55430952D01*
X116142857Y-56002380D01*
X116761904Y-56002380D01*
%TO.C,C10*%
X123957142Y-81837142D02*
X123909523Y-81884761D01*
X123766666Y-81932380D01*
X123671428Y-81932380D01*
X123528571Y-81884761D01*
X123433333Y-81789523D01*
X123385714Y-81694285D01*
X123338095Y-81503809D01*
X123338095Y-81360952D01*
X123385714Y-81170476D01*
X123433333Y-81075238D01*
X123528571Y-80980000D01*
X123671428Y-80932380D01*
X123766666Y-80932380D01*
X123909523Y-80980000D01*
X123957142Y-81027619D01*
X124909523Y-81932380D02*
X124338095Y-81932380D01*
X124623809Y-81932380D02*
X124623809Y-80932380D01*
X124528571Y-81075238D01*
X124433333Y-81170476D01*
X124338095Y-81218095D01*
X125528571Y-80932380D02*
X125623809Y-80932380D01*
X125719047Y-80980000D01*
X125766666Y-81027619D01*
X125814285Y-81122857D01*
X125861904Y-81313333D01*
X125861904Y-81551428D01*
X125814285Y-81741904D01*
X125766666Y-81837142D01*
X125719047Y-81884761D01*
X125623809Y-81932380D01*
X125528571Y-81932380D01*
X125433333Y-81884761D01*
X125385714Y-81837142D01*
X125338095Y-81741904D01*
X125290476Y-81551428D01*
X125290476Y-81313333D01*
X125338095Y-81122857D01*
X125385714Y-81027619D01*
X125433333Y-80980000D01*
X125528571Y-80932380D01*
%TO.C,R13*%
X111157142Y-69802380D02*
X110823809Y-69326190D01*
X110585714Y-69802380D02*
X110585714Y-68802380D01*
X110966666Y-68802380D01*
X111061904Y-68850000D01*
X111109523Y-68897619D01*
X111157142Y-68992857D01*
X111157142Y-69135714D01*
X111109523Y-69230952D01*
X111061904Y-69278571D01*
X110966666Y-69326190D01*
X110585714Y-69326190D01*
X112109523Y-69802380D02*
X111538095Y-69802380D01*
X111823809Y-69802380D02*
X111823809Y-68802380D01*
X111728571Y-68945238D01*
X111633333Y-69040476D01*
X111538095Y-69088095D01*
X112442857Y-68802380D02*
X113061904Y-68802380D01*
X112728571Y-69183333D01*
X112871428Y-69183333D01*
X112966666Y-69230952D01*
X113014285Y-69278571D01*
X113061904Y-69373809D01*
X113061904Y-69611904D01*
X113014285Y-69707142D01*
X112966666Y-69754761D01*
X112871428Y-69802380D01*
X112585714Y-69802380D01*
X112490476Y-69754761D01*
X112442857Y-69707142D01*
%TO.C,R10*%
X129702380Y-83586607D02*
X129226190Y-83919940D01*
X129702380Y-84158035D02*
X128702380Y-84158035D01*
X128702380Y-83777083D01*
X128750000Y-83681845D01*
X128797619Y-83634226D01*
X128892857Y-83586607D01*
X129035714Y-83586607D01*
X129130952Y-83634226D01*
X129178571Y-83681845D01*
X129226190Y-83777083D01*
X129226190Y-84158035D01*
X129702380Y-82634226D02*
X129702380Y-83205654D01*
X129702380Y-82919940D02*
X128702380Y-82919940D01*
X128845238Y-83015178D01*
X128940476Y-83110416D01*
X128988095Y-83205654D01*
X128702380Y-82015178D02*
X128702380Y-81919940D01*
X128750000Y-81824702D01*
X128797619Y-81777083D01*
X128892857Y-81729464D01*
X129083333Y-81681845D01*
X129321428Y-81681845D01*
X129511904Y-81729464D01*
X129607142Y-81777083D01*
X129654761Y-81824702D01*
X129702380Y-81919940D01*
X129702380Y-82015178D01*
X129654761Y-82110416D01*
X129607142Y-82158035D01*
X129511904Y-82205654D01*
X129321428Y-82253273D01*
X129083333Y-82253273D01*
X128892857Y-82205654D01*
X128797619Y-82158035D01*
X128750000Y-82110416D01*
X128702380Y-82015178D01*
%TO.C,C5*%
X152457142Y-76566666D02*
X152504761Y-76614285D01*
X152552380Y-76757142D01*
X152552380Y-76852380D01*
X152504761Y-76995238D01*
X152409523Y-77090476D01*
X152314285Y-77138095D01*
X152123809Y-77185714D01*
X151980952Y-77185714D01*
X151790476Y-77138095D01*
X151695238Y-77090476D01*
X151600000Y-76995238D01*
X151552380Y-76852380D01*
X151552380Y-76757142D01*
X151600000Y-76614285D01*
X151647619Y-76566666D01*
X151552380Y-75661904D02*
X151552380Y-76138095D01*
X152028571Y-76185714D01*
X151980952Y-76138095D01*
X151933333Y-76042857D01*
X151933333Y-75804761D01*
X151980952Y-75709523D01*
X152028571Y-75661904D01*
X152123809Y-75614285D01*
X152361904Y-75614285D01*
X152457142Y-75661904D01*
X152504761Y-75709523D01*
X152552380Y-75804761D01*
X152552380Y-76042857D01*
X152504761Y-76138095D01*
X152457142Y-76185714D01*
%TO.C,U3*%
X135470596Y-54927380D02*
X135470596Y-55736904D01*
X135518215Y-55832142D01*
X135565834Y-55879761D01*
X135661072Y-55927380D01*
X135851548Y-55927380D01*
X135946786Y-55879761D01*
X135994405Y-55832142D01*
X136042024Y-55736904D01*
X136042024Y-54927380D01*
X136422977Y-54927380D02*
X137042024Y-54927380D01*
X136708691Y-55308333D01*
X136851548Y-55308333D01*
X136946786Y-55355952D01*
X136994405Y-55403571D01*
X137042024Y-55498809D01*
X137042024Y-55736904D01*
X136994405Y-55832142D01*
X136946786Y-55879761D01*
X136851548Y-55927380D01*
X136565834Y-55927380D01*
X136470596Y-55879761D01*
X136422977Y-55832142D01*
X135678095Y-59974523D02*
X135678095Y-58704523D01*
X136403809Y-59974523D01*
X136403809Y-58704523D01*
X137008571Y-59974523D02*
X137008571Y-58704523D01*
X137431904Y-59611666D01*
X137855238Y-58704523D01*
X137855238Y-59974523D01*
X138460000Y-59309285D02*
X138883333Y-59309285D01*
X139064761Y-59974523D02*
X138460000Y-59974523D01*
X138460000Y-58704523D01*
X139064761Y-58704523D01*
X139850952Y-58704523D02*
X139971904Y-58704523D01*
X140092857Y-58765000D01*
X140153333Y-58825476D01*
X140213809Y-58946428D01*
X140274285Y-59188333D01*
X140274285Y-59490714D01*
X140213809Y-59732619D01*
X140153333Y-59853571D01*
X140092857Y-59914047D01*
X139971904Y-59974523D01*
X139850952Y-59974523D01*
X139730000Y-59914047D01*
X139669523Y-59853571D01*
X139609047Y-59732619D01*
X139548571Y-59490714D01*
X139548571Y-59188333D01*
X139609047Y-58946428D01*
X139669523Y-58825476D01*
X139730000Y-58765000D01*
X139850952Y-58704523D01*
X141423333Y-58704523D02*
X140818571Y-58704523D01*
X140758095Y-59309285D01*
X140818571Y-59248809D01*
X140939523Y-59188333D01*
X141241904Y-59188333D01*
X141362857Y-59248809D01*
X141423333Y-59309285D01*
X141483809Y-59430238D01*
X141483809Y-59732619D01*
X141423333Y-59853571D01*
X141362857Y-59914047D01*
X141241904Y-59974523D01*
X140939523Y-59974523D01*
X140818571Y-59914047D01*
X140758095Y-59853571D01*
X142270000Y-58704523D02*
X142390952Y-58704523D01*
X142511904Y-58765000D01*
X142572380Y-58825476D01*
X142632857Y-58946428D01*
X142693333Y-59188333D01*
X142693333Y-59490714D01*
X142632857Y-59732619D01*
X142572380Y-59853571D01*
X142511904Y-59914047D01*
X142390952Y-59974523D01*
X142270000Y-59974523D01*
X142149047Y-59914047D01*
X142088571Y-59853571D01*
X142028095Y-59732619D01*
X141967619Y-59490714D01*
X141967619Y-59188333D01*
X142028095Y-58946428D01*
X142088571Y-58825476D01*
X142149047Y-58765000D01*
X142270000Y-58704523D01*
X143842380Y-58704523D02*
X143237619Y-58704523D01*
X143177142Y-59309285D01*
X143237619Y-59248809D01*
X143358571Y-59188333D01*
X143660952Y-59188333D01*
X143781904Y-59248809D01*
X143842380Y-59309285D01*
X143902857Y-59430238D01*
X143902857Y-59732619D01*
X143842380Y-59853571D01*
X143781904Y-59914047D01*
X143660952Y-59974523D01*
X143358571Y-59974523D01*
X143237619Y-59914047D01*
X143177142Y-59853571D01*
X144386666Y-59914047D02*
X144568095Y-59974523D01*
X144870476Y-59974523D01*
X144991428Y-59914047D01*
X145051904Y-59853571D01*
X145112380Y-59732619D01*
X145112380Y-59611666D01*
X145051904Y-59490714D01*
X144991428Y-59430238D01*
X144870476Y-59369761D01*
X144628571Y-59309285D01*
X144507619Y-59248809D01*
X144447142Y-59188333D01*
X144386666Y-59067380D01*
X144386666Y-58946428D01*
X144447142Y-58825476D01*
X144507619Y-58765000D01*
X144628571Y-58704523D01*
X144930952Y-58704523D01*
X145112380Y-58765000D01*
X146382380Y-59853571D02*
X146321904Y-59914047D01*
X146140476Y-59974523D01*
X146019523Y-59974523D01*
X145838095Y-59914047D01*
X145717142Y-59793095D01*
X145656666Y-59672142D01*
X145596190Y-59430238D01*
X145596190Y-59248809D01*
X145656666Y-59006904D01*
X145717142Y-58885952D01*
X145838095Y-58765000D01*
X146019523Y-58704523D01*
X146140476Y-58704523D01*
X146321904Y-58765000D01*
X146382380Y-58825476D01*
%TO.C,U5*%
X107452380Y-78661904D02*
X108261904Y-78661904D01*
X108357142Y-78614285D01*
X108404761Y-78566666D01*
X108452380Y-78471428D01*
X108452380Y-78280952D01*
X108404761Y-78185714D01*
X108357142Y-78138095D01*
X108261904Y-78090476D01*
X107452380Y-78090476D01*
X107452380Y-77138095D02*
X107452380Y-77614285D01*
X107928571Y-77661904D01*
X107880952Y-77614285D01*
X107833333Y-77519047D01*
X107833333Y-77280952D01*
X107880952Y-77185714D01*
X107928571Y-77138095D01*
X108023809Y-77090476D01*
X108261904Y-77090476D01*
X108357142Y-77138095D01*
X108404761Y-77185714D01*
X108452380Y-77280952D01*
X108452380Y-77519047D01*
X108404761Y-77614285D01*
X108357142Y-77661904D01*
%TO.C,U1*%
X123352380Y-74061904D02*
X124161904Y-74061904D01*
X124257142Y-74014285D01*
X124304761Y-73966666D01*
X124352380Y-73871428D01*
X124352380Y-73680952D01*
X124304761Y-73585714D01*
X124257142Y-73538095D01*
X124161904Y-73490476D01*
X123352380Y-73490476D01*
X124352380Y-72490476D02*
X124352380Y-73061904D01*
X124352380Y-72776190D02*
X123352380Y-72776190D01*
X123495238Y-72871428D01*
X123590476Y-72966666D01*
X123638095Y-73061904D01*
%TO.C,R9*%
X129702380Y-86822916D02*
X129226190Y-87156250D01*
X129702380Y-87394345D02*
X128702380Y-87394345D01*
X128702380Y-87013392D01*
X128750000Y-86918154D01*
X128797619Y-86870535D01*
X128892857Y-86822916D01*
X129035714Y-86822916D01*
X129130952Y-86870535D01*
X129178571Y-86918154D01*
X129226190Y-87013392D01*
X129226190Y-87394345D01*
X129702380Y-86346726D02*
X129702380Y-86156250D01*
X129654761Y-86061011D01*
X129607142Y-86013392D01*
X129464285Y-85918154D01*
X129273809Y-85870535D01*
X128892857Y-85870535D01*
X128797619Y-85918154D01*
X128750000Y-85965773D01*
X128702380Y-86061011D01*
X128702380Y-86251488D01*
X128750000Y-86346726D01*
X128797619Y-86394345D01*
X128892857Y-86441964D01*
X129130952Y-86441964D01*
X129226190Y-86394345D01*
X129273809Y-86346726D01*
X129321428Y-86251488D01*
X129321428Y-86061011D01*
X129273809Y-85965773D01*
X129226190Y-85918154D01*
X129130952Y-85870535D01*
%TO.C,R2*%
X129252380Y-59266666D02*
X128776190Y-59600000D01*
X129252380Y-59838095D02*
X128252380Y-59838095D01*
X128252380Y-59457142D01*
X128300000Y-59361904D01*
X128347619Y-59314285D01*
X128442857Y-59266666D01*
X128585714Y-59266666D01*
X128680952Y-59314285D01*
X128728571Y-59361904D01*
X128776190Y-59457142D01*
X128776190Y-59838095D01*
X128347619Y-58885714D02*
X128300000Y-58838095D01*
X128252380Y-58742857D01*
X128252380Y-58504761D01*
X128300000Y-58409523D01*
X128347619Y-58361904D01*
X128442857Y-58314285D01*
X128538095Y-58314285D01*
X128680952Y-58361904D01*
X129252380Y-58933333D01*
X129252380Y-58314285D01*
%TO.C,U8*%
X107352380Y-64661904D02*
X108161904Y-64661904D01*
X108257142Y-64614285D01*
X108304761Y-64566666D01*
X108352380Y-64471428D01*
X108352380Y-64280952D01*
X108304761Y-64185714D01*
X108257142Y-64138095D01*
X108161904Y-64090476D01*
X107352380Y-64090476D01*
X107780952Y-63471428D02*
X107733333Y-63566666D01*
X107685714Y-63614285D01*
X107590476Y-63661904D01*
X107542857Y-63661904D01*
X107447619Y-63614285D01*
X107400000Y-63566666D01*
X107352380Y-63471428D01*
X107352380Y-63280952D01*
X107400000Y-63185714D01*
X107447619Y-63138095D01*
X107542857Y-63090476D01*
X107590476Y-63090476D01*
X107685714Y-63138095D01*
X107733333Y-63185714D01*
X107780952Y-63280952D01*
X107780952Y-63471428D01*
X107828571Y-63566666D01*
X107876190Y-63614285D01*
X107971428Y-63661904D01*
X108161904Y-63661904D01*
X108257142Y-63614285D01*
X108304761Y-63566666D01*
X108352380Y-63471428D01*
X108352380Y-63280952D01*
X108304761Y-63185714D01*
X108257142Y-63138095D01*
X108161904Y-63090476D01*
X107971428Y-63090476D01*
X107876190Y-63138095D01*
X107828571Y-63185714D01*
X107780952Y-63280952D01*
%TO.C,C1*%
X153583333Y-71134922D02*
X153535714Y-71182541D01*
X153392857Y-71230160D01*
X153297619Y-71230160D01*
X153154761Y-71182541D01*
X153059523Y-71087303D01*
X153011904Y-70992065D01*
X152964285Y-70801589D01*
X152964285Y-70658732D01*
X153011904Y-70468256D01*
X153059523Y-70373018D01*
X153154761Y-70277780D01*
X153297619Y-70230160D01*
X153392857Y-70230160D01*
X153535714Y-70277780D01*
X153583333Y-70325399D01*
X154535714Y-71230160D02*
X153964285Y-71230160D01*
X154250000Y-71230160D02*
X154250000Y-70230160D01*
X154154761Y-70373018D01*
X154059523Y-70468256D01*
X153964285Y-70515875D01*
%TO.C,Y1*%
X140751190Y-70576190D02*
X141227380Y-70576190D01*
X140227380Y-70909523D02*
X140751190Y-70576190D01*
X140227380Y-70242857D01*
X141227380Y-69385714D02*
X141227380Y-69957142D01*
X141227380Y-69671428D02*
X140227380Y-69671428D01*
X140370238Y-69766666D01*
X140465476Y-69861904D01*
X140513095Y-69957142D01*
%TO.C,R11*%
X111157142Y-56002380D02*
X110823809Y-55526190D01*
X110585714Y-56002380D02*
X110585714Y-55002380D01*
X110966666Y-55002380D01*
X111061904Y-55050000D01*
X111109523Y-55097619D01*
X111157142Y-55192857D01*
X111157142Y-55335714D01*
X111109523Y-55430952D01*
X111061904Y-55478571D01*
X110966666Y-55526190D01*
X110585714Y-55526190D01*
X112109523Y-56002380D02*
X111538095Y-56002380D01*
X111823809Y-56002380D02*
X111823809Y-55002380D01*
X111728571Y-55145238D01*
X111633333Y-55240476D01*
X111538095Y-55288095D01*
X113061904Y-56002380D02*
X112490476Y-56002380D01*
X112776190Y-56002380D02*
X112776190Y-55002380D01*
X112680952Y-55145238D01*
X112585714Y-55240476D01*
X112490476Y-55288095D01*
%TO.C,C8*%
X153583333Y-60040478D02*
X153535714Y-60088097D01*
X153392857Y-60135716D01*
X153297619Y-60135716D01*
X153154761Y-60088097D01*
X153059523Y-59992859D01*
X153011904Y-59897621D01*
X152964285Y-59707145D01*
X152964285Y-59564288D01*
X153011904Y-59373812D01*
X153059523Y-59278574D01*
X153154761Y-59183336D01*
X153297619Y-59135716D01*
X153392857Y-59135716D01*
X153535714Y-59183336D01*
X153583333Y-59230955D01*
X154154761Y-59564288D02*
X154059523Y-59516669D01*
X154011904Y-59469050D01*
X153964285Y-59373812D01*
X153964285Y-59326193D01*
X154011904Y-59230955D01*
X154059523Y-59183336D01*
X154154761Y-59135716D01*
X154345238Y-59135716D01*
X154440476Y-59183336D01*
X154488095Y-59230955D01*
X154535714Y-59326193D01*
X154535714Y-59373812D01*
X154488095Y-59469050D01*
X154440476Y-59516669D01*
X154345238Y-59564288D01*
X154154761Y-59564288D01*
X154059523Y-59611907D01*
X154011904Y-59659526D01*
X153964285Y-59754764D01*
X153964285Y-59945240D01*
X154011904Y-60040478D01*
X154059523Y-60088097D01*
X154154761Y-60135716D01*
X154345238Y-60135716D01*
X154440476Y-60088097D01*
X154488095Y-60040478D01*
X154535714Y-59945240D01*
X154535714Y-59754764D01*
X154488095Y-59659526D01*
X154440476Y-59611907D01*
X154345238Y-59564288D01*
%TO.C,C11*%
X127257142Y-90257142D02*
X127209523Y-90304761D01*
X127066666Y-90352380D01*
X126971428Y-90352380D01*
X126828571Y-90304761D01*
X126733333Y-90209523D01*
X126685714Y-90114285D01*
X126638095Y-89923809D01*
X126638095Y-89780952D01*
X126685714Y-89590476D01*
X126733333Y-89495238D01*
X126828571Y-89400000D01*
X126971428Y-89352380D01*
X127066666Y-89352380D01*
X127209523Y-89400000D01*
X127257142Y-89447619D01*
X128209523Y-90352380D02*
X127638095Y-90352380D01*
X127923809Y-90352380D02*
X127923809Y-89352380D01*
X127828571Y-89495238D01*
X127733333Y-89590476D01*
X127638095Y-89638095D01*
X129161904Y-90352380D02*
X128590476Y-90352380D01*
X128876190Y-90352380D02*
X128876190Y-89352380D01*
X128780952Y-89495238D01*
X128685714Y-89590476D01*
X128590476Y-89638095D01*
%TO.C,C4*%
X153533333Y-66707142D02*
X153485714Y-66754761D01*
X153342857Y-66802380D01*
X153247619Y-66802380D01*
X153104761Y-66754761D01*
X153009523Y-66659523D01*
X152961904Y-66564285D01*
X152914285Y-66373809D01*
X152914285Y-66230952D01*
X152961904Y-66040476D01*
X153009523Y-65945238D01*
X153104761Y-65850000D01*
X153247619Y-65802380D01*
X153342857Y-65802380D01*
X153485714Y-65850000D01*
X153533333Y-65897619D01*
X154390476Y-66135714D02*
X154390476Y-66802380D01*
X154152380Y-65754761D02*
X153914285Y-66469047D01*
X154533333Y-66469047D01*
%TO.C,J1*%
X97752380Y-56233333D02*
X98466666Y-56233333D01*
X98609523Y-56280952D01*
X98704761Y-56376190D01*
X98752380Y-56519047D01*
X98752380Y-56614285D01*
X98752380Y-55233333D02*
X98752380Y-55804761D01*
X98752380Y-55519047D02*
X97752380Y-55519047D01*
X97895238Y-55614285D01*
X97990476Y-55709523D01*
X98038095Y-55804761D01*
D11*
%TO.C,J5*%
X91190000Y-96440000D02*
X98810000Y-96440000D01*
X98810000Y-86280000D02*
X91190000Y-86280000D01*
X97540000Y-86280000D02*
X97540000Y-96440000D01*
X98810000Y-96440000D02*
X98810000Y-86280000D01*
X91190000Y-86280000D02*
X91190000Y-96440000D01*
D12*
%TO.C,J2*%
X135800000Y-104000000D02*
G75*
G03*
X135800000Y-103900000I0J50000D01*
G01*
X135800000Y-103900000D02*
G75*
G03*
X135800000Y-104000000I0J-50000D01*
G01*
X135800000Y-104000000D02*
X135800000Y-104000000D01*
X135800000Y-103900000D02*
X135800000Y-103900000D01*
D13*
X145100000Y-90700000D02*
X131100000Y-90700000D01*
X131100000Y-100000000D02*
X131100000Y-103500000D01*
X131100000Y-90700000D02*
X131100000Y-96000000D01*
X145100000Y-103500000D02*
X145100000Y-100000000D01*
X131100000Y-103500000D02*
X145100000Y-103500000D01*
X145100000Y-96000000D02*
X145100000Y-90700000D01*
D11*
%TO.C,J4*%
X119976600Y-103927400D02*
X119976600Y-97795000D01*
X119976600Y-85182200D02*
X104533400Y-85182200D01*
X104533400Y-85182200D02*
X104533400Y-93985000D01*
X104533400Y-97795000D02*
X104533400Y-103927400D01*
X119976600Y-93985000D02*
X119976600Y-85182200D01*
X104533400Y-103927400D02*
X119976600Y-103927400D01*
X117081000Y-84471000D02*
G75*
G03*
X117081000Y-84471000I-381000J0D01*
G01*
%TO.C,U4*%
X127510000Y-86700000D02*
X127510000Y-83100000D01*
X127498478Y-83061522D02*
G75*
G03*
X123060000Y-84900000I-1838478J-1838478D01*
G01*
X123059999Y-84900000D02*
G75*
G03*
X127498478Y-86738478I2600001J0D01*
G01*
%TO.C,R4*%
X127235000Y-61927064D02*
X127235000Y-61472936D01*
X125765000Y-61927064D02*
X125765000Y-61472936D01*
%TO.C,R5*%
X93165000Y-62927064D02*
X93165000Y-62472936D01*
X94635000Y-62927064D02*
X94635000Y-62472936D01*
%TO.C,R14*%
X115472936Y-71735000D02*
X115927064Y-71735000D01*
X115472936Y-70265000D02*
X115927064Y-70265000D01*
%TO.C,C3*%
X139935000Y-66738748D02*
X139935000Y-67261252D01*
X138465000Y-66738748D02*
X138465000Y-67261252D01*
%TO.C,J3*%
X150670000Y-89350000D02*
X150670000Y-91950000D01*
X153330000Y-89350000D02*
X153330000Y-91950000D01*
X150670000Y-91950000D02*
X153330000Y-91950000D01*
X150670000Y-86750000D02*
X152000000Y-86750000D01*
X150670000Y-88080000D02*
X150670000Y-86750000D01*
X150670000Y-89350000D02*
X153330000Y-89350000D01*
%TO.C,C9*%
X124238748Y-91365000D02*
X124761252Y-91365000D01*
X124238748Y-92835000D02*
X124761252Y-92835000D01*
%TO.C,U6*%
X119950000Y-66440000D02*
X119950000Y-61140000D01*
X109670000Y-66440000D02*
X119950000Y-66440000D01*
X109670000Y-64790000D02*
X109670000Y-66440000D01*
X119950000Y-61140000D02*
X109670000Y-61140000D01*
X109670000Y-61140000D02*
X109670000Y-62790000D01*
X109670000Y-64790000D02*
G75*
G03*
X109670000Y-62790000I0J1000000D01*
G01*
%TO.C,U2*%
X146220000Y-87785000D02*
X146220000Y-87495000D01*
X142800000Y-78415000D02*
X146220000Y-78415000D01*
X146220000Y-78415000D02*
X146220000Y-78705000D01*
X139380000Y-87785000D02*
X139380000Y-87495000D01*
X142800000Y-78415000D02*
X139380000Y-78415000D01*
X142800000Y-87785000D02*
X146220000Y-87785000D01*
X139380000Y-78705000D02*
X137100000Y-78705000D01*
X142800000Y-87785000D02*
X139380000Y-87785000D01*
X139380000Y-78415000D02*
X139380000Y-78705000D01*
%TO.C,R3*%
X132565000Y-61472936D02*
X132565000Y-61927064D01*
X134035000Y-61472936D02*
X134035000Y-61927064D01*
%TO.C,C7*%
X150738748Y-61087224D02*
X151261252Y-61087224D01*
X150738748Y-62557224D02*
X151261252Y-62557224D01*
%TO.C,C2*%
X150738748Y-69273888D02*
X151261252Y-69273888D01*
X150738748Y-67803888D02*
X151261252Y-67803888D01*
%TO.C,U7*%
X109770000Y-75440000D02*
X109770000Y-77090000D01*
X109770000Y-80740000D02*
X120050000Y-80740000D01*
X120050000Y-75440000D02*
X109770000Y-75440000D01*
X109770000Y-79090000D02*
X109770000Y-80740000D01*
X120050000Y-80740000D02*
X120050000Y-75440000D01*
X109770000Y-79090000D02*
G75*
G03*
X109770000Y-77090000I0J1000000D01*
G01*
%TO.C,R6*%
X94635000Y-58727064D02*
X94635000Y-58272936D01*
X93165000Y-58727064D02*
X93165000Y-58272936D01*
%TO.C,R7*%
X97872936Y-70165000D02*
X98327064Y-70165000D01*
X97872936Y-71635000D02*
X98327064Y-71635000D01*
%TO.C,R8*%
X101572936Y-71635000D02*
X102027064Y-71635000D01*
X101572936Y-70165000D02*
X102027064Y-70165000D01*
%TO.C,R1*%
X151727064Y-95135000D02*
X151272936Y-95135000D01*
X151727064Y-93665000D02*
X151272936Y-93665000D01*
%TO.C,C6*%
X150738748Y-63326112D02*
X151261252Y-63326112D01*
X150738748Y-64796112D02*
X151261252Y-64796112D01*
%TO.C,R12*%
X115272936Y-57935000D02*
X115727064Y-57935000D01*
X115272936Y-56465000D02*
X115727064Y-56465000D01*
%TO.C,C10*%
X124861252Y-80535000D02*
X124338748Y-80535000D01*
X124861252Y-79065000D02*
X124338748Y-79065000D01*
%TO.C,R13*%
X111572936Y-70265000D02*
X112027064Y-70265000D01*
X111572936Y-71735000D02*
X112027064Y-71735000D01*
%TO.C,R10*%
X131635000Y-83170814D02*
X131635000Y-82716686D01*
X130165000Y-83170814D02*
X130165000Y-82716686D01*
%TO.C,C5*%
X152635000Y-79138748D02*
X152635000Y-79661252D01*
X151165000Y-79138748D02*
X151165000Y-79661252D01*
D10*
%TO.C,U3*%
X138657500Y-62525000D02*
X138772500Y-62525000D01*
X135135001Y-62525000D02*
X136232500Y-62525000D01*
X135135001Y-62525000D02*
X135135001Y-56275000D01*
X146277500Y-62525000D02*
X146865000Y-62525000D01*
X141197500Y-62525000D02*
X141312500Y-62525000D01*
X143737500Y-62525000D02*
X143852500Y-62525000D01*
X146865000Y-62525000D02*
X146865000Y-56275000D01*
X135135001Y-56275000D02*
X146865000Y-56275000D01*
D14*
X137710001Y-63270000D02*
G75*
G03*
X137710001Y-63270000I-125000J0D01*
G01*
D11*
%TO.C,U5*%
X96770000Y-75340000D02*
X96770000Y-76990000D01*
X96770000Y-80640000D02*
X107050000Y-80640000D01*
X107050000Y-80640000D02*
X107050000Y-75340000D01*
X96770000Y-78990000D02*
X96770000Y-80640000D01*
X107050000Y-75340000D02*
X96770000Y-75340000D01*
X96770000Y-78990000D02*
G75*
G03*
X96770000Y-76990000I0J1000000D01*
G01*
%TO.C,U1*%
X125360000Y-74460000D02*
X125360000Y-76275000D01*
X136885000Y-66740000D02*
X136640000Y-66740000D01*
X125115000Y-74460000D02*
X125360000Y-74460000D01*
X136885000Y-70600000D02*
X136885000Y-74460000D01*
X125115000Y-70600000D02*
X125115000Y-74460000D01*
X136885000Y-70600000D02*
X136885000Y-66740000D01*
X125115000Y-70600000D02*
X125115000Y-66740000D01*
X136885000Y-74460000D02*
X136640000Y-74460000D01*
X125115000Y-66740000D02*
X125360000Y-66740000D01*
%TO.C,R9*%
X131635000Y-86883314D02*
X131635000Y-86429186D01*
X130165000Y-86883314D02*
X130165000Y-86429186D01*
%TO.C,R2*%
X129535000Y-61927064D02*
X129535000Y-61472936D01*
X128065000Y-61927064D02*
X128065000Y-61472936D01*
%TO.C,U8*%
X96570000Y-61340000D02*
X96570000Y-62990000D01*
X106850000Y-66640000D02*
X106850000Y-61340000D01*
X106850000Y-61340000D02*
X96570000Y-61340000D01*
X96570000Y-64990000D02*
X96570000Y-66640000D01*
X96570000Y-66640000D02*
X106850000Y-66640000D01*
X96570000Y-64990000D02*
G75*
G03*
X96570000Y-62990000I0J1000000D01*
G01*
%TO.C,C1*%
X150738748Y-71512780D02*
X151261252Y-71512780D01*
X150738748Y-70042780D02*
X151261252Y-70042780D01*
%TO.C,Y1*%
X141775000Y-73300000D02*
X141775000Y-66900000D01*
X146825000Y-73300000D02*
X146825000Y-66900000D01*
X146825000Y-66900000D02*
G75*
G03*
X141775000Y-66900000I-2525000J0D01*
G01*
X141775000Y-73300000D02*
G75*
G03*
X146825000Y-73300000I2525000J0D01*
G01*
%TO.C,R11*%
X111572936Y-56465000D02*
X112027064Y-56465000D01*
X111572936Y-57935000D02*
X112027064Y-57935000D01*
%TO.C,C8*%
X150738748Y-58848336D02*
X151261252Y-58848336D01*
X150738748Y-60318336D02*
X151261252Y-60318336D01*
%TO.C,C11*%
X124238748Y-90535000D02*
X124761252Y-90535000D01*
X124238748Y-89065000D02*
X124761252Y-89065000D01*
%TO.C,C4*%
X150738748Y-67035000D02*
X151261252Y-67035000D01*
X150738748Y-65565000D02*
X151261252Y-65565000D01*
%TD*%
M02*
