%TF.GenerationSoftware,KiCad,Pcbnew,(6.0.10)*%
%TF.CreationDate,2023-01-13T18:11:07+01:00*%
%TF.ProjectId,InterfaceS88GleisboxRPi,496e7465-7266-4616-9365-533838476c65,rev?*%
%TF.SameCoordinates,Original*%
%TF.FileFunction,Paste,Top*%
%TF.FilePolarity,Positive*%
%FSLAX46Y46*%
G04 Gerber Fmt 4.6, Leading zero omitted, Abs format (unit mm)*
G04 Created by KiCad (PCBNEW (6.0.10)) date 2023-01-13 18:11:07*
%MOMM*%
%LPD*%
G01*
G04 APERTURE LIST*
G04 Aperture macros list*
%AMRoundRect*
0 Rectangle with rounded corners*
0 $1 Rounding radius*
0 $2 $3 $4 $5 $6 $7 $8 $9 X,Y pos of 4 corners*
0 Add a 4 corners polygon primitive as box body*
4,1,4,$2,$3,$4,$5,$6,$7,$8,$9,$2,$3,0*
0 Add four circle primitives for the rounded corners*
1,1,$1+$1,$2,$3*
1,1,$1+$1,$4,$5*
1,1,$1+$1,$6,$7*
1,1,$1+$1,$8,$9*
0 Add four rect primitives between the rounded corners*
20,1,$1+$1,$2,$3,$4,$5,0*
20,1,$1+$1,$4,$5,$6,$7,0*
20,1,$1+$1,$6,$7,$8,$9,0*
20,1,$1+$1,$8,$9,$2,$3,0*%
G04 Aperture macros list end*
%ADD10RoundRect,0.250000X0.450000X-0.262500X0.450000X0.262500X-0.450000X0.262500X-0.450000X-0.262500X0*%
%ADD11RoundRect,0.250000X-0.262500X-0.450000X0.262500X-0.450000X0.262500X0.450000X-0.262500X0.450000X0*%
%ADD12RoundRect,0.250000X-0.475000X0.250000X-0.475000X-0.250000X0.475000X-0.250000X0.475000X0.250000X0*%
%ADD13RoundRect,0.250000X-0.250000X-0.475000X0.250000X-0.475000X0.250000X0.475000X-0.250000X0.475000X0*%
%ADD14RoundRect,0.162500X-1.012500X-0.162500X1.012500X-0.162500X1.012500X0.162500X-1.012500X0.162500X0*%
%ADD15RoundRect,0.250000X-0.450000X0.262500X-0.450000X-0.262500X0.450000X-0.262500X0.450000X0.262500X0*%
%ADD16RoundRect,0.250000X0.262500X0.450000X-0.262500X0.450000X-0.262500X-0.450000X0.262500X-0.450000X0*%
%ADD17RoundRect,0.250000X0.250000X0.475000X-0.250000X0.475000X-0.250000X-0.475000X0.250000X-0.475000X0*%
%ADD18RoundRect,0.150000X0.150000X-0.875000X0.150000X0.875000X-0.150000X0.875000X-0.150000X-0.875000X0*%
G04 APERTURE END LIST*
D10*
%TO.C,R4*%
X126500000Y-62612500D03*
X126500000Y-60787500D03*
%TD*%
%TO.C,R5*%
X93900000Y-63612500D03*
X93900000Y-61787500D03*
%TD*%
D11*
%TO.C,R14*%
X114787500Y-71000000D03*
X116612500Y-71000000D03*
%TD*%
D12*
%TO.C,C3*%
X139200000Y-66050000D03*
X139200000Y-67950000D03*
%TD*%
D13*
%TO.C,C9*%
X125450000Y-92100000D03*
X123550000Y-92100000D03*
%TD*%
D14*
%TO.C,U2*%
X138275000Y-79290000D03*
X138275000Y-81830000D03*
X138275000Y-84370000D03*
X138275000Y-86910000D03*
X147325000Y-86910000D03*
X147325000Y-84370000D03*
X147325000Y-81830000D03*
X147325000Y-79290000D03*
%TD*%
D15*
%TO.C,R3*%
X133300000Y-60787500D03*
X133300000Y-62612500D03*
%TD*%
D13*
%TO.C,C7*%
X150050000Y-61822224D03*
X151950000Y-61822224D03*
%TD*%
%TO.C,C2*%
X150050000Y-68538888D03*
X151950000Y-68538888D03*
%TD*%
D10*
%TO.C,R6*%
X93900000Y-59412500D03*
X93900000Y-57587500D03*
%TD*%
D11*
%TO.C,R7*%
X97187500Y-70900000D03*
X99012500Y-70900000D03*
%TD*%
%TO.C,R8*%
X100887500Y-70900000D03*
X102712500Y-70900000D03*
%TD*%
D16*
%TO.C,R1*%
X152412500Y-94400000D03*
X150587500Y-94400000D03*
%TD*%
D13*
%TO.C,C6*%
X150050000Y-64061112D03*
X151950000Y-64061112D03*
%TD*%
D11*
%TO.C,R12*%
X114587500Y-57200000D03*
X116412500Y-57200000D03*
%TD*%
D17*
%TO.C,C10*%
X125550000Y-79800000D03*
X123650000Y-79800000D03*
%TD*%
D11*
%TO.C,R13*%
X110887500Y-71000000D03*
X112712500Y-71000000D03*
%TD*%
D10*
%TO.C,R10*%
X130900000Y-83856250D03*
X130900000Y-82031250D03*
%TD*%
D12*
%TO.C,C5*%
X151900000Y-78450000D03*
X151900000Y-80350000D03*
%TD*%
D18*
%TO.C,U1*%
X125920000Y-75250000D03*
X127190000Y-75250000D03*
X128460000Y-75250000D03*
X129730000Y-75250000D03*
X131000000Y-75250000D03*
X132270000Y-75250000D03*
X133540000Y-75250000D03*
X134810000Y-75250000D03*
X136080000Y-75250000D03*
X136080000Y-65950000D03*
X134810000Y-65950000D03*
X133540000Y-65950000D03*
X132270000Y-65950000D03*
X131000000Y-65950000D03*
X129730000Y-65950000D03*
X128460000Y-65950000D03*
X127190000Y-65950000D03*
X125920000Y-65950000D03*
%TD*%
D10*
%TO.C,R9*%
X130900000Y-87568750D03*
X130900000Y-85743750D03*
%TD*%
%TO.C,R2*%
X128800000Y-62612500D03*
X128800000Y-60787500D03*
%TD*%
D13*
%TO.C,C1*%
X150050000Y-70777780D03*
X151950000Y-70777780D03*
%TD*%
D11*
%TO.C,R11*%
X110887500Y-57200000D03*
X112712500Y-57200000D03*
%TD*%
D13*
%TO.C,C8*%
X150050000Y-59583336D03*
X151950000Y-59583336D03*
%TD*%
%TO.C,C11*%
X123550000Y-89800000D03*
X125450000Y-89800000D03*
%TD*%
%TO.C,C4*%
X150050000Y-66300000D03*
X151950000Y-66300000D03*
%TD*%
M02*
