%TF.GenerationSoftware,KiCad,Pcbnew,(6.0.10)*%
%TF.CreationDate,2023-01-13T18:11:07+01:00*%
%TF.ProjectId,InterfaceS88GleisboxRPi,496e7465-7266-4616-9365-533838476c65,rev?*%
%TF.SameCoordinates,Original*%
%TF.FileFunction,Soldermask,Bot*%
%TF.FilePolarity,Negative*%
%FSLAX46Y46*%
G04 Gerber Fmt 4.6, Leading zero omitted, Abs format (unit mm)*
G04 Created by KiCad (PCBNEW (6.0.10)) date 2023-01-13 18:11:07*
%MOMM*%
%LPD*%
G01*
G04 APERTURE LIST*
%ADD10R,3.000000X3.000000*%
%ADD11C,3.000000*%
%ADD12C,3.450000*%
%ADD13C,1.650000*%
%ADD14R,1.500000X1.500000*%
%ADD15C,3.251200*%
%ADD16C,1.397000*%
%ADD17C,6.200000*%
%ADD18R,1.500000X1.050000*%
%ADD19O,1.500000X1.050000*%
%ADD20R,1.700000X1.700000*%
%ADD21O,1.700000X1.700000*%
%ADD22R,1.600000X1.600000*%
%ADD23O,1.600000X1.600000*%
%ADD24C,2.300000*%
G04 APERTURE END LIST*
D10*
%TO.C,J5*%
X95000000Y-93900000D03*
D11*
X95000000Y-88820000D03*
%TD*%
D12*
%TO.C,J2*%
X130850000Y-98000000D03*
X145350000Y-98000000D03*
X138100000Y-98800000D03*
D13*
X142100000Y-92500000D03*
X140100000Y-92500000D03*
X134100000Y-92500000D03*
X142100000Y-95000000D03*
X138100000Y-92500000D03*
X136100000Y-92500000D03*
X134100000Y-95000000D03*
X140100000Y-95000000D03*
X138100000Y-95000000D03*
D14*
X136100000Y-95000000D03*
%TD*%
D15*
%TO.C,J4*%
X106540000Y-95900000D03*
X117970000Y-95900000D03*
D16*
X116700000Y-87000000D03*
X115430000Y-89540000D03*
X114160000Y-87000000D03*
X112890000Y-89540000D03*
X111620000Y-87000000D03*
X110350000Y-89540000D03*
X109080000Y-87000000D03*
X107810000Y-89540000D03*
%TD*%
D17*
%TO.C,*%
X152000000Y-51800000D03*
%TD*%
%TO.C,*%
X94000000Y-51800000D03*
%TD*%
%TO.C,*%
X94000000Y-100800000D03*
%TD*%
%TO.C,*%
X152000000Y-100800000D03*
%TD*%
D18*
%TO.C,U4*%
X125660000Y-86170000D03*
D19*
X125660000Y-84900000D03*
X125660000Y-83630000D03*
%TD*%
D20*
%TO.C,J3*%
X152000000Y-88080000D03*
D21*
X152000000Y-90620000D03*
%TD*%
D22*
%TO.C,U6*%
X111000000Y-67600000D03*
D23*
X113540000Y-67600000D03*
X116080000Y-67600000D03*
X118620000Y-67600000D03*
X118620000Y-59980000D03*
X116080000Y-59980000D03*
X113540000Y-59980000D03*
X111000000Y-59980000D03*
%TD*%
D22*
%TO.C,U7*%
X111100000Y-81900000D03*
D23*
X113640000Y-81900000D03*
X116180000Y-81900000D03*
X118720000Y-81900000D03*
X118720000Y-74280000D03*
X116180000Y-74280000D03*
X113640000Y-74280000D03*
X111100000Y-74280000D03*
%TD*%
D22*
%TO.C,U5*%
X98100000Y-81800000D03*
D23*
X100640000Y-81800000D03*
X103180000Y-81800000D03*
X105720000Y-81800000D03*
X105720000Y-74180000D03*
X103180000Y-74180000D03*
X100640000Y-74180000D03*
X98100000Y-74180000D03*
%TD*%
D22*
%TO.C,U8*%
X97900000Y-67800000D03*
D23*
X100440000Y-67800000D03*
X102980000Y-67800000D03*
X105520000Y-67800000D03*
X105520000Y-60180000D03*
X102980000Y-60180000D03*
X100440000Y-60180000D03*
X97900000Y-60180000D03*
%TD*%
D24*
%TO.C,Y1*%
X144300000Y-72550000D03*
X144300000Y-67650000D03*
%TD*%
D20*
%TO.C,J1*%
X98900000Y-53100000D03*
D21*
X98900000Y-50560000D03*
X101440000Y-53100000D03*
X101440000Y-50560000D03*
X103980000Y-53100000D03*
X103980000Y-50560000D03*
X106520000Y-53100000D03*
X106520000Y-50560000D03*
X109060000Y-53100000D03*
X109060000Y-50560000D03*
X111600000Y-53100000D03*
X111600000Y-50560000D03*
X114140000Y-53100000D03*
X114140000Y-50560000D03*
X116680000Y-53100000D03*
X116680000Y-50560000D03*
X119220000Y-53100000D03*
X119220000Y-50560000D03*
X121760000Y-53100000D03*
X121760000Y-50560000D03*
X124300000Y-53100000D03*
X124300000Y-50560000D03*
X126840000Y-53100000D03*
X126840000Y-50560000D03*
X129380000Y-53100000D03*
X129380000Y-50560000D03*
X131920000Y-53100000D03*
X131920000Y-50560000D03*
X134460000Y-53100000D03*
X134460000Y-50560000D03*
X137000000Y-53100000D03*
X137000000Y-50560000D03*
X139540000Y-53100000D03*
X139540000Y-50560000D03*
X142080000Y-53100000D03*
X142080000Y-50560000D03*
X144620000Y-53100000D03*
X144620000Y-50560000D03*
X147160000Y-53100000D03*
X147160000Y-50560000D03*
%TD*%
M02*
