M48
; DRILL file {KiCad (6.0.10)} date Fri Jan 13 18:04:32 2023
; FORMAT={-:-/ absolute / metric / decimal}
; #@! TF.CreationDate,2023-01-13T18:04:32+01:00
; #@! TF.GenerationSoftware,Kicad,Pcbnew,(6.0.10)
; #@! TF.FileFunction,Plated,1,2,PTH
FMAT,2
METRIC
; #@! TA.AperFunction,Plated,PTH,ViaDrill
T1C0.400
; #@! TA.AperFunction,Plated,PTH,ComponentDrill
T2C0.750
; #@! TA.AperFunction,Plated,PTH,ComponentDrill
T3C0.800
; #@! TA.AperFunction,Plated,PTH,ComponentDrill
T4C0.889
; #@! TA.AperFunction,Plated,PTH,ComponentDrill
T5C1.000
; #@! TA.AperFunction,Plated,PTH,ComponentDrill
T6C1.075
; #@! TA.AperFunction,Plated,PTH,ComponentDrill
T7C1.100
; #@! TA.AperFunction,Plated,PTH,ComponentDrill
T8C1.500
; #@! TA.AperFunction,Plated,PTH,ComponentDrill
T9C1.520
; #@! TA.AperFunction,Plated,PTH,ComponentDrill
T10C2.300
%
G90
G05
T1
X116.7Y-84.2
X118.0Y-57.3
X118.7Y-79.4
X123.5Y-63.0
X125.5Y-58.2
X128.7Y-70.5
X129.2Y-68.4
X135.8Y-79.3
X140.8Y-66.2
X151.9Y-75.5
X153.6Y-77.6
T2
X125.66Y-83.63
X125.66Y-84.9
X125.66Y-86.17
T3
X97.9Y-60.18
X97.9Y-67.8
X98.1Y-74.18
X98.1Y-81.8
X100.44Y-60.18
X100.44Y-67.8
X100.64Y-74.18
X100.64Y-81.8
X102.98Y-60.18
X102.98Y-67.8
X103.18Y-74.18
X103.18Y-81.8
X105.52Y-60.18
X105.52Y-67.8
X105.72Y-74.18
X105.72Y-81.8
X111.0Y-59.98
X111.0Y-67.6
X111.1Y-74.28
X111.1Y-81.9
X113.54Y-59.98
X113.54Y-67.6
X113.64Y-74.28
X113.64Y-81.9
X116.08Y-59.98
X116.08Y-67.6
X116.18Y-74.28
X116.18Y-81.9
X118.62Y-59.98
X118.62Y-67.6
X118.72Y-74.28
X118.72Y-81.9
T4
X107.81Y-89.54
X109.08Y-87.0
X110.35Y-89.54
X111.62Y-87.0
X112.89Y-89.54
X114.16Y-87.0
X115.43Y-89.54
X116.7Y-87.0
T5
X98.9Y-50.56
X98.9Y-53.1
X101.44Y-50.56
X101.44Y-53.1
X103.98Y-50.56
X103.98Y-53.1
X106.52Y-50.56
X106.52Y-53.1
X109.06Y-50.56
X109.06Y-53.1
X111.6Y-50.56
X111.6Y-53.1
X114.14Y-50.56
X114.14Y-53.1
X116.68Y-50.56
X116.68Y-53.1
X119.22Y-50.56
X119.22Y-53.1
X121.76Y-50.56
X121.76Y-53.1
X124.3Y-50.56
X124.3Y-53.1
X126.84Y-50.56
X126.84Y-53.1
X129.38Y-50.56
X129.38Y-53.1
X131.92Y-50.56
X131.92Y-53.1
X134.46Y-50.56
X134.46Y-53.1
X137.0Y-50.56
X137.0Y-53.1
X139.54Y-50.56
X139.54Y-53.1
X142.08Y-50.56
X142.08Y-53.1
X144.62Y-50.56
X144.62Y-53.1
X147.16Y-50.56
X147.16Y-53.1
X152.0Y-88.08
X152.0Y-90.62
T6
X137.445Y-61.32
X139.985Y-61.32
X142.525Y-61.32
X145.065Y-61.32
T7
X134.1Y-92.5
X134.1Y-95.0
X136.1Y-92.5
X136.1Y-95.0
X138.1Y-92.5
X138.1Y-95.0
X140.1Y-92.5
X140.1Y-95.0
X142.1Y-92.5
X142.1Y-95.0
T8
X144.3Y-67.65
X144.3Y-72.55
T9
X95.0Y-88.82
X95.0Y-93.9
T10
X130.85Y-98.0
X138.1Y-98.8
X145.35Y-98.0
T0
M30
