%TF.GenerationSoftware,KiCad,Pcbnew,(6.0.10)*%
%TF.CreationDate,2023-01-13T18:04:44+01:00*%
%TF.ProjectId,InterfaceS88GleisboxRPi,496e7465-7266-4616-9365-533838476c65,rev?*%
%TF.SameCoordinates,Original*%
%TF.FileFunction,Drillmap*%
%TF.FilePolarity,Positive*%
%FSLAX45Y45*%
G04 Gerber Fmt 4.5, Leading zero omitted, Abs format (unit mm)*
G04 Created by KiCad (PCBNEW (6.0.10)) date 2023-01-13 18:04:44*
%MOMM*%
%LPD*%
G01*
G04 APERTURE LIST*
%ADD10C,0.100000*%
%ADD11C,0.200000*%
%ADD12C,0.040000*%
%ADD13C,0.075000*%
%ADD14C,0.080000*%
%ADD15C,0.088900*%
%ADD16C,0.107500*%
%ADD17C,0.110000*%
%ADD18C,0.150000*%
%ADD19C,0.152000*%
%ADD20C,0.230000*%
G04 APERTURE END LIST*
D10*
X15550000Y-5080000D02*
G75*
G03*
X15250000Y-4780000I-300000J0D01*
G01*
X9350000Y-4780000D02*
G75*
G03*
X9050000Y-5080000I0J-300000D01*
G01*
X9050000Y-10130000D02*
G75*
G03*
X9350000Y-10430000I300000J0D01*
G01*
X15250000Y-10430000D02*
G75*
G03*
X15550000Y-10130000I0J300000D01*
G01*
X9050000Y-6680000D02*
G75*
G03*
X9150000Y-6780000I100000J0D01*
G01*
X9550000Y-6880000D02*
G75*
G03*
X9450000Y-6780000I-100000J0D01*
G01*
X9450000Y-8480000D02*
G75*
G03*
X9550000Y-8380000I0J100000D01*
G01*
X9150000Y-8480000D02*
G75*
G03*
X9050000Y-8580000I0J-100000D01*
G01*
X9550000Y-6880000D02*
X9550000Y-8380000D01*
X9350000Y-4780000D02*
X15250000Y-4780000D01*
X9050000Y-8580000D02*
X9050000Y-10130000D01*
X9150000Y-8480000D02*
X9450000Y-8480000D01*
X9050000Y-5080000D02*
X9050000Y-6680000D01*
X9350000Y-10430000D02*
X15250000Y-10430000D01*
X15550000Y-5080000D02*
X15550000Y-10130000D01*
X9150000Y-6780000D02*
X9450000Y-6780000D01*
D11*
D12*
X11650000Y-8400000D02*
X11690000Y-8440000D01*
X11690000Y-8400000D02*
X11650000Y-8440000D01*
X11780000Y-5710000D02*
X11820000Y-5750000D01*
X11820000Y-5710000D02*
X11780000Y-5750000D01*
X11850000Y-7920000D02*
X11890000Y-7960000D01*
X11890000Y-7920000D02*
X11850000Y-7960000D01*
X12330000Y-6280000D02*
X12370000Y-6320000D01*
X12370000Y-6280000D02*
X12330000Y-6320000D01*
X12530000Y-5800000D02*
X12570000Y-5840000D01*
X12570000Y-5800000D02*
X12530000Y-5840000D01*
X12850000Y-7030000D02*
X12890000Y-7070000D01*
X12890000Y-7030000D02*
X12850000Y-7070000D01*
X12900000Y-6820000D02*
X12940000Y-6860000D01*
X12940000Y-6820000D02*
X12900000Y-6860000D01*
X13560000Y-7910000D02*
X13600000Y-7950000D01*
X13600000Y-7910000D02*
X13560000Y-7950000D01*
X14060000Y-6600000D02*
X14100000Y-6640000D01*
X14100000Y-6600000D02*
X14060000Y-6640000D01*
X15170000Y-7530000D02*
X15210000Y-7570000D01*
X15210000Y-7530000D02*
X15170000Y-7570000D01*
X15340000Y-7740000D02*
X15380000Y-7780000D01*
X15380000Y-7740000D02*
X15340000Y-7780000D01*
D13*
X12603500Y-8363000D02*
G75*
G03*
X12603500Y-8363000I-37500J0D01*
G01*
X12603500Y-8490000D02*
G75*
G03*
X12603500Y-8490000I-37500J0D01*
G01*
X12603500Y-8617000D02*
G75*
G03*
X12603500Y-8617000I-37500J0D01*
G01*
D14*
X9790000Y-5978000D02*
X9790000Y-6058000D01*
X9750000Y-6018000D02*
X9830000Y-6018000D01*
X9790000Y-6740000D02*
X9790000Y-6820000D01*
X9750000Y-6780000D02*
X9830000Y-6780000D01*
X9810000Y-7378000D02*
X9810000Y-7458000D01*
X9770000Y-7418000D02*
X9850000Y-7418000D01*
X9810000Y-8140000D02*
X9810000Y-8220000D01*
X9770000Y-8180000D02*
X9850000Y-8180000D01*
X10044000Y-5978000D02*
X10044000Y-6058000D01*
X10004000Y-6018000D02*
X10084000Y-6018000D01*
X10044000Y-6740000D02*
X10044000Y-6820000D01*
X10004000Y-6780000D02*
X10084000Y-6780000D01*
X10064000Y-7378000D02*
X10064000Y-7458000D01*
X10024000Y-7418000D02*
X10104000Y-7418000D01*
X10064000Y-8140000D02*
X10064000Y-8220000D01*
X10024000Y-8180000D02*
X10104000Y-8180000D01*
X10298000Y-5978000D02*
X10298000Y-6058000D01*
X10258000Y-6018000D02*
X10338000Y-6018000D01*
X10298000Y-6740000D02*
X10298000Y-6820000D01*
X10258000Y-6780000D02*
X10338000Y-6780000D01*
X10318000Y-7378000D02*
X10318000Y-7458000D01*
X10278000Y-7418000D02*
X10358000Y-7418000D01*
X10318000Y-8140000D02*
X10318000Y-8220000D01*
X10278000Y-8180000D02*
X10358000Y-8180000D01*
X10552000Y-5978000D02*
X10552000Y-6058000D01*
X10512000Y-6018000D02*
X10592000Y-6018000D01*
X10552000Y-6740000D02*
X10552000Y-6820000D01*
X10512000Y-6780000D02*
X10592000Y-6780000D01*
X10572000Y-7378000D02*
X10572000Y-7458000D01*
X10532000Y-7418000D02*
X10612000Y-7418000D01*
X10572000Y-8140000D02*
X10572000Y-8220000D01*
X10532000Y-8180000D02*
X10612000Y-8180000D01*
X11100000Y-5958000D02*
X11100000Y-6038000D01*
X11060000Y-5998000D02*
X11140000Y-5998000D01*
X11100000Y-6720000D02*
X11100000Y-6800000D01*
X11060000Y-6760000D02*
X11140000Y-6760000D01*
X11110000Y-7388000D02*
X11110000Y-7468000D01*
X11070000Y-7428000D02*
X11150000Y-7428000D01*
X11110000Y-8150000D02*
X11110000Y-8230000D01*
X11070000Y-8190000D02*
X11150000Y-8190000D01*
X11354000Y-5958000D02*
X11354000Y-6038000D01*
X11314000Y-5998000D02*
X11394000Y-5998000D01*
X11354000Y-6720000D02*
X11354000Y-6800000D01*
X11314000Y-6760000D02*
X11394000Y-6760000D01*
X11364000Y-7388000D02*
X11364000Y-7468000D01*
X11324000Y-7428000D02*
X11404000Y-7428000D01*
X11364000Y-8150000D02*
X11364000Y-8230000D01*
X11324000Y-8190000D02*
X11404000Y-8190000D01*
X11608000Y-5958000D02*
X11608000Y-6038000D01*
X11568000Y-5998000D02*
X11648000Y-5998000D01*
X11608000Y-6720000D02*
X11608000Y-6800000D01*
X11568000Y-6760000D02*
X11648000Y-6760000D01*
X11618000Y-7388000D02*
X11618000Y-7468000D01*
X11578000Y-7428000D02*
X11658000Y-7428000D01*
X11618000Y-8150000D02*
X11618000Y-8230000D01*
X11578000Y-8190000D02*
X11658000Y-8190000D01*
X11862000Y-5958000D02*
X11862000Y-6038000D01*
X11822000Y-5998000D02*
X11902000Y-5998000D01*
X11862000Y-6720000D02*
X11862000Y-6800000D01*
X11822000Y-6760000D02*
X11902000Y-6760000D01*
X11872000Y-7388000D02*
X11872000Y-7468000D01*
X11832000Y-7428000D02*
X11912000Y-7428000D01*
X11872000Y-8150000D02*
X11872000Y-8230000D01*
X11832000Y-8190000D02*
X11912000Y-8190000D01*
D15*
X10812431Y-8985431D02*
X10812431Y-8922569D01*
X10749569Y-8922569D01*
X10749569Y-8985431D01*
X10812431Y-8985431D01*
X10939431Y-8731431D02*
X10939431Y-8668569D01*
X10876569Y-8668569D01*
X10876569Y-8731431D01*
X10939431Y-8731431D01*
X11066431Y-8985431D02*
X11066431Y-8922569D01*
X11003569Y-8922569D01*
X11003569Y-8985431D01*
X11066431Y-8985431D01*
X11193431Y-8731431D02*
X11193431Y-8668569D01*
X11130569Y-8668569D01*
X11130569Y-8731431D01*
X11193431Y-8731431D01*
X11320431Y-8985431D02*
X11320431Y-8922569D01*
X11257569Y-8922569D01*
X11257569Y-8985431D01*
X11320431Y-8985431D01*
X11447431Y-8731431D02*
X11447431Y-8668569D01*
X11384569Y-8668569D01*
X11384569Y-8731431D01*
X11447431Y-8731431D01*
X11574431Y-8985431D02*
X11574431Y-8922569D01*
X11511569Y-8922569D01*
X11511569Y-8985431D01*
X11574431Y-8985431D01*
X11701431Y-8731431D02*
X11701431Y-8668569D01*
X11638569Y-8668569D01*
X11638569Y-8731431D01*
X11701431Y-8731431D01*
D10*
X9890000Y-5106000D02*
X9940000Y-5056000D01*
X9890000Y-5006000D01*
X9840000Y-5056000D01*
X9890000Y-5106000D01*
X9890000Y-5360000D02*
X9940000Y-5310000D01*
X9890000Y-5260000D01*
X9840000Y-5310000D01*
X9890000Y-5360000D01*
X10144000Y-5106000D02*
X10194000Y-5056000D01*
X10144000Y-5006000D01*
X10094000Y-5056000D01*
X10144000Y-5106000D01*
X10144000Y-5360000D02*
X10194000Y-5310000D01*
X10144000Y-5260000D01*
X10094000Y-5310000D01*
X10144000Y-5360000D01*
X10398000Y-5106000D02*
X10448000Y-5056000D01*
X10398000Y-5006000D01*
X10348000Y-5056000D01*
X10398000Y-5106000D01*
X10398000Y-5360000D02*
X10448000Y-5310000D01*
X10398000Y-5260000D01*
X10348000Y-5310000D01*
X10398000Y-5360000D01*
X10652000Y-5106000D02*
X10702000Y-5056000D01*
X10652000Y-5006000D01*
X10602000Y-5056000D01*
X10652000Y-5106000D01*
X10652000Y-5360000D02*
X10702000Y-5310000D01*
X10652000Y-5260000D01*
X10602000Y-5310000D01*
X10652000Y-5360000D01*
X10906000Y-5106000D02*
X10956000Y-5056000D01*
X10906000Y-5006000D01*
X10856000Y-5056000D01*
X10906000Y-5106000D01*
X10906000Y-5360000D02*
X10956000Y-5310000D01*
X10906000Y-5260000D01*
X10856000Y-5310000D01*
X10906000Y-5360000D01*
X11160000Y-5106000D02*
X11210000Y-5056000D01*
X11160000Y-5006000D01*
X11110000Y-5056000D01*
X11160000Y-5106000D01*
X11160000Y-5360000D02*
X11210000Y-5310000D01*
X11160000Y-5260000D01*
X11110000Y-5310000D01*
X11160000Y-5360000D01*
X11414000Y-5106000D02*
X11464000Y-5056000D01*
X11414000Y-5006000D01*
X11364000Y-5056000D01*
X11414000Y-5106000D01*
X11414000Y-5360000D02*
X11464000Y-5310000D01*
X11414000Y-5260000D01*
X11364000Y-5310000D01*
X11414000Y-5360000D01*
X11668000Y-5106000D02*
X11718000Y-5056000D01*
X11668000Y-5006000D01*
X11618000Y-5056000D01*
X11668000Y-5106000D01*
X11668000Y-5360000D02*
X11718000Y-5310000D01*
X11668000Y-5260000D01*
X11618000Y-5310000D01*
X11668000Y-5360000D01*
X11922000Y-5106000D02*
X11972000Y-5056000D01*
X11922000Y-5006000D01*
X11872000Y-5056000D01*
X11922000Y-5106000D01*
X11922000Y-5360000D02*
X11972000Y-5310000D01*
X11922000Y-5260000D01*
X11872000Y-5310000D01*
X11922000Y-5360000D01*
X12176000Y-5106000D02*
X12226000Y-5056000D01*
X12176000Y-5006000D01*
X12126000Y-5056000D01*
X12176000Y-5106000D01*
X12176000Y-5360000D02*
X12226000Y-5310000D01*
X12176000Y-5260000D01*
X12126000Y-5310000D01*
X12176000Y-5360000D01*
X12430000Y-5106000D02*
X12480000Y-5056000D01*
X12430000Y-5006000D01*
X12380000Y-5056000D01*
X12430000Y-5106000D01*
X12430000Y-5360000D02*
X12480000Y-5310000D01*
X12430000Y-5260000D01*
X12380000Y-5310000D01*
X12430000Y-5360000D01*
X12684000Y-5106000D02*
X12734000Y-5056000D01*
X12684000Y-5006000D01*
X12634000Y-5056000D01*
X12684000Y-5106000D01*
X12684000Y-5360000D02*
X12734000Y-5310000D01*
X12684000Y-5260000D01*
X12634000Y-5310000D01*
X12684000Y-5360000D01*
X12938000Y-5106000D02*
X12988000Y-5056000D01*
X12938000Y-5006000D01*
X12888000Y-5056000D01*
X12938000Y-5106000D01*
X12938000Y-5360000D02*
X12988000Y-5310000D01*
X12938000Y-5260000D01*
X12888000Y-5310000D01*
X12938000Y-5360000D01*
X13192000Y-5106000D02*
X13242000Y-5056000D01*
X13192000Y-5006000D01*
X13142000Y-5056000D01*
X13192000Y-5106000D01*
X13192000Y-5360000D02*
X13242000Y-5310000D01*
X13192000Y-5260000D01*
X13142000Y-5310000D01*
X13192000Y-5360000D01*
X13446000Y-5106000D02*
X13496000Y-5056000D01*
X13446000Y-5006000D01*
X13396000Y-5056000D01*
X13446000Y-5106000D01*
X13446000Y-5360000D02*
X13496000Y-5310000D01*
X13446000Y-5260000D01*
X13396000Y-5310000D01*
X13446000Y-5360000D01*
X13700000Y-5106000D02*
X13750000Y-5056000D01*
X13700000Y-5006000D01*
X13650000Y-5056000D01*
X13700000Y-5106000D01*
X13700000Y-5360000D02*
X13750000Y-5310000D01*
X13700000Y-5260000D01*
X13650000Y-5310000D01*
X13700000Y-5360000D01*
X13954000Y-5106000D02*
X14004000Y-5056000D01*
X13954000Y-5006000D01*
X13904000Y-5056000D01*
X13954000Y-5106000D01*
X13954000Y-5360000D02*
X14004000Y-5310000D01*
X13954000Y-5260000D01*
X13904000Y-5310000D01*
X13954000Y-5360000D01*
X14208000Y-5106000D02*
X14258000Y-5056000D01*
X14208000Y-5006000D01*
X14158000Y-5056000D01*
X14208000Y-5106000D01*
X14208000Y-5360000D02*
X14258000Y-5310000D01*
X14208000Y-5260000D01*
X14158000Y-5310000D01*
X14208000Y-5360000D01*
X14462000Y-5106000D02*
X14512000Y-5056000D01*
X14462000Y-5006000D01*
X14412000Y-5056000D01*
X14462000Y-5106000D01*
X14462000Y-5360000D02*
X14512000Y-5310000D01*
X14462000Y-5260000D01*
X14412000Y-5310000D01*
X14462000Y-5360000D01*
X14716000Y-5106000D02*
X14766000Y-5056000D01*
X14716000Y-5006000D01*
X14666000Y-5056000D01*
X14716000Y-5106000D01*
X14716000Y-5360000D02*
X14766000Y-5310000D01*
X14716000Y-5260000D01*
X14666000Y-5310000D01*
X14716000Y-5360000D01*
X15200000Y-8858000D02*
X15250000Y-8808000D01*
X15200000Y-8758000D01*
X15150000Y-8808000D01*
X15200000Y-8858000D01*
X15200000Y-9112000D02*
X15250000Y-9062000D01*
X15200000Y-9012000D01*
X15150000Y-9062000D01*
X15200000Y-9112000D01*
D16*
X13690750Y-6078250D02*
X13798250Y-6185750D01*
X13798250Y-6078250D02*
X13690750Y-6185750D01*
X13798250Y-6132000D02*
G75*
G03*
X13798250Y-6132000I-53750J0D01*
G01*
X13944750Y-6078250D02*
X14052250Y-6185750D01*
X14052250Y-6078250D02*
X13944750Y-6185750D01*
X14052250Y-6132000D02*
G75*
G03*
X14052250Y-6132000I-53750J0D01*
G01*
X14198750Y-6078250D02*
X14306250Y-6185750D01*
X14306250Y-6078250D02*
X14198750Y-6185750D01*
X14306250Y-6132000D02*
G75*
G03*
X14306250Y-6132000I-53750J0D01*
G01*
X14452750Y-6078250D02*
X14560250Y-6185750D01*
X14560250Y-6078250D02*
X14452750Y-6185750D01*
X14560250Y-6132000D02*
G75*
G03*
X14560250Y-6132000I-53750J0D01*
G01*
D17*
X13355000Y-9195000D02*
X13465000Y-9305000D01*
X13465000Y-9195000D02*
X13355000Y-9305000D01*
X13410000Y-9195000D02*
X13410000Y-9305000D01*
X13355000Y-9250000D02*
X13465000Y-9250000D01*
X13355000Y-9445000D02*
X13465000Y-9555000D01*
X13465000Y-9445000D02*
X13355000Y-9555000D01*
X13410000Y-9445000D02*
X13410000Y-9555000D01*
X13355000Y-9500000D02*
X13465000Y-9500000D01*
X13555000Y-9195000D02*
X13665000Y-9305000D01*
X13665000Y-9195000D02*
X13555000Y-9305000D01*
X13610000Y-9195000D02*
X13610000Y-9305000D01*
X13555000Y-9250000D02*
X13665000Y-9250000D01*
X13555000Y-9445000D02*
X13665000Y-9555000D01*
X13665000Y-9445000D02*
X13555000Y-9555000D01*
X13610000Y-9445000D02*
X13610000Y-9555000D01*
X13555000Y-9500000D02*
X13665000Y-9500000D01*
X13755000Y-9195000D02*
X13865000Y-9305000D01*
X13865000Y-9195000D02*
X13755000Y-9305000D01*
X13810000Y-9195000D02*
X13810000Y-9305000D01*
X13755000Y-9250000D02*
X13865000Y-9250000D01*
X13755000Y-9445000D02*
X13865000Y-9555000D01*
X13865000Y-9445000D02*
X13755000Y-9555000D01*
X13810000Y-9445000D02*
X13810000Y-9555000D01*
X13755000Y-9500000D02*
X13865000Y-9500000D01*
X13955000Y-9195000D02*
X14065000Y-9305000D01*
X14065000Y-9195000D02*
X13955000Y-9305000D01*
X14010000Y-9195000D02*
X14010000Y-9305000D01*
X13955000Y-9250000D02*
X14065000Y-9250000D01*
X13955000Y-9445000D02*
X14065000Y-9555000D01*
X14065000Y-9445000D02*
X13955000Y-9555000D01*
X14010000Y-9445000D02*
X14010000Y-9555000D01*
X13955000Y-9500000D02*
X14065000Y-9500000D01*
X14155000Y-9195000D02*
X14265000Y-9305000D01*
X14265000Y-9195000D02*
X14155000Y-9305000D01*
X14210000Y-9195000D02*
X14210000Y-9305000D01*
X14155000Y-9250000D02*
X14265000Y-9250000D01*
X14155000Y-9445000D02*
X14265000Y-9555000D01*
X14265000Y-9445000D02*
X14155000Y-9555000D01*
X14210000Y-9445000D02*
X14210000Y-9555000D01*
X14155000Y-9500000D02*
X14265000Y-9500000D01*
D18*
X14355000Y-6690000D02*
X14505000Y-6840000D01*
X14505000Y-6690000D02*
X14355000Y-6840000D01*
X14483033Y-6818033D02*
X14483033Y-6711966D01*
X14376966Y-6711966D01*
X14376966Y-6818033D01*
X14483033Y-6818033D01*
X14355000Y-7180000D02*
X14505000Y-7330000D01*
X14505000Y-7180000D02*
X14355000Y-7330000D01*
X14483033Y-7308033D02*
X14483033Y-7201966D01*
X14376966Y-7201966D01*
X14376966Y-7308033D01*
X14483033Y-7308033D01*
D19*
X9424000Y-8806000D02*
X9576000Y-8958000D01*
X9576000Y-8806000D02*
X9424000Y-8958000D01*
X9500000Y-8958000D02*
X9576000Y-8882000D01*
X9500000Y-8806000D01*
X9424000Y-8882000D01*
X9500000Y-8958000D01*
X9424000Y-9314000D02*
X9576000Y-9466000D01*
X9576000Y-9314000D02*
X9424000Y-9466000D01*
X9500000Y-9466000D02*
X9576000Y-9390000D01*
X9500000Y-9314000D01*
X9424000Y-9390000D01*
X9500000Y-9466000D01*
D20*
X13085000Y-9685000D02*
X13085000Y-9915000D01*
X12970000Y-9800000D02*
X13200000Y-9800000D01*
X13200000Y-9800000D02*
G75*
G03*
X13200000Y-9800000I-115000J0D01*
G01*
X13810000Y-9765000D02*
X13810000Y-9995000D01*
X13695000Y-9880000D02*
X13925000Y-9880000D01*
X13925000Y-9880000D02*
G75*
G03*
X13925000Y-9880000I-115000J0D01*
G01*
X14535000Y-9685000D02*
X14535000Y-9915000D01*
X14420000Y-9800000D02*
X14650000Y-9800000D01*
X14650000Y-9800000D02*
G75*
G03*
X14650000Y-9800000I-115000J0D01*
G01*
D11*
X9302619Y-10745476D02*
X9302619Y-10545476D01*
X9350238Y-10545476D01*
X9378810Y-10555000D01*
X9397857Y-10574048D01*
X9407381Y-10593095D01*
X9416905Y-10631190D01*
X9416905Y-10659762D01*
X9407381Y-10697857D01*
X9397857Y-10716905D01*
X9378810Y-10735952D01*
X9350238Y-10745476D01*
X9302619Y-10745476D01*
X9502619Y-10745476D02*
X9502619Y-10612143D01*
X9502619Y-10650238D02*
X9512143Y-10631190D01*
X9521667Y-10621667D01*
X9540714Y-10612143D01*
X9559762Y-10612143D01*
X9626429Y-10745476D02*
X9626429Y-10612143D01*
X9626429Y-10545476D02*
X9616905Y-10555000D01*
X9626429Y-10564524D01*
X9635952Y-10555000D01*
X9626429Y-10545476D01*
X9626429Y-10564524D01*
X9750238Y-10745476D02*
X9731190Y-10735952D01*
X9721667Y-10716905D01*
X9721667Y-10545476D01*
X9855000Y-10745476D02*
X9835952Y-10735952D01*
X9826429Y-10716905D01*
X9826429Y-10545476D01*
X10083571Y-10745476D02*
X10083571Y-10545476D01*
X10150238Y-10688333D01*
X10216905Y-10545476D01*
X10216905Y-10745476D01*
X10397857Y-10745476D02*
X10397857Y-10640714D01*
X10388333Y-10621667D01*
X10369286Y-10612143D01*
X10331190Y-10612143D01*
X10312143Y-10621667D01*
X10397857Y-10735952D02*
X10378810Y-10745476D01*
X10331190Y-10745476D01*
X10312143Y-10735952D01*
X10302619Y-10716905D01*
X10302619Y-10697857D01*
X10312143Y-10678810D01*
X10331190Y-10669286D01*
X10378810Y-10669286D01*
X10397857Y-10659762D01*
X10493095Y-10612143D02*
X10493095Y-10812143D01*
X10493095Y-10621667D02*
X10512143Y-10612143D01*
X10550238Y-10612143D01*
X10569286Y-10621667D01*
X10578810Y-10631190D01*
X10588333Y-10650238D01*
X10588333Y-10707381D01*
X10578810Y-10726429D01*
X10569286Y-10735952D01*
X10550238Y-10745476D01*
X10512143Y-10745476D01*
X10493095Y-10735952D01*
X10674048Y-10726429D02*
X10683571Y-10735952D01*
X10674048Y-10745476D01*
X10664524Y-10735952D01*
X10674048Y-10726429D01*
X10674048Y-10745476D01*
X10674048Y-10621667D02*
X10683571Y-10631190D01*
X10674048Y-10640714D01*
X10664524Y-10631190D01*
X10674048Y-10621667D01*
X10674048Y-10640714D01*
D12*
X9005000Y-11055000D02*
X9045000Y-11095000D01*
X9045000Y-11055000D02*
X9005000Y-11095000D01*
D11*
X9340714Y-10965476D02*
X9359762Y-10965476D01*
X9378810Y-10975000D01*
X9388333Y-10984524D01*
X9397857Y-11003571D01*
X9407381Y-11041667D01*
X9407381Y-11089286D01*
X9397857Y-11127381D01*
X9388333Y-11146429D01*
X9378810Y-11155952D01*
X9359762Y-11165476D01*
X9340714Y-11165476D01*
X9321667Y-11155952D01*
X9312143Y-11146429D01*
X9302619Y-11127381D01*
X9293095Y-11089286D01*
X9293095Y-11041667D01*
X9302619Y-11003571D01*
X9312143Y-10984524D01*
X9321667Y-10975000D01*
X9340714Y-10965476D01*
X9493095Y-11146429D02*
X9502619Y-11155952D01*
X9493095Y-11165476D01*
X9483571Y-11155952D01*
X9493095Y-11146429D01*
X9493095Y-11165476D01*
X9674048Y-11032143D02*
X9674048Y-11165476D01*
X9626429Y-10955952D02*
X9578810Y-11098810D01*
X9702619Y-11098810D01*
X9816905Y-10965476D02*
X9835952Y-10965476D01*
X9855000Y-10975000D01*
X9864524Y-10984524D01*
X9874048Y-11003571D01*
X9883571Y-11041667D01*
X9883571Y-11089286D01*
X9874048Y-11127381D01*
X9864524Y-11146429D01*
X9855000Y-11155952D01*
X9835952Y-11165476D01*
X9816905Y-11165476D01*
X9797857Y-11155952D01*
X9788333Y-11146429D01*
X9778810Y-11127381D01*
X9769286Y-11089286D01*
X9769286Y-11041667D01*
X9778810Y-11003571D01*
X9788333Y-10984524D01*
X9797857Y-10975000D01*
X9816905Y-10965476D01*
X10007381Y-10965476D02*
X10026429Y-10965476D01*
X10045476Y-10975000D01*
X10055000Y-10984524D01*
X10064524Y-11003571D01*
X10074048Y-11041667D01*
X10074048Y-11089286D01*
X10064524Y-11127381D01*
X10055000Y-11146429D01*
X10045476Y-11155952D01*
X10026429Y-11165476D01*
X10007381Y-11165476D01*
X9988333Y-11155952D01*
X9978810Y-11146429D01*
X9969286Y-11127381D01*
X9959762Y-11089286D01*
X9959762Y-11041667D01*
X9969286Y-11003571D01*
X9978810Y-10984524D01*
X9988333Y-10975000D01*
X10007381Y-10965476D01*
X10159762Y-11165476D02*
X10159762Y-11032143D01*
X10159762Y-11051190D02*
X10169286Y-11041667D01*
X10188333Y-11032143D01*
X10216905Y-11032143D01*
X10235952Y-11041667D01*
X10245476Y-11060714D01*
X10245476Y-11165476D01*
X10245476Y-11060714D02*
X10255000Y-11041667D01*
X10274048Y-11032143D01*
X10302619Y-11032143D01*
X10321667Y-11041667D01*
X10331190Y-11060714D01*
X10331190Y-11165476D01*
X10426429Y-11165476D02*
X10426429Y-11032143D01*
X10426429Y-11051190D02*
X10435952Y-11041667D01*
X10455000Y-11032143D01*
X10483571Y-11032143D01*
X10502619Y-11041667D01*
X10512143Y-11060714D01*
X10512143Y-11165476D01*
X10512143Y-11060714D02*
X10521667Y-11041667D01*
X10540714Y-11032143D01*
X10569286Y-11032143D01*
X10588333Y-11041667D01*
X10597857Y-11060714D01*
X10597857Y-11165476D01*
X10988333Y-10955952D02*
X10816905Y-11213095D01*
X11245476Y-10965476D02*
X11264524Y-10965476D01*
X11283571Y-10975000D01*
X11293095Y-10984524D01*
X11302619Y-11003571D01*
X11312143Y-11041667D01*
X11312143Y-11089286D01*
X11302619Y-11127381D01*
X11293095Y-11146429D01*
X11283571Y-11155952D01*
X11264524Y-11165476D01*
X11245476Y-11165476D01*
X11226428Y-11155952D01*
X11216905Y-11146429D01*
X11207381Y-11127381D01*
X11197857Y-11089286D01*
X11197857Y-11041667D01*
X11207381Y-11003571D01*
X11216905Y-10984524D01*
X11226428Y-10975000D01*
X11245476Y-10965476D01*
X11397857Y-11146429D02*
X11407381Y-11155952D01*
X11397857Y-11165476D01*
X11388333Y-11155952D01*
X11397857Y-11146429D01*
X11397857Y-11165476D01*
X11531190Y-10965476D02*
X11550238Y-10965476D01*
X11569286Y-10975000D01*
X11578809Y-10984524D01*
X11588333Y-11003571D01*
X11597857Y-11041667D01*
X11597857Y-11089286D01*
X11588333Y-11127381D01*
X11578809Y-11146429D01*
X11569286Y-11155952D01*
X11550238Y-11165476D01*
X11531190Y-11165476D01*
X11512143Y-11155952D01*
X11502619Y-11146429D01*
X11493095Y-11127381D01*
X11483571Y-11089286D01*
X11483571Y-11041667D01*
X11493095Y-11003571D01*
X11502619Y-10984524D01*
X11512143Y-10975000D01*
X11531190Y-10965476D01*
X11788333Y-11165476D02*
X11674048Y-11165476D01*
X11731190Y-11165476D02*
X11731190Y-10965476D01*
X11712143Y-10994048D01*
X11693095Y-11013095D01*
X11674048Y-11022619D01*
X11969286Y-10965476D02*
X11874048Y-10965476D01*
X11864524Y-11060714D01*
X11874048Y-11051190D01*
X11893095Y-11041667D01*
X11940714Y-11041667D01*
X11959762Y-11051190D01*
X11969286Y-11060714D01*
X11978809Y-11079762D01*
X11978809Y-11127381D01*
X11969286Y-11146429D01*
X11959762Y-11155952D01*
X11940714Y-11165476D01*
X11893095Y-11165476D01*
X11874048Y-11155952D01*
X11864524Y-11146429D01*
X12045476Y-10965476D02*
X12178809Y-10965476D01*
X12093095Y-11165476D01*
X12245476Y-10965476D02*
X12245476Y-11003571D01*
X12321667Y-10965476D02*
X12321667Y-11003571D01*
X12616905Y-11241667D02*
X12607381Y-11232143D01*
X12588333Y-11203571D01*
X12578809Y-11184524D01*
X12569286Y-11155952D01*
X12559762Y-11108333D01*
X12559762Y-11070238D01*
X12569286Y-11022619D01*
X12578809Y-10994048D01*
X12588333Y-10975000D01*
X12607381Y-10946429D01*
X12616905Y-10936905D01*
X12797857Y-11165476D02*
X12683571Y-11165476D01*
X12740714Y-11165476D02*
X12740714Y-10965476D01*
X12721667Y-10994048D01*
X12702619Y-11013095D01*
X12683571Y-11022619D01*
X12988333Y-11165476D02*
X12874048Y-11165476D01*
X12931190Y-11165476D02*
X12931190Y-10965476D01*
X12912143Y-10994048D01*
X12893095Y-11013095D01*
X12874048Y-11022619D01*
X13226428Y-11165476D02*
X13226428Y-10965476D01*
X13312143Y-11165476D02*
X13312143Y-11060714D01*
X13302619Y-11041667D01*
X13283571Y-11032143D01*
X13255000Y-11032143D01*
X13235952Y-11041667D01*
X13226428Y-11051190D01*
X13435952Y-11165476D02*
X13416905Y-11155952D01*
X13407381Y-11146429D01*
X13397857Y-11127381D01*
X13397857Y-11070238D01*
X13407381Y-11051190D01*
X13416905Y-11041667D01*
X13435952Y-11032143D01*
X13464524Y-11032143D01*
X13483571Y-11041667D01*
X13493095Y-11051190D01*
X13502619Y-11070238D01*
X13502619Y-11127381D01*
X13493095Y-11146429D01*
X13483571Y-11155952D01*
X13464524Y-11165476D01*
X13435952Y-11165476D01*
X13616905Y-11165476D02*
X13597857Y-11155952D01*
X13588333Y-11136905D01*
X13588333Y-10965476D01*
X13769286Y-11155952D02*
X13750238Y-11165476D01*
X13712143Y-11165476D01*
X13693095Y-11155952D01*
X13683571Y-11136905D01*
X13683571Y-11060714D01*
X13693095Y-11041667D01*
X13712143Y-11032143D01*
X13750238Y-11032143D01*
X13769286Y-11041667D01*
X13778809Y-11060714D01*
X13778809Y-11079762D01*
X13683571Y-11098810D01*
X13855000Y-11155952D02*
X13874048Y-11165476D01*
X13912143Y-11165476D01*
X13931190Y-11155952D01*
X13940714Y-11136905D01*
X13940714Y-11127381D01*
X13931190Y-11108333D01*
X13912143Y-11098810D01*
X13883571Y-11098810D01*
X13864524Y-11089286D01*
X13855000Y-11070238D01*
X13855000Y-11060714D01*
X13864524Y-11041667D01*
X13883571Y-11032143D01*
X13912143Y-11032143D01*
X13931190Y-11041667D01*
X14007381Y-11241667D02*
X14016905Y-11232143D01*
X14035952Y-11203571D01*
X14045476Y-11184524D01*
X14055000Y-11155952D01*
X14064524Y-11108333D01*
X14064524Y-11070238D01*
X14055000Y-11022619D01*
X14045476Y-10994048D01*
X14035952Y-10975000D01*
X14016905Y-10946429D01*
X14007381Y-10936905D01*
D13*
X9045000Y-11339000D02*
G75*
G03*
X9045000Y-11339000I-37500J0D01*
G01*
D11*
X9340714Y-11229476D02*
X9359762Y-11229476D01*
X9378810Y-11239000D01*
X9388333Y-11248524D01*
X9397857Y-11267571D01*
X9407381Y-11305667D01*
X9407381Y-11353286D01*
X9397857Y-11391381D01*
X9388333Y-11410428D01*
X9378810Y-11419952D01*
X9359762Y-11429476D01*
X9340714Y-11429476D01*
X9321667Y-11419952D01*
X9312143Y-11410428D01*
X9302619Y-11391381D01*
X9293095Y-11353286D01*
X9293095Y-11305667D01*
X9302619Y-11267571D01*
X9312143Y-11248524D01*
X9321667Y-11239000D01*
X9340714Y-11229476D01*
X9493095Y-11410428D02*
X9502619Y-11419952D01*
X9493095Y-11429476D01*
X9483571Y-11419952D01*
X9493095Y-11410428D01*
X9493095Y-11429476D01*
X9569286Y-11229476D02*
X9702619Y-11229476D01*
X9616905Y-11429476D01*
X9874048Y-11229476D02*
X9778810Y-11229476D01*
X9769286Y-11324714D01*
X9778810Y-11315190D01*
X9797857Y-11305667D01*
X9845476Y-11305667D01*
X9864524Y-11315190D01*
X9874048Y-11324714D01*
X9883571Y-11343762D01*
X9883571Y-11391381D01*
X9874048Y-11410428D01*
X9864524Y-11419952D01*
X9845476Y-11429476D01*
X9797857Y-11429476D01*
X9778810Y-11419952D01*
X9769286Y-11410428D01*
X10007381Y-11229476D02*
X10026429Y-11229476D01*
X10045476Y-11239000D01*
X10055000Y-11248524D01*
X10064524Y-11267571D01*
X10074048Y-11305667D01*
X10074048Y-11353286D01*
X10064524Y-11391381D01*
X10055000Y-11410428D01*
X10045476Y-11419952D01*
X10026429Y-11429476D01*
X10007381Y-11429476D01*
X9988333Y-11419952D01*
X9978810Y-11410428D01*
X9969286Y-11391381D01*
X9959762Y-11353286D01*
X9959762Y-11305667D01*
X9969286Y-11267571D01*
X9978810Y-11248524D01*
X9988333Y-11239000D01*
X10007381Y-11229476D01*
X10159762Y-11429476D02*
X10159762Y-11296143D01*
X10159762Y-11315190D02*
X10169286Y-11305667D01*
X10188333Y-11296143D01*
X10216905Y-11296143D01*
X10235952Y-11305667D01*
X10245476Y-11324714D01*
X10245476Y-11429476D01*
X10245476Y-11324714D02*
X10255000Y-11305667D01*
X10274048Y-11296143D01*
X10302619Y-11296143D01*
X10321667Y-11305667D01*
X10331190Y-11324714D01*
X10331190Y-11429476D01*
X10426429Y-11429476D02*
X10426429Y-11296143D01*
X10426429Y-11315190D02*
X10435952Y-11305667D01*
X10455000Y-11296143D01*
X10483571Y-11296143D01*
X10502619Y-11305667D01*
X10512143Y-11324714D01*
X10512143Y-11429476D01*
X10512143Y-11324714D02*
X10521667Y-11305667D01*
X10540714Y-11296143D01*
X10569286Y-11296143D01*
X10588333Y-11305667D01*
X10597857Y-11324714D01*
X10597857Y-11429476D01*
X10988333Y-11219952D02*
X10816905Y-11477095D01*
X11245476Y-11229476D02*
X11264524Y-11229476D01*
X11283571Y-11239000D01*
X11293095Y-11248524D01*
X11302619Y-11267571D01*
X11312143Y-11305667D01*
X11312143Y-11353286D01*
X11302619Y-11391381D01*
X11293095Y-11410428D01*
X11283571Y-11419952D01*
X11264524Y-11429476D01*
X11245476Y-11429476D01*
X11226428Y-11419952D01*
X11216905Y-11410428D01*
X11207381Y-11391381D01*
X11197857Y-11353286D01*
X11197857Y-11305667D01*
X11207381Y-11267571D01*
X11216905Y-11248524D01*
X11226428Y-11239000D01*
X11245476Y-11229476D01*
X11397857Y-11410428D02*
X11407381Y-11419952D01*
X11397857Y-11429476D01*
X11388333Y-11419952D01*
X11397857Y-11410428D01*
X11397857Y-11429476D01*
X11531190Y-11229476D02*
X11550238Y-11229476D01*
X11569286Y-11239000D01*
X11578809Y-11248524D01*
X11588333Y-11267571D01*
X11597857Y-11305667D01*
X11597857Y-11353286D01*
X11588333Y-11391381D01*
X11578809Y-11410428D01*
X11569286Y-11419952D01*
X11550238Y-11429476D01*
X11531190Y-11429476D01*
X11512143Y-11419952D01*
X11502619Y-11410428D01*
X11493095Y-11391381D01*
X11483571Y-11353286D01*
X11483571Y-11305667D01*
X11493095Y-11267571D01*
X11502619Y-11248524D01*
X11512143Y-11239000D01*
X11531190Y-11229476D01*
X11674048Y-11248524D02*
X11683571Y-11239000D01*
X11702619Y-11229476D01*
X11750238Y-11229476D01*
X11769286Y-11239000D01*
X11778809Y-11248524D01*
X11788333Y-11267571D01*
X11788333Y-11286619D01*
X11778809Y-11315190D01*
X11664524Y-11429476D01*
X11788333Y-11429476D01*
X11883571Y-11429476D02*
X11921667Y-11429476D01*
X11940714Y-11419952D01*
X11950238Y-11410428D01*
X11969286Y-11381857D01*
X11978809Y-11343762D01*
X11978809Y-11267571D01*
X11969286Y-11248524D01*
X11959762Y-11239000D01*
X11940714Y-11229476D01*
X11902619Y-11229476D01*
X11883571Y-11239000D01*
X11874048Y-11248524D01*
X11864524Y-11267571D01*
X11864524Y-11315190D01*
X11874048Y-11334238D01*
X11883571Y-11343762D01*
X11902619Y-11353286D01*
X11940714Y-11353286D01*
X11959762Y-11343762D01*
X11969286Y-11334238D01*
X11978809Y-11315190D01*
X12159762Y-11229476D02*
X12064524Y-11229476D01*
X12055000Y-11324714D01*
X12064524Y-11315190D01*
X12083571Y-11305667D01*
X12131190Y-11305667D01*
X12150238Y-11315190D01*
X12159762Y-11324714D01*
X12169286Y-11343762D01*
X12169286Y-11391381D01*
X12159762Y-11410428D01*
X12150238Y-11419952D01*
X12131190Y-11429476D01*
X12083571Y-11429476D01*
X12064524Y-11419952D01*
X12055000Y-11410428D01*
X12245476Y-11229476D02*
X12245476Y-11267571D01*
X12321667Y-11229476D02*
X12321667Y-11267571D01*
X12616905Y-11505667D02*
X12607381Y-11496143D01*
X12588333Y-11467571D01*
X12578809Y-11448524D01*
X12569286Y-11419952D01*
X12559762Y-11372333D01*
X12559762Y-11334238D01*
X12569286Y-11286619D01*
X12578809Y-11258048D01*
X12588333Y-11239000D01*
X12607381Y-11210428D01*
X12616905Y-11200905D01*
X12674048Y-11229476D02*
X12797857Y-11229476D01*
X12731190Y-11305667D01*
X12759762Y-11305667D01*
X12778809Y-11315190D01*
X12788333Y-11324714D01*
X12797857Y-11343762D01*
X12797857Y-11391381D01*
X12788333Y-11410428D01*
X12778809Y-11419952D01*
X12759762Y-11429476D01*
X12702619Y-11429476D01*
X12683571Y-11419952D01*
X12674048Y-11410428D01*
X13035952Y-11429476D02*
X13035952Y-11229476D01*
X13121667Y-11429476D02*
X13121667Y-11324714D01*
X13112143Y-11305667D01*
X13093095Y-11296143D01*
X13064524Y-11296143D01*
X13045476Y-11305667D01*
X13035952Y-11315190D01*
X13245476Y-11429476D02*
X13226428Y-11419952D01*
X13216905Y-11410428D01*
X13207381Y-11391381D01*
X13207381Y-11334238D01*
X13216905Y-11315190D01*
X13226428Y-11305667D01*
X13245476Y-11296143D01*
X13274048Y-11296143D01*
X13293095Y-11305667D01*
X13302619Y-11315190D01*
X13312143Y-11334238D01*
X13312143Y-11391381D01*
X13302619Y-11410428D01*
X13293095Y-11419952D01*
X13274048Y-11429476D01*
X13245476Y-11429476D01*
X13426428Y-11429476D02*
X13407381Y-11419952D01*
X13397857Y-11400905D01*
X13397857Y-11229476D01*
X13578809Y-11419952D02*
X13559762Y-11429476D01*
X13521667Y-11429476D01*
X13502619Y-11419952D01*
X13493095Y-11400905D01*
X13493095Y-11324714D01*
X13502619Y-11305667D01*
X13521667Y-11296143D01*
X13559762Y-11296143D01*
X13578809Y-11305667D01*
X13588333Y-11324714D01*
X13588333Y-11343762D01*
X13493095Y-11362809D01*
X13664524Y-11419952D02*
X13683571Y-11429476D01*
X13721667Y-11429476D01*
X13740714Y-11419952D01*
X13750238Y-11400905D01*
X13750238Y-11391381D01*
X13740714Y-11372333D01*
X13721667Y-11362809D01*
X13693095Y-11362809D01*
X13674048Y-11353286D01*
X13664524Y-11334238D01*
X13664524Y-11324714D01*
X13674048Y-11305667D01*
X13693095Y-11296143D01*
X13721667Y-11296143D01*
X13740714Y-11305667D01*
X13816905Y-11505667D02*
X13826428Y-11496143D01*
X13845476Y-11467571D01*
X13855000Y-11448524D01*
X13864524Y-11419952D01*
X13874048Y-11372333D01*
X13874048Y-11334238D01*
X13864524Y-11286619D01*
X13855000Y-11258048D01*
X13845476Y-11239000D01*
X13826428Y-11210428D01*
X13816905Y-11200905D01*
D14*
X9005000Y-11563000D02*
X9005000Y-11643000D01*
X8965000Y-11603000D02*
X9045000Y-11603000D01*
D11*
X9340714Y-11493476D02*
X9359762Y-11493476D01*
X9378810Y-11503000D01*
X9388333Y-11512524D01*
X9397857Y-11531571D01*
X9407381Y-11569667D01*
X9407381Y-11617286D01*
X9397857Y-11655381D01*
X9388333Y-11674428D01*
X9378810Y-11683952D01*
X9359762Y-11693476D01*
X9340714Y-11693476D01*
X9321667Y-11683952D01*
X9312143Y-11674428D01*
X9302619Y-11655381D01*
X9293095Y-11617286D01*
X9293095Y-11569667D01*
X9302619Y-11531571D01*
X9312143Y-11512524D01*
X9321667Y-11503000D01*
X9340714Y-11493476D01*
X9493095Y-11674428D02*
X9502619Y-11683952D01*
X9493095Y-11693476D01*
X9483571Y-11683952D01*
X9493095Y-11674428D01*
X9493095Y-11693476D01*
X9616905Y-11579190D02*
X9597857Y-11569667D01*
X9588333Y-11560143D01*
X9578810Y-11541095D01*
X9578810Y-11531571D01*
X9588333Y-11512524D01*
X9597857Y-11503000D01*
X9616905Y-11493476D01*
X9655000Y-11493476D01*
X9674048Y-11503000D01*
X9683571Y-11512524D01*
X9693095Y-11531571D01*
X9693095Y-11541095D01*
X9683571Y-11560143D01*
X9674048Y-11569667D01*
X9655000Y-11579190D01*
X9616905Y-11579190D01*
X9597857Y-11588714D01*
X9588333Y-11598238D01*
X9578810Y-11617286D01*
X9578810Y-11655381D01*
X9588333Y-11674428D01*
X9597857Y-11683952D01*
X9616905Y-11693476D01*
X9655000Y-11693476D01*
X9674048Y-11683952D01*
X9683571Y-11674428D01*
X9693095Y-11655381D01*
X9693095Y-11617286D01*
X9683571Y-11598238D01*
X9674048Y-11588714D01*
X9655000Y-11579190D01*
X9816905Y-11493476D02*
X9835952Y-11493476D01*
X9855000Y-11503000D01*
X9864524Y-11512524D01*
X9874048Y-11531571D01*
X9883571Y-11569667D01*
X9883571Y-11617286D01*
X9874048Y-11655381D01*
X9864524Y-11674428D01*
X9855000Y-11683952D01*
X9835952Y-11693476D01*
X9816905Y-11693476D01*
X9797857Y-11683952D01*
X9788333Y-11674428D01*
X9778810Y-11655381D01*
X9769286Y-11617286D01*
X9769286Y-11569667D01*
X9778810Y-11531571D01*
X9788333Y-11512524D01*
X9797857Y-11503000D01*
X9816905Y-11493476D01*
X10007381Y-11493476D02*
X10026429Y-11493476D01*
X10045476Y-11503000D01*
X10055000Y-11512524D01*
X10064524Y-11531571D01*
X10074048Y-11569667D01*
X10074048Y-11617286D01*
X10064524Y-11655381D01*
X10055000Y-11674428D01*
X10045476Y-11683952D01*
X10026429Y-11693476D01*
X10007381Y-11693476D01*
X9988333Y-11683952D01*
X9978810Y-11674428D01*
X9969286Y-11655381D01*
X9959762Y-11617286D01*
X9959762Y-11569667D01*
X9969286Y-11531571D01*
X9978810Y-11512524D01*
X9988333Y-11503000D01*
X10007381Y-11493476D01*
X10159762Y-11693476D02*
X10159762Y-11560143D01*
X10159762Y-11579190D02*
X10169286Y-11569667D01*
X10188333Y-11560143D01*
X10216905Y-11560143D01*
X10235952Y-11569667D01*
X10245476Y-11588714D01*
X10245476Y-11693476D01*
X10245476Y-11588714D02*
X10255000Y-11569667D01*
X10274048Y-11560143D01*
X10302619Y-11560143D01*
X10321667Y-11569667D01*
X10331190Y-11588714D01*
X10331190Y-11693476D01*
X10426429Y-11693476D02*
X10426429Y-11560143D01*
X10426429Y-11579190D02*
X10435952Y-11569667D01*
X10455000Y-11560143D01*
X10483571Y-11560143D01*
X10502619Y-11569667D01*
X10512143Y-11588714D01*
X10512143Y-11693476D01*
X10512143Y-11588714D02*
X10521667Y-11569667D01*
X10540714Y-11560143D01*
X10569286Y-11560143D01*
X10588333Y-11569667D01*
X10597857Y-11588714D01*
X10597857Y-11693476D01*
X10988333Y-11483952D02*
X10816905Y-11741095D01*
X11245476Y-11493476D02*
X11264524Y-11493476D01*
X11283571Y-11503000D01*
X11293095Y-11512524D01*
X11302619Y-11531571D01*
X11312143Y-11569667D01*
X11312143Y-11617286D01*
X11302619Y-11655381D01*
X11293095Y-11674428D01*
X11283571Y-11683952D01*
X11264524Y-11693476D01*
X11245476Y-11693476D01*
X11226428Y-11683952D01*
X11216905Y-11674428D01*
X11207381Y-11655381D01*
X11197857Y-11617286D01*
X11197857Y-11569667D01*
X11207381Y-11531571D01*
X11216905Y-11512524D01*
X11226428Y-11503000D01*
X11245476Y-11493476D01*
X11397857Y-11674428D02*
X11407381Y-11683952D01*
X11397857Y-11693476D01*
X11388333Y-11683952D01*
X11397857Y-11674428D01*
X11397857Y-11693476D01*
X11531190Y-11493476D02*
X11550238Y-11493476D01*
X11569286Y-11503000D01*
X11578809Y-11512524D01*
X11588333Y-11531571D01*
X11597857Y-11569667D01*
X11597857Y-11617286D01*
X11588333Y-11655381D01*
X11578809Y-11674428D01*
X11569286Y-11683952D01*
X11550238Y-11693476D01*
X11531190Y-11693476D01*
X11512143Y-11683952D01*
X11502619Y-11674428D01*
X11493095Y-11655381D01*
X11483571Y-11617286D01*
X11483571Y-11569667D01*
X11493095Y-11531571D01*
X11502619Y-11512524D01*
X11512143Y-11503000D01*
X11531190Y-11493476D01*
X11664524Y-11493476D02*
X11788333Y-11493476D01*
X11721667Y-11569667D01*
X11750238Y-11569667D01*
X11769286Y-11579190D01*
X11778809Y-11588714D01*
X11788333Y-11607762D01*
X11788333Y-11655381D01*
X11778809Y-11674428D01*
X11769286Y-11683952D01*
X11750238Y-11693476D01*
X11693095Y-11693476D01*
X11674048Y-11683952D01*
X11664524Y-11674428D01*
X11978809Y-11693476D02*
X11864524Y-11693476D01*
X11921667Y-11693476D02*
X11921667Y-11493476D01*
X11902619Y-11522048D01*
X11883571Y-11541095D01*
X11864524Y-11550619D01*
X12159762Y-11493476D02*
X12064524Y-11493476D01*
X12055000Y-11588714D01*
X12064524Y-11579190D01*
X12083571Y-11569667D01*
X12131190Y-11569667D01*
X12150238Y-11579190D01*
X12159762Y-11588714D01*
X12169286Y-11607762D01*
X12169286Y-11655381D01*
X12159762Y-11674428D01*
X12150238Y-11683952D01*
X12131190Y-11693476D01*
X12083571Y-11693476D01*
X12064524Y-11683952D01*
X12055000Y-11674428D01*
X12245476Y-11493476D02*
X12245476Y-11531571D01*
X12321667Y-11493476D02*
X12321667Y-11531571D01*
X12616905Y-11769667D02*
X12607381Y-11760143D01*
X12588333Y-11731571D01*
X12578809Y-11712524D01*
X12569286Y-11683952D01*
X12559762Y-11636333D01*
X12559762Y-11598238D01*
X12569286Y-11550619D01*
X12578809Y-11522048D01*
X12588333Y-11503000D01*
X12607381Y-11474428D01*
X12616905Y-11464905D01*
X12674048Y-11493476D02*
X12797857Y-11493476D01*
X12731190Y-11569667D01*
X12759762Y-11569667D01*
X12778809Y-11579190D01*
X12788333Y-11588714D01*
X12797857Y-11607762D01*
X12797857Y-11655381D01*
X12788333Y-11674428D01*
X12778809Y-11683952D01*
X12759762Y-11693476D01*
X12702619Y-11693476D01*
X12683571Y-11683952D01*
X12674048Y-11674428D01*
X12874048Y-11512524D02*
X12883571Y-11503000D01*
X12902619Y-11493476D01*
X12950238Y-11493476D01*
X12969286Y-11503000D01*
X12978809Y-11512524D01*
X12988333Y-11531571D01*
X12988333Y-11550619D01*
X12978809Y-11579190D01*
X12864524Y-11693476D01*
X12988333Y-11693476D01*
X13226428Y-11693476D02*
X13226428Y-11493476D01*
X13312143Y-11693476D02*
X13312143Y-11588714D01*
X13302619Y-11569667D01*
X13283571Y-11560143D01*
X13255000Y-11560143D01*
X13235952Y-11569667D01*
X13226428Y-11579190D01*
X13435952Y-11693476D02*
X13416905Y-11683952D01*
X13407381Y-11674428D01*
X13397857Y-11655381D01*
X13397857Y-11598238D01*
X13407381Y-11579190D01*
X13416905Y-11569667D01*
X13435952Y-11560143D01*
X13464524Y-11560143D01*
X13483571Y-11569667D01*
X13493095Y-11579190D01*
X13502619Y-11598238D01*
X13502619Y-11655381D01*
X13493095Y-11674428D01*
X13483571Y-11683952D01*
X13464524Y-11693476D01*
X13435952Y-11693476D01*
X13616905Y-11693476D02*
X13597857Y-11683952D01*
X13588333Y-11664905D01*
X13588333Y-11493476D01*
X13769286Y-11683952D02*
X13750238Y-11693476D01*
X13712143Y-11693476D01*
X13693095Y-11683952D01*
X13683571Y-11664905D01*
X13683571Y-11588714D01*
X13693095Y-11569667D01*
X13712143Y-11560143D01*
X13750238Y-11560143D01*
X13769286Y-11569667D01*
X13778809Y-11588714D01*
X13778809Y-11607762D01*
X13683571Y-11626809D01*
X13855000Y-11683952D02*
X13874048Y-11693476D01*
X13912143Y-11693476D01*
X13931190Y-11683952D01*
X13940714Y-11664905D01*
X13940714Y-11655381D01*
X13931190Y-11636333D01*
X13912143Y-11626809D01*
X13883571Y-11626809D01*
X13864524Y-11617286D01*
X13855000Y-11598238D01*
X13855000Y-11588714D01*
X13864524Y-11569667D01*
X13883571Y-11560143D01*
X13912143Y-11560143D01*
X13931190Y-11569667D01*
X14007381Y-11769667D02*
X14016905Y-11760143D01*
X14035952Y-11731571D01*
X14045476Y-11712524D01*
X14055000Y-11683952D01*
X14064524Y-11636333D01*
X14064524Y-11598238D01*
X14055000Y-11550619D01*
X14045476Y-11522048D01*
X14035952Y-11503000D01*
X14016905Y-11474428D01*
X14007381Y-11464905D01*
D15*
X9031981Y-11898431D02*
X9031981Y-11835569D01*
X8969119Y-11835569D01*
X8969119Y-11898431D01*
X9031981Y-11898431D01*
D11*
X9340714Y-11757476D02*
X9359762Y-11757476D01*
X9378810Y-11767000D01*
X9388333Y-11776524D01*
X9397857Y-11795571D01*
X9407381Y-11833667D01*
X9407381Y-11881286D01*
X9397857Y-11919381D01*
X9388333Y-11938428D01*
X9378810Y-11947952D01*
X9359762Y-11957476D01*
X9340714Y-11957476D01*
X9321667Y-11947952D01*
X9312143Y-11938428D01*
X9302619Y-11919381D01*
X9293095Y-11881286D01*
X9293095Y-11833667D01*
X9302619Y-11795571D01*
X9312143Y-11776524D01*
X9321667Y-11767000D01*
X9340714Y-11757476D01*
X9493095Y-11938428D02*
X9502619Y-11947952D01*
X9493095Y-11957476D01*
X9483571Y-11947952D01*
X9493095Y-11938428D01*
X9493095Y-11957476D01*
X9616905Y-11843190D02*
X9597857Y-11833667D01*
X9588333Y-11824143D01*
X9578810Y-11805095D01*
X9578810Y-11795571D01*
X9588333Y-11776524D01*
X9597857Y-11767000D01*
X9616905Y-11757476D01*
X9655000Y-11757476D01*
X9674048Y-11767000D01*
X9683571Y-11776524D01*
X9693095Y-11795571D01*
X9693095Y-11805095D01*
X9683571Y-11824143D01*
X9674048Y-11833667D01*
X9655000Y-11843190D01*
X9616905Y-11843190D01*
X9597857Y-11852714D01*
X9588333Y-11862238D01*
X9578810Y-11881286D01*
X9578810Y-11919381D01*
X9588333Y-11938428D01*
X9597857Y-11947952D01*
X9616905Y-11957476D01*
X9655000Y-11957476D01*
X9674048Y-11947952D01*
X9683571Y-11938428D01*
X9693095Y-11919381D01*
X9693095Y-11881286D01*
X9683571Y-11862238D01*
X9674048Y-11852714D01*
X9655000Y-11843190D01*
X9807381Y-11843190D02*
X9788333Y-11833667D01*
X9778810Y-11824143D01*
X9769286Y-11805095D01*
X9769286Y-11795571D01*
X9778810Y-11776524D01*
X9788333Y-11767000D01*
X9807381Y-11757476D01*
X9845476Y-11757476D01*
X9864524Y-11767000D01*
X9874048Y-11776524D01*
X9883571Y-11795571D01*
X9883571Y-11805095D01*
X9874048Y-11824143D01*
X9864524Y-11833667D01*
X9845476Y-11843190D01*
X9807381Y-11843190D01*
X9788333Y-11852714D01*
X9778810Y-11862238D01*
X9769286Y-11881286D01*
X9769286Y-11919381D01*
X9778810Y-11938428D01*
X9788333Y-11947952D01*
X9807381Y-11957476D01*
X9845476Y-11957476D01*
X9864524Y-11947952D01*
X9874048Y-11938428D01*
X9883571Y-11919381D01*
X9883571Y-11881286D01*
X9874048Y-11862238D01*
X9864524Y-11852714D01*
X9845476Y-11843190D01*
X9978810Y-11957476D02*
X10016905Y-11957476D01*
X10035952Y-11947952D01*
X10045476Y-11938428D01*
X10064524Y-11909857D01*
X10074048Y-11871762D01*
X10074048Y-11795571D01*
X10064524Y-11776524D01*
X10055000Y-11767000D01*
X10035952Y-11757476D01*
X9997857Y-11757476D01*
X9978810Y-11767000D01*
X9969286Y-11776524D01*
X9959762Y-11795571D01*
X9959762Y-11843190D01*
X9969286Y-11862238D01*
X9978810Y-11871762D01*
X9997857Y-11881286D01*
X10035952Y-11881286D01*
X10055000Y-11871762D01*
X10064524Y-11862238D01*
X10074048Y-11843190D01*
X10159762Y-11957476D02*
X10159762Y-11824143D01*
X10159762Y-11843190D02*
X10169286Y-11833667D01*
X10188333Y-11824143D01*
X10216905Y-11824143D01*
X10235952Y-11833667D01*
X10245476Y-11852714D01*
X10245476Y-11957476D01*
X10245476Y-11852714D02*
X10255000Y-11833667D01*
X10274048Y-11824143D01*
X10302619Y-11824143D01*
X10321667Y-11833667D01*
X10331190Y-11852714D01*
X10331190Y-11957476D01*
X10426429Y-11957476D02*
X10426429Y-11824143D01*
X10426429Y-11843190D02*
X10435952Y-11833667D01*
X10455000Y-11824143D01*
X10483571Y-11824143D01*
X10502619Y-11833667D01*
X10512143Y-11852714D01*
X10512143Y-11957476D01*
X10512143Y-11852714D02*
X10521667Y-11833667D01*
X10540714Y-11824143D01*
X10569286Y-11824143D01*
X10588333Y-11833667D01*
X10597857Y-11852714D01*
X10597857Y-11957476D01*
X10988333Y-11747952D02*
X10816905Y-12005095D01*
X11245476Y-11757476D02*
X11264524Y-11757476D01*
X11283571Y-11767000D01*
X11293095Y-11776524D01*
X11302619Y-11795571D01*
X11312143Y-11833667D01*
X11312143Y-11881286D01*
X11302619Y-11919381D01*
X11293095Y-11938428D01*
X11283571Y-11947952D01*
X11264524Y-11957476D01*
X11245476Y-11957476D01*
X11226428Y-11947952D01*
X11216905Y-11938428D01*
X11207381Y-11919381D01*
X11197857Y-11881286D01*
X11197857Y-11833667D01*
X11207381Y-11795571D01*
X11216905Y-11776524D01*
X11226428Y-11767000D01*
X11245476Y-11757476D01*
X11397857Y-11938428D02*
X11407381Y-11947952D01*
X11397857Y-11957476D01*
X11388333Y-11947952D01*
X11397857Y-11938428D01*
X11397857Y-11957476D01*
X11531190Y-11757476D02*
X11550238Y-11757476D01*
X11569286Y-11767000D01*
X11578809Y-11776524D01*
X11588333Y-11795571D01*
X11597857Y-11833667D01*
X11597857Y-11881286D01*
X11588333Y-11919381D01*
X11578809Y-11938428D01*
X11569286Y-11947952D01*
X11550238Y-11957476D01*
X11531190Y-11957476D01*
X11512143Y-11947952D01*
X11502619Y-11938428D01*
X11493095Y-11919381D01*
X11483571Y-11881286D01*
X11483571Y-11833667D01*
X11493095Y-11795571D01*
X11502619Y-11776524D01*
X11512143Y-11767000D01*
X11531190Y-11757476D01*
X11664524Y-11757476D02*
X11788333Y-11757476D01*
X11721667Y-11833667D01*
X11750238Y-11833667D01*
X11769286Y-11843190D01*
X11778809Y-11852714D01*
X11788333Y-11871762D01*
X11788333Y-11919381D01*
X11778809Y-11938428D01*
X11769286Y-11947952D01*
X11750238Y-11957476D01*
X11693095Y-11957476D01*
X11674048Y-11947952D01*
X11664524Y-11938428D01*
X11969286Y-11757476D02*
X11874048Y-11757476D01*
X11864524Y-11852714D01*
X11874048Y-11843190D01*
X11893095Y-11833667D01*
X11940714Y-11833667D01*
X11959762Y-11843190D01*
X11969286Y-11852714D01*
X11978809Y-11871762D01*
X11978809Y-11919381D01*
X11969286Y-11938428D01*
X11959762Y-11947952D01*
X11940714Y-11957476D01*
X11893095Y-11957476D01*
X11874048Y-11947952D01*
X11864524Y-11938428D01*
X12102619Y-11757476D02*
X12121667Y-11757476D01*
X12140714Y-11767000D01*
X12150238Y-11776524D01*
X12159762Y-11795571D01*
X12169286Y-11833667D01*
X12169286Y-11881286D01*
X12159762Y-11919381D01*
X12150238Y-11938428D01*
X12140714Y-11947952D01*
X12121667Y-11957476D01*
X12102619Y-11957476D01*
X12083571Y-11947952D01*
X12074048Y-11938428D01*
X12064524Y-11919381D01*
X12055000Y-11881286D01*
X12055000Y-11833667D01*
X12064524Y-11795571D01*
X12074048Y-11776524D01*
X12083571Y-11767000D01*
X12102619Y-11757476D01*
X12245476Y-11757476D02*
X12245476Y-11795571D01*
X12321667Y-11757476D02*
X12321667Y-11795571D01*
X12616905Y-12033667D02*
X12607381Y-12024143D01*
X12588333Y-11995571D01*
X12578809Y-11976524D01*
X12569286Y-11947952D01*
X12559762Y-11900333D01*
X12559762Y-11862238D01*
X12569286Y-11814619D01*
X12578809Y-11786048D01*
X12588333Y-11767000D01*
X12607381Y-11738428D01*
X12616905Y-11728905D01*
X12721667Y-11843190D02*
X12702619Y-11833667D01*
X12693095Y-11824143D01*
X12683571Y-11805095D01*
X12683571Y-11795571D01*
X12693095Y-11776524D01*
X12702619Y-11767000D01*
X12721667Y-11757476D01*
X12759762Y-11757476D01*
X12778809Y-11767000D01*
X12788333Y-11776524D01*
X12797857Y-11795571D01*
X12797857Y-11805095D01*
X12788333Y-11824143D01*
X12778809Y-11833667D01*
X12759762Y-11843190D01*
X12721667Y-11843190D01*
X12702619Y-11852714D01*
X12693095Y-11862238D01*
X12683571Y-11881286D01*
X12683571Y-11919381D01*
X12693095Y-11938428D01*
X12702619Y-11947952D01*
X12721667Y-11957476D01*
X12759762Y-11957476D01*
X12778809Y-11947952D01*
X12788333Y-11938428D01*
X12797857Y-11919381D01*
X12797857Y-11881286D01*
X12788333Y-11862238D01*
X12778809Y-11852714D01*
X12759762Y-11843190D01*
X13035952Y-11957476D02*
X13035952Y-11757476D01*
X13121667Y-11957476D02*
X13121667Y-11852714D01*
X13112143Y-11833667D01*
X13093095Y-11824143D01*
X13064524Y-11824143D01*
X13045476Y-11833667D01*
X13035952Y-11843190D01*
X13245476Y-11957476D02*
X13226428Y-11947952D01*
X13216905Y-11938428D01*
X13207381Y-11919381D01*
X13207381Y-11862238D01*
X13216905Y-11843190D01*
X13226428Y-11833667D01*
X13245476Y-11824143D01*
X13274048Y-11824143D01*
X13293095Y-11833667D01*
X13302619Y-11843190D01*
X13312143Y-11862238D01*
X13312143Y-11919381D01*
X13302619Y-11938428D01*
X13293095Y-11947952D01*
X13274048Y-11957476D01*
X13245476Y-11957476D01*
X13426428Y-11957476D02*
X13407381Y-11947952D01*
X13397857Y-11928905D01*
X13397857Y-11757476D01*
X13578809Y-11947952D02*
X13559762Y-11957476D01*
X13521667Y-11957476D01*
X13502619Y-11947952D01*
X13493095Y-11928905D01*
X13493095Y-11852714D01*
X13502619Y-11833667D01*
X13521667Y-11824143D01*
X13559762Y-11824143D01*
X13578809Y-11833667D01*
X13588333Y-11852714D01*
X13588333Y-11871762D01*
X13493095Y-11890809D01*
X13664524Y-11947952D02*
X13683571Y-11957476D01*
X13721667Y-11957476D01*
X13740714Y-11947952D01*
X13750238Y-11928905D01*
X13750238Y-11919381D01*
X13740714Y-11900333D01*
X13721667Y-11890809D01*
X13693095Y-11890809D01*
X13674048Y-11881286D01*
X13664524Y-11862238D01*
X13664524Y-11852714D01*
X13674048Y-11833667D01*
X13693095Y-11824143D01*
X13721667Y-11824143D01*
X13740714Y-11833667D01*
X13816905Y-12033667D02*
X13826428Y-12024143D01*
X13845476Y-11995571D01*
X13855000Y-11976524D01*
X13864524Y-11947952D01*
X13874048Y-11900333D01*
X13874048Y-11862238D01*
X13864524Y-11814619D01*
X13855000Y-11786048D01*
X13845476Y-11767000D01*
X13826428Y-11738428D01*
X13816905Y-11728905D01*
D10*
X8995000Y-12181000D02*
X9045000Y-12131000D01*
X8995000Y-12081000D01*
X8945000Y-12131000D01*
X8995000Y-12181000D01*
D11*
X9407381Y-12221476D02*
X9293095Y-12221476D01*
X9350238Y-12221476D02*
X9350238Y-12021476D01*
X9331190Y-12050048D01*
X9312143Y-12069095D01*
X9293095Y-12078619D01*
X9493095Y-12202428D02*
X9502619Y-12211952D01*
X9493095Y-12221476D01*
X9483571Y-12211952D01*
X9493095Y-12202428D01*
X9493095Y-12221476D01*
X9626429Y-12021476D02*
X9645476Y-12021476D01*
X9664524Y-12031000D01*
X9674048Y-12040524D01*
X9683571Y-12059571D01*
X9693095Y-12097667D01*
X9693095Y-12145286D01*
X9683571Y-12183381D01*
X9674048Y-12202428D01*
X9664524Y-12211952D01*
X9645476Y-12221476D01*
X9626429Y-12221476D01*
X9607381Y-12211952D01*
X9597857Y-12202428D01*
X9588333Y-12183381D01*
X9578810Y-12145286D01*
X9578810Y-12097667D01*
X9588333Y-12059571D01*
X9597857Y-12040524D01*
X9607381Y-12031000D01*
X9626429Y-12021476D01*
X9816905Y-12021476D02*
X9835952Y-12021476D01*
X9855000Y-12031000D01*
X9864524Y-12040524D01*
X9874048Y-12059571D01*
X9883571Y-12097667D01*
X9883571Y-12145286D01*
X9874048Y-12183381D01*
X9864524Y-12202428D01*
X9855000Y-12211952D01*
X9835952Y-12221476D01*
X9816905Y-12221476D01*
X9797857Y-12211952D01*
X9788333Y-12202428D01*
X9778810Y-12183381D01*
X9769286Y-12145286D01*
X9769286Y-12097667D01*
X9778810Y-12059571D01*
X9788333Y-12040524D01*
X9797857Y-12031000D01*
X9816905Y-12021476D01*
X10007381Y-12021476D02*
X10026429Y-12021476D01*
X10045476Y-12031000D01*
X10055000Y-12040524D01*
X10064524Y-12059571D01*
X10074048Y-12097667D01*
X10074048Y-12145286D01*
X10064524Y-12183381D01*
X10055000Y-12202428D01*
X10045476Y-12211952D01*
X10026429Y-12221476D01*
X10007381Y-12221476D01*
X9988333Y-12211952D01*
X9978810Y-12202428D01*
X9969286Y-12183381D01*
X9959762Y-12145286D01*
X9959762Y-12097667D01*
X9969286Y-12059571D01*
X9978810Y-12040524D01*
X9988333Y-12031000D01*
X10007381Y-12021476D01*
X10159762Y-12221476D02*
X10159762Y-12088143D01*
X10159762Y-12107190D02*
X10169286Y-12097667D01*
X10188333Y-12088143D01*
X10216905Y-12088143D01*
X10235952Y-12097667D01*
X10245476Y-12116714D01*
X10245476Y-12221476D01*
X10245476Y-12116714D02*
X10255000Y-12097667D01*
X10274048Y-12088143D01*
X10302619Y-12088143D01*
X10321667Y-12097667D01*
X10331190Y-12116714D01*
X10331190Y-12221476D01*
X10426429Y-12221476D02*
X10426429Y-12088143D01*
X10426429Y-12107190D02*
X10435952Y-12097667D01*
X10455000Y-12088143D01*
X10483571Y-12088143D01*
X10502619Y-12097667D01*
X10512143Y-12116714D01*
X10512143Y-12221476D01*
X10512143Y-12116714D02*
X10521667Y-12097667D01*
X10540714Y-12088143D01*
X10569286Y-12088143D01*
X10588333Y-12097667D01*
X10597857Y-12116714D01*
X10597857Y-12221476D01*
X10988333Y-12011952D02*
X10816905Y-12269095D01*
X11245476Y-12021476D02*
X11264524Y-12021476D01*
X11283571Y-12031000D01*
X11293095Y-12040524D01*
X11302619Y-12059571D01*
X11312143Y-12097667D01*
X11312143Y-12145286D01*
X11302619Y-12183381D01*
X11293095Y-12202428D01*
X11283571Y-12211952D01*
X11264524Y-12221476D01*
X11245476Y-12221476D01*
X11226428Y-12211952D01*
X11216905Y-12202428D01*
X11207381Y-12183381D01*
X11197857Y-12145286D01*
X11197857Y-12097667D01*
X11207381Y-12059571D01*
X11216905Y-12040524D01*
X11226428Y-12031000D01*
X11245476Y-12021476D01*
X11397857Y-12202428D02*
X11407381Y-12211952D01*
X11397857Y-12221476D01*
X11388333Y-12211952D01*
X11397857Y-12202428D01*
X11397857Y-12221476D01*
X11531190Y-12021476D02*
X11550238Y-12021476D01*
X11569286Y-12031000D01*
X11578809Y-12040524D01*
X11588333Y-12059571D01*
X11597857Y-12097667D01*
X11597857Y-12145286D01*
X11588333Y-12183381D01*
X11578809Y-12202428D01*
X11569286Y-12211952D01*
X11550238Y-12221476D01*
X11531190Y-12221476D01*
X11512143Y-12211952D01*
X11502619Y-12202428D01*
X11493095Y-12183381D01*
X11483571Y-12145286D01*
X11483571Y-12097667D01*
X11493095Y-12059571D01*
X11502619Y-12040524D01*
X11512143Y-12031000D01*
X11531190Y-12021476D01*
X11664524Y-12021476D02*
X11788333Y-12021476D01*
X11721667Y-12097667D01*
X11750238Y-12097667D01*
X11769286Y-12107190D01*
X11778809Y-12116714D01*
X11788333Y-12135762D01*
X11788333Y-12183381D01*
X11778809Y-12202428D01*
X11769286Y-12211952D01*
X11750238Y-12221476D01*
X11693095Y-12221476D01*
X11674048Y-12211952D01*
X11664524Y-12202428D01*
X11883571Y-12221476D02*
X11921667Y-12221476D01*
X11940714Y-12211952D01*
X11950238Y-12202428D01*
X11969286Y-12173857D01*
X11978809Y-12135762D01*
X11978809Y-12059571D01*
X11969286Y-12040524D01*
X11959762Y-12031000D01*
X11940714Y-12021476D01*
X11902619Y-12021476D01*
X11883571Y-12031000D01*
X11874048Y-12040524D01*
X11864524Y-12059571D01*
X11864524Y-12107190D01*
X11874048Y-12126238D01*
X11883571Y-12135762D01*
X11902619Y-12145286D01*
X11940714Y-12145286D01*
X11959762Y-12135762D01*
X11969286Y-12126238D01*
X11978809Y-12107190D01*
X12150238Y-12088143D02*
X12150238Y-12221476D01*
X12102619Y-12011952D02*
X12055000Y-12154809D01*
X12178809Y-12154809D01*
X12245476Y-12021476D02*
X12245476Y-12059571D01*
X12321667Y-12021476D02*
X12321667Y-12059571D01*
X12616905Y-12297667D02*
X12607381Y-12288143D01*
X12588333Y-12259571D01*
X12578809Y-12240524D01*
X12569286Y-12211952D01*
X12559762Y-12164333D01*
X12559762Y-12126238D01*
X12569286Y-12078619D01*
X12578809Y-12050048D01*
X12588333Y-12031000D01*
X12607381Y-12002428D01*
X12616905Y-11992905D01*
X12778809Y-12088143D02*
X12778809Y-12221476D01*
X12731190Y-12011952D02*
X12683571Y-12154809D01*
X12807381Y-12154809D01*
X12874048Y-12040524D02*
X12883571Y-12031000D01*
X12902619Y-12021476D01*
X12950238Y-12021476D01*
X12969286Y-12031000D01*
X12978809Y-12040524D01*
X12988333Y-12059571D01*
X12988333Y-12078619D01*
X12978809Y-12107190D01*
X12864524Y-12221476D01*
X12988333Y-12221476D01*
X13226428Y-12221476D02*
X13226428Y-12021476D01*
X13312143Y-12221476D02*
X13312143Y-12116714D01*
X13302619Y-12097667D01*
X13283571Y-12088143D01*
X13255000Y-12088143D01*
X13235952Y-12097667D01*
X13226428Y-12107190D01*
X13435952Y-12221476D02*
X13416905Y-12211952D01*
X13407381Y-12202428D01*
X13397857Y-12183381D01*
X13397857Y-12126238D01*
X13407381Y-12107190D01*
X13416905Y-12097667D01*
X13435952Y-12088143D01*
X13464524Y-12088143D01*
X13483571Y-12097667D01*
X13493095Y-12107190D01*
X13502619Y-12126238D01*
X13502619Y-12183381D01*
X13493095Y-12202428D01*
X13483571Y-12211952D01*
X13464524Y-12221476D01*
X13435952Y-12221476D01*
X13616905Y-12221476D02*
X13597857Y-12211952D01*
X13588333Y-12192905D01*
X13588333Y-12021476D01*
X13769286Y-12211952D02*
X13750238Y-12221476D01*
X13712143Y-12221476D01*
X13693095Y-12211952D01*
X13683571Y-12192905D01*
X13683571Y-12116714D01*
X13693095Y-12097667D01*
X13712143Y-12088143D01*
X13750238Y-12088143D01*
X13769286Y-12097667D01*
X13778809Y-12116714D01*
X13778809Y-12135762D01*
X13683571Y-12154809D01*
X13855000Y-12211952D02*
X13874048Y-12221476D01*
X13912143Y-12221476D01*
X13931190Y-12211952D01*
X13940714Y-12192905D01*
X13940714Y-12183381D01*
X13931190Y-12164333D01*
X13912143Y-12154809D01*
X13883571Y-12154809D01*
X13864524Y-12145286D01*
X13855000Y-12126238D01*
X13855000Y-12116714D01*
X13864524Y-12097667D01*
X13883571Y-12088143D01*
X13912143Y-12088143D01*
X13931190Y-12097667D01*
X14007381Y-12297667D02*
X14016905Y-12288143D01*
X14035952Y-12259571D01*
X14045476Y-12240524D01*
X14055000Y-12211952D01*
X14064524Y-12164333D01*
X14064524Y-12126238D01*
X14055000Y-12078619D01*
X14045476Y-12050048D01*
X14035952Y-12031000D01*
X14016905Y-12002428D01*
X14007381Y-11992905D01*
D16*
X8937500Y-12341250D02*
X9045000Y-12448750D01*
X9045000Y-12341250D02*
X8937500Y-12448750D01*
X9045000Y-12395000D02*
G75*
G03*
X9045000Y-12395000I-53750J0D01*
G01*
D11*
X9407381Y-12485476D02*
X9293095Y-12485476D01*
X9350238Y-12485476D02*
X9350238Y-12285476D01*
X9331190Y-12314048D01*
X9312143Y-12333095D01*
X9293095Y-12342619D01*
X9493095Y-12466428D02*
X9502619Y-12475952D01*
X9493095Y-12485476D01*
X9483571Y-12475952D01*
X9493095Y-12466428D01*
X9493095Y-12485476D01*
X9626429Y-12285476D02*
X9645476Y-12285476D01*
X9664524Y-12295000D01*
X9674048Y-12304524D01*
X9683571Y-12323571D01*
X9693095Y-12361667D01*
X9693095Y-12409286D01*
X9683571Y-12447381D01*
X9674048Y-12466428D01*
X9664524Y-12475952D01*
X9645476Y-12485476D01*
X9626429Y-12485476D01*
X9607381Y-12475952D01*
X9597857Y-12466428D01*
X9588333Y-12447381D01*
X9578810Y-12409286D01*
X9578810Y-12361667D01*
X9588333Y-12323571D01*
X9597857Y-12304524D01*
X9607381Y-12295000D01*
X9626429Y-12285476D01*
X9759762Y-12285476D02*
X9893095Y-12285476D01*
X9807381Y-12485476D01*
X10064524Y-12285476D02*
X9969286Y-12285476D01*
X9959762Y-12380714D01*
X9969286Y-12371190D01*
X9988333Y-12361667D01*
X10035952Y-12361667D01*
X10055000Y-12371190D01*
X10064524Y-12380714D01*
X10074048Y-12399762D01*
X10074048Y-12447381D01*
X10064524Y-12466428D01*
X10055000Y-12475952D01*
X10035952Y-12485476D01*
X9988333Y-12485476D01*
X9969286Y-12475952D01*
X9959762Y-12466428D01*
X10159762Y-12485476D02*
X10159762Y-12352143D01*
X10159762Y-12371190D02*
X10169286Y-12361667D01*
X10188333Y-12352143D01*
X10216905Y-12352143D01*
X10235952Y-12361667D01*
X10245476Y-12380714D01*
X10245476Y-12485476D01*
X10245476Y-12380714D02*
X10255000Y-12361667D01*
X10274048Y-12352143D01*
X10302619Y-12352143D01*
X10321667Y-12361667D01*
X10331190Y-12380714D01*
X10331190Y-12485476D01*
X10426429Y-12485476D02*
X10426429Y-12352143D01*
X10426429Y-12371190D02*
X10435952Y-12361667D01*
X10455000Y-12352143D01*
X10483571Y-12352143D01*
X10502619Y-12361667D01*
X10512143Y-12380714D01*
X10512143Y-12485476D01*
X10512143Y-12380714D02*
X10521667Y-12361667D01*
X10540714Y-12352143D01*
X10569286Y-12352143D01*
X10588333Y-12361667D01*
X10597857Y-12380714D01*
X10597857Y-12485476D01*
X10988333Y-12275952D02*
X10816905Y-12533095D01*
X11245476Y-12285476D02*
X11264524Y-12285476D01*
X11283571Y-12295000D01*
X11293095Y-12304524D01*
X11302619Y-12323571D01*
X11312143Y-12361667D01*
X11312143Y-12409286D01*
X11302619Y-12447381D01*
X11293095Y-12466428D01*
X11283571Y-12475952D01*
X11264524Y-12485476D01*
X11245476Y-12485476D01*
X11226428Y-12475952D01*
X11216905Y-12466428D01*
X11207381Y-12447381D01*
X11197857Y-12409286D01*
X11197857Y-12361667D01*
X11207381Y-12323571D01*
X11216905Y-12304524D01*
X11226428Y-12295000D01*
X11245476Y-12285476D01*
X11397857Y-12466428D02*
X11407381Y-12475952D01*
X11397857Y-12485476D01*
X11388333Y-12475952D01*
X11397857Y-12466428D01*
X11397857Y-12485476D01*
X11531190Y-12285476D02*
X11550238Y-12285476D01*
X11569286Y-12295000D01*
X11578809Y-12304524D01*
X11588333Y-12323571D01*
X11597857Y-12361667D01*
X11597857Y-12409286D01*
X11588333Y-12447381D01*
X11578809Y-12466428D01*
X11569286Y-12475952D01*
X11550238Y-12485476D01*
X11531190Y-12485476D01*
X11512143Y-12475952D01*
X11502619Y-12466428D01*
X11493095Y-12447381D01*
X11483571Y-12409286D01*
X11483571Y-12361667D01*
X11493095Y-12323571D01*
X11502619Y-12304524D01*
X11512143Y-12295000D01*
X11531190Y-12285476D01*
X11769286Y-12352143D02*
X11769286Y-12485476D01*
X11721667Y-12275952D02*
X11674048Y-12418809D01*
X11797857Y-12418809D01*
X11864524Y-12304524D02*
X11874048Y-12295000D01*
X11893095Y-12285476D01*
X11940714Y-12285476D01*
X11959762Y-12295000D01*
X11969286Y-12304524D01*
X11978809Y-12323571D01*
X11978809Y-12342619D01*
X11969286Y-12371190D01*
X11855000Y-12485476D01*
X11978809Y-12485476D01*
X12045476Y-12285476D02*
X12169286Y-12285476D01*
X12102619Y-12361667D01*
X12131190Y-12361667D01*
X12150238Y-12371190D01*
X12159762Y-12380714D01*
X12169286Y-12399762D01*
X12169286Y-12447381D01*
X12159762Y-12466428D01*
X12150238Y-12475952D01*
X12131190Y-12485476D01*
X12074048Y-12485476D01*
X12055000Y-12475952D01*
X12045476Y-12466428D01*
X12245476Y-12285476D02*
X12245476Y-12323571D01*
X12321667Y-12285476D02*
X12321667Y-12323571D01*
X12616905Y-12561667D02*
X12607381Y-12552143D01*
X12588333Y-12523571D01*
X12578809Y-12504524D01*
X12569286Y-12475952D01*
X12559762Y-12428333D01*
X12559762Y-12390238D01*
X12569286Y-12342619D01*
X12578809Y-12314048D01*
X12588333Y-12295000D01*
X12607381Y-12266428D01*
X12616905Y-12256905D01*
X12778809Y-12352143D02*
X12778809Y-12485476D01*
X12731190Y-12275952D02*
X12683571Y-12418809D01*
X12807381Y-12418809D01*
X13035952Y-12485476D02*
X13035952Y-12285476D01*
X13121667Y-12485476D02*
X13121667Y-12380714D01*
X13112143Y-12361667D01*
X13093095Y-12352143D01*
X13064524Y-12352143D01*
X13045476Y-12361667D01*
X13035952Y-12371190D01*
X13245476Y-12485476D02*
X13226428Y-12475952D01*
X13216905Y-12466428D01*
X13207381Y-12447381D01*
X13207381Y-12390238D01*
X13216905Y-12371190D01*
X13226428Y-12361667D01*
X13245476Y-12352143D01*
X13274048Y-12352143D01*
X13293095Y-12361667D01*
X13302619Y-12371190D01*
X13312143Y-12390238D01*
X13312143Y-12447381D01*
X13302619Y-12466428D01*
X13293095Y-12475952D01*
X13274048Y-12485476D01*
X13245476Y-12485476D01*
X13426428Y-12485476D02*
X13407381Y-12475952D01*
X13397857Y-12456905D01*
X13397857Y-12285476D01*
X13578809Y-12475952D02*
X13559762Y-12485476D01*
X13521667Y-12485476D01*
X13502619Y-12475952D01*
X13493095Y-12456905D01*
X13493095Y-12380714D01*
X13502619Y-12361667D01*
X13521667Y-12352143D01*
X13559762Y-12352143D01*
X13578809Y-12361667D01*
X13588333Y-12380714D01*
X13588333Y-12399762D01*
X13493095Y-12418809D01*
X13664524Y-12475952D02*
X13683571Y-12485476D01*
X13721667Y-12485476D01*
X13740714Y-12475952D01*
X13750238Y-12456905D01*
X13750238Y-12447381D01*
X13740714Y-12428333D01*
X13721667Y-12418809D01*
X13693095Y-12418809D01*
X13674048Y-12409286D01*
X13664524Y-12390238D01*
X13664524Y-12380714D01*
X13674048Y-12361667D01*
X13693095Y-12352143D01*
X13721667Y-12352143D01*
X13740714Y-12361667D01*
X13816905Y-12561667D02*
X13826428Y-12552143D01*
X13845476Y-12523571D01*
X13855000Y-12504524D01*
X13864524Y-12475952D01*
X13874048Y-12428333D01*
X13874048Y-12390238D01*
X13864524Y-12342619D01*
X13855000Y-12314048D01*
X13845476Y-12295000D01*
X13826428Y-12266428D01*
X13816905Y-12256905D01*
D17*
X8935000Y-12604000D02*
X9045000Y-12714000D01*
X9045000Y-12604000D02*
X8935000Y-12714000D01*
X8990000Y-12604000D02*
X8990000Y-12714000D01*
X8935000Y-12659000D02*
X9045000Y-12659000D01*
D11*
X9407381Y-12749476D02*
X9293095Y-12749476D01*
X9350238Y-12749476D02*
X9350238Y-12549476D01*
X9331190Y-12578048D01*
X9312143Y-12597095D01*
X9293095Y-12606619D01*
X9493095Y-12730428D02*
X9502619Y-12739952D01*
X9493095Y-12749476D01*
X9483571Y-12739952D01*
X9493095Y-12730428D01*
X9493095Y-12749476D01*
X9693095Y-12749476D02*
X9578810Y-12749476D01*
X9635952Y-12749476D02*
X9635952Y-12549476D01*
X9616905Y-12578048D01*
X9597857Y-12597095D01*
X9578810Y-12606619D01*
X9816905Y-12549476D02*
X9835952Y-12549476D01*
X9855000Y-12559000D01*
X9864524Y-12568524D01*
X9874048Y-12587571D01*
X9883571Y-12625667D01*
X9883571Y-12673286D01*
X9874048Y-12711381D01*
X9864524Y-12730428D01*
X9855000Y-12739952D01*
X9835952Y-12749476D01*
X9816905Y-12749476D01*
X9797857Y-12739952D01*
X9788333Y-12730428D01*
X9778810Y-12711381D01*
X9769286Y-12673286D01*
X9769286Y-12625667D01*
X9778810Y-12587571D01*
X9788333Y-12568524D01*
X9797857Y-12559000D01*
X9816905Y-12549476D01*
X10007381Y-12549476D02*
X10026429Y-12549476D01*
X10045476Y-12559000D01*
X10055000Y-12568524D01*
X10064524Y-12587571D01*
X10074048Y-12625667D01*
X10074048Y-12673286D01*
X10064524Y-12711381D01*
X10055000Y-12730428D01*
X10045476Y-12739952D01*
X10026429Y-12749476D01*
X10007381Y-12749476D01*
X9988333Y-12739952D01*
X9978810Y-12730428D01*
X9969286Y-12711381D01*
X9959762Y-12673286D01*
X9959762Y-12625667D01*
X9969286Y-12587571D01*
X9978810Y-12568524D01*
X9988333Y-12559000D01*
X10007381Y-12549476D01*
X10159762Y-12749476D02*
X10159762Y-12616143D01*
X10159762Y-12635190D02*
X10169286Y-12625667D01*
X10188333Y-12616143D01*
X10216905Y-12616143D01*
X10235952Y-12625667D01*
X10245476Y-12644714D01*
X10245476Y-12749476D01*
X10245476Y-12644714D02*
X10255000Y-12625667D01*
X10274048Y-12616143D01*
X10302619Y-12616143D01*
X10321667Y-12625667D01*
X10331190Y-12644714D01*
X10331190Y-12749476D01*
X10426429Y-12749476D02*
X10426429Y-12616143D01*
X10426429Y-12635190D02*
X10435952Y-12625667D01*
X10455000Y-12616143D01*
X10483571Y-12616143D01*
X10502619Y-12625667D01*
X10512143Y-12644714D01*
X10512143Y-12749476D01*
X10512143Y-12644714D02*
X10521667Y-12625667D01*
X10540714Y-12616143D01*
X10569286Y-12616143D01*
X10588333Y-12625667D01*
X10597857Y-12644714D01*
X10597857Y-12749476D01*
X10988333Y-12539952D02*
X10816905Y-12797095D01*
X11245476Y-12549476D02*
X11264524Y-12549476D01*
X11283571Y-12559000D01*
X11293095Y-12568524D01*
X11302619Y-12587571D01*
X11312143Y-12625667D01*
X11312143Y-12673286D01*
X11302619Y-12711381D01*
X11293095Y-12730428D01*
X11283571Y-12739952D01*
X11264524Y-12749476D01*
X11245476Y-12749476D01*
X11226428Y-12739952D01*
X11216905Y-12730428D01*
X11207381Y-12711381D01*
X11197857Y-12673286D01*
X11197857Y-12625667D01*
X11207381Y-12587571D01*
X11216905Y-12568524D01*
X11226428Y-12559000D01*
X11245476Y-12549476D01*
X11397857Y-12730428D02*
X11407381Y-12739952D01*
X11397857Y-12749476D01*
X11388333Y-12739952D01*
X11397857Y-12730428D01*
X11397857Y-12749476D01*
X11531190Y-12549476D02*
X11550238Y-12549476D01*
X11569286Y-12559000D01*
X11578809Y-12568524D01*
X11588333Y-12587571D01*
X11597857Y-12625667D01*
X11597857Y-12673286D01*
X11588333Y-12711381D01*
X11578809Y-12730428D01*
X11569286Y-12739952D01*
X11550238Y-12749476D01*
X11531190Y-12749476D01*
X11512143Y-12739952D01*
X11502619Y-12730428D01*
X11493095Y-12711381D01*
X11483571Y-12673286D01*
X11483571Y-12625667D01*
X11493095Y-12587571D01*
X11502619Y-12568524D01*
X11512143Y-12559000D01*
X11531190Y-12549476D01*
X11769286Y-12616143D02*
X11769286Y-12749476D01*
X11721667Y-12539952D02*
X11674048Y-12682809D01*
X11797857Y-12682809D01*
X11855000Y-12549476D02*
X11978809Y-12549476D01*
X11912143Y-12625667D01*
X11940714Y-12625667D01*
X11959762Y-12635190D01*
X11969286Y-12644714D01*
X11978809Y-12663762D01*
X11978809Y-12711381D01*
X11969286Y-12730428D01*
X11959762Y-12739952D01*
X11940714Y-12749476D01*
X11883571Y-12749476D01*
X11864524Y-12739952D01*
X11855000Y-12730428D01*
X12045476Y-12549476D02*
X12169286Y-12549476D01*
X12102619Y-12625667D01*
X12131190Y-12625667D01*
X12150238Y-12635190D01*
X12159762Y-12644714D01*
X12169286Y-12663762D01*
X12169286Y-12711381D01*
X12159762Y-12730428D01*
X12150238Y-12739952D01*
X12131190Y-12749476D01*
X12074048Y-12749476D01*
X12055000Y-12739952D01*
X12045476Y-12730428D01*
X12245476Y-12549476D02*
X12245476Y-12587571D01*
X12321667Y-12549476D02*
X12321667Y-12587571D01*
X12616905Y-12825667D02*
X12607381Y-12816143D01*
X12588333Y-12787571D01*
X12578809Y-12768524D01*
X12569286Y-12739952D01*
X12559762Y-12692333D01*
X12559762Y-12654238D01*
X12569286Y-12606619D01*
X12578809Y-12578048D01*
X12588333Y-12559000D01*
X12607381Y-12530428D01*
X12616905Y-12520905D01*
X12797857Y-12749476D02*
X12683571Y-12749476D01*
X12740714Y-12749476D02*
X12740714Y-12549476D01*
X12721667Y-12578048D01*
X12702619Y-12597095D01*
X12683571Y-12606619D01*
X12921667Y-12549476D02*
X12940714Y-12549476D01*
X12959762Y-12559000D01*
X12969286Y-12568524D01*
X12978809Y-12587571D01*
X12988333Y-12625667D01*
X12988333Y-12673286D01*
X12978809Y-12711381D01*
X12969286Y-12730428D01*
X12959762Y-12739952D01*
X12940714Y-12749476D01*
X12921667Y-12749476D01*
X12902619Y-12739952D01*
X12893095Y-12730428D01*
X12883571Y-12711381D01*
X12874048Y-12673286D01*
X12874048Y-12625667D01*
X12883571Y-12587571D01*
X12893095Y-12568524D01*
X12902619Y-12559000D01*
X12921667Y-12549476D01*
X13226428Y-12749476D02*
X13226428Y-12549476D01*
X13312143Y-12749476D02*
X13312143Y-12644714D01*
X13302619Y-12625667D01*
X13283571Y-12616143D01*
X13255000Y-12616143D01*
X13235952Y-12625667D01*
X13226428Y-12635190D01*
X13435952Y-12749476D02*
X13416905Y-12739952D01*
X13407381Y-12730428D01*
X13397857Y-12711381D01*
X13397857Y-12654238D01*
X13407381Y-12635190D01*
X13416905Y-12625667D01*
X13435952Y-12616143D01*
X13464524Y-12616143D01*
X13483571Y-12625667D01*
X13493095Y-12635190D01*
X13502619Y-12654238D01*
X13502619Y-12711381D01*
X13493095Y-12730428D01*
X13483571Y-12739952D01*
X13464524Y-12749476D01*
X13435952Y-12749476D01*
X13616905Y-12749476D02*
X13597857Y-12739952D01*
X13588333Y-12720905D01*
X13588333Y-12549476D01*
X13769286Y-12739952D02*
X13750238Y-12749476D01*
X13712143Y-12749476D01*
X13693095Y-12739952D01*
X13683571Y-12720905D01*
X13683571Y-12644714D01*
X13693095Y-12625667D01*
X13712143Y-12616143D01*
X13750238Y-12616143D01*
X13769286Y-12625667D01*
X13778809Y-12644714D01*
X13778809Y-12663762D01*
X13683571Y-12682809D01*
X13855000Y-12739952D02*
X13874048Y-12749476D01*
X13912143Y-12749476D01*
X13931190Y-12739952D01*
X13940714Y-12720905D01*
X13940714Y-12711381D01*
X13931190Y-12692333D01*
X13912143Y-12682809D01*
X13883571Y-12682809D01*
X13864524Y-12673286D01*
X13855000Y-12654238D01*
X13855000Y-12644714D01*
X13864524Y-12625667D01*
X13883571Y-12616143D01*
X13912143Y-12616143D01*
X13931190Y-12625667D01*
X14007381Y-12825667D02*
X14016905Y-12816143D01*
X14035952Y-12787571D01*
X14045476Y-12768524D01*
X14055000Y-12739952D01*
X14064524Y-12692333D01*
X14064524Y-12654238D01*
X14055000Y-12606619D01*
X14045476Y-12578048D01*
X14035952Y-12559000D01*
X14016905Y-12530428D01*
X14007381Y-12520905D01*
D18*
X8895000Y-12848000D02*
X9045000Y-12998000D01*
X9045000Y-12848000D02*
X8895000Y-12998000D01*
X9023034Y-12976033D02*
X9023034Y-12869966D01*
X8916967Y-12869966D01*
X8916967Y-12976033D01*
X9023034Y-12976033D01*
D11*
X9407381Y-13013476D02*
X9293095Y-13013476D01*
X9350238Y-13013476D02*
X9350238Y-12813476D01*
X9331190Y-12842048D01*
X9312143Y-12861095D01*
X9293095Y-12870619D01*
X9493095Y-12994428D02*
X9502619Y-13003952D01*
X9493095Y-13013476D01*
X9483571Y-13003952D01*
X9493095Y-12994428D01*
X9493095Y-13013476D01*
X9683571Y-12813476D02*
X9588333Y-12813476D01*
X9578810Y-12908714D01*
X9588333Y-12899190D01*
X9607381Y-12889667D01*
X9655000Y-12889667D01*
X9674048Y-12899190D01*
X9683571Y-12908714D01*
X9693095Y-12927762D01*
X9693095Y-12975381D01*
X9683571Y-12994428D01*
X9674048Y-13003952D01*
X9655000Y-13013476D01*
X9607381Y-13013476D01*
X9588333Y-13003952D01*
X9578810Y-12994428D01*
X9816905Y-12813476D02*
X9835952Y-12813476D01*
X9855000Y-12823000D01*
X9864524Y-12832524D01*
X9874048Y-12851571D01*
X9883571Y-12889667D01*
X9883571Y-12937286D01*
X9874048Y-12975381D01*
X9864524Y-12994428D01*
X9855000Y-13003952D01*
X9835952Y-13013476D01*
X9816905Y-13013476D01*
X9797857Y-13003952D01*
X9788333Y-12994428D01*
X9778810Y-12975381D01*
X9769286Y-12937286D01*
X9769286Y-12889667D01*
X9778810Y-12851571D01*
X9788333Y-12832524D01*
X9797857Y-12823000D01*
X9816905Y-12813476D01*
X10007381Y-12813476D02*
X10026429Y-12813476D01*
X10045476Y-12823000D01*
X10055000Y-12832524D01*
X10064524Y-12851571D01*
X10074048Y-12889667D01*
X10074048Y-12937286D01*
X10064524Y-12975381D01*
X10055000Y-12994428D01*
X10045476Y-13003952D01*
X10026429Y-13013476D01*
X10007381Y-13013476D01*
X9988333Y-13003952D01*
X9978810Y-12994428D01*
X9969286Y-12975381D01*
X9959762Y-12937286D01*
X9959762Y-12889667D01*
X9969286Y-12851571D01*
X9978810Y-12832524D01*
X9988333Y-12823000D01*
X10007381Y-12813476D01*
X10159762Y-13013476D02*
X10159762Y-12880143D01*
X10159762Y-12899190D02*
X10169286Y-12889667D01*
X10188333Y-12880143D01*
X10216905Y-12880143D01*
X10235952Y-12889667D01*
X10245476Y-12908714D01*
X10245476Y-13013476D01*
X10245476Y-12908714D02*
X10255000Y-12889667D01*
X10274048Y-12880143D01*
X10302619Y-12880143D01*
X10321667Y-12889667D01*
X10331190Y-12908714D01*
X10331190Y-13013476D01*
X10426429Y-13013476D02*
X10426429Y-12880143D01*
X10426429Y-12899190D02*
X10435952Y-12889667D01*
X10455000Y-12880143D01*
X10483571Y-12880143D01*
X10502619Y-12889667D01*
X10512143Y-12908714D01*
X10512143Y-13013476D01*
X10512143Y-12908714D02*
X10521667Y-12889667D01*
X10540714Y-12880143D01*
X10569286Y-12880143D01*
X10588333Y-12889667D01*
X10597857Y-12908714D01*
X10597857Y-13013476D01*
X10988333Y-12803952D02*
X10816905Y-13061095D01*
X11245476Y-12813476D02*
X11264524Y-12813476D01*
X11283571Y-12823000D01*
X11293095Y-12832524D01*
X11302619Y-12851571D01*
X11312143Y-12889667D01*
X11312143Y-12937286D01*
X11302619Y-12975381D01*
X11293095Y-12994428D01*
X11283571Y-13003952D01*
X11264524Y-13013476D01*
X11245476Y-13013476D01*
X11226428Y-13003952D01*
X11216905Y-12994428D01*
X11207381Y-12975381D01*
X11197857Y-12937286D01*
X11197857Y-12889667D01*
X11207381Y-12851571D01*
X11216905Y-12832524D01*
X11226428Y-12823000D01*
X11245476Y-12813476D01*
X11397857Y-12994428D02*
X11407381Y-13003952D01*
X11397857Y-13013476D01*
X11388333Y-13003952D01*
X11397857Y-12994428D01*
X11397857Y-13013476D01*
X11531190Y-12813476D02*
X11550238Y-12813476D01*
X11569286Y-12823000D01*
X11578809Y-12832524D01*
X11588333Y-12851571D01*
X11597857Y-12889667D01*
X11597857Y-12937286D01*
X11588333Y-12975381D01*
X11578809Y-12994428D01*
X11569286Y-13003952D01*
X11550238Y-13013476D01*
X11531190Y-13013476D01*
X11512143Y-13003952D01*
X11502619Y-12994428D01*
X11493095Y-12975381D01*
X11483571Y-12937286D01*
X11483571Y-12889667D01*
X11493095Y-12851571D01*
X11502619Y-12832524D01*
X11512143Y-12823000D01*
X11531190Y-12813476D01*
X11778809Y-12813476D02*
X11683571Y-12813476D01*
X11674048Y-12908714D01*
X11683571Y-12899190D01*
X11702619Y-12889667D01*
X11750238Y-12889667D01*
X11769286Y-12899190D01*
X11778809Y-12908714D01*
X11788333Y-12927762D01*
X11788333Y-12975381D01*
X11778809Y-12994428D01*
X11769286Y-13003952D01*
X11750238Y-13013476D01*
X11702619Y-13013476D01*
X11683571Y-13003952D01*
X11674048Y-12994428D01*
X11883571Y-13013476D02*
X11921667Y-13013476D01*
X11940714Y-13003952D01*
X11950238Y-12994428D01*
X11969286Y-12965857D01*
X11978809Y-12927762D01*
X11978809Y-12851571D01*
X11969286Y-12832524D01*
X11959762Y-12823000D01*
X11940714Y-12813476D01*
X11902619Y-12813476D01*
X11883571Y-12823000D01*
X11874048Y-12832524D01*
X11864524Y-12851571D01*
X11864524Y-12899190D01*
X11874048Y-12918238D01*
X11883571Y-12927762D01*
X11902619Y-12937286D01*
X11940714Y-12937286D01*
X11959762Y-12927762D01*
X11969286Y-12918238D01*
X11978809Y-12899190D01*
X12169286Y-13013476D02*
X12055000Y-13013476D01*
X12112143Y-13013476D02*
X12112143Y-12813476D01*
X12093095Y-12842048D01*
X12074048Y-12861095D01*
X12055000Y-12870619D01*
X12245476Y-12813476D02*
X12245476Y-12851571D01*
X12321667Y-12813476D02*
X12321667Y-12851571D01*
X12616905Y-13089667D02*
X12607381Y-13080143D01*
X12588333Y-13051571D01*
X12578809Y-13032524D01*
X12569286Y-13003952D01*
X12559762Y-12956333D01*
X12559762Y-12918238D01*
X12569286Y-12870619D01*
X12578809Y-12842048D01*
X12588333Y-12823000D01*
X12607381Y-12794428D01*
X12616905Y-12784905D01*
X12683571Y-12832524D02*
X12693095Y-12823000D01*
X12712143Y-12813476D01*
X12759762Y-12813476D01*
X12778809Y-12823000D01*
X12788333Y-12832524D01*
X12797857Y-12851571D01*
X12797857Y-12870619D01*
X12788333Y-12899190D01*
X12674048Y-13013476D01*
X12797857Y-13013476D01*
X13035952Y-13013476D02*
X13035952Y-12813476D01*
X13121667Y-13013476D02*
X13121667Y-12908714D01*
X13112143Y-12889667D01*
X13093095Y-12880143D01*
X13064524Y-12880143D01*
X13045476Y-12889667D01*
X13035952Y-12899190D01*
X13245476Y-13013476D02*
X13226428Y-13003952D01*
X13216905Y-12994428D01*
X13207381Y-12975381D01*
X13207381Y-12918238D01*
X13216905Y-12899190D01*
X13226428Y-12889667D01*
X13245476Y-12880143D01*
X13274048Y-12880143D01*
X13293095Y-12889667D01*
X13302619Y-12899190D01*
X13312143Y-12918238D01*
X13312143Y-12975381D01*
X13302619Y-12994428D01*
X13293095Y-13003952D01*
X13274048Y-13013476D01*
X13245476Y-13013476D01*
X13426428Y-13013476D02*
X13407381Y-13003952D01*
X13397857Y-12984905D01*
X13397857Y-12813476D01*
X13578809Y-13003952D02*
X13559762Y-13013476D01*
X13521667Y-13013476D01*
X13502619Y-13003952D01*
X13493095Y-12984905D01*
X13493095Y-12908714D01*
X13502619Y-12889667D01*
X13521667Y-12880143D01*
X13559762Y-12880143D01*
X13578809Y-12889667D01*
X13588333Y-12908714D01*
X13588333Y-12927762D01*
X13493095Y-12946809D01*
X13664524Y-13003952D02*
X13683571Y-13013476D01*
X13721667Y-13013476D01*
X13740714Y-13003952D01*
X13750238Y-12984905D01*
X13750238Y-12975381D01*
X13740714Y-12956333D01*
X13721667Y-12946809D01*
X13693095Y-12946809D01*
X13674048Y-12937286D01*
X13664524Y-12918238D01*
X13664524Y-12908714D01*
X13674048Y-12889667D01*
X13693095Y-12880143D01*
X13721667Y-12880143D01*
X13740714Y-12889667D01*
X13816905Y-13089667D02*
X13826428Y-13080143D01*
X13845476Y-13051571D01*
X13855000Y-13032524D01*
X13864524Y-13003952D01*
X13874048Y-12956333D01*
X13874048Y-12918238D01*
X13864524Y-12870619D01*
X13855000Y-12842048D01*
X13845476Y-12823000D01*
X13826428Y-12794428D01*
X13816905Y-12784905D01*
D19*
X8893000Y-13117000D02*
X9045000Y-13269000D01*
X9045000Y-13117000D02*
X8893000Y-13269000D01*
X8969000Y-13269000D02*
X9045000Y-13193000D01*
X8969000Y-13117000D01*
X8893000Y-13193000D01*
X8969000Y-13269000D01*
D11*
X9407381Y-13283476D02*
X9293095Y-13283476D01*
X9350238Y-13283476D02*
X9350238Y-13083476D01*
X9331190Y-13112048D01*
X9312143Y-13131095D01*
X9293095Y-13140619D01*
X9493095Y-13264428D02*
X9502619Y-13273952D01*
X9493095Y-13283476D01*
X9483571Y-13273952D01*
X9493095Y-13264428D01*
X9493095Y-13283476D01*
X9683571Y-13083476D02*
X9588333Y-13083476D01*
X9578810Y-13178714D01*
X9588333Y-13169190D01*
X9607381Y-13159667D01*
X9655000Y-13159667D01*
X9674048Y-13169190D01*
X9683571Y-13178714D01*
X9693095Y-13197762D01*
X9693095Y-13245381D01*
X9683571Y-13264428D01*
X9674048Y-13273952D01*
X9655000Y-13283476D01*
X9607381Y-13283476D01*
X9588333Y-13273952D01*
X9578810Y-13264428D01*
X9769286Y-13102524D02*
X9778810Y-13093000D01*
X9797857Y-13083476D01*
X9845476Y-13083476D01*
X9864524Y-13093000D01*
X9874048Y-13102524D01*
X9883571Y-13121571D01*
X9883571Y-13140619D01*
X9874048Y-13169190D01*
X9759762Y-13283476D01*
X9883571Y-13283476D01*
X10007381Y-13083476D02*
X10026429Y-13083476D01*
X10045476Y-13093000D01*
X10055000Y-13102524D01*
X10064524Y-13121571D01*
X10074048Y-13159667D01*
X10074048Y-13207286D01*
X10064524Y-13245381D01*
X10055000Y-13264428D01*
X10045476Y-13273952D01*
X10026429Y-13283476D01*
X10007381Y-13283476D01*
X9988333Y-13273952D01*
X9978810Y-13264428D01*
X9969286Y-13245381D01*
X9959762Y-13207286D01*
X9959762Y-13159667D01*
X9969286Y-13121571D01*
X9978810Y-13102524D01*
X9988333Y-13093000D01*
X10007381Y-13083476D01*
X10159762Y-13283476D02*
X10159762Y-13150143D01*
X10159762Y-13169190D02*
X10169286Y-13159667D01*
X10188333Y-13150143D01*
X10216905Y-13150143D01*
X10235952Y-13159667D01*
X10245476Y-13178714D01*
X10245476Y-13283476D01*
X10245476Y-13178714D02*
X10255000Y-13159667D01*
X10274048Y-13150143D01*
X10302619Y-13150143D01*
X10321667Y-13159667D01*
X10331190Y-13178714D01*
X10331190Y-13283476D01*
X10426429Y-13283476D02*
X10426429Y-13150143D01*
X10426429Y-13169190D02*
X10435952Y-13159667D01*
X10455000Y-13150143D01*
X10483571Y-13150143D01*
X10502619Y-13159667D01*
X10512143Y-13178714D01*
X10512143Y-13283476D01*
X10512143Y-13178714D02*
X10521667Y-13159667D01*
X10540714Y-13150143D01*
X10569286Y-13150143D01*
X10588333Y-13159667D01*
X10597857Y-13178714D01*
X10597857Y-13283476D01*
X10988333Y-13073952D02*
X10816905Y-13331095D01*
X11245476Y-13083476D02*
X11264524Y-13083476D01*
X11283571Y-13093000D01*
X11293095Y-13102524D01*
X11302619Y-13121571D01*
X11312143Y-13159667D01*
X11312143Y-13207286D01*
X11302619Y-13245381D01*
X11293095Y-13264428D01*
X11283571Y-13273952D01*
X11264524Y-13283476D01*
X11245476Y-13283476D01*
X11226428Y-13273952D01*
X11216905Y-13264428D01*
X11207381Y-13245381D01*
X11197857Y-13207286D01*
X11197857Y-13159667D01*
X11207381Y-13121571D01*
X11216905Y-13102524D01*
X11226428Y-13093000D01*
X11245476Y-13083476D01*
X11397857Y-13264428D02*
X11407381Y-13273952D01*
X11397857Y-13283476D01*
X11388333Y-13273952D01*
X11397857Y-13264428D01*
X11397857Y-13283476D01*
X11531190Y-13083476D02*
X11550238Y-13083476D01*
X11569286Y-13093000D01*
X11578809Y-13102524D01*
X11588333Y-13121571D01*
X11597857Y-13159667D01*
X11597857Y-13207286D01*
X11588333Y-13245381D01*
X11578809Y-13264428D01*
X11569286Y-13273952D01*
X11550238Y-13283476D01*
X11531190Y-13283476D01*
X11512143Y-13273952D01*
X11502619Y-13264428D01*
X11493095Y-13245381D01*
X11483571Y-13207286D01*
X11483571Y-13159667D01*
X11493095Y-13121571D01*
X11502619Y-13102524D01*
X11512143Y-13093000D01*
X11531190Y-13083476D01*
X11778809Y-13083476D02*
X11683571Y-13083476D01*
X11674048Y-13178714D01*
X11683571Y-13169190D01*
X11702619Y-13159667D01*
X11750238Y-13159667D01*
X11769286Y-13169190D01*
X11778809Y-13178714D01*
X11788333Y-13197762D01*
X11788333Y-13245381D01*
X11778809Y-13264428D01*
X11769286Y-13273952D01*
X11750238Y-13283476D01*
X11702619Y-13283476D01*
X11683571Y-13273952D01*
X11674048Y-13264428D01*
X11883571Y-13283476D02*
X11921667Y-13283476D01*
X11940714Y-13273952D01*
X11950238Y-13264428D01*
X11969286Y-13235857D01*
X11978809Y-13197762D01*
X11978809Y-13121571D01*
X11969286Y-13102524D01*
X11959762Y-13093000D01*
X11940714Y-13083476D01*
X11902619Y-13083476D01*
X11883571Y-13093000D01*
X11874048Y-13102524D01*
X11864524Y-13121571D01*
X11864524Y-13169190D01*
X11874048Y-13188238D01*
X11883571Y-13197762D01*
X11902619Y-13207286D01*
X11940714Y-13207286D01*
X11959762Y-13197762D01*
X11969286Y-13188238D01*
X11978809Y-13169190D01*
X12093095Y-13169190D02*
X12074048Y-13159667D01*
X12064524Y-13150143D01*
X12055000Y-13131095D01*
X12055000Y-13121571D01*
X12064524Y-13102524D01*
X12074048Y-13093000D01*
X12093095Y-13083476D01*
X12131190Y-13083476D01*
X12150238Y-13093000D01*
X12159762Y-13102524D01*
X12169286Y-13121571D01*
X12169286Y-13131095D01*
X12159762Y-13150143D01*
X12150238Y-13159667D01*
X12131190Y-13169190D01*
X12093095Y-13169190D01*
X12074048Y-13178714D01*
X12064524Y-13188238D01*
X12055000Y-13207286D01*
X12055000Y-13245381D01*
X12064524Y-13264428D01*
X12074048Y-13273952D01*
X12093095Y-13283476D01*
X12131190Y-13283476D01*
X12150238Y-13273952D01*
X12159762Y-13264428D01*
X12169286Y-13245381D01*
X12169286Y-13207286D01*
X12159762Y-13188238D01*
X12150238Y-13178714D01*
X12131190Y-13169190D01*
X12245476Y-13083476D02*
X12245476Y-13121571D01*
X12321667Y-13083476D02*
X12321667Y-13121571D01*
X12616905Y-13359667D02*
X12607381Y-13350143D01*
X12588333Y-13321571D01*
X12578809Y-13302524D01*
X12569286Y-13273952D01*
X12559762Y-13226333D01*
X12559762Y-13188238D01*
X12569286Y-13140619D01*
X12578809Y-13112048D01*
X12588333Y-13093000D01*
X12607381Y-13064428D01*
X12616905Y-13054905D01*
X12683571Y-13102524D02*
X12693095Y-13093000D01*
X12712143Y-13083476D01*
X12759762Y-13083476D01*
X12778809Y-13093000D01*
X12788333Y-13102524D01*
X12797857Y-13121571D01*
X12797857Y-13140619D01*
X12788333Y-13169190D01*
X12674048Y-13283476D01*
X12797857Y-13283476D01*
X13035952Y-13283476D02*
X13035952Y-13083476D01*
X13121667Y-13283476D02*
X13121667Y-13178714D01*
X13112143Y-13159667D01*
X13093095Y-13150143D01*
X13064524Y-13150143D01*
X13045476Y-13159667D01*
X13035952Y-13169190D01*
X13245476Y-13283476D02*
X13226428Y-13273952D01*
X13216905Y-13264428D01*
X13207381Y-13245381D01*
X13207381Y-13188238D01*
X13216905Y-13169190D01*
X13226428Y-13159667D01*
X13245476Y-13150143D01*
X13274048Y-13150143D01*
X13293095Y-13159667D01*
X13302619Y-13169190D01*
X13312143Y-13188238D01*
X13312143Y-13245381D01*
X13302619Y-13264428D01*
X13293095Y-13273952D01*
X13274048Y-13283476D01*
X13245476Y-13283476D01*
X13426428Y-13283476D02*
X13407381Y-13273952D01*
X13397857Y-13254905D01*
X13397857Y-13083476D01*
X13578809Y-13273952D02*
X13559762Y-13283476D01*
X13521667Y-13283476D01*
X13502619Y-13273952D01*
X13493095Y-13254905D01*
X13493095Y-13178714D01*
X13502619Y-13159667D01*
X13521667Y-13150143D01*
X13559762Y-13150143D01*
X13578809Y-13159667D01*
X13588333Y-13178714D01*
X13588333Y-13197762D01*
X13493095Y-13216809D01*
X13664524Y-13273952D02*
X13683571Y-13283476D01*
X13721667Y-13283476D01*
X13740714Y-13273952D01*
X13750238Y-13254905D01*
X13750238Y-13245381D01*
X13740714Y-13226333D01*
X13721667Y-13216809D01*
X13693095Y-13216809D01*
X13674048Y-13207286D01*
X13664524Y-13188238D01*
X13664524Y-13178714D01*
X13674048Y-13159667D01*
X13693095Y-13150143D01*
X13721667Y-13150143D01*
X13740714Y-13159667D01*
X13816905Y-13359667D02*
X13826428Y-13350143D01*
X13845476Y-13321571D01*
X13855000Y-13302524D01*
X13864524Y-13273952D01*
X13874048Y-13226333D01*
X13874048Y-13188238D01*
X13864524Y-13140619D01*
X13855000Y-13112048D01*
X13845476Y-13093000D01*
X13826428Y-13064428D01*
X13816905Y-13054905D01*
X8945000Y-13365000D02*
X8945000Y-13565000D01*
X8845000Y-13465000D02*
X9045000Y-13465000D01*
X9045000Y-13465000D02*
G75*
G03*
X9045000Y-13465000I-100000J0D01*
G01*
X9293095Y-13374524D02*
X9302619Y-13365000D01*
X9321667Y-13355476D01*
X9369286Y-13355476D01*
X9388333Y-13365000D01*
X9397857Y-13374524D01*
X9407381Y-13393571D01*
X9407381Y-13412619D01*
X9397857Y-13441190D01*
X9283571Y-13555476D01*
X9407381Y-13555476D01*
X9493095Y-13536428D02*
X9502619Y-13545952D01*
X9493095Y-13555476D01*
X9483571Y-13545952D01*
X9493095Y-13536428D01*
X9493095Y-13555476D01*
X9569286Y-13355476D02*
X9693095Y-13355476D01*
X9626429Y-13431667D01*
X9655000Y-13431667D01*
X9674048Y-13441190D01*
X9683571Y-13450714D01*
X9693095Y-13469762D01*
X9693095Y-13517381D01*
X9683571Y-13536428D01*
X9674048Y-13545952D01*
X9655000Y-13555476D01*
X9597857Y-13555476D01*
X9578810Y-13545952D01*
X9569286Y-13536428D01*
X9816905Y-13355476D02*
X9835952Y-13355476D01*
X9855000Y-13365000D01*
X9864524Y-13374524D01*
X9874048Y-13393571D01*
X9883571Y-13431667D01*
X9883571Y-13479286D01*
X9874048Y-13517381D01*
X9864524Y-13536428D01*
X9855000Y-13545952D01*
X9835952Y-13555476D01*
X9816905Y-13555476D01*
X9797857Y-13545952D01*
X9788333Y-13536428D01*
X9778810Y-13517381D01*
X9769286Y-13479286D01*
X9769286Y-13431667D01*
X9778810Y-13393571D01*
X9788333Y-13374524D01*
X9797857Y-13365000D01*
X9816905Y-13355476D01*
X10007381Y-13355476D02*
X10026429Y-13355476D01*
X10045476Y-13365000D01*
X10055000Y-13374524D01*
X10064524Y-13393571D01*
X10074048Y-13431667D01*
X10074048Y-13479286D01*
X10064524Y-13517381D01*
X10055000Y-13536428D01*
X10045476Y-13545952D01*
X10026429Y-13555476D01*
X10007381Y-13555476D01*
X9988333Y-13545952D01*
X9978810Y-13536428D01*
X9969286Y-13517381D01*
X9959762Y-13479286D01*
X9959762Y-13431667D01*
X9969286Y-13393571D01*
X9978810Y-13374524D01*
X9988333Y-13365000D01*
X10007381Y-13355476D01*
X10159762Y-13555476D02*
X10159762Y-13422143D01*
X10159762Y-13441190D02*
X10169286Y-13431667D01*
X10188333Y-13422143D01*
X10216905Y-13422143D01*
X10235952Y-13431667D01*
X10245476Y-13450714D01*
X10245476Y-13555476D01*
X10245476Y-13450714D02*
X10255000Y-13431667D01*
X10274048Y-13422143D01*
X10302619Y-13422143D01*
X10321667Y-13431667D01*
X10331190Y-13450714D01*
X10331190Y-13555476D01*
X10426429Y-13555476D02*
X10426429Y-13422143D01*
X10426429Y-13441190D02*
X10435952Y-13431667D01*
X10455000Y-13422143D01*
X10483571Y-13422143D01*
X10502619Y-13431667D01*
X10512143Y-13450714D01*
X10512143Y-13555476D01*
X10512143Y-13450714D02*
X10521667Y-13431667D01*
X10540714Y-13422143D01*
X10569286Y-13422143D01*
X10588333Y-13431667D01*
X10597857Y-13450714D01*
X10597857Y-13555476D01*
X10988333Y-13345952D02*
X10816905Y-13603095D01*
X11245476Y-13355476D02*
X11264524Y-13355476D01*
X11283571Y-13365000D01*
X11293095Y-13374524D01*
X11302619Y-13393571D01*
X11312143Y-13431667D01*
X11312143Y-13479286D01*
X11302619Y-13517381D01*
X11293095Y-13536428D01*
X11283571Y-13545952D01*
X11264524Y-13555476D01*
X11245476Y-13555476D01*
X11226428Y-13545952D01*
X11216905Y-13536428D01*
X11207381Y-13517381D01*
X11197857Y-13479286D01*
X11197857Y-13431667D01*
X11207381Y-13393571D01*
X11216905Y-13374524D01*
X11226428Y-13365000D01*
X11245476Y-13355476D01*
X11397857Y-13536428D02*
X11407381Y-13545952D01*
X11397857Y-13555476D01*
X11388333Y-13545952D01*
X11397857Y-13536428D01*
X11397857Y-13555476D01*
X11531190Y-13355476D02*
X11550238Y-13355476D01*
X11569286Y-13365000D01*
X11578809Y-13374524D01*
X11588333Y-13393571D01*
X11597857Y-13431667D01*
X11597857Y-13479286D01*
X11588333Y-13517381D01*
X11578809Y-13536428D01*
X11569286Y-13545952D01*
X11550238Y-13555476D01*
X11531190Y-13555476D01*
X11512143Y-13545952D01*
X11502619Y-13536428D01*
X11493095Y-13517381D01*
X11483571Y-13479286D01*
X11483571Y-13431667D01*
X11493095Y-13393571D01*
X11502619Y-13374524D01*
X11512143Y-13365000D01*
X11531190Y-13355476D01*
X11693095Y-13555476D02*
X11731190Y-13555476D01*
X11750238Y-13545952D01*
X11759762Y-13536428D01*
X11778809Y-13507857D01*
X11788333Y-13469762D01*
X11788333Y-13393571D01*
X11778809Y-13374524D01*
X11769286Y-13365000D01*
X11750238Y-13355476D01*
X11712143Y-13355476D01*
X11693095Y-13365000D01*
X11683571Y-13374524D01*
X11674048Y-13393571D01*
X11674048Y-13441190D01*
X11683571Y-13460238D01*
X11693095Y-13469762D01*
X11712143Y-13479286D01*
X11750238Y-13479286D01*
X11769286Y-13469762D01*
X11778809Y-13460238D01*
X11788333Y-13441190D01*
X11912143Y-13355476D02*
X11931190Y-13355476D01*
X11950238Y-13365000D01*
X11959762Y-13374524D01*
X11969286Y-13393571D01*
X11978809Y-13431667D01*
X11978809Y-13479286D01*
X11969286Y-13517381D01*
X11959762Y-13536428D01*
X11950238Y-13545952D01*
X11931190Y-13555476D01*
X11912143Y-13555476D01*
X11893095Y-13545952D01*
X11883571Y-13536428D01*
X11874048Y-13517381D01*
X11864524Y-13479286D01*
X11864524Y-13431667D01*
X11874048Y-13393571D01*
X11883571Y-13374524D01*
X11893095Y-13365000D01*
X11912143Y-13355476D01*
X12150238Y-13355476D02*
X12112143Y-13355476D01*
X12093095Y-13365000D01*
X12083571Y-13374524D01*
X12064524Y-13403095D01*
X12055000Y-13441190D01*
X12055000Y-13517381D01*
X12064524Y-13536428D01*
X12074048Y-13545952D01*
X12093095Y-13555476D01*
X12131190Y-13555476D01*
X12150238Y-13545952D01*
X12159762Y-13536428D01*
X12169286Y-13517381D01*
X12169286Y-13469762D01*
X12159762Y-13450714D01*
X12150238Y-13441190D01*
X12131190Y-13431667D01*
X12093095Y-13431667D01*
X12074048Y-13441190D01*
X12064524Y-13450714D01*
X12055000Y-13469762D01*
X12245476Y-13355476D02*
X12245476Y-13393571D01*
X12321667Y-13355476D02*
X12321667Y-13393571D01*
X12616905Y-13631667D02*
X12607381Y-13622143D01*
X12588333Y-13593571D01*
X12578809Y-13574524D01*
X12569286Y-13545952D01*
X12559762Y-13498333D01*
X12559762Y-13460238D01*
X12569286Y-13412619D01*
X12578809Y-13384048D01*
X12588333Y-13365000D01*
X12607381Y-13336428D01*
X12616905Y-13326905D01*
X12674048Y-13355476D02*
X12797857Y-13355476D01*
X12731190Y-13431667D01*
X12759762Y-13431667D01*
X12778809Y-13441190D01*
X12788333Y-13450714D01*
X12797857Y-13469762D01*
X12797857Y-13517381D01*
X12788333Y-13536428D01*
X12778809Y-13545952D01*
X12759762Y-13555476D01*
X12702619Y-13555476D01*
X12683571Y-13545952D01*
X12674048Y-13536428D01*
X13035952Y-13555476D02*
X13035952Y-13355476D01*
X13121667Y-13555476D02*
X13121667Y-13450714D01*
X13112143Y-13431667D01*
X13093095Y-13422143D01*
X13064524Y-13422143D01*
X13045476Y-13431667D01*
X13035952Y-13441190D01*
X13245476Y-13555476D02*
X13226428Y-13545952D01*
X13216905Y-13536428D01*
X13207381Y-13517381D01*
X13207381Y-13460238D01*
X13216905Y-13441190D01*
X13226428Y-13431667D01*
X13245476Y-13422143D01*
X13274048Y-13422143D01*
X13293095Y-13431667D01*
X13302619Y-13441190D01*
X13312143Y-13460238D01*
X13312143Y-13517381D01*
X13302619Y-13536428D01*
X13293095Y-13545952D01*
X13274048Y-13555476D01*
X13245476Y-13555476D01*
X13426428Y-13555476D02*
X13407381Y-13545952D01*
X13397857Y-13526905D01*
X13397857Y-13355476D01*
X13578809Y-13545952D02*
X13559762Y-13555476D01*
X13521667Y-13555476D01*
X13502619Y-13545952D01*
X13493095Y-13526905D01*
X13493095Y-13450714D01*
X13502619Y-13431667D01*
X13521667Y-13422143D01*
X13559762Y-13422143D01*
X13578809Y-13431667D01*
X13588333Y-13450714D01*
X13588333Y-13469762D01*
X13493095Y-13488809D01*
X13664524Y-13545952D02*
X13683571Y-13555476D01*
X13721667Y-13555476D01*
X13740714Y-13545952D01*
X13750238Y-13526905D01*
X13750238Y-13517381D01*
X13740714Y-13498333D01*
X13721667Y-13488809D01*
X13693095Y-13488809D01*
X13674048Y-13479286D01*
X13664524Y-13460238D01*
X13664524Y-13450714D01*
X13674048Y-13431667D01*
X13693095Y-13422143D01*
X13721667Y-13422143D01*
X13740714Y-13431667D01*
X13816905Y-13631667D02*
X13826428Y-13622143D01*
X13845476Y-13593571D01*
X13855000Y-13574524D01*
X13864524Y-13545952D01*
X13874048Y-13498333D01*
X13874048Y-13460238D01*
X13864524Y-13412619D01*
X13855000Y-13384048D01*
X13845476Y-13365000D01*
X13826428Y-13336428D01*
X13816905Y-13326905D01*
M02*
