%TF.GenerationSoftware,KiCad,Pcbnew,(6.0.10)*%
%TF.CreationDate,2023-01-13T18:11:07+01:00*%
%TF.ProjectId,InterfaceS88GleisboxRPi,496e7465-7266-4616-9365-533838476c65,rev?*%
%TF.SameCoordinates,Original*%
%TF.FileFunction,Legend,Bot*%
%TF.FilePolarity,Positive*%
%FSLAX46Y46*%
G04 Gerber Fmt 4.6, Leading zero omitted, Abs format (unit mm)*
G04 Created by KiCad (PCBNEW (6.0.10)) date 2023-01-13 18:11:07*
%MOMM*%
%LPD*%
G01*
G04 APERTURE LIST*
%ADD10C,0.300000*%
%ADD11C,0.150000*%
%ADD12C,0.120000*%
%ADD13R,3.000000X3.000000*%
%ADD14C,3.000000*%
%ADD15C,3.450000*%
%ADD16C,1.650000*%
%ADD17R,1.500000X1.500000*%
%ADD18C,3.251200*%
%ADD19C,1.397000*%
%ADD20C,6.200000*%
%ADD21R,1.500000X1.050000*%
%ADD22O,1.500000X1.050000*%
%ADD23R,1.700000X1.700000*%
%ADD24O,1.700000X1.700000*%
%ADD25R,1.600000X1.600000*%
%ADD26O,1.600000X1.600000*%
%ADD27C,2.300000*%
G04 APERTURE END LIST*
D10*
X129263571Y-56652142D02*
X127763571Y-56652142D01*
X128263571Y-57366428D02*
X129263571Y-57366428D01*
X128406428Y-57366428D02*
X128335000Y-57437857D01*
X128263571Y-57580714D01*
X128263571Y-57795000D01*
X128335000Y-57937857D01*
X128477857Y-58009285D01*
X129263571Y-58009285D01*
X128263571Y-58509285D02*
X128263571Y-59080714D01*
X127763571Y-58723571D02*
X129049285Y-58723571D01*
X129192142Y-58795000D01*
X129263571Y-58937857D01*
X129263571Y-59080714D01*
X129192142Y-60152142D02*
X129263571Y-60009285D01*
X129263571Y-59723571D01*
X129192142Y-59580714D01*
X129049285Y-59509285D01*
X128477857Y-59509285D01*
X128335000Y-59580714D01*
X128263571Y-59723571D01*
X128263571Y-60009285D01*
X128335000Y-60152142D01*
X128477857Y-60223571D01*
X128620714Y-60223571D01*
X128763571Y-59509285D01*
X129263571Y-60866428D02*
X128263571Y-60866428D01*
X128549285Y-60866428D02*
X128406428Y-60937857D01*
X128335000Y-61009285D01*
X128263571Y-61152142D01*
X128263571Y-61295000D01*
X128263571Y-61580714D02*
X128263571Y-62152142D01*
X129263571Y-61795000D02*
X127977857Y-61795000D01*
X127835000Y-61866428D01*
X127763571Y-62009285D01*
X127763571Y-62152142D01*
X129263571Y-63295000D02*
X128477857Y-63295000D01*
X128335000Y-63223571D01*
X128263571Y-63080714D01*
X128263571Y-62795000D01*
X128335000Y-62652142D01*
X129192142Y-63295000D02*
X129263571Y-63152142D01*
X129263571Y-62795000D01*
X129192142Y-62652142D01*
X129049285Y-62580714D01*
X128906428Y-62580714D01*
X128763571Y-62652142D01*
X128692142Y-62795000D01*
X128692142Y-63152142D01*
X128620714Y-63295000D01*
X129192142Y-64652142D02*
X129263571Y-64509285D01*
X129263571Y-64223571D01*
X129192142Y-64080714D01*
X129120714Y-64009285D01*
X128977857Y-63937857D01*
X128549285Y-63937857D01*
X128406428Y-64009285D01*
X128335000Y-64080714D01*
X128263571Y-64223571D01*
X128263571Y-64509285D01*
X128335000Y-64652142D01*
X129192142Y-65866428D02*
X129263571Y-65723571D01*
X129263571Y-65437857D01*
X129192142Y-65295000D01*
X129049285Y-65223571D01*
X128477857Y-65223571D01*
X128335000Y-65295000D01*
X128263571Y-65437857D01*
X128263571Y-65723571D01*
X128335000Y-65866428D01*
X128477857Y-65937857D01*
X128620714Y-65937857D01*
X128763571Y-65223571D01*
X129192142Y-67652142D02*
X129263571Y-67866428D01*
X129263571Y-68223571D01*
X129192142Y-68366428D01*
X129120714Y-68437857D01*
X128977857Y-68509285D01*
X128835000Y-68509285D01*
X128692142Y-68437857D01*
X128620714Y-68366428D01*
X128549285Y-68223571D01*
X128477857Y-67937857D01*
X128406428Y-67795000D01*
X128335000Y-67723571D01*
X128192142Y-67652142D01*
X128049285Y-67652142D01*
X127906428Y-67723571D01*
X127835000Y-67795000D01*
X127763571Y-67937857D01*
X127763571Y-68295000D01*
X127835000Y-68509285D01*
X128406428Y-69366428D02*
X128335000Y-69223571D01*
X128263571Y-69152142D01*
X128120714Y-69080714D01*
X128049285Y-69080714D01*
X127906428Y-69152142D01*
X127835000Y-69223571D01*
X127763571Y-69366428D01*
X127763571Y-69652142D01*
X127835000Y-69795000D01*
X127906428Y-69866428D01*
X128049285Y-69937857D01*
X128120714Y-69937857D01*
X128263571Y-69866428D01*
X128335000Y-69795000D01*
X128406428Y-69652142D01*
X128406428Y-69366428D01*
X128477857Y-69223571D01*
X128549285Y-69152142D01*
X128692142Y-69080714D01*
X128977857Y-69080714D01*
X129120714Y-69152142D01*
X129192142Y-69223571D01*
X129263571Y-69366428D01*
X129263571Y-69652142D01*
X129192142Y-69795000D01*
X129120714Y-69866428D01*
X128977857Y-69937857D01*
X128692142Y-69937857D01*
X128549285Y-69866428D01*
X128477857Y-69795000D01*
X128406428Y-69652142D01*
X128406428Y-70795000D02*
X128335000Y-70652142D01*
X128263571Y-70580714D01*
X128120714Y-70509285D01*
X128049285Y-70509285D01*
X127906428Y-70580714D01*
X127835000Y-70652142D01*
X127763571Y-70795000D01*
X127763571Y-71080714D01*
X127835000Y-71223571D01*
X127906428Y-71295000D01*
X128049285Y-71366428D01*
X128120714Y-71366428D01*
X128263571Y-71295000D01*
X128335000Y-71223571D01*
X128406428Y-71080714D01*
X128406428Y-70795000D01*
X128477857Y-70652142D01*
X128549285Y-70580714D01*
X128692142Y-70509285D01*
X128977857Y-70509285D01*
X129120714Y-70580714D01*
X129192142Y-70652142D01*
X129263571Y-70795000D01*
X129263571Y-71080714D01*
X129192142Y-71223571D01*
X129120714Y-71295000D01*
X128977857Y-71366428D01*
X128692142Y-71366428D01*
X128549285Y-71295000D01*
X128477857Y-71223571D01*
X128406428Y-71080714D01*
X128692142Y-73152142D02*
X128692142Y-74295000D01*
X127835000Y-76937857D02*
X127763571Y-76795000D01*
X127763571Y-76580714D01*
X127835000Y-76366428D01*
X127977857Y-76223571D01*
X128120714Y-76152142D01*
X128406428Y-76080714D01*
X128620714Y-76080714D01*
X128906428Y-76152142D01*
X129049285Y-76223571D01*
X129192142Y-76366428D01*
X129263571Y-76580714D01*
X129263571Y-76723571D01*
X129192142Y-76937857D01*
X129120714Y-77009285D01*
X128620714Y-77009285D01*
X128620714Y-76723571D01*
X129263571Y-77866428D02*
X129192142Y-77723571D01*
X129049285Y-77652142D01*
X127763571Y-77652142D01*
X129192142Y-79009285D02*
X129263571Y-78866428D01*
X129263571Y-78580714D01*
X129192142Y-78437857D01*
X129049285Y-78366428D01*
X128477857Y-78366428D01*
X128335000Y-78437857D01*
X128263571Y-78580714D01*
X128263571Y-78866428D01*
X128335000Y-79009285D01*
X128477857Y-79080714D01*
X128620714Y-79080714D01*
X128763571Y-78366428D01*
X129263571Y-79723571D02*
X128263571Y-79723571D01*
X127763571Y-79723571D02*
X127835000Y-79652142D01*
X127906428Y-79723571D01*
X127835000Y-79795000D01*
X127763571Y-79723571D01*
X127906428Y-79723571D01*
X129192142Y-80366428D02*
X129263571Y-80509285D01*
X129263571Y-80795000D01*
X129192142Y-80937857D01*
X129049285Y-81009285D01*
X128977857Y-81009285D01*
X128835000Y-80937857D01*
X128763571Y-80795000D01*
X128763571Y-80580714D01*
X128692142Y-80437857D01*
X128549285Y-80366428D01*
X128477857Y-80366428D01*
X128335000Y-80437857D01*
X128263571Y-80580714D01*
X128263571Y-80795000D01*
X128335000Y-80937857D01*
X129263571Y-81652142D02*
X127763571Y-81652142D01*
X128335000Y-81652142D02*
X128263571Y-81795000D01*
X128263571Y-82080714D01*
X128335000Y-82223571D01*
X128406428Y-82295000D01*
X128549285Y-82366428D01*
X128977857Y-82366428D01*
X129120714Y-82295000D01*
X129192142Y-82223571D01*
X129263571Y-82080714D01*
X129263571Y-81795000D01*
X129192142Y-81652142D01*
X129263571Y-83223571D02*
X129192142Y-83080714D01*
X129120714Y-83009285D01*
X128977857Y-82937857D01*
X128549285Y-82937857D01*
X128406428Y-83009285D01*
X128335000Y-83080714D01*
X128263571Y-83223571D01*
X128263571Y-83437857D01*
X128335000Y-83580714D01*
X128406428Y-83652142D01*
X128549285Y-83723571D01*
X128977857Y-83723571D01*
X129120714Y-83652142D01*
X129192142Y-83580714D01*
X129263571Y-83437857D01*
X129263571Y-83223571D01*
X129263571Y-84223571D02*
X128263571Y-85009285D01*
X128263571Y-84223571D02*
X129263571Y-85009285D01*
X128692142Y-86723571D02*
X128692142Y-87866428D01*
X129263571Y-90580714D02*
X128549285Y-90080714D01*
X129263571Y-89723571D02*
X127763571Y-89723571D01*
X127763571Y-90295000D01*
X127835000Y-90437857D01*
X127906428Y-90509285D01*
X128049285Y-90580714D01*
X128263571Y-90580714D01*
X128406428Y-90509285D01*
X128477857Y-90437857D01*
X128549285Y-90295000D01*
X128549285Y-89723571D01*
X129263571Y-91223571D02*
X127763571Y-91223571D01*
X127763571Y-91795000D01*
X127835000Y-91937857D01*
X127906428Y-92009285D01*
X128049285Y-92080714D01*
X128263571Y-92080714D01*
X128406428Y-92009285D01*
X128477857Y-91937857D01*
X128549285Y-91795000D01*
X128549285Y-91223571D01*
X129263571Y-92723571D02*
X128263571Y-92723571D01*
X127763571Y-92723571D02*
X127835000Y-92652142D01*
X127906428Y-92723571D01*
X127835000Y-92795000D01*
X127763571Y-92723571D01*
X127906428Y-92723571D01*
X131678571Y-56652142D02*
X130678571Y-56652142D01*
X130964285Y-56652142D02*
X130821428Y-56723571D01*
X130750000Y-56795000D01*
X130678571Y-56937857D01*
X130678571Y-57080714D01*
X131678571Y-58366428D02*
X131678571Y-57509285D01*
X131678571Y-57937857D02*
X130178571Y-57937857D01*
X130392857Y-57795000D01*
X130535714Y-57652142D01*
X130607142Y-57509285D01*
X131535714Y-59009285D02*
X131607142Y-59080714D01*
X131678571Y-59009285D01*
X131607142Y-58937857D01*
X131535714Y-59009285D01*
X131678571Y-59009285D01*
X130178571Y-60009285D02*
X130178571Y-60152142D01*
X130250000Y-60295000D01*
X130321428Y-60366428D01*
X130464285Y-60437857D01*
X130750000Y-60509285D01*
X131107142Y-60509285D01*
X131392857Y-60437857D01*
X131535714Y-60366428D01*
X131607142Y-60295000D01*
X131678571Y-60152142D01*
X131678571Y-60009285D01*
X131607142Y-59866428D01*
X131535714Y-59795000D01*
X131392857Y-59723571D01*
X131107142Y-59652142D01*
X130750000Y-59652142D01*
X130464285Y-59723571D01*
X130321428Y-59795000D01*
X130250000Y-59866428D01*
X130178571Y-60009285D01*
X131678571Y-63080714D02*
X131678571Y-62223571D01*
X131678571Y-62652142D02*
X130178571Y-62652142D01*
X130392857Y-62509285D01*
X130535714Y-62366428D01*
X130607142Y-62223571D01*
X130178571Y-63580714D02*
X130178571Y-64509285D01*
X130750000Y-64009285D01*
X130750000Y-64223571D01*
X130821428Y-64366428D01*
X130892857Y-64437857D01*
X131035714Y-64509285D01*
X131392857Y-64509285D01*
X131535714Y-64437857D01*
X131607142Y-64366428D01*
X131678571Y-64223571D01*
X131678571Y-63795000D01*
X131607142Y-63652142D01*
X131535714Y-63580714D01*
X131107142Y-65152142D02*
X131107142Y-66295000D01*
X130178571Y-67295000D02*
X130178571Y-67437857D01*
X130250000Y-67580714D01*
X130321428Y-67652142D01*
X130464285Y-67723571D01*
X130750000Y-67795000D01*
X131107142Y-67795000D01*
X131392857Y-67723571D01*
X131535714Y-67652142D01*
X131607142Y-67580714D01*
X131678571Y-67437857D01*
X131678571Y-67295000D01*
X131607142Y-67152142D01*
X131535714Y-67080714D01*
X131392857Y-67009285D01*
X131107142Y-66937857D01*
X130750000Y-66937857D01*
X130464285Y-67009285D01*
X130321428Y-67080714D01*
X130250000Y-67152142D01*
X130178571Y-67295000D01*
X131678571Y-69223571D02*
X131678571Y-68366428D01*
X131678571Y-68795000D02*
X130178571Y-68795000D01*
X130392857Y-68652142D01*
X130535714Y-68509285D01*
X130607142Y-68366428D01*
X131107142Y-69866428D02*
X131107142Y-71009285D01*
X130321428Y-71652142D02*
X130250000Y-71723571D01*
X130178571Y-71866428D01*
X130178571Y-72223571D01*
X130250000Y-72366428D01*
X130321428Y-72437857D01*
X130464285Y-72509285D01*
X130607142Y-72509285D01*
X130821428Y-72437857D01*
X131678571Y-71580714D01*
X131678571Y-72509285D01*
X130178571Y-73437857D02*
X130178571Y-73580714D01*
X130250000Y-73723571D01*
X130321428Y-73795000D01*
X130464285Y-73866428D01*
X130750000Y-73937857D01*
X131107142Y-73937857D01*
X131392857Y-73866428D01*
X131535714Y-73795000D01*
X131607142Y-73723571D01*
X131678571Y-73580714D01*
X131678571Y-73437857D01*
X131607142Y-73295000D01*
X131535714Y-73223571D01*
X131392857Y-73152142D01*
X131107142Y-73080714D01*
X130750000Y-73080714D01*
X130464285Y-73152142D01*
X130321428Y-73223571D01*
X130250000Y-73295000D01*
X130178571Y-73437857D01*
X130321428Y-74509285D02*
X130250000Y-74580714D01*
X130178571Y-74723571D01*
X130178571Y-75080714D01*
X130250000Y-75223571D01*
X130321428Y-75295000D01*
X130464285Y-75366428D01*
X130607142Y-75366428D01*
X130821428Y-75295000D01*
X131678571Y-74437857D01*
X131678571Y-75366428D01*
X130178571Y-75866428D02*
X130178571Y-76795000D01*
X130750000Y-76295000D01*
X130750000Y-76509285D01*
X130821428Y-76652142D01*
X130892857Y-76723571D01*
X131035714Y-76795000D01*
X131392857Y-76795000D01*
X131535714Y-76723571D01*
X131607142Y-76652142D01*
X131678571Y-76509285D01*
X131678571Y-76080714D01*
X131607142Y-75937857D01*
X131535714Y-75866428D01*
X132665000Y-57437857D02*
X132593571Y-57295000D01*
X132593571Y-57080714D01*
X132665000Y-56866428D01*
X132807857Y-56723571D01*
X132950714Y-56652142D01*
X133236428Y-56580714D01*
X133450714Y-56580714D01*
X133736428Y-56652142D01*
X133879285Y-56723571D01*
X134022142Y-56866428D01*
X134093571Y-57080714D01*
X134093571Y-57223571D01*
X134022142Y-57437857D01*
X133950714Y-57509285D01*
X133450714Y-57509285D01*
X133450714Y-57223571D01*
X133093571Y-58795000D02*
X134093571Y-58795000D01*
X133093571Y-58152142D02*
X133879285Y-58152142D01*
X134022142Y-58223571D01*
X134093571Y-58366428D01*
X134093571Y-58580714D01*
X134022142Y-58723571D01*
X133950714Y-58795000D01*
X134093571Y-59509285D02*
X133093571Y-59509285D01*
X132593571Y-59509285D02*
X132665000Y-59437857D01*
X132736428Y-59509285D01*
X132665000Y-59580714D01*
X132593571Y-59509285D01*
X132736428Y-59509285D01*
X134093571Y-60866428D02*
X132593571Y-60866428D01*
X134022142Y-60866428D02*
X134093571Y-60723571D01*
X134093571Y-60437857D01*
X134022142Y-60295000D01*
X133950714Y-60223571D01*
X133807857Y-60152142D01*
X133379285Y-60152142D01*
X133236428Y-60223571D01*
X133165000Y-60295000D01*
X133093571Y-60437857D01*
X133093571Y-60723571D01*
X133165000Y-60866428D01*
X134093571Y-61795000D02*
X134022142Y-61652142D01*
X133950714Y-61580714D01*
X133807857Y-61509285D01*
X133379285Y-61509285D01*
X133236428Y-61580714D01*
X133165000Y-61652142D01*
X133093571Y-61795000D01*
X133093571Y-62009285D01*
X133165000Y-62152142D01*
X133236428Y-62223571D01*
X133379285Y-62295000D01*
X133807857Y-62295000D01*
X133950714Y-62223571D01*
X134022142Y-62152142D01*
X134093571Y-62009285D01*
X134093571Y-61795000D01*
X134093571Y-64723571D02*
X132593571Y-64723571D01*
X134022142Y-64723571D02*
X134093571Y-64580714D01*
X134093571Y-64295000D01*
X134022142Y-64152142D01*
X133950714Y-64080714D01*
X133807857Y-64009285D01*
X133379285Y-64009285D01*
X133236428Y-64080714D01*
X133165000Y-64152142D01*
X133093571Y-64295000D01*
X133093571Y-64580714D01*
X133165000Y-64723571D01*
X134022142Y-66009285D02*
X134093571Y-65866428D01*
X134093571Y-65580714D01*
X134022142Y-65437857D01*
X133879285Y-65366428D01*
X133307857Y-65366428D01*
X133165000Y-65437857D01*
X133093571Y-65580714D01*
X133093571Y-65866428D01*
X133165000Y-66009285D01*
X133307857Y-66080714D01*
X133450714Y-66080714D01*
X133593571Y-65366428D01*
X134093571Y-67866428D02*
X132593571Y-67866428D01*
X133307857Y-67866428D02*
X133307857Y-68723571D01*
X134093571Y-68723571D02*
X132593571Y-68723571D01*
X134022142Y-70009285D02*
X134093571Y-69866428D01*
X134093571Y-69580714D01*
X134022142Y-69437857D01*
X133879285Y-69366428D01*
X133307857Y-69366428D01*
X133165000Y-69437857D01*
X133093571Y-69580714D01*
X133093571Y-69866428D01*
X133165000Y-70009285D01*
X133307857Y-70080714D01*
X133450714Y-70080714D01*
X133593571Y-69366428D01*
X134093571Y-70723571D02*
X132593571Y-70723571D01*
X133522142Y-70866428D02*
X134093571Y-71295000D01*
X133093571Y-71295000D02*
X133665000Y-70723571D01*
D11*
%TO.C,J4*%
X118382714Y-87452380D02*
X117811285Y-87452380D01*
X118097000Y-87452380D02*
X118097000Y-86452380D01*
X118001761Y-86595238D01*
X117906523Y-86690476D01*
X117811285Y-86738095D01*
D12*
X117081000Y-84471000D02*
G75*
G03*
X117081000Y-84471000I-381000J0D01*
G01*
%TO.C,J1*%
X97570000Y-53100000D02*
X97570000Y-54430000D01*
X100170000Y-51830000D02*
X100170000Y-54430000D01*
X148490000Y-49230000D02*
X148490000Y-54430000D01*
X97570000Y-49230000D02*
X97570000Y-51830000D01*
X97570000Y-51830000D02*
X100170000Y-51830000D01*
X100170000Y-54430000D02*
X148490000Y-54430000D01*
X97570000Y-49230000D02*
X148490000Y-49230000D01*
X97570000Y-54430000D02*
X98900000Y-54430000D01*
%TD*%
%LPC*%
D13*
%TO.C,J5*%
X95000000Y-93900000D03*
D14*
X95000000Y-88820000D03*
%TD*%
D15*
%TO.C,J2*%
X130850000Y-98000000D03*
X145350000Y-98000000D03*
X138100000Y-98800000D03*
D16*
X142100000Y-92500000D03*
X140100000Y-92500000D03*
X134100000Y-92500000D03*
X142100000Y-95000000D03*
X138100000Y-92500000D03*
X136100000Y-92500000D03*
X134100000Y-95000000D03*
X140100000Y-95000000D03*
X138100000Y-95000000D03*
D17*
X136100000Y-95000000D03*
%TD*%
D18*
%TO.C,J4*%
X106540000Y-95900000D03*
X117970000Y-95900000D03*
D19*
X116700000Y-87000000D03*
X115430000Y-89540000D03*
X114160000Y-87000000D03*
X112890000Y-89540000D03*
X111620000Y-87000000D03*
X110350000Y-89540000D03*
X109080000Y-87000000D03*
X107810000Y-89540000D03*
%TD*%
D20*
%TO.C,*%
X152000000Y-51800000D03*
%TD*%
%TO.C,*%
X94000000Y-51800000D03*
%TD*%
%TO.C,*%
X94000000Y-100800000D03*
%TD*%
%TO.C,*%
X152000000Y-100800000D03*
%TD*%
D21*
%TO.C,U4*%
X125660000Y-86170000D03*
D22*
X125660000Y-84900000D03*
X125660000Y-83630000D03*
%TD*%
D23*
%TO.C,J3*%
X152000000Y-88080000D03*
D24*
X152000000Y-90620000D03*
%TD*%
D25*
%TO.C,U6*%
X111000000Y-67600000D03*
D26*
X113540000Y-67600000D03*
X116080000Y-67600000D03*
X118620000Y-67600000D03*
X118620000Y-59980000D03*
X116080000Y-59980000D03*
X113540000Y-59980000D03*
X111000000Y-59980000D03*
%TD*%
D25*
%TO.C,U7*%
X111100000Y-81900000D03*
D26*
X113640000Y-81900000D03*
X116180000Y-81900000D03*
X118720000Y-81900000D03*
X118720000Y-74280000D03*
X116180000Y-74280000D03*
X113640000Y-74280000D03*
X111100000Y-74280000D03*
%TD*%
D25*
%TO.C,U5*%
X98100000Y-81800000D03*
D26*
X100640000Y-81800000D03*
X103180000Y-81800000D03*
X105720000Y-81800000D03*
X105720000Y-74180000D03*
X103180000Y-74180000D03*
X100640000Y-74180000D03*
X98100000Y-74180000D03*
%TD*%
D25*
%TO.C,U8*%
X97900000Y-67800000D03*
D26*
X100440000Y-67800000D03*
X102980000Y-67800000D03*
X105520000Y-67800000D03*
X105520000Y-60180000D03*
X102980000Y-60180000D03*
X100440000Y-60180000D03*
X97900000Y-60180000D03*
%TD*%
D27*
%TO.C,Y1*%
X144300000Y-72550000D03*
X144300000Y-67650000D03*
%TD*%
D23*
%TO.C,J1*%
X98900000Y-53100000D03*
D24*
X98900000Y-50560000D03*
X101440000Y-53100000D03*
X101440000Y-50560000D03*
X103980000Y-53100000D03*
X103980000Y-50560000D03*
X106520000Y-53100000D03*
X106520000Y-50560000D03*
X109060000Y-53100000D03*
X109060000Y-50560000D03*
X111600000Y-53100000D03*
X111600000Y-50560000D03*
X114140000Y-53100000D03*
X114140000Y-50560000D03*
X116680000Y-53100000D03*
X116680000Y-50560000D03*
X119220000Y-53100000D03*
X119220000Y-50560000D03*
X121760000Y-53100000D03*
X121760000Y-50560000D03*
X124300000Y-53100000D03*
X124300000Y-50560000D03*
X126840000Y-53100000D03*
X126840000Y-50560000D03*
X129380000Y-53100000D03*
X129380000Y-50560000D03*
X131920000Y-53100000D03*
X131920000Y-50560000D03*
X134460000Y-53100000D03*
X134460000Y-50560000D03*
X137000000Y-53100000D03*
X137000000Y-50560000D03*
X139540000Y-53100000D03*
X139540000Y-50560000D03*
X142080000Y-53100000D03*
X142080000Y-50560000D03*
X144620000Y-53100000D03*
X144620000Y-50560000D03*
X147160000Y-53100000D03*
X147160000Y-50560000D03*
%TD*%
M02*
